<?xml version="1.0" encoding="utf-8"?>
<!-- Generator: Adobe Illustrator 27.4.0, SVG Export Plug-In . SVG Version: 6.00 Build 0)  -->
<svg version="1.1" xmlns="http://www.w3.org/2000/svg" xmlns:xlink="http://www.w3.org/1999/xlink" x="0px" y="0px"
	 viewBox="0 0 566.9 566.9" style="enable-background:new 0 0 566.9 566.9;" xml:space="preserve">
<style type="text/css">
	.st0{display:none;}
	.st1{fill:#FFFFFF;}
</style>
<g id="Layer_1" class="st0">
	
		<image style="display:inline;overflow:visible;opacity:0.37;" width="223" height="226" xlink:href="../../Reference/download.jpg"  transform="matrix(5.9515 0 0 5.9515 -343 -17)">
	</image>
</g>
<g id="Layer_2">
	<path d="M31.2,354.4C49,339,65.8,312.9,123,297c0.1,0,0.2-0.1,0.3-0.1c2-1.7,26.2-21.9,79.9-44.7c1.5-0.6,2.7-1.8,3.5-3.2
		c2.2-4.1,10.1-14,10.4-25c0-0.6-0.6-0.9-1.1-0.6c-4,2.4-18,9.6-32.7,0.9c-0.7-0.4-0.3-1.4,0.4-1.3c5.2,0.4,16.2,0.8,23.4-2.8
		c0.7-0.3,0.5-1.4-0.3-1.4c-4.4,0-13.1-1.4-21.2-10.8c-0.5-0.6,0.1-1.4,0.8-1.1c5.4,2.3,17.7,6.6,26.4,2.1c2.7-1.4,4.2-4.3,4-7.2
		c-0.8-12.6-0.3-53.8,34.7-87.9c0,0,0,0,0.1-0.1c1.3-1.7,51.4-51.6,78-19.2c0,0,0,0.1,0,0.1c0.3,1,8.3,9.5,11,27.7
		c0,0.2,0.1,2.4,0.3,2.5c1.3,1,2.1,4,5.6-1c0.1-0.1,0.1-2.2,0.1-2.3c0.2-3.1,4-34.8,30-35.8c0,0,0,0,0,0c1,0,44.1,1.1,66.9,99.6
		c0.1,0.2,0.2,0.4,0.5,0.5c2.8,0.8,19.7,4.8,29.7-5.4c0.6-0.6,1.5,0.1,1.1,0.8c-2.8,5.6-9.3,14.2-22.7,13.6c-0.6,0-1,0.7-0.6,1.1
		c2.5,3.1,10.4,10.4,26.4,5.7c0.7-0.2,1.2,0.7,0.7,1.2c-4.4,4-15.2,11.7-27.8,3.6c-0.5-0.3-1.1,0.1-1.1,0.6c0.2,4.8,4.2,12.1,7,30.1
		c0,0.3,0.1,0.6,0.4,0.7c7,3.1,63.8,31.3,81.6,96.5c0,0.2,0,0.4,0.1,0.5c3,3.8,42.6,58.2-38,95.7c-0.1,0-0.2,0.1-0.2,0.2
		c-1.4,1.8-17.1,20.9-22.9,43.8c0,0,0,0,0,0.1c-0.1,1.3-4.7,48.5-77,59c0,0-64,0-97-19c0,0-40.6-22.8-71.6-59.5
		c-0.2-0.3-0.6-0.3-0.9-0.1c-3.9,2.6-31,18.9-73.3,10.7c-0.1,0-0.2,0-0.3,0c-1.4,0.5-12,4.5-15.8,23.7c-1,5.1-5.5,8.7-10.7,8.5
		c-27.3-0.8-99.7-10.8-105.6-129.9C25.2,362.7,27.3,357.7,31.2,354.4z"/>
</g>
<g id="Layer_4">
	<path class="st1" d="M360,139.7c0,0-11.2,22.4-28.2,4.8c-1.3-1.3-2.1-3-2.3-4.9C328.4,128.9,324,108,306,109c0,0-64.5-0.5-66.4,86
		c0,0-1.3,65.4-29.1,78.5c0,0-55.1,9.1-82.5,55.7c-3.9,6.6-3.5,14.8,0.9,21c6.7,9.5,14.6,28.8,7.8,63.8c-1.3,6.9,1.7,13.8,7.6,17.5
		c14.7,9.2,43.3,22.2,67.8,3.4c11.1-8.5,26.5-8.5,38.8-1.9c18.6,9.9,46,26.7,76.6,52.5c0,0,21.9,26,73.9,22c0,0,40.4-2,59.2-37.5
		c0,0,14.2-29.9-6.5-21.2c0,0-25.4,8.6-53.2,10.5c-4,0.3-7.9-1-10.8-3.6c-18.8-16.5-93.8-78.9-158.6-83.8c-3.5-0.3-6.8,1.5-8.5,4.5
		c-2.3,4-5.1,10.4-6.3,19.3c0,0-7.6,9.9-6.4,1.4c0,0,1.3-23.7,13.8-37.1c0,0,8.4-9.4,7.4-16.4c0,0,8-7,8,7c0,0-0.9,3.1-2.4,6.4
		c-1.5,3.3,0.6,7.1,4.1,7.6c19.5,2.9,69.8,2.5,131.7,55.1c0,0,31.4,16.1,68,3c0,0,75.6-8.9,90.2-50.7c2.7-7.7,0.9-16.3-4.5-22.4
		c-6.1-6.9-15.6-19.3-26.1-39c0,0-19.9-35.9-60.5-57.8c-6.6-3.6-10.8-10.3-11.3-17.7c-2-29.4-6.2-94-37.7-114.9
		C391,120,366.6,98.8,360,139.7z"/>
	<path d="M405.7,155.7c0,0-32.4-32.4-37.8-13.3c0,0-5.9,15.4-20.7,15.2c0,0-17.8,3.3-23.9-17.2c-0.7-2.5-3.1-4-5.7-3.8
		c-12.4,1.2-43.6,8.2-66.7,48c-1.1,2-1.7,4.3-1.4,6.5c1.1,11.9,6.5,76.8-29.3,82.8c0,0-7.8,5.3-6.3,10.4c0,0,1.5,6.9,12,0
		c0,0,103-37.4,186.2-36.9c3.6,0,6.5-3,6.5-6.6C418.8,224.2,417.9,180,405.7,155.7z M348.3,237.3c-1.2,4.8-6.6,4-6.6,4
		c-7.8-1.2-6.1-9.5-6.1-9.5c2.1-6.7,8.2-4.6,8.2-4.6C349,230.9,348.3,237.3,348.3,237.3z M385.2,234.1c-1.3,4.6-7.1,4.1-7.1,4.1
		c-8.5-2.3-4.9-11-4.9-11c3.6-7.3,9.9-3.1,9.9-3.1C386.5,228.6,385.2,234.1,385.2,234.1z"/>
	<path class="st1" d="M74.3,385.6c0,0-4.7,9.3-12.9,4c0,0-9.6-3.8-10.1,7.8c0,0-1.2,40.6,24.6,49.1c0,0,7.2,2.1,10.7,0.2
		c0,0,22.2,17.2,41,19.8c0,0,6.9-0.2,2.3-7.8c0,0-24.2-7.4-25.5-12.7c0,0-1.9-3.5,6.3-5c0,0,10.3-1.9,6.5-8.8c0,0-25-21-28-37.5
		C89.2,394.8,83.8,376.7,74.3,385.6z"/>
</g>
</svg>
