<?xml version="1.0" encoding="utf-8"?>
<!-- Generator: Adobe Illustrator 27.4.0, SVG Export Plug-In . SVG Version: 6.00 Build 0)  -->
<svg version="1.1" xmlns="http://www.w3.org/2000/svg" xmlns:xlink="http://www.w3.org/1999/xlink" x="0px" y="0px"
	 viewBox="0 0 566.9 566.9" style="enable-background:new 0 0 566.9 566.9;" xml:space="preserve">
<style type="text/css">
	.st0{display:none;}
	.st1{fill:#FFFFFF;}
</style>
<g id="Layer_1" class="st0">
	
		<image style="display:inline;overflow:visible;" width="1701" height="2338" xlink:href="../skeleton_head.png"  transform="matrix(1.6487 0 0 1.6487 -1475 -3120)">
	</image>
</g>
<g id="Layer_2">
	<path d="M78.7,449.9c1.6,30.2,16.1,98,112.2,107.1c3.8,0.4,7.7-0.1,11.2-1.4c16.8-6.1,68.5-28.3,114.6-83.7
		c4.7-5.6,15.6-5.6,23.5-5.1c28.9,1.8,93.2-1.1,123.7-66.6c0.2-0.5,0.4-1,0.6-1.5c3.7-10,21.6-85.7,6.3-164.3
		c-0.2-1-1.2-1.7-1.8-2.4c-5.3-6.4-40.8-21-45.8-71c0,0-25-96-72-130.6c-13.4-9.9-32.9-5.4-46.8,3.9C284,48,252.7,53.2,165,57
		c-1,0-8,1-10.5,4.8c-6.5,9.8-37.1,82.1-10.3,176.4c0.4,1.6,0.6,3.2,0.5,4.8c-0.7,9-3.3,40.4-8.7,56c-0.1,0.4-0.3,0.7-0.4,1.1
		c-2.1,4.9-10.5,30,7.8,61.6c5.5,9.5,9.1,18.8,1.9,26.9c-8.1,9-29.1,32.1-53.3,42.1C83.5,434,78.2,441.7,78.7,449.9z"/>
</g>
<g id="Layer_4">
	<path class="st1" d="M130.6,448.5c0,0-2.3,11-13.6,8c0,0-12.4-1-9,11c0,0,12.4,42,45.2,43c0,0,9,0,12.4-3c0,0,31.7,11,54.3,8
		c0,0,7.9-2.3,0-8.7c0,0-30.5-0.3-33.9-5.3c0,0-3.4-3,5.7-7c0,0,11.3-5,4.5-11c0,0-36.2-14-45.2-30
		C151,453.5,138.5,436.5,130.6,448.5z"/>
	<path class="st1" d="M201,393.5c0,0,1.1,10-15.8,12c0,0-12.4,2-11.3,12c0,0,8.2,28.5,47.6,28.3c0,0,6.7,0.7,11.2-3.3
		c0,0,3.8-2.6,17.2,1.7c0,0,20.1,8.3,32.6,4.3c0,0,5.7-4.6,0-7.3c0,0-24.9-1.7-29.4-9.7c0,0-1.1-2,3.4-4c0,0,7.9-4-9-13
		c0,0-23.7-11-35-24C212.3,390.5,202.1,384.5,201,393.5z"/>
	<path class="st1" d="M452.3,258.4c-4.7-4.2-32.1-28.9-51.7-46.2c-0.5-0.4-0.7-1-0.7-1.6c0.3-8.2,1.1-70.2-30.6-99.1
		c0,0-17.9-17.9-18.1-42.7c0-0.2,0-0.4-0.1-0.6c-0.9-2.4-7.2-18.9-17.2-19.7c-0.5,0-1,0.1-1.4,0.3c-3.5,1.9-20.6,11.9-37.8,30.6
		c0,0-20.3,19.9-56.3,15c-0.1,0-0.3,0-0.4-0.1c-3-0.8-43.3-11.8-56.3-8c0,0-8.9,1-12.3,11.7c-0.1,0.2-0.1,0.4-0.1,0.6
		c0,4.3-0.1,54.5-3.4,75.6c0,0.1,0,0.1,0,0.2c-0.1,1.4-1.1,20.6,0,26.7c0,0,0,0.1,0,0.1c0.4,1.6,8.1,33.5,16.9,55.9
		c0.1,0.1,0.1,0.3,0.1,0.4c0.3,1.9,2,15.3-1.1,23.7c0,0.1,0,0.1-0.1,0.2l-13.4,29.7c-0.1,0.1-0.1,0.3-0.1,0.4
		c-0.3,1.4-1.6,9.7,4.6,18.8c0,0,15.8,24,30.5,25c0,0,18.1,2,24.9,8c0,0,45,40.8,64.3,48c0.1,0,0.2,0.1,0.2,0.1
		c1.8,0.9,23.5,12,46.2,12.9c0,0,32.4,3,46.2,0c0,0,28.6-5.4,40.3-23.9c0.9-1.5-0.3-3.3-2.2-3.2c-4.4,0.2-11.6,1.1-17.4,4.9
		c-0.1,0-0.1,0.1-0.2,0.2c-1.1,0.9-12.4,8.8-52.9,7.9c-0.1,0-0.2,0-0.3,0c-3.1-0.4-47.8-7.2-75.3-43.5c0,0-38.7-48.5-52.3-57.5
		c0,0-8.1-6.4-26.1-9.9c-2.3-0.5-2.6-3.3-0.4-4.1c1.6-0.6,3.2-1,4.6-1c0.2,0,0.4,0,0.6,0.1c2.6,0.5,21.6,4.4,31.1,11.8
		c0.2,0.1,0.3,0.3,0.4,0.4c3.1,3.9,46,58.1,75.4,72.7c0.1,0.1,0.2,0.1,0.3,0.2c1.6,1.2,16.9,11.9,38.3,11.9c0,0,32.6,0,48.5-7.9
		c0.1,0,0.2-0.1,0.3-0.2c1.4-0.9,13.4-8.7,19.9-9.9c0.2,0,0.4,0,0.6,0c2.4,0.1,18,0.7,20.1-3c0,0,8.8-19.5,9-24.8c0-0.1,0-0.2,0-0.4
		c-0.5-2.9-6.2-40.3,5.6-80.6c0.1-0.2,0.1-0.3,0.1-0.5v-4.4C453,259.3,452.8,258.8,452.3,258.4z M369.1,311.4
		c-13.8-5.9-28.3,3.1-31.8,5.5c-0.6,0.4-1.3,0.5-2,0.4c-13.7-2.6-16.9-33.8-16.9-33.8c0-3.1-5.5-8.4-8.1-10.6
		c-1.5-1.3-0.4-3.6,1.7-3.6c0.3,0,0.6,0,0.9,0.1c0.6,0.1,1.1,0.3,1.5,0.7c15.6,16.7,52.1,32.6,63,37.1c1.8,0.7,1.9,3,0.1,3.8
		c-3.2,1.4-7,0.7-8,0.5C369.4,311.5,369.3,311.5,369.1,311.4z M359.3,225.4c-0.1,0-0.2,0.1-0.3,0.1c-24.8,9.9-52.9,1.6-52.9,1.6
		c-9.2-2.2-12.1,2.5-12.5,3.3c0,0.1-0.1,0.2-0.1,0.2c-28.3,39.9-65.5,30.9-65.5,30.9c-30.5-5-38.4-39-38.4-39
		c-12.3-47.9,7.9-87.2,11.8-94.3c0.4-0.7,0.3-1.5-0.2-2.2c-5-6.2-12.9-19-14.7-21.9c-0.3-0.5-0.4-1.1-0.2-1.7
		c0.8-1.9,3.9-1.5,5.6-1.2c0.6,0.1,1.2,0.5,1.5,1c19.9,30.4,66,48.8,69.4,50.2c0.1,0.1,0.3,0.1,0.4,0.1c11.7,2.7,22.4-6.1,23.4-7
		c0.1-0.1,0.1-0.1,0.2-0.2c7.7-7.8,15.3-28.6,15.7-29.9c0,0,0-0.1,0-0.1c7.9-28.9,27.1-42.4,31.7-45.3c1.3-0.8,3.2-0.3,3.7,1
		c0.4,1.2,0.1,2.8-0.2,3.7c-0.1,0.4-0.4,0.8-0.8,1.1c-3.6,2.7-8.3,8.5-10,10.7c-0.5,0.6-0.5,1.3-0.3,2c3.9,9.1,16.9,17.1,18,17.8
		c0.1,0,0.1,0.1,0.2,0.1c37.8,18.5,39,54.2,39.1,56c0,0.1,0,0.1,0,0.2C389.4,208.6,361.6,224.2,359.3,225.4z M412.8,301
		c0,0-0.1,0-0.1,0.1c-1.7,0.8-3.8-0.6-3.4-2.3c0.8-3.8,3.1-12.9,7.4-19.9c0.1-0.2,0.2-0.5,0.3-0.7c0.4-2.8,2.7-20.8-4-36.5
		c0,0-3.1-6.3-1.2-11.6c0.8-2.2,4.3-2,4.7,0.3c0,0.2,0.1,0.5,0.1,0.8c0,0-0.8,9.5,4.9,11.5c0,0,22.5,12.7,25.7,26
		c0.3,1.1-0.5,2.1-1.7,2.4c-5.4,1.3-20.5,6.9-31.5,29.1C413.6,300.4,413.2,300.8,412.8,301z"/>
	<path class="st1" d="M292.8,204.7c0.4-4.4,1-14-1.8-20c-0.7-1.6-2.3-2.7-4.2-3c-4.4-0.8-12.9-1.1-17,6c-0.1,0.2-0.2,0.5-0.3,0.7
		c-0.9,2.4-5.1,15.4,5.9,20.2c0,0,7.4,3.8,14.7,0C291.5,207.8,292.6,206.3,292.8,204.7z"/>
	<path class="st1" d="M376.2,183.4c0.7-4.8,1.5-12.1,0.8-17.3c-0.4-3.2-3.8-5.6-7.4-5.2c-2.8,0.3-6,1.5-8.4,4.7
		c-0.2,0.3-0.4,0.7-0.6,1c-1,2.2-4.1,10.4,0,16.9c0.2,0.3,0.4,0.5,0.6,0.8c0.8,1,3,3.1,6.5,4C371.6,189.4,375.6,187,376.2,183.4z"/>
</g>
</svg>
