<?xml version="1.0" encoding="utf-8"?>
<!-- Generator: Adobe Illustrator 27.4.0, SVG Export Plug-In . SVG Version: 6.00 Build 0)  -->
<svg version="1.1" xmlns="http://www.w3.org/2000/svg" xmlns:xlink="http://www.w3.org/1999/xlink" x="0px" y="0px"
	 viewBox="0 0 566.9 566.9" style="enable-background:new 0 0 566.9 566.9;" xml:space="preserve">
<style type="text/css">
	.st0{display:none;}
	.st1{fill:#FFFFFF;}
</style>
<g id="Layer_1" class="st0">
	
		<image style="display:inline;overflow:visible;" width="1701" height="2338" xlink:href="../skeleton_head.png"  transform="matrix(1.8375 0 0 1.8375 -601 -3519)">
	</image>
</g>
<g id="Layer_2">
	<path d="M11.9,380.3c0,0-37,82.3,88.5,131.7c0,0,90.5-20.6,161.5-87.4c0,0,15.4-13.4,42.2-11.3c0,0,62.8-6.2,106-8.2
		c0,0,77.2-4.1,124.5-91.6c0,0,55.6-72-8.2-125.5c0,0-39.1-32.9-37-68.9c0,0,0-50.4-78.2-68.9c0,0-60.7-13.4-135.8,50.4
		c0,0-19.5,22.6-70,26.7c0,0-94.7,11.3-110.1,77.2c0,0-15.4,42.2,1,88.5C96.3,292.8,126.1,355.6,11.9,380.3z"/>
</g>
<g id="Layer_4">
	<path class="st1" d="M475.3,242c5.6-14.4,11.8-21.3,13.6-23.1c0.3-0.3,0.8-0.5,1.2-0.4c19.5,3.4,36,19.8,38.1,21.9
		c0.2,0.2,0.3,0.4,0.3,0.6c1.6,5.2,3.7,5.1,4.8,4.6c0.4-0.2,0.7-0.7,0.8-1.2c0.9-28.8-81.3-59.5-81.3-59.5
		c-6.6-1.9-22.2,11.6-26.6,15.6c-0.6,0.6-1.6,0.4-2.1-0.3l-2-3.3c-0.3-0.5-0.2-1.1,0.1-1.6c6-7.3,11-16.9,11.6-18.1
		c0-0.1,0.1-0.2,0.1-0.2c4.4-15.6,6.6-43.3,6.6-43.3c3.3-47.8-30.5-60.9-32.2-61.6c0,0-0.1,0-0.1,0c-38-10-64.4,20-65.6,21.4
		c0,0-0.1,0.1-0.1,0.1c-12,10.9-35.5,34.3-36.6,35.5c0,0-0.1,0.1-0.1,0.1c-36.9,30.4-115.1,37.5-119,37.8c-0.1,0-0.2,0-0.3,0
		c-27.8-4.3-51.1,24.5-51.1,24.5c-12.3,12.3-3.4,25.9-3.4,25.9c8.1,14.6,4.2,26.6,3.5,28.4c-0.1,0.2-0.1,0.3-0.3,0.4
		c-22.9,25.1-15.3,34.4-14.4,35.4c0.1,0.1,0.1,0.1,0.2,0.2c16.6,25.6,16.6,44.4,16.6,44.4c0,23.3,7.4,25.4,8.7,25.6
		c0.2,0,0.3,0.1,0.4,0.1c54,29.5,160.4,22.3,163.1,22.2c0,0,0.1,0,0.1,0c33.6-5.5,96-0.2,98.2,0c0,0,0.1,0,0.1,0
		c6,0,13-1.8,14.2-2.2c0.1,0,0.3-0.1,0.4-0.2c5.4-3.4,4.3-8.8,4.3-8.8c0-5.6-13.4-5.6-13.4-5.6c-26.7-1.1-69.1-21.2-69.1-21.2
		c-20-10-69.2-51.3-69.2-51.3c-5.7-5.6-15.5-4.4-15.5-4.4c-17.2,2.1-70.5-5-74.4-5.5c-0.2,0-0.3-0.1-0.4-0.1
		c-6.7-3.4-5.5-6.9-4.7-8.2c0.2-0.4,0.6-0.6,1.1-0.6l64-4.4c38-3.3,66.5,15.7,67.9,16.7c0,0,0.1,0,0.1,0.1
		c66.6,36,139.5,28.1,142.4,27.8c0.1,0,0.1,0,0.2,0c11.6-3.1,50.1-7.2,55.1-7.7c0.3,0,0.7-0.2,0.9-0.5c20.3-23.2,20.7-38.4,20-43.4
		c-0.1-0.9-1-1.4-1.8-1.1c-2.5,0.9-4.1-0.7-4.1-0.7c-10.1-9.1-55.9-0.8-64.4,0.8c-0.7,0.1-1.5-0.4-1.6-1.1l-0.8-4.8
		c-0.1-0.3,0-0.7,0.2-1c3.1-4.2,11.5-4.2,14.3-4.1C474.5,242.9,475.1,242.6,475.3,242z M370.5,246c-4.7-7.8-29.1-44.4-75.6-47.5
		c-0.2,0-0.5-0.1-0.7-0.2l-4.4-3.2c-1-0.7-0.6-2.4,0.7-2.5c3.9-0.2,10.1-0.4,14.3,0.1c0.7,0.1,1.3-0.3,1.5-1
		c2.1-8.2,15.6-57.6,47.2-91.2c0,0,0,0,0.1-0.1c1-0.9,20.6-18.8,42.3-13.3c0,0,31.2,7.8,26.7,52.3c0,0,0,0.1,0,0.1
		c0,1.7-1.8,61.9-50,106.8C372,246.8,370.9,246.7,370.5,246z"/>
	<path class="st1" d="M399.6,192.5c3.4-7,9.8-21.3,11.3-31.4c0.4-2.4-1.7-4.5-4.4-4.5c-4.9,0.1-12.6,2-18.8,12c0,0-9,15.4,5.1,25.5
		C395.1,195.7,398.4,194.9,399.6,192.5z"/>
	<path class="st1" d="M124.2,362.9c0,0-0.7,11.5-11.3,9.6c0,0-11.4,0.3-6.9,12.2c0,0,16.2,41.6,46,39.2c0,0,8.2-1,10.9-4.4
		c0,0,29.9,7.9,50,2.5c0,0,6.9-3.2-1-8.8c0,0-27.6,2.9-31.3-1.9c0,0-3.4-2.7,4.3-7.7c0,0,9.6-6.3,2.8-11.7c0,0-34.4-10.5-44.5-25.9
		C143.2,365.9,129.9,349.8,124.2,362.9z"/>
	<path class="st1" d="M59.6,401.6c0,0-2.2,12.3-13.4,8.9c0,0-12.3-1.1-8.9,12.3c0,0,12.3,46.9,44.7,48c0,0,8.9,0,12.3-3.4
		c0,0,31.3,12.3,53.6,8.9c0,0,7.8-2.6,0-9.7c0,0-30.2-0.4-33.5-6c0,0-3.4-3.4,5.6-7.8c0,0,11.2-5.6,4.5-12.3
		c0,0-35.7-15.6-44.7-33.5C79.7,407.2,67.4,388.2,59.6,401.6z"/>
</g>
</svg>
