<?xml version="1.0" encoding="utf-8"?>
<!-- Generator: Adobe Illustrator 27.4.0, SVG Export Plug-In . SVG Version: 6.00 Build 0)  -->
<svg version="1.1" xmlns="http://www.w3.org/2000/svg" xmlns:xlink="http://www.w3.org/1999/xlink" x="0px" y="0px"
	 viewBox="0 0 566.9 566.9" style="enable-background:new 0 0 566.9 566.9;" xml:space="preserve">
<style type="text/css">
	.st0{display:none;}
	.st1{fill:#FFFFFF;}
</style>
<g id="Layer_1" class="st0">
	
		<image style="display:inline;overflow:visible;" width="1701" height="2338" xlink:href="../skeleton_head.png"  transform="matrix(1.6292 0 0 1.6292 -258 -983)">
	</image>
</g>
<g id="Layer_2">
	<path d="M8,397.9c8.3-21.2,34.2-92.6,23.1-133.3c-0.4-1.5-0.9-3-1.6-4.4c-5.1-11.6-33.6-96.6,12-136.4c0.6-0.6,1.3-1.1,1.9-1.8
		c7.7-7.8,70.8-69.2,162.7-63.1c0.8,0.1,1.6,0.1,2.4,0.1c10.1-0.1,95.2,8.8,179.2,62.8c1.3,0.8,2.7,1.3,4.1,1.9
		c14.1,5.1,95.3,35.5,122.5,59c0,0,48.3,39.5,44.6,83.6c-0.2,2.3-0.7,4.5-1.3,6.7c-4,12.7-22,53.7-92.7,79.5
		c0,0-51.8,17.3-109.1,13.5c-0.7,0-1.4-0.1-2.1-0.2c-9.3-1.2-80.5-10.1-96.8,5.3c0,0-89.4,77.9-139.3,129.4c-7.7,8-19.2,11.2-30,8.5
		c-27.6-6.9-76.2-28.7-81.5-97.5C5.5,406.8,6.3,402.2,8,397.9z"/>
</g>
<g id="Layer_3">
	<path class="st1" d="M525.3,239.2c-10.6-0.9-43.9,6-45.5,6.4c0,0-0.1,0-0.1,0c-17.3,5.7-26.7,3.7-28.4,3.2c-0.2,0-0.3-0.1-0.5-0.2
		c-2.3-1.8-2.6-3.6-2.4-4.8c0.1-0.8,0.8-1.3,1.6-1.1c1.5,0.3,2.8,0.2,3.8,0c0.8-0.1,1.3-0.9,1.1-1.6c-3.1-12.2,7.8-22.1,7.8-22.1
		c18.1-16,47.9-2.1,47.9-2.1c1.4,0.7,5.2,0.5,7.6,0.2c1-0.1,1.5-1.2,1-2.1c-10.8-16.1-56.6-19.3-58.5-19.4c0,0-0.1,0-0.1,0
		c-77.2-12.5-119.6-50.7-121.2-52.1c0,0-0.1-0.1-0.1-0.1c-31.5-35.6-89.8-51.6-91.4-52.1c0,0,0,0-0.1,0
		c-48.9-17-118.9,5.7-118.9,5.7c-48.6,18-70.5,46.2-71.5,47.5c0,0,0,0.1-0.1,0.1c-11.7,18.1-5.3,28.7-5.3,28.7
		c4.3,7.4,7.4,22.3,7.4,22.3c1,7.7-11.1,20.4-13.4,22.7c-0.2,0.2-0.4,0.6-0.4,0.9v9.3c1,28,53.7,51,56.3,52.1c0.1,0,0.1,0,0.2,0.1
		c12,2.8,21.6,8.8,23.9,10.3c0.3,0.2,0.5,0.5,0.6,0.8c1.2,5.4,21.7,17.7,23.3,18.6c0.1,0,0.1,0.1,0.2,0.1
		c10.7,9.5,29.7,8.4,29.7,8.4c28.7-2.1,59.4,3.8,61.6,4.2c0.1,0,0.2,0,0.2,0.1c31.4,13.5,101.5,10.7,104.1,10.6c0.1,0,0.1,0,0.2,0
		c11.2-2,23.4-2.1,24.3-2.1c0,0,0.1,0,0.1,0c21,2,41.1-5.4,43.4-6.3c0.1-0.1,0.3-0.1,0.4-0.2c5-4.2-2.3-6.2-2.3-6.2
		c-35.1-13.8-128.8-13.8-128.8-13.8c-46.6,0-65.2-10.6-66.9-11.6c-0.1-0.1-0.2-0.1-0.2-0.2c-10.7-10.7-21.4-16-23.1-16.8
		c-0.2-0.1-0.3-0.1-0.5-0.1c-8.7-0.5-30.6-23.4-30.6-23.4l-49.8-49.8c-0.1-0.1-0.2-0.2-0.3-0.4c-3.3-7.4-12.7-14-12.7-14
		c-2.9-2.4-1.9-4.3-0.9-5.3c0.5-0.5,1.2-0.5,1.7-0.2l22.2,15.2c0.2,0.2,0.4,0.4,0.5,0.7c3.2,8.7,37.1,28.3,37.1,28.3
		c11.4,6.2,35.9,22.5,37.2,23.4c0,0,0.1,0.1,0.1,0.1c31.2,27,72.7,27.6,74.6,27.6c0.1,0,0.1,0,0.1,0c24.4,3.1,119.3,11.4,122.9,11.7
		c0.1,0,0.1,0,0.2,0c11.3-1,35.1-0.1,37,0c0.1,0,0.2,0,0.2,0c25.8,6.2,40.5,2.3,41.3,2.1c0,0,0.1,0,0.1,0
		c28.7-5.3,55.3-24.5,55.3-24.5c3.5-2.7,2.7-7.5,2.3-9.1c-0.1-0.3,0-0.7,0.2-1l2.8-4.6c0.1-0.1,0.1-0.3,0.2-0.4
		c1.7-8.6-6.9-12.9-8.4-13.5C525.6,239.3,525.4,239.2,525.3,239.2z M287.1,165.9c-16.2,50.4-46.6,71.2-49.7,73.2
		c-0.2,0.1-0.4,0.2-0.6,0.2c-6.3,0.8-3.6-3.3-3-4.2c0.1-0.1,0.1-0.2,0.2-0.2c14.7-12.1,20.9-20.1,23.5-24.4c0.7-1.1-0.6-2.5-1.7-1.9
		c-11,5.7-27.2,4-27.2,4c-23.8,0-32.5-31.3-33-32.9c0,0,0-0.1,0-0.1c-7.3-45,26.9-67.3,27.9-68c0,0,0,0,0.1,0
		c27.9-16.4,51.1-1.2,52.8,0c0.1,0,0.1,0.1,0.2,0.1c17.5,16.6,10.9,52.2,10.6,54.1C287.2,165.8,287.2,165.9,287.1,165.9z"/>
	<ellipse class="st1" cx="264.3" cy="153.6" rx="9.6" ry="14.9"/>
	<path class="st1" d="M88.2,322.6c0,0,1.6,13.9-10.2,13.3c0,0-12.2,2.1-4.9,15.7c0,0,26,47.6,57.6,40.1c0,0,4.6-1.3,8-3.8
		c2.4-1.8,5.5-2.5,8.5-1.9c8.5,1.5,25.2,3.1,39.8-3.8c0,0,6.8-4.9-2.9-10.5c0,0-20.2,5.5-25.1,0.3c0,0-4.2-2.7,3-10
		c0,0,9.1-9.1,0.6-14.5c0,0-39.2-7.4-53.2-24.3C109.3,323.2,91.7,305.9,88.2,322.6z"/>
	<path class="st1" d="M46.7,398.6c0,0,0.8,14-11,12.7c0,0-12.3,1.4-5.8,15.4c0,0,23.3,49,55.2,43.3c0,0,4.7-1,8.2-3.3
		c2.5-1.7,5.7-2.2,8.6-1.5c8.4,2,25,4.5,39.9-1.5c0,0,7-4.5-2.3-10.6c0,0-20.5,4.3-25.1-1.1c0,0-4.1-3,3.6-9.8c0,0,9.6-8.5,1.4-14.5
		c0,0-38.7-9.6-51.8-27.3C67.7,400.5,51.2,382.2,46.7,398.6z"/>
</g>
</svg>
