<?xml version="1.0" encoding="utf-8"?>
<!-- Generator: Adobe Illustrator 27.4.0, SVG Export Plug-In . SVG Version: 6.00 Build 0)  -->
<svg version="1.1" xmlns="http://www.w3.org/2000/svg" xmlns:xlink="http://www.w3.org/1999/xlink" x="0px" y="0px"
	 viewBox="0 0 566.9 566.9" style="enable-background:new 0 0 566.9 566.9;" xml:space="preserve">
<style type="text/css">
	.st0{display:none;}
	.st1{fill:#FFFFFF;}
</style>
<g id="Layer_1" class="st0">
	
		<image style="display:inline;overflow:visible;" width="1701" height="2338" xlink:href="../skeleton_head.png"  transform="matrix(1.5622 0 0 1.5622 -304 -38)">
	</image>
</g>
<g id="Layer_4">
	<path d="M481.7,375.4c24.5-4,86.5-22.8,69-109.1c-0.5-2.5-1.5-4.9-2.9-7.1c-4.2-6.3-14.9-20.1-33.9-33.3
		c-8.1-5.6-14-13.8-16.9-23.2c-9.2-30.3-35.8-95.4-93.9-94.3c-5.2,0.1-10.4-1.1-15-3.6c-23.1-12.5-96-53.3-136.2-37.1
		c0,0-78.6,28.3-122.4,36.9c-1.6,0.3-3.1,0.8-4.5,1.4c-12.1,5.6-63.2,34.8-65,130.9c-0.1,3.4-1.2,6.6-2.7,9.7
		C47.7,265.8,11.7,344.6,9,433.9c-0.4,12.7,5.1,24.9,15,33c26.1,21.2,82.7,59.4,144.2,51.4c18.5-2.4,32.2-18.2,32.6-36.8
		c0.7-36.7,4.6-94.5,23.5-78.4c0.5,0.5,1.1,0.9,1.6,1.3c9.7,7,97.5,68.4,168.7,56c0.5-0.1,1.1-0.2,1.6-0.2c9.4-0.7,99-9.6,78.8-74.7
		C473.6,380.9,477,376.2,481.7,375.4z"/>
</g>
<g id="Layer_3">
	<path class="st1" d="M530.2,276.5c-0.1-0.3-0.2-0.5-0.3-0.7c-1.4-2.4-10.1-16.8-27.9-26.7c0,0-27-14-38.9-47.5c0-0.1,0-0.1-0.1-0.2
		c-0.6-2.2-15.5-52-33.5-60.4c0,0-25.7-15-40.9-13c-0.1,0-0.2,0-0.4,0c-1.3,0-8.2-0.4-16-4.3c0,0-66.7-30.1-86.3-34.5
		c-0.1,0-0.2,0-0.3-0.1c-1.9-0.2-18.3-1.7-37.6,5.4c0,0-95.1,35.3-107.9,38.8c-0.1,0-0.3,0.1-0.4,0.2c-2.7,1.3-30.7,15.1-39.4,42
		c0,0-10,31.1-10.2,45.2c0,0.2,0,0.3-0.1,0.5c-0.6,2.9-6.4,30.9-6.4,46.2c0,0-2.2,38.9,43.2,36.7c0,0,24.1-1.6,44.5,17
		c0,0,46.3,44.6,77.6,68.4c0,0,50.5,36.6,83,42.1c0.2,0,0.3,0.1,0.4,0.1c2.4,0.9,26.6,9.3,63.5,3.2c0.1,0,0.1,0,0.2,0
		c1.8-0.4,27.2-6.5,35.6-8.6c0,0,23.8-6.5,17.3-30.3c0,0-7.4-27.3-19-37.4c-0.4-0.3-0.7-0.7-0.8-1.2c-0.4-1.3-0.7-3.5,2.5-3.5
		c0,0,64.8-6.5,76.7-19.5C508.5,334.5,537.4,305.6,530.2,276.5z M249.1,155.1c17.8-11.8,39.1-6,50.8-1.2c2.6,1.1,4.9-2.1,3.1-4.2
		c-7.8-9.2-18.6-15.3-20.9-16.6c-0.3-0.2-0.6-0.4-0.8-0.7c0,0-0.1-0.1-0.1-0.1c-1.6-2.2,0.9-5.1,3.4-3.9
		c32.1,15.2,39.2,38.6,39.2,38.6c15.5,42.6,0.6,79.1-2.6,86.3c-0.4,0.8-1.1,1.4-2,1.5c-33,5.8-64.6-10-64.6-10
		c-35.7-19.5-33.5-43.2-33.5-43.2C218.9,174.6,249.1,155.1,249.1,155.1z M382.2,414.5c-0.1,0-0.3,0-0.4,0
		c-46.4,9.5-97.1-55.2-97.1-55.2c-37.7-47.8-73.4-66.9-87.6-73.1c-2.2-1-2.1-4.1,0.1-5l1.3-0.5c0.5-0.2,1.1-0.2,1.6-0.1
		c24.6,6.5,66.6,33.3,71.2,36.3c0.3,0.2,0.5,0.4,0.7,0.7c25.7,35.9,123.8,37.4,136.7,37.4c0.9,0,1.7,0.4,2.2,1.2
		c14.4,21.1,15.4,37.7,15.4,37.7C429.5,412.7,385.5,414.4,382.2,414.5z M439,334.9c-3.8-9-7-13.1-8.5-14.6c-0.5-0.5-1.2-0.8-2-0.8
		c-12.6,0.2-24.4-14.7-24.4-14.7c-10.3-12.3,1.2-24.8,3.5-27.1c0.2-0.2,0.5-0.4,0.9-0.6c10.2-4.2,17.9,5.7,19.7,8.3
		c0.3,0.4,0.4,0.8,0.5,1.3c1.3,12.5,13.8,38.7,17,45.4c0.5,1.1,0.3,2.3-0.6,3.1c-2,1.9-3.7,1.7-4.8,1.2
		C439.7,336,439.3,335.5,439,334.9z M520.3,301.8c-0.7,1.3-7.9,14.7-22.4,16.4c-0.9,0.1-1.6,0.6-2,1.4c-1.3,2.5-4.3,8-6.1,12.1
		c-0.5,1.1-1.6,1.7-2.7,1.6c-2.2-0.3-5.2-1-4.5-3.1c0,0,16-36.2,20.4-51.5c0.1-0.3,0.2-0.5,0.3-0.7c1-1.5,5.2-6.6,12.5-4
		c0.2,0.1,0.4,0.2,0.6,0.3c1.9,1.2,11.9,8.5,4.1,27.4C520.4,301.7,520.4,301.7,520.3,301.8z"/>
	<path class="st1" d="M294,190.9c1.4,0.5,2.9-0.3,3.2-1.7c1.2-4.7,2.7-14-3.3-18.2c0,0-9.3-6.8-21,10.5c0,0-15.3,25.8-11.3,41.1
		c0,0,0.8,7.5,11.3,4.1c0,0,8.7-4.8,12.1-11.8c0.5-1.1,0.1-2.4-0.8-3.1c-3-2.1-8.7-7.5-4.6-16C279.7,196,283.7,186.9,294,190.9z"/>
	<path class="st1" d="M81.7,327.8c0,0,2.3,14.1-9.8,14c0,0-12.3,2.7-4.2,16.2c0,0,28.8,47.1,60.6,37.9c0,0,4.6-1.5,7.9-4.2
		c2.4-2,5.5-2.8,8.6-2.4c8.8,1.1,25.8,1.9,40.3-5.8c0,0,6.6-5.3-3.5-10.5c0,0-20.3,6.6-25.5,1.6c0,0-4.5-2.6,2.6-10.3
		c0,0,8.8-9.7-0.1-14.8c0,0-40.3-5.5-55.4-22.1C103.2,327.4,84.4,310.7,81.7,327.8z"/>
	<path class="st1" d="M54.3,409.1c0,0,1.4,14.2-10.6,13.4c0,0-12.5,1.9-5.3,15.9c0,0,25.8,48.9,58.1,41.7c0,0,4.7-1.2,8.2-3.7
		c2.5-1.8,5.7-2.4,8.7-1.9c8.7,1.7,25.7,3.5,40.6-3.2c0,0,7-4.9-2.8-10.7c0,0-20.7,5.3-25.6,0c0,0-4.3-2.9,3.2-10.1
		c0,0,9.4-9.1,0.8-14.8c0,0-39.8-8.1-53.8-25.6C75.7,410.1,58.1,392.2,54.3,409.1z"/>
</g>
</svg>
