<?xml version="1.0" encoding="utf-8"?>
<!-- Generator: Adobe Illustrator 27.4.0, SVG Export Plug-In . SVG Version: 6.00 Build 0)  -->
<svg version="1.1" xmlns="http://www.w3.org/2000/svg" xmlns:xlink="http://www.w3.org/1999/xlink" x="0px" y="0px"
	 viewBox="0 0 566.9 566.9" style="enable-background:new 0 0 566.9 566.9;" xml:space="preserve">
<style type="text/css">
	.st0{display:none;}
	.st1{fill:#71C492;}
</style>
<g id="Layer_1" class="st0">
	
		<image style="display:inline;overflow:visible;opacity:0.4;" width="500" height="375" xlink:href="../../Reference/1902887.jpg"  transform="matrix(3.4482 0 0 3.4482 -669 0)">
	</image>
</g>
<g id="Layer_3">
	<path d="M65.2,448.8c5.3-4.9,14.9-15,22-29c1.6-3.1,1.2-6.7-0.9-9.4c-18.5-24.1-46.9-43.3-51.8-93.3c0,0-7-54.7,33.8-96.2
		c3-3,4.5-7.2,4.1-11.5c-2.1-21.6,5.2-85.9,45.1-127.6c0.1-0.1,0.2-0.2,0.3-0.3c2.7-3,57.5-62,131.3-55.4c0,0,110.7,0.4,122,114.3
		c0.5,5.1,2.5,11.6,7.5,10.4c18.5-4.7,56.1-6.4,93.3-2c0,0,62.3,5.8,64.2,66.2c0,0,0.9,46.1-28.4,100.5c-1,1.8-1.8,3.7-1.6,5.7
		c1.2,12.6-3.4,67.9-22.8,92.9c-1.2,1.5-2.8,2.6-4.6,3c-3.2,0.8-8,0.6-8.6-7c0,0,0-1.8-0.1-4.5c-0.4-7.5-3.8-16.7-14.7-5.4
		c-6.8,7-12.7,11.4-28.2,17.7c-2.5,1-3.9,3.7-4.1,6.4c-0.9,8.4-6.1,33.1-17.9,42.4c-1,0.8-2.1,1.4-3.4,1.7c-2,0.4-4.7,0.2-5.5-4.2
		c-0.1-0.4-0.1-0.8-0.3-1.1c-0.4-1.3-1.4-4.4-3-7.7c-2.2-4.6-8-11.7-12.3-8.9c-13.8,9-47.6,25.8-91.3,10.3c-4-1.4-8.4,0.4-10.3,4.1
		c-7.6,14.8-29.2,50.1-72.1,74.7c-0.5,0.3-110.1,17.1-143.6-77.9C61.9,454.6,62.8,451.1,65.2,448.8z"/>
</g>
<g id="Layer_5">
	<path class="st1" d="M490.2,182.9c-12.9-0.4-44-2.3-77.3-11c0,0-51.5-2.9-82.3,26c0,0,13.1-16.5,24.2-29.1c0.2-0.2,0.3-0.5,0.3-0.8
		c-0.3-6-4.7-68.4-45.7-96.7c0,0-19.4-14-40.7,7.6c0,0-0.8,3.6-12.4,0c0,0-41.8-44.8-95.5,5.3c0,0-48.1,47.2-38.7,117.4
		c0,0,14.1,39.9-31,51.9c-4.7,1.2-8.7,4.2-11.2,8.3c-12.3,19.7-38.8,79,41.8,135.8c2.2,1.6,4.9,2.4,7.7,2.4
		c20-0.2,104.6-4.6,152.2,26.5c0,0,50.8,24.1,87.1-4.2c3-2.3,4-6.3,2.5-9.8c-2.5-5.8-6.5-14.8-9.8-21.3c-1-2.1-3-3.7-5.2-4.3
		c-7.9-2.1-31.2-7.9-93.6-21.5c-3.8-0.8-7.8,0-11,2.3c-19.3,14.1-98.9,61.8-133.5-18.6c0,0-14.3-64.1,29-77c0,0,39-7,53.6,39.3
		c0,0,23.4,29,84.6,36.8c0,0,44.9,0,80.2,23.1c11.7,19.2,32.6,64.5,32.6,64.5c3.8,7.6,6.4,2.5,6.4,2.5c9.9-23.6,2.6-55.7-1.5-69.9
		c-0.6-2,0.6-4.1,2.6-4.6c16.8-4.7,33.5-12.7,48.5-21.8c1.4-0.8,3.2-0.5,4.1,0.9c11,16.4,17.7,41.8,17.7,41.8c1.9,6,4.4,1.4,4.4,1.4
		c11.9-19.7,7.2-54.9,4.9-67.6c0.5-26.3,7.6-45.7,12.6-61.8c0,0,18.8-24.7,1.6-67.2C497.7,185.4,494.2,183,490.2,182.9z"/>
	<path class="st1" d="M127.3,456.6c0,0-0.9,10.4-10.5,8.5c0,0-10.3,0-6.5,10.9c0,0,13.9,38.2,41,36.6c0,0,7.5-0.7,10-3.7
		c0,0,27,7.8,45.4,3.3c0,0,6.3-2.8-0.7-8.1c0,0-25.2,2-28.4-2.4c0,0-3.1-2.5,4.1-7c0,0,8.9-5.5,2.8-10.6c0,0-31-10.3-39.9-24.5
		C144.5,459.7,132.8,444.8,127.3,456.6z"/>
	<path class="st1" d="M181.1,403.6c0,0,0.9,10.4-8.8,10.2c0,0-10.2,1.8-4.5,11.9c0,0,20.4,35.1,46.8,28.8c0,0,7.2-2,9.2-5.5
		c0,0,28,2.9,45.3-4.8c0,0,5.7-3.8-2.2-7.8c0,0-24.4,6.4-28.4,2.7c0,0-3.5-2,2.8-7.6c0,0,7.8-7,0.9-10.9c0,0-32.3-4.6-43.6-17.1
		C198.6,403.6,184.4,391,181.1,403.6z"/>
	<path d="M347.8,166.3c-4.3-53.1-25.9-69.4-34.9-74c-1.8-0.9-2.4-3.3-1.2-5c2.4-3.5,2.7-5.9,2.7-5.9c-2.3-6.9-9.3,2.8-9.3,2.8
		C271.9,124.9,217.5,98,217.5,98c-42-20.3-59.8,12.1-59.8,12.1c-3,5.4-3,7.3-3,7.3c1.9,3.7,6.5-2.8,6.5-2.8
		c21.8-21.8,43.6-11.3,52.3-5.6c2,1.3,2.4,4.2,0.7,5.9c-14,14.6-11.3,37.2-11.3,37.2c3.5,46,36.7,65.3,49.8,71.2
		c2.9,1.3,6.3,0.5,8.4-1.9c20-24,38.8-26.2,46.6-25.9c2.5,0.1,4.9-0.7,6.7-2.4c10-9.2,22.3-15.9,29-19.1
		C346.3,172.6,348,169.5,347.8,166.3z M261.2,157c-3,4.1-7.8-2.1-7.8-2.1c-7-8.3-0.8-16.4-0.8-16.4c4.3-6,7,0,7,0
		C264.4,147.4,261.2,157,261.2,157z M328.4,137.8c-5.1,1.7-8.7-8-8.7-8c-3.4-9.1,3.3-11.5,3.3-11.5c4.6-1,6.7,6.8,6.7,6.8
		C331.6,136.6,328.4,137.8,328.4,137.8z"/>
	<path d="M436.9,189.4c0,0-22.8-11.7-56.6-3.5c0,0-12.1,3.9,0,7c0,0-10.5,22.4,25.6,19.7c0,0,4.1-12.8,24.8-14.7
		C430.7,197.9,456.1,202.5,436.9,189.4z"/>
	<path class="st1" d="M415.5,380.7l3.5,15.4c0.4,1.9,2.6,2.8,4.3,1.8c8.2-5,28.8-18.2,35.8-26.7c1.1-1.3,1.2-3.1,0.5-4.5l-2.5-4.9
		c-0.7-1.3-2.2-1.8-3.5-1.1c-6.7,3.5-25.9,12.8-36.2,16.8C415.9,377.9,415.2,379.3,415.5,380.7z"/>
	<path class="st1" d="M133.7,319.6c6.5-4.7,25.1-17.8,37.5-22.6c1.1-0.4,1.3-1.9,0.3-2.6c-4.1-3-13.9-8.3-25.2-1.2
		c0,0-14.1,9.1-15,25.1C131.3,319.6,132.7,320.4,133.7,319.6z"/>
	<path class="st1" d="M180.2,301.5c2.7,4.9,10.1,17.7,15.7,22.2c1,0.8,0.8,2.4-0.3,2.9c-6.9,3.2-23.8,11.6-31.8,21.1
		c-1,1.2-3.1,0.4-3-1.2c0.4-10.3,2.9-32.1,16.8-45.5C178.3,300.3,179.7,300.5,180.2,301.5z"/>
	<path class="st1" d="M161.6,312.3c-2.3,7.5-8.7,31.4-7.1,57.7c0.1,1.4-1.5,2.2-2.5,1.3c-5.7-4.6-18.2-17.4-20.6-40.7
		c-0.1-0.5,0.1-1,0.5-1.3c3.3-2.8,19.1-16.2,27.8-18.9C160.9,310,162,311.1,161.6,312.3z"/>
	<path class="st1" d="M158.7,374.6c0.8-5.7,5.3-25.8,31.1-38.9c1.8-0.9,3.8,0.5,3.6,2.5c-0.9,7.9-1.7,24.9,5.9,40.1
		c0.7,1.3,0,3-1.4,3.5c-6.1,2.1-21.7,5.7-38.1-4.8C159,376.5,158.6,375.5,158.7,374.6z"/>
	<path class="st1" d="M206.5,378.5c0,0-9.6-25.9-3.1-49c0,0,29.4,16.6,47.2,20.4C250.6,349.9,224.7,376.7,206.5,378.5z"/>
</g>
</svg>
