<?xml version="1.0" encoding="utf-8"?>
<!-- Generator: Adobe Illustrator 27.4.0, SVG Export Plug-In . SVG Version: 6.00 Build 0)  -->
<svg version="1.1" xmlns="http://www.w3.org/2000/svg" xmlns:xlink="http://www.w3.org/1999/xlink" x="0px" y="0px"
	 viewBox="0 0 566.9 566.9" style="enable-background:new 0 0 566.9 566.9;" xml:space="preserve">
<style type="text/css">
	.st0{display:none;}
	.st1{fill:#71C492;}
</style>
<g id="Layer_1" class="st0">
	
		<image style="display:inline;overflow:visible;" width="1701" height="2338" xlink:href="../skeleton_head.png"  transform="matrix(1.6487 0 0 1.6487 -1475 -3120)">
	</image>
</g>
<g id="Layer_2">
	<path d="M112.4,443.9c1.4,30.2,14.2,98,99.2,107.1c3.4,0.4,6.8-0.1,9.9-1.4c14.9-6.1,60.6-28.3,101.3-83.7
		c4.1-5.6,13.8-5.6,20.8-5.1c25.6,1.8,88.7-1.1,115.6-66.6c0.2-0.5,0.4-1,0.5-1.5c3.3-10,33.5-118.1-2.7-177.8c-0.3-0.5-0.7-1-1-1.5
		c-3.9-5.2-28.8-40.3-32.5-80.9c0,0-14-110-97-123c0,0-86.3-19.9-154.2,56.1c-0.6,0.7-1.2,1.4-1.7,2.2
		c-6.3,9.4-43.9,70.3-19.1,165.7c0,0,4.8,40.2-0.8,58.4c-0.1,0.4-0.2,0.7-0.4,1.1c-1.8,4.9-16,45.8,13.1,74.6
		c7.3,7.2,8.1,18.8,1.7,26.9c-7.1,9-19.5,20.1-40.9,30.1C116.7,428,112,435.7,112.4,443.9z"/>
</g>
<g id="Layer_4">
	<path class="st1" d="M149.5,442.5c0,0-2,11-12,8c0,0-11-1-8,11c0,0,11,42,40,43c0,0,8,0,11-3c0,0,28,11,48,8c0,0,7-2.3,0-8.7
		c0,0-27-0.3-30-5.3c0,0-3-3,5-7c0,0,10-5,4-11c0,0-32-14-40-30C167.5,447.5,156.5,430.5,149.5,442.5z"/>
	<path class="st1" d="M213.5,387.5c0,0,1,10-14,12c0,0-11,2-10,12c0,0,7.2,28.5,42.1,28.3c0,0,5.9,0.7,9.9-3.3c0,0,3.4-2.6,15.2,1.7
		c0,0,17.8,8.3,28.8,4.3c0,0,5-4.6,0-7.3c0,0-22-1.7-26-9.7c0,0-1-2,3-4c0,0,7-4-8-13c0,0-21-11-31-24
		C223.5,384.5,214.5,378.5,213.5,387.5z"/>
	<path class="st1" d="M442.9,252.4c-4.1-4.2-28.4-28.9-45.7-46.2c-0.4-0.4-0.6-1-0.6-1.6c0.2-8.2,0.9-70.2-27-99.1
		c0,0-15.9-17.9-16-42.7c0-0.2,0-0.4-0.1-0.6c-0.8-2.4-6.4-18.9-15.2-19.7c-0.4,0-0.9,0.1-1.2,0.3c-3.1,1.9-18.3,11.9-33.4,30.6
		c0,0-17.9,19.9-49.8,15c-0.1,0-0.2,0-0.3-0.1c-2.7-0.8-38.3-11.8-49.8-8c0,0-7.9,1-10.9,11.7c-0.1,0.2-0.1,0.4-0.1,0.6
		c0,4.3-0.1,54.5-3,75.6c0,0.1,0,0.1,0,0.2c-0.1,1.4-1,20.6,0,26.7c0,0,0,0.1,0,0.1c0.3,1.6,7.1,33.5,14.9,55.9
		c0,0.1,0.1,0.3,0.1,0.4c0.2,1.9,1.8,15.3-1,23.7c0,0.1,0,0.1-0.1,0.2l-11.9,29.7c-0.1,0.1-0.1,0.3-0.1,0.4c-0.3,1.4-1.4,9.7,4,18.8
		c0,0,14,24,27,25c0,0,16,2,22,8c0,0,39.8,40.8,56.9,48c0.1,0,0.1,0.1,0.2,0.1c1.6,0.9,20.8,12,40.9,12.9c0,0,28.7,3,40.8,0
		c0,0,25.3-5.4,35.6-23.9c0.8-1.5-0.3-3.3-1.9-3.2c-3.9,0.2-10.2,1.1-15.4,4.9c-0.1,0-0.1,0.1-0.2,0.2c-1,0.9-11,8.8-46.8,7.9
		c-0.1,0-0.2,0-0.3,0c-2.7-0.4-42.3-7.2-66.6-43.5c0,0-34.2-48.5-46.2-57.5c0,0-7.2-6.4-23.1-9.9c-2-0.5-2.3-3.3-0.3-4.1
		c1.4-0.6,2.8-1,4.1-1c0.2,0,0.4,0,0.6,0.1c2.3,0.5,19.1,4.4,27.5,11.8c0.1,0.1,0.3,0.3,0.4,0.4c2.7,3.9,40.7,58.1,66.7,72.7
		c0.1,0.1,0.2,0.1,0.3,0.2c1.4,1.2,15,11.9,33.9,11.9c0,0,28.8,0,42.9-7.9c0.1,0,0.2-0.1,0.2-0.2c1.2-0.9,11.9-8.7,17.6-9.9
		c0.2,0,0.3,0,0.5,0c2.1,0.1,15.9,0.7,17.7-3c0,0,7.8-19.5,8-24.8c0-0.1,0-0.2,0-0.4c-0.4-2.9-5.5-40.3,5-80.6
		c0-0.2,0.1-0.3,0.1-0.5v-4.4C443.5,253.3,443.3,252.8,442.9,252.4z M369.3,305.4c-12.2-5.9-25.1,3.1-28.1,5.5
		c-0.5,0.4-1.1,0.5-1.7,0.4c-12.1-2.6-14.9-33.8-14.9-33.8c0-3.1-4.9-8.4-7.1-10.6c-1.3-1.3-0.4-3.6,1.5-3.6c0.3,0,0.5,0,0.8,0.1
		c0.5,0.1,1,0.3,1.3,0.7c13.8,16.7,46,32.6,55.7,37.1c1.6,0.7,1.7,3,0.1,3.8c-2.8,1.4-6.2,0.7-7.1,0.5
		C369.6,305.5,369.4,305.5,369.3,305.4z M360.6,219.4c-0.1,0-0.2,0.1-0.2,0.1c-22,9.9-46.8,1.6-46.8,1.6c-8.1-2.2-10.7,2.5-11.1,3.3
		c0,0.1-0.1,0.2-0.1,0.2c-25,39.9-57.9,30.9-57.9,30.9c-27-5-34-39-34-39c-10.9-47.9,7-87.2,10.5-94.3c0.3-0.7,0.3-1.5-0.2-2.2
		c-4.5-6.2-11.4-19-13-21.9c-0.3-0.5-0.4-1.1-0.1-1.7c0.7-1.9,3.5-1.5,4.9-1.2c0.6,0.1,1.1,0.5,1.3,1c17.6,30.4,58.4,48.8,61.4,50.2
		c0.1,0.1,0.2,0.1,0.4,0.1c10.4,2.7,19.8-6.1,20.7-7c0.1-0.1,0.1-0.1,0.1-0.2c6.8-7.8,13.5-28.6,13.9-29.9c0,0,0-0.1,0-0.1
		c7-28.9,24-42.4,28.1-45.3c1.1-0.8,2.8-0.3,3.2,1c0.4,1.2,0.1,2.8-0.1,3.7c-0.1,0.4-0.4,0.8-0.7,1.1c-3.2,2.7-7.3,8.5-8.9,10.7
		c-0.4,0.6-0.5,1.3-0.2,2c3.4,9.1,15,17.1,15.9,17.8c0,0,0.1,0.1,0.1,0.1c33.5,18.5,34.5,54.2,34.5,56c0,0.1,0,0.1,0,0.2
		C387.3,202.6,362.6,218.2,360.6,219.4z M407.9,295C407.9,295,407.9,295,407.9,295c-1.6,0.9-3.4-0.6-3.1-2.3
		c0.7-3.8,2.7-12.9,6.5-19.9c0.1-0.2,0.2-0.5,0.2-0.7c0.4-2.8,2.4-20.8-3.6-36.5c0,0-2.7-6.3-1-11.6c0.7-2.2,3.8-2,4.2,0.3
		c0,0.2,0.1,0.5,0.1,0.8c0,0-0.7,9.5,4.3,11.5c0,0,19.9,12.7,22.7,26c0.2,1.1-0.5,2.1-1.5,2.4c-4.8,1.3-18.1,6.9-27.9,29.1
		C408.6,294.4,408.3,294.8,407.9,295z"/>
	<path class="st1" d="M301.8,198.7c0.4-4.4,0.9-14-1.6-20c-0.7-1.6-2-2.7-3.7-3c-3.9-0.8-11.4-1.1-15.1,6c-0.1,0.2-0.2,0.5-0.3,0.7
		c-0.8,2.4-4.5,15.4,5.2,20.2c0,0,6.5,3.8,13,0C300.7,201.8,301.6,200.3,301.8,198.7z"/>
	<path class="st1" d="M375.5,177.4c0.6-4.8,1.3-12.1,0.7-17.3c-0.3-3.2-3.3-5.6-6.6-5.2c-2.5,0.3-5.4,1.5-7.4,4.7
		c-0.2,0.3-0.4,0.7-0.5,1c-0.9,2.2-3.7,10.4,0,16.9c0.2,0.3,0.3,0.5,0.5,0.8c0.7,1,2.7,3.1,5.8,4C371.5,183.4,375.1,181,375.5,177.4
		z"/>
</g>
</svg>
