<?xml version="1.0" encoding="utf-8"?>
<!-- Generator: Adobe Illustrator 27.4.0, SVG Export Plug-In . SVG Version: 6.00 Build 0)  -->
<svg version="1.1" xmlns="http://www.w3.org/2000/svg" xmlns:xlink="http://www.w3.org/1999/xlink" x="0px" y="0px"
	 viewBox="0 0 566.9 566.9" style="enable-background:new 0 0 566.9 566.9;" xml:space="preserve">
<style type="text/css">
	.st0{display:none;}
	.st1{fill:#71C492;}
</style>
<g id="Layer_1" class="st0">
	
		<image style="display:inline;overflow:visible;" width="1701" height="2338" xlink:href="../skeleton_head.png"  transform="matrix(1.4994 0 0 1.4994 -1728 -1689)">
	</image>
</g>
<g id="Layer_2">
	<path d="M13,454.1c-0.2,25.8,13.5,87.4,93.5,100.7c11.5,1.9,23.3-0.8,32.8-7.5c13.7-9.7,39.4-26,69.4-65.1
		c6.1-7.9,15.7-12.3,25.7-11.7c28.3,1.8,97.3-15,125.4-57.9c0,0,20.7-50.4,92.3-59.4c0,0,125.7,9,96.5-130.4c0,0-8-23.9-66.9-61
		c-5-3.2-7.7-9-7.8-14.9c-0.2-14-1.9-40.4-11.2-60.9c0,0-18.6-71.6-132-62c0,0-119.8-1.1-206.3,88.5c0,0-29.7,35-18,88
		c0,0,26,103.4,1.6,156.4c0,0-40.3,36.1-82.5,71.7C17.9,434.9,13.1,444.1,13,454.1z"/>
</g>
<g id="Layer_3">
	<path class="st1" d="M447.5,148.3c0,0-2.3,7.9-6.8,6.8l-5.2-3.1c-1.2-0.7-1.7-2.3-1.2-3.6c3.2-7.8,11.8-35.3-7.2-72.3
		c0,0-12.4-22.6-36.1-23.7c0,0-27.1-1.1-37.3,31.6c0,0-3.4,5.6-7.9,0c0,0-15.8-26-41.8-24.8c0,0-32.8,2.3-39.5,46.3
		c0,0-6.8,47.4,19.2,83.6c0,0,18.1,24.8,55.3-2.3c0,0,18.1-18.1,24.8-18.1c0,0,7.9-2.3,12.4,4.5c0,0,27.1,22.6,31.6,31.6l28.2,35
		h3.6c0,0-22.8-28.2-24-33.9c0,0-10.2-19.2-16.9-28.2c0,0-2.3-6.8,2.3-6.8c0,0,15.8,2.3,30.5-13.6c0,0,2.3-2.3,7.9,2.3
		c0,0,53.1,41.8,72.3,54.2c0,0,15.8,11.3,19.2,38.4c0,0,4.5,28.2-6.8,41.8c0,0-32.8,28.2-49.7,16.9c0,0-18.1-4.5-41.8,4.5
		c0,0-39.5,12.4-72.3,3.4c0,0-50.4-4.9-79.4-43.7c0,0-30.1-43.3-65.1-67c0,0-35-23.7-47.4-88.1c0,0-0.6-7.3-3.4-6.8l-4,2.4
		c-1,0.6-1.4,1.7-1.2,2.8c1.1,4.9,4.4,18.8,7.8,30.4c0.5,1.9,0.7,3.8,0.4,5.7c-2.6,18.9-16.5,123.4-16.5,155.2
		c0,0-3.4,59.9,15.8,83.6c0,0,26,24.8,77.9,19.2c0,0,46.3-2.3,55.3-27.1c0,0,0-57.6,21.5-67.8c0,0,2.3-2.3,6.8,1.1
		c0,0-18.1,30.5-15.8,79.1c0,0,0,11.3-6.8,18.1c0,0-37.3,27.1-106.2,15.8c0,0-42.9-11.3-54.2-30.5c0,0-3.4-13.6-2.3-32.8
		c0,0-12.4-103.9-7.9-164.9c0,0-1-16.6-5.1-23.9c-0.4-0.7-0.5-1.5-0.5-2.3c0.3-5.7,2.3-28.5,17.3-57.2c0.5-0.9,1.1-1.7,1.9-2.3
		c3.7-3.1,15.2-12.3,23.7-11.4c0,0,15.8-4.5,28.2-11.3c0,0,21.5-7.9,39.5-9c0,0,12.4-3.4,20.3-12.4c0,0,32.5-33,69.9-27.2
		c0,0,13.5,1.9,25.4-0.7c0,0,53.7-18.4,82,35.8C438.5,81.7,452,108.8,447.5,148.3z"/>
	<circle class="st1" cx="310.3" cy="139.8" r="10.2"/>
	<circle class="st1" cx="390.5" cy="122.9" r="9"/>
	<path class="st1" d="M108.6,399.3c0,0-2.1,11.3-12.3,8.2c0,0-11.3-1-8.2,11.3c0,0,11.3,43.1,41,44.1c0,0,8.2,0,11.3-3.1
		c0,0,28.7,11.3,49.2,8.2c0,0,7.2-2.4,0-8.9c0,0-27.7-0.4-30.8-5.5c0,0-3.1-3.1,5.1-7.2c0,0,10.3-5.1,4.1-11.3
		c0,0-32.8-14.4-41-30.8C127.1,404.5,115.8,387,108.6,399.3z"/>
	<path class="st1" d="M55.6,454.5c0,0-2.1,11.3-12.3,8.2c0,0-11.3-1-8.2,11.3c0,0,11.3,43.1,41,44.1c0,0,8.2,0,11.3-3.1
		c0,0,28.7,11.3,49.2,8.2c0,0,7.2-2.4,0-8.9c0,0-27.7-0.4-30.8-5.5c0,0-3.1-3.1,5.1-7.2c0,0,10.3-5.1,4.1-11.3
		c0,0-32.8-14.4-41-30.8C74.1,459.6,62.8,442.2,55.6,454.5z"/>
</g>
</svg>
