<?xml version="1.0" encoding="utf-8"?>
<!-- Generator: Adobe Illustrator 27.4.0, SVG Export Plug-In . SVG Version: 6.00 Build 0)  -->
<svg version="1.1" xmlns="http://www.w3.org/2000/svg" xmlns:xlink="http://www.w3.org/1999/xlink" x="0px" y="0px"
	 viewBox="0 0 566.9 566.9" style="enable-background:new 0 0 566.9 566.9;" xml:space="preserve">
<style type="text/css">
	.st0{display:none;}
	.st1{fill:#71C492;}
</style>
<g id="Layer_1" class="st0">
	
		<image style="display:inline;overflow:visible;" width="1701" height="2338" xlink:href="../skeleton_head.png"  transform="matrix(1.5808 0 0 1.5808 -1028 -2250)">
	</image>
</g>
<g id="Layer_2">
	<path d="M144.2,532.8c-35.6,8.1-135.9,19.6-126.1-109c0.5-6,2.9-11.6,7-15.9c13.3-14.3,43.8-51.2,37.5-83.3
		c0,0-39.5-46.5-18.5-113.5c0,0,43.5-94.5,133.5-122.5c0,0,19-4,35-16c0,0,18-18,51-17c0,0,37-2,57,33c0,0,10,10,27-8c0,0,7,5,0,18
		c0,0-8,7,92,0c0,0,82-6,105,62c0,0,14,54-16,146c0,0,18,88-30,97c0,0-9,5-19,29c0,0-28,39-54-1c0,0-11-10-33,1c0,0-78.5,36.5-181,5
		c0,0-17,6-32,40c0,0-11.3,23.9-18.7,41.4C157.8,526,151.6,531.1,144.2,532.8z"/>
</g>
<g id="Layer_4">
	<path class="st1" d="M522.5,175c-2.1-32.2-56.1-45.7-56.1-45.7c-27-8.3-96.6,0-96.6,0c-29.1,3.1-51.9-4.2-51.9-4.2
		c-42.6-13.5-82.1-16.6-82.1-16.6c-62.3-8.3-107,38.4-107,38.4c-37.2,34.3-60.6,77.9-63.1,82.7c-0.2,0.3-0.2,0.6-0.2,0.9
		c-0.8,30.5,8.9,44.2,10.2,46c0.1,0.1,0.2,0.3,0.4,0.4c17.3,13.5,29.2,27.8,30.8,29.8c0.1,0.1,0.2,0.3,0.3,0.5
		c3.9,8.5-4.6,30.5-4.6,30.5c-7.4,16.8,13.7,40.7,14.8,41.9c0,0,0.1,0.1,0.1,0.1c18.7,24.9,47.7,18.6,47.7,18.6
		c28-7.3,59.2,4.2,59.2,4.2c77.9,25,150,1,155.5-0.9c0.2-0.1,0.4-0.2,0.6-0.3c6.3-4.9,3-6.5,1.4-6.9c-0.4-0.1-0.8-0.1-1.2,0
		c-45.1,13.8-93.8-0.2-97-1.2c-0.1,0-0.2-0.1-0.3-0.1c-10.4-5.2-28.9-8.2-28.9-8.2c-22-3-36.2-12.7-37.3-13.5
		c-0.1,0-0.1-0.1-0.2-0.1c-35.1-20.5-70.3-24.4-74.3-24.8c-0.3,0-0.5-0.1-0.8-0.2l-4.1-2.1c-1.6-0.8-1.5-3.2,0.2-3.9
		c17.1-6.4,47.7-11.6,57.4-13.1c1.5-0.2,2.7,1.1,2.4,2.5l-0.3,1.4c-0.1,0.5-0.4,1-0.8,1.3c-4.1,3.1-3.4,6-2.8,7.3
		c0.2,0.4,0.4,0.6,0.7,0.9c33.4,22.7,99.4,34.4,99.4,34.4c79.8,14.1,121.1-1.6,125.2-3.3c0.2-0.1,0.5-0.2,0.8-0.2
		c13,0,31.5,44,35.3,53.3c0.4,1.1,1.7,1.6,2.7,1.2c18-7.2,15.1-73,14.6-82.5c0-0.7,0.3-1.4,0.9-1.8c5-3.8,8.4-7.9,9.8-9.8
		c0.6-0.7,1.5-1.1,2.4-0.7c6.5,2.5,19.9,20.4,26.1,29.2c1.2,1.6,3.7,0.9,3.9-1.1c1.6-29.9-10.4-50.8-13.4-55.4
		c-0.4-0.6-0.4-1.4-0.1-2C526.6,250.8,522.5,175,522.5,175z M258.5,270.7c-2.7,2.3-33.5,27.7-62.6,18.7c-0.1,0-0.1,0-0.2-0.1
		c-2.3-0.4-43-8.3-48.9-45.3c-0.2-1-0.9-1.7-1.9-1.8c-3.5-0.3-12.3-0.1-26.5,6.5c-1.9,0.9-3.9-1.3-2.7-3.1
		c3.8-6,11.2-15.2,23.6-22.3c0.7-0.4,1.1-1.1,1.1-1.8c0-7.8,0.6-50.9,16.6-73.5c0,0,0.1-0.1,0.1-0.1c0.8-1.4,14.5-24.9,49.8-25.9
		c0,0,43.6-3.1,66.4,45.6c0,0.1,0.1,0.1,0.1,0.2c0.9,2.5,19.8,55.9-14.4,102.5C258.7,270.5,258.6,270.6,258.5,270.7z M439.1,184.4
		h-9.2c-0.8,0-1.6,0.5-1.9,1.2c-1.6,3.5-7.5,13.3-22.8,13.3c0,0-10.3,0-8.7-14.2c0.1-1.3-0.8-2.4-2.1-2.4h-3.9
		c-0.6,0-1.1,0.2-1.5,0.7c-2.3,2.4-11.2,10.6-25.4,9.7c0,0-17.2-1-6.7-19.3c0.8-1.3-0.1-3.1-1.7-3.2c-2.2-0.1-5.6,0.1-10.3,1.7
		c0,0,0,0,0,0c-2.6,0.6-3.6-3.3-1.1-4.1c7.6-2.4,27.4-8.2,39.1-8.4c0.3,0,0.6,0,0.8,0.2c4.2,1.7,41.1,16.4,57,18.4
		c1.1,0.1,2,1.1,1.9,2.2c-0.1,1.5-0.7,3.4-2.9,4.1C439.5,184.3,439.3,184.4,439.1,184.4z"/>
	<circle class="st1" cx="232.7" cy="225.9" r="14.9"/>
	<path class="st1" d="M83.9,386.7c0,0-0.7,11.2-11,9.3c0,0-11,0.3-6.7,11.8c0,0,15.7,40.5,44.7,38.1c0,0,7.9-0.9,10.6-4.2
		c0,0,29.1,7.7,48.6,2.5c0,0,6.7-3.1-1-8.6c0,0-26.9,2.7-30.4-1.9c0,0-3.3-2.6,4.2-7.5c0,0,9.4-6.1,2.7-11.4
		c0,0-33.4-10.3-43.2-25.2C102.4,389.6,89.5,373.9,83.9,386.7z"/>
	<path class="st1" d="M56.3,453.3c0,0-0.7,11.2-11,9.3c0,0-11,0.3-6.7,11.8c0,0,15.7,40.5,44.7,38.1c0,0,7.9-0.9,10.6-4.2
		c0,0,29.1,7.7,48.6,2.5c0,0,6.7-3.1-1-8.6c0,0-26.9,2.7-30.4-1.9c0,0-3.3-2.6,4.2-7.5c0,0,9.4-6.1,2.7-11.4
		c0,0-33.4-10.3-43.2-25.2C74.8,456.2,61.9,440.5,56.3,453.3z"/>
</g>
</svg>
