<?xml version="1.0" encoding="utf-8"?>
<!-- Generator: Adobe Illustrator 27.4.0, SVG Export Plug-In . SVG Version: 6.00 Build 0)  -->
<svg version="1.1" xmlns="http://www.w3.org/2000/svg" xmlns:xlink="http://www.w3.org/1999/xlink" x="0px" y="0px"
	 viewBox="0 0 566.9 566.9" style="enable-background:new 0 0 566.9 566.9;" xml:space="preserve">
<style type="text/css">
	.st0{display:none;}
	.st1{fill:#71C492;}
</style>
<g id="Layer_1" class="st0">
	
		<image style="display:inline;overflow:visible;" width="1701" height="2338" xlink:href="../skeleton_head.png"  transform="matrix(1.6292 0 0 1.6292 -241.8114 -2009)">
	</image>
</g>
<g id="Layer_4">
	<path d="M418.5,71c0,0-35-15.7-76.5,19.1c0,0-11.6,23.1-44,13.5c0,0-45.5-32.6-97.5,6.4c0,0-53,39-65,102c0,0-36.1,119.8-113,183.4
		c0,0-27,18.6-5,56.6c0,0,31.2,62.6,123.6,50.2c2.6-0.3,5-1.4,7-3c9.5-7.8,39-33.3,57.8-65c0,0,10.6-22.2,38.6-9.2
		c0,0,227,106.1,256.5-21c0,0,1-15,15.5-18c0,0,62.5-27.5,26.1-123.2c0,0-9.6-23.3-34-47.6c-3.9-3.9-4.9-11.4-5.8-16.8
		C498.3,173.4,480.5,102.8,418.5,71z"/>
</g>
<g id="Layer_3">
	<g>
		<path class="st1" d="M429.4,113.4c-1.5-1.1-3.1-2.2-4.8-3.4c-1.1,4.7-1.1,10-1.1,10l4,1C427.5,118.6,428.6,115.5,429.4,113.4z"/>
		<path class="st1" d="M413.2,103.6c-2.4,8.1-1.7,15.4-1.7,15.4h5c-0.7-4.1,1-9.6,2.1-12.7C416.8,105.3,415,104.4,413.2,103.6z"/>
		<path class="st1" d="M521.5,298c0,0-4-27-36-58c0,0-13-11-13-29c0,0-3-51-36-92c0,0-0.4-0.3-1-0.9c-1,2.8-1,5.9-1,5.9
			c19,19,24,47,24,47c7,42-13,52-13,52c-18,9-36-4-36-4c-23-18-26-44-26-44c-6-45,20-55,20-55c0-9,2-19,2-19s-29-14-55,23
			c0,0-9,18-38,13c0,0-18-3-32-8c0,0-34-13-70,11c0,0-43,38-35,76c0,0,5.6,46.3-9.7,67.6c0,0-6.3,10.4-3.3,23.4c0,0,0,8,12,11
			c0,0,37,18,43,32c0,0,21,33,46,46c0,0,35,23,103,30c0,0,42,11,82-8c0,0,28-14,18-53c0,0,0-5-4-2c0,0-14,7-15,11c0,0,7,22-2,30
			c0,0-17,17-38,11c0,0-23-6-36-19c0,0-50-6-76-32c0,0-16-20-17-29c0,0,2-3,4,1c0,0,17,34,53,42c0,0,52,31,122-21c0,0,5-3,11.2,0.3
			c0,0,23.8,12.7,37.8-5.3C506.5,352,526.5,329,521.5,298z M309.3,263.8c-21.2,5.8-41.8-8.8-41.8-8.8c-26-22-27-58-27-58
			c-4-16-28-29-28-29c-3-2-1-7-0.9-7c15.9,3,30.9,23,30.9,23c0-4,1-9,1-9c-5-6-26-20-26-20c-1-5,4-6,4-6c11,6,26,18,26,18l2-3
			c-4-7-21-19-21-19c-2-4,4-5,4-5c11,6,23,19,23,19c12-16,35-3,35-3c36,20,38,61,38,61C330.5,258,309.3,263.8,309.3,263.8z
			 M426.1,327c-5.4-11,2.4-19,2.4-19c13,4,17,19,17,19C433.5,344,426.1,327,426.1,327z M467.5,311c0,0-0.1,4.2-7.6,5.1
			c0,0-3.9,1.9-1.2,6.9c0,0-2.3,2-4.3,0c0,0-5-13-2-21c0,0,5-10,12-5C464.5,297,470.5,303,467.5,311z"/>
	</g>
	<path class="st1" d="M296.2,175.4c0,0-25.5-8.2-26.1,25.1c0,1.2,1.1,2.1,2.3,1.7c3.8-1.1,11.1-1.8,12.4,9.2c0,0,0.9,6.1-5.9,8.7
		c-1,0.4-1.5,1.6-0.9,2.5c2.9,5.5,12.2,20.5,24.5,16.9c0,0,14.9-1.8,15.8-23.7C318.2,215.8,318.2,185.9,296.2,175.4z"/>
	<path class="st1" d="M427.2,137.4c0,0-12.4-4-21.5,8.5c0,0-7.4,10.3-4.7,22.6c0.3,1.2,1.4,2,2.6,1.7c3.1-0.8,9-1.4,12.6,3.6
		c0.2,0.3,0.3,0.6,0.4,0.9c0.3,1.8,0.8,8.1-5.7,10.4c-1.3,0.5-1.9,2.1-1.1,3.2c3.1,4.4,10.5,13,21.6,12.3c0,0,15.8-2.5,16.6-28.2
		C448,172.4,448.7,144.7,427.2,137.4z"/>
	<path class="st1" d="M120.2,339.1c0,0-0.7,11.2-11,9.3c0,0-11,0.3-6.7,11.8c0,0,15.7,40.5,44.7,38.1c0,0,7.9-0.9,10.6-4.2
		c0,0,29.1,7.7,48.6,2.5c0,0,6.7-3.1-1-8.6c0,0-26.9,2.7-30.4-1.9c0,0-3.3-2.6,4.2-7.5c0,0,9.4-6.1,2.7-11.4
		c0,0-33.4-10.3-43.2-25.2C138.7,342,125.8,326.4,120.2,339.1z"/>
	<path class="st1" d="M66.2,402.1c0,0-0.7,11.2-11,9.3c0,0-11,0.3-6.7,11.8c0,0,15.7,40.5,44.7,38.1c0,0,7.9-0.9,10.6-4.2
		c0,0,29.1,7.7,48.6,2.5c0,0,6.7-3.1-1-8.6c0,0-26.9,2.7-30.4-1.9c0,0-3.3-2.6,4.2-7.5c0,0,9.4-6.1,2.7-11.4
		c0,0-33.4-10.3-43.2-25.2C84.7,405,71.8,389.4,66.2,402.1z"/>
</g>
</svg>
