<?xml version="1.0" encoding="utf-8"?>
<!-- Generator: Adobe Illustrator 27.4.0, SVG Export Plug-In . SVG Version: 6.00 Build 0)  -->
<svg version="1.1" xmlns="http://www.w3.org/2000/svg" xmlns:xlink="http://www.w3.org/1999/xlink" x="0px" y="0px"
	 viewBox="0 0 566.9 566.9" style="enable-background:new 0 0 566.9 566.9;" xml:space="preserve">
<style type="text/css">
	.st0{display:none;}
	.st1{fill:#71C492;}
</style>
<g id="Layer_1" class="st0">
	
		<image style="display:inline;overflow:visible;" width="1701" height="2338" xlink:href="../skeleton_head.png"  transform="matrix(1.6033 0 0 1.6033 -1853 -932)">
	</image>
</g>
<g id="Layer_2">
	<path d="M35.1,352.3c19.9-1.3,43.9-16.7,37.4-25.3c-0.5-0.6-0.4-1.5-0.8-2.3c-3.8-7.9-33.2-74.2,33.8-125.8
		c0.3-0.2,0.5-0.4,0.8-0.6c3.6-2.3,34-9.8,37.6-50.2c0-0.3,0.1-0.5,0.2-0.7c1.7-5.7,23.3-69.9,116.2-81c0,0,105.7-16.9,176.6,19
		c0,0,66.4,25.9,90,132.2c1,4.3,2.7,8.3,5.3,11.9c10.1,14.2,35.4,56.9,20,107.6c0,0-8.5,34.9-68.7,75.1c0,0-62.4,39.1-88.8,76.1
		c0,0-28.8,40-69.4,22.2c-9-4-19.2-4.5-28.5-1.3c-22.3,7.7-64.6,13-90.9-42.6c0,0-18-36-90.8,30.5c-3.3,3-8,3.6-11.9,1.6
		c-17.5-9.1-63.4-38.3-88.8-102.5C7.2,378.3-0.4,354.6,35.1,352.3z"/>
</g>
<g id="Layer_4">
	<path class="st1" d="M140.8,400.6c0,0,15.6-7.6,3.7-23.2c-0.2-0.2-0.4-0.4-0.6-0.6c-1.8-1.4-11.7-9.5-16.7-28.6
		c0-0.1,0-0.1-0.1-0.2c-0.5-1.3-5.6-14.3-17.6-6.2c-0.3,0.2-0.6,0.6-0.8,0.9c-1.2,2-6.1,9.1-17,10c-0.1,0-0.3,0-0.4,0.1
		c-2,0.5-17,5-6,26.4c0,0.1,0.1,0.2,0.1,0.2c1.5,2.3,24.7,38.5,38.8,32.6c0,0,3.7-2.1,8.2,6.2c0,0,6.7,17.6,14.3,14.5
		c0.9-0.4,1.6-1.2,1.8-2.1c0.4-1.9,0.3-5.8-3.2-13.2c0-0.1-0.1-0.2-0.2-0.3C144.2,415.7,137.2,403.8,140.8,400.6z"/>
	<path class="st1" d="M109.7,462.8c-3.3-3-15-14-15.4-20.4c0-0.9,0.5-1.7,1.2-2.2c1.6-1.2,4.1-4.5-0.9-11.8
		c-0.2-0.2-0.4-0.4-0.6-0.6c-2.6-2.1-19.5-16.5-24.1-41.8c0,0-3.6-17.8-15.5-10.6c-0.3,0.2-0.5,0.4-0.7,0.7
		c-1.6,1.9-9.6,11-21.5,12.2c-0.2,0-0.5,0.1-0.7,0.2c-2.2,0.8-12.1,5.2-3.3,21.6c0,0,23.1,43.4,39,42.7c0.3,0,0.5-0.1,0.8-0.1
		c1.5-0.5,7.8-2,13.1,2c0,0,13.5,16,19.7,14.8c0,0,9.3,1,9.9-4.2C110.7,464.3,110.4,463.4,109.7,462.8z"/>
	<path class="st1" d="M528.8,290.9c0,0-6.1-17.6-20-22.6c0,0-38.3-16.1-36.7-43.3c0,0,10-37.7-12.2-84.4c0,0,0-0.1-0.1-0.1
		c-0.7-1.8-18.6-45.5-56.6-47.7c0,0-35.4-3.3-67.6,32c-0.1,0.1-0.3,0.3-0.4,0.4c-1.6,1.1-10.5,6.8-19.5,0c-0.2-0.1-0.3-0.3-0.4-0.4
		c-2.3-2.7-24.5-27.4-49.6-27.5c-0.1,0-0.2,0-0.4,0c-3.1-0.5-46.1-6.7-68.7,21.1c0,0.1-0.1,0.1-0.1,0.1
		c-1.4,1.5-27.6,29.2-25.5,83.1c0,0.1,0,0.2,0,0.3c0.3,1.9,2.7,19.3-6.7,28.7c0,0-12.1,14.3-37.5,16.6c-0.2,0-0.4,0-0.6,0
		c-2.5-0.3-21.3-1.3-29.7,26.5c0,0.1-0.1,0.3-0.1,0.5c-0.2,1.4-1.2,8.8-3.2,12.9c-0.1,0.2-0.2,0.3-0.2,0.5
		c0.6,34.7,8.4,67,47.3,84.4c2.5,1.1,5-1.6,3.6-3.9c-4.6-7.8-28.2-47.6-31.7-67.3c-0.1-0.7-0.5-1.4-1.1-1.8
		c-2.9-2-11.5-8.7-9.9-16.1c0,0,0.2-5.5,6-0.1c0.1,0.1,0.1,0.1,0.2,0.1c1.1,0.8,11.9,9.1,23.1,7.4c1.7-0.3,3.3,1.2,3.1,2.9
		c-0.2,1.8-1.4,4-5.7,5.1c-0.2,0-0.4,0.1-0.6,0.1c-1.4,0.1-8.3,1.2-5.3,12.2c0,0,28.5,104.1,138.7,116.4c1.4,0.2,2.5,1.3,2.5,2.7
		c0.2,5.2,0.1,20.3-2.3,57.6c0,0-1,5,5.5,5.5c0.7,0.1,1.5-0.2,2.1-0.7c3.7-3.2,17.7-17.5,26.4-57.9c0.3-1.4,1.6-2.4,3-2.2
		c6.5,0.7,24.5,2.4,37.9,1.1c1.6-0.1,3,1,3,2.6c0.7,11.6,3.8,53.7,14.3,53.7c0,0,5.5,0,7.7-7.6c0-0.1,0.1-0.3,0.1-0.4
		c0.5-3,6.2-38.7,9.5-50.4c0.3-1,1-1.7,2-1.9c11.8-3,89.7-26.5,130.7-123c0,0,2.2-3.3-3.3-6.7c0,0-5.4-4.8-1.5-9.4
		c0.2-0.3,0.6-0.5,0.9-0.7c1-0.5,3.2-0.9,5.3,2c0.1,0.2,0.3,0.3,0.4,0.5c1.3,1.2,8,7.1,12.9,9.4c0.6,0.3,1.1,0.8,1.4,1.5
		c0.7,1.7,1.2,4.8-2.7,5.6c0,0-4.3-1.1-8.7,5.3c-0.1,0.2-0.2,0.4-0.3,0.6c-7.1,19.1-33,51.9-43.2,65.3c0,0-2.2,4.3,3.1,2.3
		c0.1,0,0.2-0.1,0.3-0.1c2.4-0.6,52.6-28.3,61-63.3C528.8,318.3,533.8,303.3,528.8,290.9z M225.3,115c0.1-0.1,0.2-0.1,0.3-0.2
		c32.1-16.5,55.3,8.4,55.3,8.4c31,32.1,31.9,83.8,29.6,112.3c-0.1,0.8-1.1,1.1-1.6,0.5c-1.5-1.9-3.1-2.4-4.2-2.5
		c-0.9-0.1-1.7,0.3-2.2,1c-11,14-22.6,1.5-22.6,1.5c-4.8-8.8-0.4-16,3.8-20.3c1.6-1.7,0.4-4.4-1.9-4.4
		c-34.7,1.1-30.7,33.6-30.7,33.6c3.8,17,16.6,21.6,25.3,23.5c1.1,0.2,1.3,1.6,0.5,2.2c-9.5,6.9-19.2,15.2-21.8,17.8
		c-0.7,0.7-1.7,1-2.7,0.7c-60.1-17.4-63.5-96.5-63.5-96.5C186.6,143.5,222.6,117,225.3,115z M302.7,312.4c-1.5,2.4-4.6,2.8-6.6,2.7
		c-1.1,0-2.1,0.6-2.6,1.6c-11,22.6-33.2,15.4-34.8,14.9c-0.1,0-0.1,0-0.2-0.1c-26.3-11-29.1-25.4-29.2-30.3c0-1.1-0.7-2-1.7-2.4
		c-7.3-3.3-12.1-9.7-13.2-11.2c-0.1-0.2-0.3-0.4-0.3-0.6c-1.1-3.1,0-4,1.2-4.2c0.8-0.2,1.7,0.1,2.3,0.7
		c25.2,23.1,70.1,24.8,82.6,24.8C302.4,308.2,303.8,310.5,302.7,312.4z M433.4,284.6c-0.1,0.2-0.2,0.4-0.3,0.5
		c-0.7,0.8-2.8,3.4-4.8,5.4c-1,1-1.2,2.7-0.3,3.8c1.3,1.5,2.1,4.1-0.3,8.4c0,0-9.9,20.9-34.2,33.2c-0.2,0.1-0.4,0.2-0.6,0.2
		c-2.8,0.7-22.9,4.7-33.4-15.3c-0.5-0.9-1.4-1.4-2.3-1.5c-3.3-0.1-10.7-0.8-15.8-3.6c-0.3-0.1-0.5-0.3-0.7-0.6
		c-0.5-0.6-1.4-1.9-1-3.4c0.3-1.4,1.7-2.2,3.1-2c9.4,1.5,54.7,6.3,87.4-29.4c0.7-0.8,1.9-1.2,2.9-0.8
		C434.2,279.9,435,281.2,433.4,284.6z M449.9,224.9c0,0,0,0.1,0,0.1c-22.4,58.4-66.2,70.7-76.6,72.9c-1.3,0.3-2.6-0.4-3.1-1.7
		c-3.3-7.8-9-15-13.7-20.5c-0.9-1.1-0.3-2.7,1.1-3c24.8-4.7,25.8-22.7,24.7-29c-0.2-0.9-1.3-1.3-2-0.8c-12,9.1-23.4,0.9-23.4,0.9
		c-8.3-10.5-0.6-18.6,4.2-22.3c1-0.7,0.4-2.3-0.8-2.3c-17.6,0.3-27.4,9.7-32.6,18.1c-0.5,0.8-1.7,0.4-1.7-0.5
		c0.9-24.1,6.2-44.2,6.2-44.2c8.9-33.3,36.7-61.1,36.7-61.1c34.4-32.2,60-4.4,60-4.4C466.9,169.6,450.6,222.7,449.9,224.9z"/>
</g>
</svg>
