<?xml version="1.0" encoding="utf-8"?>
<!-- Generator: Adobe Illustrator 27.4.0, SVG Export Plug-In . SVG Version: 6.00 Build 0)  -->
<svg version="1.1" xmlns="http://www.w3.org/2000/svg" xmlns:xlink="http://www.w3.org/1999/xlink" x="0px" y="0px"
	 viewBox="0 0 566.9 566.9" style="enable-background:new 0 0 566.9 566.9;" xml:space="preserve">
<style type="text/css">
	.st0{display:none;}
	.st1{fill:#71C492;}
</style>
<g id="Layer_1" class="st0">
	
		<image style="display:inline;overflow:visible;" width="1701" height="2338" xlink:href="../skeleton_head.png"  transform="matrix(1.6033 0 0 1.6033 -1055 -1378)">
	</image>
</g>
<g id="Layer_2">
	<path d="M15.5,421.6c0.3,15.4,6.5,102.2,131.9,112.1c9.3,0.7,18-4.6,21.7-13.2c6.7-16.1,26.6-47.9,37.2-54c0.6-0.3,1.1-0.7,1.7-1.2
		c2.9-2.4,16.6-10,67.7-5.9c0.6,0,1.1,0.1,1.7,0.1c9.3,0,53.6,7.5,90.6-45.5c0,0,100-40,155.5-93.5c0,0,41-72,15-143
		c0,0-8.8-24.4-48.8-26c-0.7,0-1.5,0-2.2,0c-9.3,0.6-88.1,11.3-102.4-8.3c-0.4-0.5-0.8-1-1.2-1.5c-3.5-3.7-5.9-33.8-23.6-57.8
		c-0.9-1.2-1.5-2.6-2.5-3.8c-7.4-8.9-34.7-32.2-92.5-19.8c-0.4,0.1-0.9,0-1.3,0c-6.7,0-72.8-11.7-116.5,51c0,0-34.3,49-43.7,85.9
		c-0.1,0.5-0.3,1.1-0.4,1.7c-0.4,2.3-13.9,13.4-28,29.5c-0.5,0.6-1.1,1.2-1.7,1.7c-4.2,3.8-16.3,24.5-19.2,71.3c0,0.6,0,1.2,0,1.9
		c0.1,4.5,0.2,25.9-6,40.1c0,0-29.1,52.7-32.7,74.1C15.6,418.9,15.5,420.3,15.5,421.6z"/>
</g>
<g id="Layer_4">
	<path class="st1" d="M515.5,196.5c-1.9-13.2-10-15.7-10.9-15.9c-0.1,0-0.1,0-0.2,0c-51.3-3.8-80,12.9-81.8,14
		c-0.1,0-0.1,0.1-0.2,0.1c-6.1,2-9,1.2-10.2,0.6c-0.5-0.3-0.6-0.8-0.4-1.3c1.7-2.9,4.6-5.1,7.5-6.7c1-0.5,0.4-2-0.7-1.7
		c-16.3,4.5-42.9,15.6-44.1,16.1c0,0-0.1,0-0.1,0c-22,7-37,0-37,0c-5.5-2.7-8.4-1.3-8.9-1c0,0-0.1,0.1-0.1,0.1
		c-13.1,11.2-28,9.3-29.8,9c-0.1,0-0.2,0-0.4,0c-17.7,3.8-37.1,23.2-39.6,25.7c-0.2,0.2-0.4,0.3-0.6,0.3
		c-19.3,0.2-41.2,13.1-42.5,14c-0.1,0-0.1,0.1-0.2,0.1c-3.3,1.3-5.3,0.4-6.2-0.3c-0.4-0.3-0.5-1-0.1-1.3c3.9-4.2,10.9-8.4,14.4-10.3
		c0.7-0.4,0.6-1.5-0.2-1.7c-37.4-11.6-27.8-67.4-27.8-67.4c11-57,35-62,35-62c19.9-4.7,30.8,9.4,31.9,10.9c0.1,0.1,0.1,0.2,0.2,0.2
		c6.5,4.5,13,0.5,13.8,0c0.1,0,0.1-0.1,0.1-0.1c10-10.9,25.9-9.9,25.9-9.9c19,0,26,22,26,22c11.7,42.4,8,62.8,7.2,66.4
		c-0.1,0.4,0,0.8,0.4,1c4.2,3,11.9,3.5,14.6,3.6c0.5,0,1-0.4,1-0.9c2.7-99.1-38-103.1-38-103.1c-16.4-1.9-29.1,2.4-30,2.7
		c0,0-0.1,0-0.1,0c-16.2,3.5-28-3-29.1-3.7c-0.1,0-0.1-0.1-0.2-0.1c-25.2-7.9-41.6,0-41.6,0c-32,9-79.3,115.7-79.3,115.7
		c-6.2,14.4-33.7,34.6-34.6,35.3c0,0,0,0-0.1,0c-14.5,11.6-11.2,44.7-11,46.9c0,0.1,0,0.1,0.1,0.2c6.1,16.8,59.7,83.1,61.9,85.8
		c0,0.1,0.1,0.1,0.2,0.2c35.4,27.5,107.1,47,109.6,47.6c0.1,0,0.1,0,0.1,0c22.5,2.4,33.3-4.6,35.7-6.3c0.3-0.2,0.4-0.6,0.3-1
		c-3.2-11.9-15.8-10.5-16.8-10.4c0,0-0.1,0-0.1,0c-7,0-13.9-3-13.9-3c-30.5-13.8-84.1-31.4-85.9-32c0,0-0.1,0-0.1,0
		c-5.4-2.7-11.5-3.7-12.7-3.9c-0.1,0-0.3-0.1-0.4-0.2c-22.2-15.6-50.8-71.8-52.7-75.7c-0.1-0.1-0.1-0.3-0.1-0.5l0.5-10.4
		c0-0.3-0.1-0.5-0.3-0.7c-4.5-4.3-10.8-15.8-10.8-15.8c-2.2-4.3,1.3-6.6,2.6-7.3c0.3-0.1,0.6-0.1,0.9,0c3.4,1.7,7.1,2.2,8.6,2.4
		c0.4,0,0.7,0.3,0.8,0.7c9.9,36.7,37.4,63,38.8,64.3c0,0,0.1,0.1,0.1,0.1c23.1,32,121,59.9,121,59.9c30.3,8.8,62.5,0.4,63.9,0
		c0,0,0.1,0,0.1,0c24.9-10,145.9-71,147.9-72c0,0,0,0,0.1,0c13.3-7.6,18.4-16.1,18.9-16.9c0,0,0-0.1,0.1-0.1
		C520.3,259,515.6,198.3,515.5,196.5C515.5,196.5,515.5,196.5,515.5,196.5z M412.1,266.5c-11.1-5.4-18.3-1.1-19.7-0.2
		c-0.2,0.1-0.3,0.2-0.5,0.2h-65.1c-0.2,0-0.3,0-0.4-0.1c-8.1-4.4-25.6-8.9-29.1-9.7c-0.4-0.1-0.7-0.5-0.7-0.9
		c-0.2-5.6,8.2-2.5,9.1-2.1c0.1,0,0.1,0,0.2,0.1c20.5,4,39-7.5,40.2-8.2c0,0,0.1,0,0.1-0.1c23.6-10.6,42.2-1.6,43.4-1
		c0,0,0.1,0,0.1,0.1c7.4,5.6,24.7,15.3,27.2,16.8c0.2,0.1,0.4,0.3,0.4,0.5C419.4,269.1,412.7,266.7,412.1,266.5
		C412.1,266.5,412.1,266.5,412.1,266.5z"/>
	<path class="st1" d="M240.2,199.6c0,0-6.8-21.9-23.8-15.9c-0.4,0.1-0.8,0.3-1.2,0.5c-2.2,1.2-9,5.7-10.8,16.3
		c-0.2,1.5-0.1,3.1,0.5,4.5c2.5,6.4,11.3,25.4,26.1,24.4c2.1-0.1,4.1-1.1,5.6-2.6C240,223.2,244.9,214.9,240.2,199.6z"/>
	<path class="st1" d="M311.8,181.8c0,0-3.8-20.4-17-18.6c0,0-7.6,0.6-11.4,9.3c-0.7,1.6-0.8,3.4-0.5,5c0.8,3.5,2.2,10.4,2.6,16.2
		c0.2,3.3,2.4,6.1,5.6,7.2c2.7,0.9,6.5,1.2,11.6-0.3c0.9-0.3,1.8-0.6,2.5-1.2C308,197.5,313.9,192,311.8,181.8z"/>
	<path class="st1" d="M103,359c0,0-1.7,13.5-12.7,10.2c0,0-12-0.8-8.2,13.7c0,0,13.7,50.8,45.2,51c0,0,4.7-0.2,8.4-1.7
		c2.7-1.1,5.8-1.1,8.5,0.1c7.7,3.4,23.1,8.7,38.4,5.6c0,0,7.5-3.1-0.4-10.6c0,0-20.3,0.6-23.8-5.4c0,0-3.4-3.6,5.1-8.7
		c0,0,10.7-6.5,3.9-13.6c0,0-35.3-15.9-44.7-35.1C122.8,364.5,110.1,344.1,103,359z"/>
	<path class="st1" d="M59,419c0,0-1,13.6-12.1,10.9c0,0-12-0.2-7.5,14.1c0,0,16.5,50,47.9,48.4c0,0,4.6-0.4,8.2-2.1
		c2.6-1.3,5.7-1.2,8.3,0c8.2,3.9,25.4,10.5,40.8,6.5c0,0,7.3-3.5-0.9-10.5c0,0-22.3-1.8-26-7.6c0,0-3.6-3.4,4.7-9
		c0,0,10.3-7,3.1-13.8c0,0-36.1-13.9-46.5-32.6C79,423.3,65.3,403.7,59,419z"/>
</g>
</svg>
