<?xml version="1.0" encoding="utf-8"?>
<!-- Generator: Adobe Illustrator 27.4.0, SVG Export Plug-In . SVG Version: 6.00 Build 0)  -->
<svg version="1.1" xmlns="http://www.w3.org/2000/svg" xmlns:xlink="http://www.w3.org/1999/xlink" x="0px" y="0px"
	 viewBox="0 0 566.9 566.9" style="enable-background:new 0 0 566.9 566.9;" xml:space="preserve">
<style type="text/css">
	.st0{display:none;}
	.st1{fill:#71C492;}
</style>
<g id="Layer_1" class="st0">
	
		<image style="display:inline;overflow:visible;" width="1701" height="2338" xlink:href="../skeleton_head.png"  transform="matrix(1.5622 0 0 1.5622 -1877 -51)">
	</image>
</g>
<g id="Layer_2">
	<path d="M556.6,288.7c-0.1,1-0.1,2.1-0.3,3.1c-11.4,60.5-83.7,69.9-89.4,71.6c-0.3,0.1-0.5,0.2-0.8,0.3
		c-16.3,5.7-24.3,21.2-25.4,23.6c-0.1,0.3-0.3,0.5-0.4,0.8c-36.2,68.4-122.7,33.5-122.7,33.5c-21-8-33,3-33,3
		c-66.7,92-115.4,110.3-129.9,114.1c-2.5,0.6-5,0.8-7.6,0.4C43.2,523.8,34.7,451.1,29.8,415.7c-1.1-8.1,3.2-15.9,10.6-19.3
		c40.5-18.9,49.9-44.2,55.6-56.7c2.7-5.8,2.8-13.1-1.4-18C50,268,93.5,202.5,93.5,202.5c6-7-1-12-1-12c-4.3-6.1-28.2-6.1-34.5-6
		c-1.2,0-2.5-0.3-3.7-0.3C8,185,11.5,152.5,11.5,152.5c0.5-32.5,38.9-33.7,42.7-34c0.3,0,0.6-0.1,0.9-0.1c12.5-1.7,48.8-7,62.8-9.1
		c3.7-0.5,7.2-1.9,10.3-4c32.3-22,57.5-39.5,57.5-39.5C242,38,296.6,82,302.8,86c0.5,0.3,1,0.6,1.6,0.9c27.8,14.2,59.1,0.5,59.1,0.5
		c58.5-37.5,107-9,107-9C547,124,509,190,507.2,201.2c-0.1,0.5-0.6,2.2-0.8,2.9c-2.5,10.9,4.6,16.4,5.5,16.9
		C520.9,225.6,559.8,249.8,556.6,288.7z"/>
</g>
<g id="Layer_4">
	<path class="st1" d="M444.7,230.4c-27.8-7.2-97.5-53.3-105.3-58.6c-0.5-0.3-1.1-0.5-1.7-0.4c-5.3,1.1-16.7,9.9-19.8,12.4
		c-0.5,0.4-0.8,1-0.9,1.6c-5.7,54.9-54.8,65.7-54.8,65.7c-44.8,9.8-79.8-7.7-79.8-7.7c-34-14.7-41-46.3-42.3-56.1
		c-0.2-1.8-2.3-2.7-3.7-1.7c-7.1,4.8-7.5,21.7-7.5,23.7c0,0.1,0,0.3,0,0.4c-2.2,13.6-19.2,28-20.6,29.2c-0.1,0.1-0.1,0.1-0.2,0.2
		c-27.2,27.3,3.4,64.1,3.4,64.1c26.3,31.4,114.8,54.9,114.8,54.9c31.2,9.4,50.5,27.6,52.3,29.4c0.1,0.1,0.2,0.2,0.3,0.3
		c36.5,25.6,93.8,17.7,96,17.4c0,0,0.1,0,0.1,0c18.5-1.1,35-19.4,36.9-21.6c0.1-0.1,0.2-0.3,0.3-0.5c3.9-7.6,10.2-14.4,11.6-15.9
		c0.2-0.2,0.4-0.4,0.5-0.7c1.2-2.9-0.5-4.8-1.6-5.7c-0.4-0.3-1-0.5-1.5-0.5c-11.1,0.5-22,10.8-23.2,11.9c-0.1,0.1-0.1,0.1-0.2,0.2
		c-13.3,17.4-71,11.2-71,11.2c-31.4-2.8-45.8-24.7-46.9-26.5c-0.1-0.1-0.1-0.2-0.2-0.3c-14.2-17.4-30.5-20.6-30.5-20.6
		c-28.4-6.6-50.3-23-50.3-23c-12.4-9.5-29.8-15.8-34-17.2c-0.6-0.2-1.1-0.7-1.4-1.2c-4.5-8.8-16.4-16.6-18-17.6
		c-0.1-0.1-0.2-0.1-0.4-0.2c-4.8-2-12.9-4.5-18.3-6c-2.1-0.6-2.4-3.5-0.4-4.5c4.5-2.3,8.7-3.8,11.2-4.7c1.2-0.4,2.4,0.2,2.9,1.3
		c5.4,10.7,35.4,28.2,35.4,28.2c61.2,35,195.7,47,195.7,47c54.1,4.2,124.7-13.1,128.8-14.2c0.1,0,0.3-0.1,0.4-0.1
		c16.9-7.1,29.2-28.7,31.2-32.5c0.2-0.4,0.3-0.7,0.3-1.2v-7.5c0-0.2,0-0.5-0.1-0.7C522.8,252.1,444.7,230.4,444.7,230.4z
		 M442.5,315.9c-0.1-0.1-0.2-0.3-0.3-0.5c-4.5-8.5-6.2-7.4-6.2-7.4c-7.8,4.9-20.9,1-23.6,0.2c-0.3-0.1-0.6-0.3-0.8-0.5
		c-6.1-5.4-14.6-22.1-15.9-24.5c-0.1-0.2-0.2-0.4-0.2-0.6c-2.5-12.8,11.2-15.4,15.3-15.9c0.7-0.1,1.4,0.1,1.9,0.6
		c11.8,11.4,28.4,37.4,33.6,45.8C447.8,315.5,444.5,318.1,442.5,315.9C442.5,316,442.5,316,442.5,315.9z M515.4,291.2
		c-11.7,20.3-24.4,19.7-27.4,19.2c-0.5-0.1-1.1,0-1.5,0.3c-2.1,1.2-3.3,3.6-3.8,4.6c-0.1,0.3-0.4,0.6-0.6,0.8
		c-0.4,0.3-0.8,0.6-1.1,0.8c-2.1,1.3-4.5-1.1-3.4-3.2c15.6-28.2,17.2-45.4,17.4-48.7c0-0.4,0.1-0.8,0.4-1.1
		c4.5-6.7,12.8,0.5,12.8,0.5c13.3,9.2,8.2,24.5,7.5,26.5C515.5,290.9,515.4,291,515.4,291.2z"/>
	<path class="st1" d="M495,140.8c0-0.1,0-0.1,0-0.2c-0.4-2.2-10.8-52.5-55.8-54.6c0,0-41.6-4.4-64.5,44.8c0,0-5.3,10.6-19,13
		c-0.4,0.1-0.9,0-1.3-0.1c-3.2-1.2-18.7-5.7-39.7,7.1c-0.3,0.2-0.7,0.3-1.1,0.3c-1.4,0.1-4.5-0.6-7.8-7.2c0,0-28.4-63.3-75.4-61.2
		c-0.1,0-0.1,0-0.2,0c-2.3-0.1-56.4-2-82.4,53.2c-0.4,0.9-1.3,1.4-2.3,1.4c-11.5-0.5-82-3.3-113.5,0.3c-0.6,0.1-1.1,0.3-1.5,0.7
		c-2.3,2.3-9.2,10.8-0.2,18.1c0.5,0.4,1.1,0.6,1.7,0.6c8.6-0.6,76.5-4.9,110.4-0.2c1.2,0.2,2.1,1.2,2.1,2.4
		c0,10.5,2.2,58.4,42.9,78.8c0.1,0,0.2,0.1,0.3,0.1c2.9,1.1,53.5,19.3,93.9-5.8c0,0,27-18,28.4-52.5c0-0.5,0.2-1,0.5-1.4
		c3.6-4.3,25.7-28.7,55.5-7.5c0.4,0.3,0.7,0.7,0.9,1.2c0.7,2,2.6,7.5,5.1,11.9c0.2,0.3,0.4,0.6,0.7,0.8c2.4,1.6,13.8,9.5,23,13.8
		c2.2,1,4.3-1.4,3-3.5c-5.1-8-12.8-22.9-12.8-39.3c0-0.7,0.3-1.3,0.8-1.8c4.5-4.1,28-23.3,55.5,4.3c0,0,16.5,15.5,15.4,48.4
		c-0.1,1.6,1.4,2.8,2.9,2.4C471,206.7,502.3,195,495,140.8z M259.8,232.7c-5.4-0.7-3.6-6.5-3.2-7.6c0-0.1,0.1-0.2,0.1-0.3
		c2.7-5.2,4.2-9.1,4.9-12.2c0.6-2.5-2.7-4-4.3-1.9c-12.2,16.1-36.7,12.1-36.7,12.1c-30.6-5.5-32.5-39.1-32.5-39.1
		c-1.6-18.9,6.4-29.6,14.3-35.4c2.1-1.6,0.6-4.9-2-4.3c-2.9,0.7-5.4,1.4-7.2,2c-1.6,0.5-3.1-0.7-3.1-2.3v-0.3c0-1,0.6-1.9,1.5-2.2
		c52.4-20.6,72.8,13.7,72.8,13.7c23.6,41.3,2.1,71.3-2.4,76.9C261.3,232.4,260.6,232.8,259.8,232.7z"/>
	<circle class="st1" cx="216.7" cy="183.9" r="10.9"/>
	<circle class="st1" cx="409.1" cy="183.9" r="10.9"/>
	<path class="st1" d="M148.7,354.8c0,0,0.8,15.6-12.2,14.1c0,0-13.7,1.6-6.5,17.2c0,0,26,54.6,61.6,48.3c0,0,5.2-1.1,9.1-3.7
		c2.8-1.9,6.3-2.4,9.6-1.6c9.4,2.2,27.9,5,44.5-1.7c0,0,7.8-5-2.6-11.9c0,0-22.8,4.8-28-1.2c0,0-4.6-3.3,4-10.9
		c0,0,10.7-9.5,1.6-16.1c0,0-43.2-10.7-57.7-30.5C172.2,356.9,153.7,336.5,148.7,354.8z"/>
	<path class="st1" d="M87.9,417.3c0,0-1.7,15.5-14,11.9c0,0-13.4-0.8-9,15.9c0,0,16,58.3,51.2,58.1c0,0,5.2-0.2,9.3-2.1
		c3-1.3,6.5-1.3,9.5,0c8.7,3.8,25.9,9.7,42.9,5.9c0,0,8.3-3.6-0.5-12.1c0,0-22.7,0.9-26.6-6c0,0-3.8-4,5.6-10.1
		c0,0,11.8-7.6,4.2-15.6c0,0-39.7-17.9-50.4-39.9C110,423.3,95.6,400.1,87.9,417.3z"/>
</g>
</svg>
