<?xml version="1.0" encoding="utf-8"?>
<!-- Generator: Adobe Illustrator 27.4.0, SVG Export Plug-In . SVG Version: 6.00 Build 0)  -->
<svg version="1.1" xmlns="http://www.w3.org/2000/svg" xmlns:xlink="http://www.w3.org/1999/xlink" x="0px" y="0px"
	 viewBox="0 0 566.9 566.9" style="enable-background:new 0 0 566.9 566.9;" xml:space="preserve">
<style type="text/css">
	.st0{display:none;}
	.st1{fill:#71C492;}
</style>
<g id="Layer_1" class="st0">
	
		<image style="display:inline;overflow:visible;" width="1701" height="2338" xlink:href="../skeleton_head.png"  transform="matrix(1.4994 0 0 1.4994 -923 -545)">
	</image>
</g>
<g id="Layer_2">
	<path d="M23.5,419.7c4.9,21.7,30.3,82,121,103.5c4.5,1.1,9.8-1.8,14.6-20.4c2.8-10.7,16.4-24.4,23.9-18.2c1.1,0.9,1.9,2.2,2.4,3.5
		c3.5,9.5,27.3,53.9,111.4,47.3c0,0,112.5,3.1,131.5-43.2c0.1-0.2,0.2-0.4,0.2-0.6c1-2.8,8.2-24.2,10.2-39.7c0-0.3,0.1-0.6,0.2-1
		c0.8-3.3,6.2-20.4,27.4-25.3c0.3-0.1,0.6-0.2,0.9-0.3c6.8-2.4,81.9-25.2,81.4-131.4c0,0,5.2-66.3-24.3-68.9c0,0-24,0.6-38.3,0.5
		c-0.4,0-0.8,0-1.2-0.1c-4.5-0.6-40.3,3.7-43.9-21.7c0,0-12.4-116.8-65.1-153.2c-0.1-0.1-0.2-0.2-0.3-0.3
		c-2.8-2.2-41.8-26.3-91.8-24.9c-0.2,0-0.4,0-0.6,0c-4.4,0-84.3-4.1-128.2,74.8c0,0-21.5,38.8-41.6,58.2
		c-5.6,5.4-9.7,12.2-11.7,19.7c-3.6,13.4-8,37.1-7.8,72.3c0,1.4-0.3,2.7-0.9,3.9C86.2,268,35.8,358.2,27.8,390.7
		C26.6,395.5,22.4,414.9,23.5,419.7z"/>
</g>
<g id="Layer_3">
	<path class="st1" d="M396.4,410.3c-20.4-1.2-152.2-13.6-181.8-127.3c-0.5-1.8-3-2-3.6-0.2c-4.6,12.2-14.2,42.8-9.4,75.2
		c0.1,0.4,0.3,0.8,0.6,1.1c6.1,5.8,69.1,62.9,189,67.4c0.8,0,1.6-0.5,1.9-1.2l5-12.4C398.6,411.7,397.7,410.4,396.4,410.3z"/>
	<path class="st1" d="M392.7,451.8c-2.1-1.6-7.2-5.7-11.3-10.4c-0.4-0.4-1-0.7-1.6-0.7c-8.3,0.4-70.9,2-167.6-40.8
		c-1.3-0.6-2.8,0.5-2.7,1.9c1,10.4,6.1,43.4,32.9,62.4c0.2,0.1,0.4,0.2,0.6,0.3c5.9,1.5,85.4,21.4,147.6-3c0.6-0.2,1-0.7,1.2-1.3
		l1.6-6.4C393.6,453,393.3,452.2,392.7,451.8z"/>
	<path class="st1" d="M530.3,260c0.2-0.4,0.2-0.9,0.1-1.3c-0.7-2.3-3.3-8.9-9.5-8.9c0,0-24.7,0-49.5,3.2c-0.1,0-0.1,0-0.2,0
		c-2.9,0.1-85.3,3-93.8-11.9c0,0-4.2-3.1,7-3.2c0.4,0,0.8-0.1,1.1-0.4c2.1-1.5,9.5-7.9,11.3-25.5c0,0,9.7-78.7-31.2-139
		c0-0.1-0.1-0.1-0.1-0.2c-1.2-1.4-18.8-22.3-33.4-13.9c0,0-28,14-35.6,7.5c0,0-25.9-29.1-59.3-11.9c0,0-19.4,6.5-48.5,55
		c0,0-26.9,47.4-59.2,74.3c-0.1,0.1-0.1,0.1-0.2,0.2c-1.3,1.5-15.3,18.5,0.1,33.6c0,0,21.4,20,10.9,42.5c-0.1,0.2-0.2,0.4-0.4,0.6
		c-1.7,1.7-10.8,12.7,9.9,36.4l12.5,15.6c0.3,0.4,0.4,0.8,0.4,1.3c-0.4,7.7-2.9,75.7,20.5,109.2c0,0,0.1,0.1,0.1,0.1
		c0.8,1.4,14.6,26,25.9,54.5c0,0.1,0.1,0.2,0.1,0.4c0.2,1.3,2.1,9.3,15.8,17.2c0.1,0.1,0.3,0.1,0.4,0.2c3.8,1.1,53.1,14.7,92.5,5.3
		c0,0,32.1-6.4,48.3-5.4c0.1,0,0.3,0,0.4,0c3.1-0.5,43.1-6.9,46.2-19.4c0,0,4.2-12.7-6.2-6.6c-0.2,0.1-0.4,0.2-0.6,0.2
		c-3.2,0.7-31.4,6.7-56.8,11.8c-0.1,0-0.1,0-0.2,0c-2.8,0.3-79.7,8.4-97.9-2.1c-0.1-0.1-0.2-0.1-0.3-0.1c-1.3-0.5-11.5-4-18.6-4.2
		c-0.5,0-0.9-0.2-1.3-0.5c-5.8-5.5-54.3-56.7-37.3-215.7c0-0.4,0-0.7-0.2-1c-1.8-3.6-13.1-26.7-22-37.2c-1.2-1.4,0.1-3.5,1.9-3.1
		c7.6,1.9,19.6,6,24.5,13.7c0,0,0.1,0.1,0.1,0.1c1.1,2,27,47.8,32.3,67.9c0,0,19.4,61.5,105.7,92.7c0,0,55.9,22.6,123.7,3.3
		c0.2-0.1,0.5-0.2,0.7-0.3c2.1-1.6,15.3-11.8,24.2-15.8c0.2-0.1,0.4-0.2,0.6-0.4c3.8-3.9,49.9-52.1,40.8-94.4c0-0.2,0-0.3,0-0.5
		C526.5,281.9,527.5,265.7,530.3,260z M331,227c-5-7.7-14.5-1.9-15.9-1c-0.1,0.1-0.3,0.1-0.4,0.2c-44.1,16.1-73.1,3.2-73.1,3.2
		c-41-16.2-28-86.3-28-86.3c11.9-55,46.4-57.2,46.4-57.2c28.9-6.2,44.3,25.1,45.6,27.8c0.1,0.1,0.1,0.3,0.2,0.4
		c4.3,5.5,11.7,1,13.2,0c0.2-0.1,0.3-0.2,0.4-0.4c16.2-21,35.1-14.7,37.3-13.9c0.1,0.1,0.3,0.1,0.4,0.2
		c30.5,20.2,35.2,75.4,35.4,77.5c0,0,0,0.1,0,0.1c1,40-12.9,49.4-14.9,50.5c-0.1,0.1-0.3,0.1-0.5,0.2c-33.8,8.9-44.6,0.3-46-1
		C331.2,227.2,331.1,227.1,331,227z M519.9,270.6c-5.6,3.3-35.1,20.8-43.1,28.7c-0.1,0.1-0.2,0.2-0.4,0.3c-1,0.5-4.9,2.2-10.5-3.3
		c0,0-0.1-0.1-0.1-0.1c-1-0.8-16.7-13.6-34.5-2.1c0,0-14,9.7-21.6,4.3c0,0-24-16.7-37.1-24.4c-0.4-0.2-0.7-0.6-0.9-1.1
		c-0.8-2.5-2.8-10.8,4.5-9c0,0,30.1,7.5,56,5.4c0,0,0.1,0,0.1,0c1.1-0.2,16.8-2.3,28.6,0.4c0.1,0,0.2,0,0.3,0
		c2.5,0.2,39.5,2.5,50.4-5.8c0,0,0.1,0,0.1-0.1c0.6-0.4,6.2-3.6,8.6-0.6c0.3,0.3,0.4,0.8,0.4,1.2v4.6
		C520.9,269.6,520.5,270.2,519.9,270.6z"/>
	<circle class="st1" cx="267" cy="194.2" r="12.9"/>
	<circle class="st1" cx="341.4" cy="198.5" r="12.9"/>
	<path class="st1" d="M101,320.7c0,0-1,13.8-12.4,11.1c0,0-12.2-0.2-7.6,14.4c0,0,16.7,51,48.8,49.5c0,0,4.7-0.4,8.4-2.2
		c2.7-1.3,5.8-1.4,8.7-0.3c8,3,24,7.6,39.4,3.6c0,0,7.5-3.5-0.9-10.7c0,0-20.7,1.7-24.5-4.2c0,0-3.6-3.4,4.8-9.2
		c0,0,10.5-7.2,3.2-14c0,0-36.8-14.3-47.4-33.3C121.4,325.1,107.5,305.1,101,320.7z"/>
	<path class="st1" d="M62.2,402.5c0,0,0.7,13.8-11,12.5c0,0-12.2,1.3-5.8,15.2c0,0,22.7,48.6,54.4,43.2c0,0,4.6-1,8.1-3.2
		c2.5-1.6,5.6-2.1,8.6-1.4c8.3,2,24.7,4.6,39.5-1.2c0,0,7-4.4-2.2-10.5c0,0-20.3,4.2-24.8-1.3c0,0-4-3,3.6-9.7c0,0,9.6-8.4,1.5-14.3
		c0,0-38.3-9.8-51-27.4C83,404.5,66.7,386.3,62.2,402.5z"/>
</g>
</svg>
