<?xml version="1.0" encoding="utf-8"?>
<!-- Generator: Adobe Illustrator 27.4.0, SVG Export Plug-In . SVG Version: 6.00 Build 0)  -->
<svg version="1.1" xmlns="http://www.w3.org/2000/svg" xmlns:xlink="http://www.w3.org/1999/xlink" x="0px" y="0px"
	 viewBox="0 0 566.9 283.5" style="enable-background:new 0 0 566.9 283.5;" xml:space="preserve">
<style type="text/css">
	.st0{display:none;}
	.st1{fill:#D1DE43;}
	.st2{fill:#F48A21;}
	.st3{fill:#D33D09;}
	.st4{display:inline;}
</style>
<g id="Layer_1" class="st0">
	
		<image style="display:inline;overflow:visible;" width="3430" height="3430" xlink:href="3CA546C4C2EE19C.png"  transform="matrix(1 0 0 1 -426.7571 -433.2814)">
	</image>
</g>
<g id="Layer_3" class="st0">
	
		<image style="display:inline;overflow:visible;opacity:0.32;" width="500" height="375" xlink:href="../../Reference/1902887.jpg"  transform="matrix(2.8477 0 0 2.8477 -321.0344 -765.1896)">
	</image>
</g>
<g id="Layer_4">
	<path d="M122.5,5.4c0,0,146.8,70.4,323.8-1c2.3-0.9,166.6,38.4,107.5,206.4c-1.2,0.7-88.9,71-274,67.6c0,0-159.5,0.2-234.6-32.2
		c0,0-75-65.5-31.5-163.7C13.8,82.4,49.1,2.3,122.5,5.4z"/>
	<path class="st1" d="M474.7,13.6c0,0,8,17,21.6,24c0,0,1.8,3.7-5.2,3.7c0,0-26.9,0.7-50.4-19.1c0,0-24.6,8.3-34.2,10.8
		c-1.1,0.3-1.3,1.7-0.3,2.3c4.9,3,15.6,9.3,21.7,10.9c1.2,0.3,2,1.5,1.8,2.8c-1.5,11.3-7.5,59.2-6.3,66.3c0,0,0,0,0,0
		c0,0-44.4-40.7-51.4-56.9c-0.3-0.7-0.3-1.4-0.1-2.1c0.9-2.8,3.5-10.7,5.4-15.7c0,0,0,0,0,0c-0.1,0-31.4,8.5-51.7,10.4
		c-1.6,0.2-3,1.1-3.8,2.5c-2.6,5-8.5,17.2-8.8,26.4c0,0-1.4,27.7-4,41c-0.4,2.2-3.2,2.9-4.6,1.2c-7.9-9.7-27.2-36.1-27.9-65
		c-0.1-2.3-1.9-4.1-4.2-4.3c-10-0.6-35.4-2.2-51-4.9c-2.3-0.4-4.7,0.2-6.5,1.6c-8.1,6.3-28.7,26.2-25.6,63c0,0-2.4,6.7-8.2-0.5
		c0,0-28.8-30.7-14.9-75.3c0,0,0,0,0,0c0,0-34-11.1-46.4-17.4c-1.9-1-4.3-0.6-5.8,0.8c-6.9,6.5-24.7,24.2-32.6,41
		c-0.6,1.3-2.5,1.2-3-0.1c-2.3-6.3-6.1-21-3.3-45c0,0-25.7,11.6-44.8,39c0,0,1.1,24.5,15.3,46.4c0.9,1.3,0.5,3.1-0.9,3.9
		c-6.6,4-24.6,16.5-34.8,39.9c-0.3,0.7-1.3,0.6-1.5-0.1c-1.1-4.4-3.9-13.8-7.5-18.5c0,0-7,41.4,15.8,81.5c0,0,0,0,0,0
		c0,0,12.5-37.5,36.4-54.4c1.5-1.1,3.6,0,3.6,1.9c-0.3,12.6,1.6,50.5,32.8,86.2c1.5,1.8,3.6,3,5.9,3.6c9,2.2,34,7.8,51.7,8.8
		c1.4,0.1,2.5-1.2,2.3-2.6c-2-11-6.5-53.8,32.1-91.9c0,0,9.2-4.6,5.2,9.2c0,0-16.8,55.6,13.9,90.1c0.6,0.7,1.5,1.1,2.5,1.2
		c5.8,0.6,27.5,2.7,38.4,3.2c2,0.1,3.8-1.4,3.9-3.5c1.3-15,8.6-73.1,47.9-95c0,0,4.8,2.2,0.5,8c-0.3,0.5-0.6,1-0.7,1.5
		c-1.7,6.7-10.2,47.2,18.7,86.2c1.3,1.8,3.5,2.8,5.7,2.6c14.8-1.3,72.7-6.7,100.4-13.4c1.6-0.4,2.4-2,1.9-3.5
		c-1.5-4.1-5.8-12-18.1-21.1c-1-0.8-1.6-2.1-1.3-3.4c2-11.1,11.6-62,20.3-75.8c0,0,0,0,0,0c0,0,26.9,33.2,40.7,44.7
		c0,0,8.9,8.5-3,45.8c-0.4,1.1,0.7,2.2,1.8,1.8c9-2.8,38.6-12.4,52-20.9c0.9-0.6,1.6-1.4,2-2.5c2.7-7.5,13.6-41.2,4-65
		c0,0-4-12,6.9-8c0,0,28.7,12.1,29.2,52.6c0,1,1.1,2.6,1.9,2l2-0.4c0.4-0.3,0.7-0.7,0.9-1.2C562.4,184,600.2,59.7,474.7,13.6z
		 M117.1,166.6c-19.2-23.1-24.9-45.1-25.9-49.9c-0.1-0.6-0.1-1.2,0.2-1.8c10.8-23.4,26.6-33.3,34.2-36.8c1.9-0.9,4.1,0.6,3.9,2.8
		c-1.5,18.5,7.4,35.5,10.6,40.8c0.6,1,0.5,2.3-0.3,3.3c-8.5,10-15.1,31-17.9,40.6C121.3,167.7,118.5,168.3,117.1,166.6z
		 M224.7,177.1c-6-12.6-9.2-44.6-9.6-48.7c0-0.3,0-0.6,0.1-0.9c4.8-15.2,20.9-29.9,28-35.8c1.3-1.1,3.3-0.3,3.5,1.4
		c1.4,12.7,11.1,35.8,13.9,42.4c0.4,1,0,2.1-0.9,2.7c-10.1,6-28.2,32.1-32.9,39C226.3,178.1,225.1,178,224.7,177.1z M360.1,182.5
		c-9.2-13.1-20.2-38.9-22.3-43.9c-0.2-0.5-0.3-1.1-0.3-1.7c0.7-12.8,10.6-35.5,14.6-44.2c0.6-1.3,2.4-1.1,2.8,0.2
		c6.6,20.1,21.3,36.7,25.4,41.1c0.7,0.8,1.1,1.8,1.1,2.8c-0.2,26.8-13.2,41.5-18.1,46.2C362.4,183.7,360.8,183.6,360.1,182.5z
		 M492.7,145.9c-0.1,1-1.4,1.5-2.2,0.8c-17.9-15.6-45.5-29.9-45.5-29.9c0,0,0,0,0,0V67.4c0.8-0.5,1-0.7,1.8-1.2l44.9,16.4
		c0.3,0.3,0.5,0.6,0.8,0.9C498.2,102.5,494,136.5,492.7,145.9z"/>
	<path class="st2" d="M109.7,17.1c-4.7,4.2-20.9,19.4-26.6,30.4c-0.6,1.1-2.2,0.9-2.4-0.4c-1-5.6-2.4-16.9-0.9-33.5
		c0,0,11.5-5.4,21.4-6.7c0,0,4.2,5.2,8.4,8.1C110.3,15.5,110.3,16.5,109.7,17.1z"/>
	<path class="st2" d="M170.9,40.7c-1.6,7.3-6.1,33.9,8.7,57.6c0.9,1.5,3.2,0.9,3.2-0.8c0.5-10,3.9-31.7,22.4-49.7c1.1-1,0.5-2.8-1-3
		c-7.4-0.9-24-3.2-31.1-5.4C172.1,39.1,171.1,39.7,170.9,40.7z"/>
	<path class="st2" d="M284.7,53.8c4.6-0.2,21.4-0.9,29-2c1-0.2,1.8,1,1.2,1.9c-3.5,5.8-11.2,22.1-10.3,52.5c0,1.2-1.6,1.8-2.3,0.7
		c-5.5-8.1-18.5-29.6-18.9-51.8C283.5,54.4,284,53.8,284.7,53.8z"/>
	<path class="st2" d="M382.9,40.5c3.2-0.6,11.1-2.1,16-4c0.5-0.2,1.1-0.1,1.5,0.3c2.7,2.3,13,10.6,22.2,14c0.7,0.3,1.1,1,1,1.7
		c-0.9,5.5-4.5,27.8-5,44.9c0,1.3-1.6,2-2.6,1.1c-8.2-7.5-33.3-31-36.8-41.3c-0.1-0.3-0.1-0.6,0-1c0.6-1.8,2.7-8.8,2.3-14.1
		C381.6,41.4,382.1,40.7,382.9,40.5z"/>
	<path class="st2" d="M448.5,18.8c3.8-1.2,12.9-5.7,17.1-9.1l7.2,3.1c0,0-1.8,7.1,9,19.5c0.5,0.6,0.1,1.6-0.7,1.5
		c-5.7-0.5-21.2-2.8-32.9-13.5C447.7,19.8,447.9,19,448.5,18.8z"/>
	<path class="st2" d="M20.3,214.1c0,0,12-32.9,28-47.8c0.9-0.9,2.5-0.2,2.5,1c0.3,9.5,3.4,38.7,26.8,70.1c0.8,1.1-0.2,2.7-1.6,2.4
		c-10.1-2.6-36.2-9.7-49.9-16.7C26.1,223.1,22.6,218.1,20.3,214.1z"/>
	<path class="st2" d="M156,252.6c-0.7-6.7-3.8-47.6,19.1-77.2c1-1.2,3-0.3,2.6,1.2c-2.9,13.7-7.3,47.9,12.5,78.5
		c0.7,1-0.1,2.4-1.3,2.3c-7.2-0.4-25.4-1.6-31.9-3.5C156.4,253.7,156,253.2,156,252.6z"/>
	<path class="st2" d="M252.7,261.1c0.4-9.9,3.4-52.6,29.1-79.7c1.4-1.5,3.8-0.3,3.5,1.7c-2.2,12.5-3.7,41.3,17.8,76.2
		c0.8,1.3-0.1,3-1.6,3.1c-8.8,0.3-32,1.1-46.7,0.9C253.6,263.2,252.7,262.3,252.7,261.1z"/>
	<path class="st2" d="M425,244.5c-1.7-4.2-7.2-16.3-16.7-22c-0.8-0.5-1.2-1.3-1-2.2c1.1-7.8,6.2-43.1,12.7-59.1
		c0.6-1.6,2.7-1.9,3.8-0.6c6.2,7.5,23.4,27.8,32.5,34.6c0.4,0.3,0.7,0.8,0.9,1.3c0.9,3.7,3.9,19.4-5.5,42.1c-0.2,0.6-0.7,1-1.3,1.2
		c-3.3,1.3-14.6,5.5-23.2,6C426.3,245.9,425.4,245.4,425,244.5z"/>
	<path class="st2" d="M521.3,211.8c2.8-8.6,11.4-39.3,1.8-62.8c-0.4-1,0.7-1.9,1.6-1.3c7.3,5,25.4,20.3,24.4,50.2
		c0,0.3-0.2,0.7-0.5,0.9c-2.3,1.5-12.6,8.2-25.8,14.4C521.9,213.5,521,212.7,521.3,211.8z"/>
	<path class="st3" d="M2.1,119.4c0,0,2.2,6.8,4.7,11.7c1.1,2.3,4.4,2.4,5.7,0.3c4.5-7.1,14.3-20.9,25.3-27c1.5-0.8,2.1-2.7,1.4-4.3
		C35.8,92.9,27.4,73.6,28,58.3C28,58.3,8,81.5,2.1,119.4z"/>
	<path class="st3" d="M120.9,85.5c-6,4.6-17.3,14.8-24.4,30.1c-0.2,0.5-0.3,1-0.1,1.5c1.3,4.4,8,25.6,19.4,39.3
		c1.1,1.3,3.3,0.9,3.8-0.7c2.3-7.3,8-23.5,14.6-31.9c0.5-0.7,0.6-1.6,0.2-2.4c-2.4-4.6-10.3-20.6-9.9-34.1
		C124.4,85.5,122.3,84.4,120.9,85.5z"/>
	<path class="st3" d="M240.2,101.4c-5.5,5.3-17,17.3-19.3,26.9c0,0.2-0.1,0.3,0,0.5c0.1,2.5,0.9,23.5,4.9,34.4
		c0.5,1.3,2.3,1.6,3.1,0.4c4.6-6.2,16.9-22.3,24.4-27.6c0.7-0.5,0.9-1.4,0.6-2.2c-2.3-4.8-9.5-20.7-10.6-31.3
		C243,101,241.3,100.4,240.2,101.4z"/>
	<path class="st3" d="M351.6,106.3c-2.8,6.9-8,21.3-8,30c0,0.2,0,0.4,0.1,0.6c1,2.7,9.3,24.4,16.8,36c0.6,0.9,1.9,1,2.6,0.1
		c3.5-4.7,12.6-18.4,12.9-33.8c0-0.4-0.1-0.8-0.4-1.1c-2.5-2.9-16.1-19.3-21.1-31.7C354,105,352.1,105,351.6,106.3z"/>
	<path class="st3" d="M450.7,74.6c0.2,5.7,0.8,28.7,0,37.8c0,0.3,0.1,0.7,0.4,0.8c3.6,1.9,25.1,13.7,34.8,22.4
		c0.5,0.5,1.3,0.2,1.4-0.5c0.8-6.8,3.5-32.6-0.1-46.1c-0.1-0.3-0.2-0.5-0.5-0.6c-3-1.3-23.4-10.4-35-14.7
		C451.3,73.6,450.7,74,450.7,74.6z"/>
</g>
<g id="Layer_2" class="st0">
	<g class="st4">
		<path d="M425.2,0c78.3,0,141.7,63.5,141.7,141.7v0c0,78.3-63.5,141.7-141.7,141.7H141.7C63.5,283.5,0,220,0,141.7v0
			C0,63.5,63.5,0,141.7,0H425.2 M425.2-11H141.7c-40.8,0-79.2,15.9-108,44.7C4.8,62.6-11,100.9-11,141.7c0,40.8,15.9,79.2,44.7,108
			c28.9,28.9,67.2,44.7,108,44.7h283.5c40.8,0,79.2-15.9,108-44.7c28.9-28.9,44.7-67.2,44.7-108c0-40.8-15.9-79.2-44.7-108
			C504.4,4.8,466-11,425.2-11L425.2-11z"/>
	</g>
</g>
</svg>
