<?xml version="1.0" encoding="utf-8"?>
<!-- Generator: Adobe Illustrator 27.4.0, SVG Export Plug-In . SVG Version: 6.00 Build 0)  -->
<svg version="1.1" xmlns="http://www.w3.org/2000/svg" xmlns:xlink="http://www.w3.org/1999/xlink" x="0px" y="0px"
	 viewBox="0 0 566.9 283.5" style="enable-background:new 0 0 566.9 283.5;" xml:space="preserve">
<style type="text/css">
	.st0{display:none;}
	.st1{fill:#EE999A;}
	.st2{fill:#FDD509;}
	.st3{fill:#F37D2A;}
	.st4{display:inline;}
</style>
<g id="Layer_1" class="st0">
	
		<image style="display:inline;overflow:visible;" width="3430" height="3430" xlink:href="2120C89AE5FECF6.png"  transform="matrix(1 0 0 1 -426.7571 -433.2814)">
	</image>
</g>
<g id="Layer_5">
	<path d="M69.3,13.7c-32.5,23.9-99,88.4-54.2,192.7c3.3,7.6,8.9,18.8,15.9,22.5c28.5,15.2,114.6,54.1,263,51.4
		c0,0,161.3-1.8,232.8-34.3c7-3.2,12.8-12.8,16.4-19.9c17.6-34.4,61.3-144.9-57.1-219c-8-5-17.6-6.4-26.5-3.7
		C428.4,12.9,347.8,35,284.9,32.6c0,0-117,2.1-185-23.4C89.6,5.4,78.3,7.1,69.3,13.7z"/>
</g>
<g id="Layer_6">
	<path class="st1" d="M0.2,142.8c0,0,67.3,59.7,232.9,67.3c5.2,0.2,10.1-2.9,12.3-8.1c9.6-22.6,40.8-83,102.5-86.2
		c0,0,67.1-0.9,86.7,80.9c1.1,4.5,5.1,7.4,9.3,6.8c22.4-3.4,88.1-14.7,119.4-36.5c0,0,9.8-38.1-2.6-68c0,0-64.3,39-123.2,11.8
		c0,0-45.5-20.6-61.5-65.1c-1.2-3.3-4.3-5.3-7.6-4.8c-16.2,2.6-63.6,9.5-95.6,6.8c-4.6-0.4-8.6,3.3-9.1,8.2
		c-1.8,18.5-9.6,60.6-44,86.9c0,0-44.1,27.5-102.1,0c0,0-64.8-36-64.4-115.8C53.2,26.9-3.4,69.5,0.2,142.8z"/>
	<path class="st2" d="M265.1,210.8c19.9,1.5,96.6,6.4,149.5-3.7c3.4-0.6,5.7-4,5.4-7.6c-1.3-14.1-8.3-51.1-52.6-69.9
		c0,0-71.8-23-105.6,75.9C261.1,208,262.7,210.6,265.1,210.8z"/>
	<path class="st2" d="M244.8,45.7c-30.2-1-136.7-6.5-170.6-34.9c0,0-8,4.8-14.5,10.5c0,0,2.5,75.5,62.1,111.7
		c0,0,40.9,24.4,85.1,4.3c0,0,42.8-22.4,45.9-82.3C253,50,249.4,45.8,244.8,45.7z"/>
	<path class="st2" d="M482.1,4.9c0,0-52,23.5-87.8,29.9c-4.4,0.8-6.9,5.9-5.1,10.3c6.7,16.3,25.2,49.7,66,61.5
		c0,0,51.7,14.3,102.3-17.5C557.5,89.2,546.2,40.1,482.1,4.9z"/>
	<path class="st3" d="M1,154.7c0,0,22.4,14.6,33,18.9c1.1,0.5,1.9,1.5,2.2,2.7c1,5,3.1,18.2,0.6,32.3c-0.4,2.4-2.9,3.8-5,2.7
		c-5.5-2.7-15.2-7.8-19.1-11.1C12.6,200.2,1.1,175.3,1,154.7z"/>
	<path class="st3" d="M44.7,182.5c0.6,7,1.3,21.3-1.8,32.3c-0.3,1.2,0.2,2.4,1.2,3c5.2,2.9,20.6,11.2,33.2,13.6
		c1.2,0.2,2.3-0.5,2.7-1.8c1.5-5.2,4.8-19.1,3-34.7c-0.1-1-0.7-1.8-1.6-2.1c-5.2-1.9-23.9-8.9-33.6-13
		C46.2,179.1,44.5,180.5,44.7,182.5z"/>
	<path class="st3" d="M91.2,199c0,7.1-0.3,23.3-3.4,34.3c-0.4,1.4,0.3,2.9,1.6,3.3c6.3,2.3,23.8,8.5,34.2,10c1.3,0.2,2.4-0.7,2.7-2
		c1.3-5.8,4.5-21.6,3.8-35.6c-0.1-1.1-0.8-2.1-1.8-2.4c-5.2-1.5-21.2-6.2-33.9-10.1C92.7,195.9,91.2,197.2,91.2,199z"/>
	<path class="st3" d="M139,213.1c0.1,6-0.2,17.4-2.9,33.1c-0.4,2,0.8,4,2.7,4.6c6.3,1.8,20.6,5.5,34,6.2c1.7,0.1,3.2-1,3.7-2.7
		c1.9-6.2,5.8-21.4,4.7-35.7c-0.1-1.8-1.5-3.3-3.2-3.6c-6.2-0.9-21.6-3.3-34.6-5.9C141.1,208.7,139,210.6,139,213.1z"/>
	<path class="st3" d="M189.4,220.6c-0.3,7.5-1.2,24-3.3,33.8c-0.4,2,0.8,4.1,2.8,4.4c7.3,1.1,24.1,3.5,37.9,3.8
		c1.7,0,3.2-1.3,3.3-3.2c0.8-7.1,2.6-24.4,3.4-35.8c0.1-2-1.3-3.8-3.2-3.8c-7.5-0.3-25.6-1.1-37.3-2.5
		C191.1,217,189.5,218.5,189.4,220.6z"/>
	<path class="st3" d="M242.3,226.3c-0.1,7.1-0.6,20-2.6,31.2c-0.5,2.8,1.2,5.4,3.9,5.8c7.4,1.1,22.1,2.8,37.6,1.6
		c2.2-0.2,3.9-2,4.2-4.3c0.8-7.1,2.4-22.5,2.1-33.8c-0.1-2.7-2.1-4.8-4.6-4.8c-8.2,0-26,0-35.8-0.5
		C244.5,221.4,242.4,223.6,242.3,226.3z"/>
	<path class="st3" d="M297.6,227.3c0.3,7.1,0.6,22.1-1.2,33.9c-0.3,2.2,1.2,4.2,3.3,4.3c8.3,0.3,27.3,0.7,38.1,0.1
		c1.7-0.1,3.1-1.6,3.3-3.4c0.6-7.4,1.8-26,0.4-35.7c-0.3-1.9-1.8-3.2-3.5-3.1c-6.3,0.2-22.2,0.7-36.8,0.1
		C299.2,223.3,297.5,225.1,297.6,227.3z"/>
	<path class="st3" d="M350.9,227.6c0.5,7.1,1.3,21.5,0.3,32.2c-0.2,2.4,1.6,4.6,3.9,4.5c8.1-0.1,25.5-0.6,36.7-3.4
		c1.6-0.4,2.9-1.9,3-3.7c0.4-6.2,1.2-20.9,0.2-32.9c-0.2-2.3-2-3.9-4.1-3.8c-7.9,0.7-26.3,2.3-36.2,2.7
		C352.4,223.2,350.8,225.2,350.9,227.6z"/>
	<path class="st3" d="M404.6,224.1c0.6,6.9,1.6,21.2,0.6,30.2c-0.3,2.6,1.7,4.7,4,4.5c9.1-0.7,28.3-2.5,37-4.9
		c1.5-0.4,2.5-1.7,2.8-3.3c0.9-6.3,2.9-22.9,0.7-32.8c-0.5-2-2.2-3.3-4.1-3l-37.6,4.9C405.9,219.9,404.4,221.9,404.6,224.1z"/>
	<path class="st3" d="M459.8,215.3c0.5,5.4,1.6,19.4,0.2,32.1c-0.2,1.6,1.1,2.9,2.5,2.7c6.6-1.1,23.2-4.1,37.4-8.5
		c0.9-0.3,1.5-1.1,1.6-2.1c0.4-5.6,1.4-24,0.3-33.9c-0.2-1.4-1.5-2.4-2.8-2c-6.9,1.9-27.2,7.5-37.3,9.2
		C460.5,212.9,459.7,214,459.8,215.3z"/>
	<path class="st3" d="M511.9,203.9c0.4,5.8,1,17.3,0.7,25.4c-0.1,3.3,3,5.6,5.8,4.3c8.6-4.2,23.3-11.6,29.4-16.8
		c0,0,9.1-19.9,12.3-34.8c0,0-31.8,13.3-45.2,17.5C513,199.9,511.8,201.8,511.9,203.9z"/>
</g>
<g id="Layer_2" class="st0">
	<g class="st4">
		<path d="M425.2,0c78.3,0,141.7,63.5,141.7,141.7v0c0,78.3-63.5,141.7-141.7,141.7H141.7C63.5,283.5,0,220,0,141.7v0
			C0,63.5,63.5,0,141.7,0H425.2 M425.2-11H141.7c-40.8,0-79.2,15.9-108,44.7C4.8,62.6-11,100.9-11,141.7c0,40.8,15.9,79.2,44.7,108
			c28.9,28.9,67.2,44.7,108,44.7h283.5c40.8,0,79.2-15.9,108-44.7c28.9-28.9,44.7-67.2,44.7-108c0-40.8-15.9-79.2-44.7-108
			C504.4,4.8,466-11,425.2-11L425.2-11z"/>
	</g>
</g>
</svg>
