<?xml version="1.0" encoding="utf-8"?>
<!-- Generator: Adobe Illustrator 27.6.1, SVG Export Plug-In . SVG Version: 6.00 Build 0)  -->
<svg version="1.1" xmlns="http://www.w3.org/2000/svg" xmlns:xlink="http://www.w3.org/1999/xlink" x="0px" y="0px"
	 viewBox="0 0 566.9 283.5" style="enable-background:new 0 0 566.9 283.5;" xml:space="preserve">
<style type="text/css">
	.st0{fill:#F17EA4;}
	.st1{fill:#E84B86;}
	.st2{fill:#F5A8C6;}
</style>
<g id="Layer_5">
	<path d="M540.4,79.6c-2.8-7.3-8.4-13.1-15.5-16.4C490.3,47.4,378,5,265.8,59.5c0,0-57.1,24.2-90,31.7c0,0-57.7,18-110.9-15.7
		c0,0-35.2-16.5-51.7,12.7c0,0-17.2,36,29.2,71.2c0,0,58.4,52.1,241.1,32.7c0,0,126.1-9,192,65.5c4.7,5.3,12.6,6.4,18.5,2.4
		C520.4,241.8,582.2,186.1,540.4,79.6z"/>
	<path class="st0" d="M520.7,236.7C444.1,120.3,290,161,290,161C235,175.6,166.2,182,166.2,182l0,0c-58.5-3.8-89.5-16.9-89.5-16.9
		C13,134.5,24.6,97.6,24.6,97.6c7.1-26,39.2-9.9,39.2-9.9c45,25.9,94.4,18.9,94.4,18.9C198.3,101.8,275,67.2,275,67.2
		c142.5-59.5,269,22.3,269,22.3S579.7,171.8,520.7,236.7z"/>
	<path class="st1" d="M222.8,182.6c19.9-2.6,50-7.4,77.9-15.2c0,0,139.7-30.9,213,76.4c0,0-8.6,9.4-19.7,16.2
		c0,0-58.9-91.7-203.9-78.3c0,0-39.9,4.7-66.9,5.3C220.4,187,220.1,182.9,222.8,182.6z"/>
	<g>
		<path d="M309.7,127.5c-1.8-1.2-3.3-2.1-4.3-2.8c-0.5-0.4-1-0.8-1.6-1.1l0,0c-0.7-0.5-1-1.4-0.8-2.2c0.2-0.6,0.3-1.2,0.5-1.9
			c2-6.9,4.9-13.7,8.4-20.4c6.2-11.6,16.4-25.3,32.2-30.8c14.3-5,28,0.5,31.3,9.9c2.6,7.4-0.4,15.2-6.9,21.5
			c9,0.9,16.2,5.2,18.8,12.6c3.3,9.4-4.1,22.3-18.4,27.2c-15.8,5.5-32.3,1.1-44.4-4.1C319.4,133.1,314.4,130.4,309.7,127.5z"/>
		<path class="st2" d="M316.1,123.9c-1.5-0.9-2.6-1.6-3.4-2.1c-0.4-0.3-0.8-0.6-1.3-0.9l0,0c-0.6-0.4-0.8-1-0.6-1.7
			c0.1-0.5,0.3-1,0.5-1.5c1.8-5.4,4.2-10.7,7.2-15.9c5.2-9,13.8-19.8,26.7-24.3c11.7-4.1,22.8-0.1,25.3,7.2c2,5.7-0.6,11.7-6,16.7
			c7.3,0.6,13.1,3.7,15.1,9.4c2.5,7.2-3.7,17.2-15.4,21.3c-12.9,4.5-26.3,1.4-36-2.5C323.9,128.1,319.9,126.1,316.1,123.9z"/>
	</g>
	<path d="M554.7,153c0,0,0.4-34.4-14.3-73.4l-50.1-23.2c0,0-2.1,11.7,4.6,22.2c0,0-33-9.5-39.6,21.7c0,0-6.8,31.2,35,48.2
		C490.3,148.6,519.5,160.4,554.7,153z"/>
	<path class="st2" d="M554.2,141.7c0,0,1.4-20.9-10.2-52.2c0,0-28.1-18.7-47.5-22.7c0,0,0,8.3,4.3,15.7c0,0-20.2-6.7-29.5,10
		c0,0-9.1,17.7,13.7,36.8C485.2,129.3,506.9,149.9,554.2,141.7z"/>
</g>
<g id="Layer_4">
</g>
</svg>
