<?xml version="1.0" encoding="utf-8"?>
<!-- Generator: Adobe Illustrator 27.4.0, SVG Export Plug-In . SVG Version: 6.00 Build 0)  -->
<svg version="1.1" xmlns="http://www.w3.org/2000/svg" xmlns:xlink="http://www.w3.org/1999/xlink" x="0px" y="0px"
	 viewBox="0 0 566.9 283.5" style="enable-background:new 0 0 566.9 283.5;" xml:space="preserve">
<style type="text/css">
	.st0{display:none;}
	.st1{fill:#D1DE43;}
	.st2{fill:#C5872B;}
</style>
<g id="Layer_1" class="st0">
	
		<image style="display:inline;overflow:visible;opacity:0.54;" width="500" height="375" xlink:href="../../Reference/1902887.jpg"  transform="matrix(2.3379 -3.4536 3.4536 2.3379 -483 422.8059)">
	</image>
</g>
<g id="Layer_2">
	<path d="M62.6,24.9c-12-6.7-34.2-15.3-49.9,0.5c-0.6,0.6-1.1,1.2-1.5,1.9c-2.4,3.9-8.3,16.8,7,31.7c0.6,0.6,1.3,1.1,2,1.5
		c4.4,2.6,20.8,11.7,36.3,8.9c4-0.7,8.1,0.8,10.6,3.9c2.7,3.4,8,7.2,17.8,8.6c2.8,0.4,5.3,1.7,7.1,3.9c3.5,4.1,10,10.3,17.3,10.4
		c4.9,0.1,9.2,3.1,10.9,7.7c2.9,8.1,8.5,18.1,18.4,19c4.7,0.4,8.6,3.9,9.8,8.5c1.9,7.3,6.4,16.6,17,20.1c3.4,1.1,6.1,3.6,7.2,7
		c3.1,9.4,10.8,27.2,24.1,28c4.7,0.3,8.8,3.3,10.3,7.8c4.4,12.8,16.6,36.9,49.6,58.2c0,0,43.4,30.8,91,19.8c0.2-0.1,0.5-0.1,0.7-0.1
		c3.4-0.5,33.6-5.9,62.7-34.9c0.1-0.1,0.3-0.3,0.4-0.4c3-3.2,44.1-46.5,101.8-31.2c4.2,1.1,8.6-0.3,11.4-3.5
		c16-18.1,60.6-80.7,6.4-165.6c-2.1-3.3-5.8-5.3-9.7-5.3c-14.9,0-53.9,6.8-103.1,68c0,0-33.2,39.6-79,41.9c-1,0-2,0-3-0.2
		c-6.6-1.4-29.8-9.5-34.7-52.6c0-0.1,0-0.3,0-0.5c-0.2-2.9-4.1-41.3-43.5-47c-3.4-0.5-6.3-2.4-8.2-5.3c-5-7.7-18.5-21.3-48.9-11.6
		c-3.7,1.2-7.7,0.3-10.7-2.1c-6-5-18-11.5-34.5-4.4c-3.5,1.5-7.6,1.2-10.8-0.9c-5.5-3.5-15.8-6.8-30.5,1.8c-3.3,1.9-7.4,2-10.9,0.4
		c-6.4-3.1-17.4-5.9-27.2,4.3C72.9,26.7,67.2,27.5,62.6,24.9z"/>
</g>
<g id="Layer_3">
	<path class="st1" d="M530,47.2c-17.4-0.2-61.5,5.4-103,58.7c-0.2,0.2-0.4,0.5-0.6,0.7c-4.5,5-54.4,58.1-103.6,41
		c-1.1-0.4-2.2-1-3.2-1.6c-5.4-3.9-22.9-17.9-27-40.9c-1.2-6.5-7.2-10.9-13.8-10.4c-16.7,1.2-46,9.1-66.3,47.6
		c-0.6,1.1-1,2.2-1.2,3.4c-1.6,7.7-4.9,36.8,22.7,71.7c0,0,33.7,39.4,74.5,43.6c0,0,52,8.4,88.6-29.5c0,0,54.6-61.6,125.1-39.8
		c5.5,1.7,11.4-0.5,14.6-5.3c12.6-19.3,37.9-70.3,4.5-132.1C539.2,49.9,534.8,47.2,530,47.2z"/>
	<path class="st2" d="M284.7,82.1c-13.4-0.1-47.6,2.6-69.3,29.9c-0.1,0.1-0.2,0.3-0.3,0.4c-1.7,2.6-17.8,27.8-16,56.3
		c0.3,4.3-4.8,6.9-8,4c-6.6-5.9-13.4-18.1-8.2-42.7c0,0,9-39.2,48.3-67.4c0,0,16.6-11.1,38.9-5.7c0.3,0.1,0.7,0.2,1,0.4
		c2.6,1.2,14.6,7.4,18.2,18.6C290.4,79,288,82.1,284.7,82.1z"/>
	<path class="st2" d="M169.8,137.6c2-12.5,14.2-70.2,67-91.1c3.1-1.2,4.1-5.2,1.8-7.7c-5.3-5.9-16.3-13.1-34-3.4
		c0,0-43.4,23.6-50.6,76.4c0,0.3-0.1,0.6,0,1c0.2,4,2,30.8,12.1,28.8C168.1,141.1,169.5,139.5,169.8,137.6z"/>
	<path class="st2" d="M143.7,106.9c2.2-13.7,10.5-50.6,38.1-72.2c2.9-2.3,2.4-6.7-1-8.3c-9.4-4.3-27.1-6.5-43.6,23.4
		c-0.1,0.1-0.1,0.3-0.2,0.4c-1.6,3.6-21.5,50.2-0.2,60.3C139.7,111.9,143.2,110.1,143.7,106.9z"/>
	<path class="st2" d="M141.3,28.5c-6.8,8.2-19.8,27.2-24.6,57.6c-0.5,2.9-3.3,4.7-6.1,3.9c-6.3-1.8-15.2-8-11.4-28.8
		c0,0,3.3-22.5,19.7-37.1c0.2-0.2,0.4-0.3,0.6-0.4c1.7-1.1,9.8-6,19.8-2.9C142.4,21.8,143.5,25.9,141.3,28.5z"/>
	<path class="st2" d="M103.2,33.7c-4.7,5.5-13,17.9-11.9,36.6c0.2,3.8-3.8,6.4-7.1,4.5c-5.7-3.2-12.4-9.1-12.1-19.5
		c0,0-0.9-16.4,8.6-27.7c0.2-0.2,0.4-0.4,0.6-0.6c1.8-1.6,11.2-8.7,21.4-0.3C104.6,28.6,104.9,31.7,103.2,33.7z"/>
	<path class="st2" d="M64.5,43.2c-1,3.5-2.5,9.3-3.1,14.5c-0.2,2.2-1.9,4-4.1,4.3c-6.6,0.9-20.2,1.6-30.8-6.5c0,0-11.7-5.5-8.9-18.1
		c0,0,4.2-11.2,19.7-8.4c0,0,13.4,0,25.5,9.1C64.4,39.2,65.1,41.3,64.5,43.2z"/>
</g>
</svg>
