<?xml version="1.0" encoding="utf-8"?>
<!-- Generator: Adobe Illustrator 27.4.0, SVG Export Plug-In . SVG Version: 6.00 Build 0)  -->
<svg version="1.1" id="Layer_1" xmlns="http://www.w3.org/2000/svg" xmlns:xlink="http://www.w3.org/1999/xlink" x="0px" y="0px"
	 viewBox="0 0 566.9 566.9" style="enable-background:new 0 0 566.9 566.9;" xml:space="preserve">
<style type="text/css">
	.st0{fill:#E6E7E8;}
</style>
<g>
	<path d="M264.1,135.3c0,0,12.6-12.6,25.1-20.9c0,0,20.9-67,52.3-98.4c0,0,4.2,7.1,0,14s-4.2,6.9-4.2,6.9s-29.5,42.9-33.6,65.4
		l12.7-6.8l6.3-12.6c0,0,16.8-12.6,25.1-12.6c0,0-2.1,8.4-8.4,10.5c0,0-12.6,6.3-20.9,20.9c0,0-18.8,6.3-23,18.8
		c0,0-3.3,12.6-8,14.7c0,0,99.8,7.4,132.4,90.6c0,0,5.4,20.4,13.7,24.6c0,0,10.5,14.7,10.5,27.2c0,0,1.6,6.3,25.9,0
		c0,0,23.5-4.9,37.6,2.8c0,0,12.8-11.3,25.9-13.3c0,0,11.1-4.1,23.7,4.3l-7.3,2.1c0,0-17.8-10.5-36.6,10.5c0,0,8.4,0,8.4,2.1
		c0,0-2.1,6.3-8.4,4.2c0,0-10.5-6.3-23-6.3c0,0,18.8,31.4,29.3,48.2c0,0-8.4,2.1-10.5-6.3c0,0-22.7-35.4-29.1-42.8
		c0,0-25.3,3-29.5,11.4c0,0,0,81.7-10.5,119.3c0,0,10.5,6.3,10.5,16.8c0,0,8.4,16.8,16.8,20.9c0,0-2.1,6.3-10.5,2.1
		c0,0-8.4-10.5-12.6-25.1c0,0-6.3-2.1-12.6,2.1c0,0-14.7,37.7-35.6,56.5c0,0-2.1,2.1-2.1,10.5c0,0-6.3,10.5-18.8,10.5
		c0,0-18.8,25.1-64.9,20.9c0,0-12.6,10.5-18.8,18.8c0,0-6.3,4.2-6.3-2.1c0,0,14.7-12.6,12.6-16.8c0,0-46.1-2.1-69.1-12.6
		c0,0-14.7-8.4-29.3-8.4c0,0-33.5-8.4-48.2-27.2c0,0-8.4-14.7-31.4,4.2c0,0-6.3,8.6,0,26.3c0,0-2.1,21.9-8.4,21.9c0,0-2.1,1.5,0-5.5
		c0,0,4.2-11.2,4.2-17.5c0,0-6-5.1-5.1-14.1c0,0-5.4-0.6-9.5,5.7c0,0-8.4,6.3-6.3-2.1c0,0,12.6-14.7,18.8-14.7
		c0,0,8.4-10.5,18.8-14.7c0,0,8.4-6.3,0-20.9c0,0-48.3-80.3-12.6-166.8c0,0,8.5-21.6,8.5-25.8c0,0,2.1-10.5,12.6-16.8
		c0,0,6.3-6.3-2.1-10.5c0,0-10.5-6.3-16.8-14.7c0,0,0-4.2-12.6-2.1c0,0-27.2,4.2-48.2,33.5c0,0-4.2,0-2.1-6.3c0,0,6.3-8.4,10.5-12.6
		c0,0-10.5,0-16.8,4.2c0,0-10.5,4.2-20.9,4.2c0,0-12.6,2.1-18.8,8.4c0,0-4.2-3.8,0-7.1c0,0,8.4-5.4,23-7.5c0,0,6.3,0,16.8-2.1
		c0,0,12.6-8.4,23-6.3c0,0,20.9-14.7,41.9-14.7c0,0,0-8.4-8.4-12.6c0,0-8.4-8.4-12.6-25.1c0,0-10.5-8.4-6.3-31.4c0,0,2.1-6.3,4.2,0
		c0,0-6.3,18.8,10.5,35.6c0,0,6.3,12.6,12.6,20.9c0,0,8.4,6.3,8.4,16.8c0,0,2.1,8.4,16.8,16.8c0,0,6.3,2.1,4.2,10.5
		c0,0,18.8-10.5,18.8-25.1c0,0,8.4-25.1,37.7-48.2C203.4,164.7,234.8,143.7,264.1,135.3z"/>
	<path class="st0" d="M367.1,500.1c0,0-56,9.2-125.6-13.4c0,0-8.9-12.1-23.5-20.5c0,0-27.2-10.5-46.1-69.1c0,0-4.2-33.5,8.4-58.6
		c0,0,5.8-1.5,5-21.7c0,0-5-49.5,13.9-74.6c0,0,33.5-56.5,77.5-75.4c0,0,20.9-10.5,41.9-14.7c0,0,4.2-6.3-6.3-6.3
		c0,0-12.6-2.1-18.8,4.2c0,0,2.3-6.7-9.3-5.5c0,0-5.4,5.5-11.6,5.5c0,0-4.2-4.2,0-6.3c0,0,12.6-10.5,14.7-16.8l-3-3.9
		c0,0-13.7,11.8-15.8,17.3c0,0-2.1,5.5-10.5,7.5c0,0,0,18.8-10.5,20.9c0,0-4.2-4,0-6.2c0,0,6.3-8.5,0-14.8c0,0-52.3,12.6-75.4,64.9
		c0,0-4.2,23-27.2,31.4c0,0-12.6,2.1-14.7,27.2c0,0-6.8,16.1-12.8,29c0,0-24.9,69.4,25.4,157.4c0,0,24.1,38.1,55,43.1
		c0,0,18.3-1.2,24.6,7.1c0,0,93.1,37.7,144.9,0C367.1,508.1,378.1,502.6,367.1,500.1z M171.9,242.1l3.3-2.3c1.2,1.8,3.3,6,3.3,6
		c-1.7,3.7-6.6,3.7-6.6,3.7C171.9,246.3,171.9,242.1,171.9,242.1z M146.7,256.8c-4.3,4.2-6.1,0-6.1,0c2.1-4.2,8.4-8.4,8.4-8.4
		c6.3-4.2,10.5-4.2,10.5-4.2C153.1,248.4,146.7,256.8,146.7,256.8z M159.4,361.5c0,0-4.2,0-2.1-8.4c0,0,3.6-6.3,4.9-10.5h5.5
		C167.8,342.6,165.7,355.2,159.4,361.5z"/>
</g>
</svg>
