<?xml version="1.0" encoding="utf-8"?>
<!-- Generator: Adobe Illustrator 27.4.0, SVG Export Plug-In . SVG Version: 6.00 Build 0)  -->
<svg version="1.1" xmlns="http://www.w3.org/2000/svg" xmlns:xlink="http://www.w3.org/1999/xlink" x="0px" y="0px"
	 viewBox="0 0 566.9 283.5" style="enable-background:new 0 0 566.9 283.5;" xml:space="preserve">
<style type="text/css">
	.st0{display:none;}
	.st1{fill:#70C492;}
	.st2{display:inline;}
</style>
<g id="Layer_1" class="st0">
	
		<image style="display:inline;overflow:visible;" width="3430" height="3430" xlink:href="63F8D09D5E11BB8D.png"  transform="matrix(1 0 0 1 -426.7571 -433.2814)">
	</image>
</g>
<g id="Layer_4">
	<path d="M74.8,37.3c51.8,4.2,247.6,17.8,419.5,0.1c8-0.8,16,3.5,22.1,7.7c25.9,17.9,87.1,70.7,19.4,164c-3.9,5.4-10.4,13.2-18,14.6
		c-48.6,9.2-211.9,44.8-464.5-1.5c-6.1-1.1-11.6-6.1-15.6-10c-20.9-20.3-79.8-89.4,14-165.9C57.8,41.4,66.2,36.6,74.8,37.3z"/>
</g>
<g id="Layer_3">
	<path class="st1" d="M92.1,68c0,0-13.6,10.7-17.4,0.3c0,0-6.6-8.9-17.9,6.5c0,0-39,54.3-19.6,75.9c0,0,2.8,2.8,6.4,4.1
		c2.6,0.9,4.3,3.6,4.1,6.3c-0.7,10.2-0.7,30.7,9.9,39.3c0,0,7.5,2.4,9.6-9.6c0,0-3-21.9,0.5-29.5c0,0,1.2-5.4,11.3-4.2
		c0,0,12.6,1.6,15.1-9.3c0,0-7-38.2,5.2-61.5C99.2,86.3,110.4,59.7,92.1,68z"/>
	<path class="st1" d="M195.5,76.4c0,0-13.6,10.7-17.4,0.3c0,0-6.6-8.9-17.9,6.5c0,0-39,54.3-19.6,75.9c0,0,2.8,2.8,6.4,4.1
		c2.6,0.9,4.3,3.6,4.1,6.3c-0.7,10.2-0.7,30.7,9.9,39.3c0,0,7.5,2.4,9.6-9.6c0,0-3-21.9,0.5-29.5c0,0,1.2-5.4,11.3-4.2
		c0,0,12.6,1.6,15.1-9.3c0,0-7-38.2,5.2-61.5C202.6,94.7,213.8,68.1,195.5,76.4z"/>
	<path class="st1" d="M299.9,80.4c0,0-13.6,10.7-17.4,0.3c0,0-6.6-8.9-17.9,6.5c0,0-39,54.3-19.6,75.9c0,0,2.8,2.8,6.4,4.1
		c2.6,0.9,4.3,3.6,4.1,6.3c-0.7,10.2-0.7,30.7,9.9,39.3c0,0,7.5,2.4,9.6-9.6c0,0-3-21.9,0.5-29.5c0,0,1.2-5.4,11.3-4.2
		c0,0,12.6,1.6,15.1-9.3c0,0-7-38.2,5.2-61.5C307,98.7,318.2,72.1,299.9,80.4z"/>
	<path class="st1" d="M402.6,79c0,0-12.8,11.8-17.3,1.7c0,0-7.3-8.4-17.3,7.8c0,0-34.7,57.1-13.8,77.2c0,0,3,2.6,6.7,3.6
		c2.7,0.7,4.5,3.2,4.5,6c0.1,10.2,1.7,30.7,12.8,38.4c0,0,7.7,1.8,8.9-10.3c0,0-4.6-21.6-1.8-29.5c0,0,0.8-5.5,11-5
		c0,0,12.7,0.6,14.3-10.4c0,0-9.9-37.5,0.5-61.8C411.1,96.7,420.2,69.3,402.6,79z"/>
	<path class="st1" d="M503.4,67.5c0,0-11.9,12.6-17.1,2.9c0,0-7.9-7.8-16.7,9.1c0,0-30.6,59.4-8.3,78c0,0,3.2,2.4,6.9,3.1
		c2.7,0.5,4.7,2.9,5,5.7c0.8,10.2,3.9,30.5,15.5,37.4c0,0,7.8,1.3,8.1-10.9c0,0-6.2-21.2-3.9-29.3c0,0,0.4-5.6,10.6-5.8
		c0,0,12.7-0.3,13.5-11.4c0,0-12.5-36.7-3.9-61.6C513.2,84.5,520.3,56.5,503.4,67.5z"/>
</g>
<g id="Layer_2" class="st0">
	<g class="st2">
		<path d="M425.2,0c78.3,0,141.7,63.5,141.7,141.7v0c0,78.3-63.5,141.7-141.7,141.7H141.7C63.5,283.5,0,220,0,141.7v0
			C0,63.5,63.5,0,141.7,0H425.2 M425.2-11H141.7c-40.8,0-79.2,15.9-108,44.7C4.8,62.6-11,100.9-11,141.7c0,40.8,15.9,79.2,44.7,108
			c28.9,28.9,67.2,44.7,108,44.7h283.5c40.8,0,79.2-15.9,108-44.7c28.9-28.9,44.7-67.2,44.7-108c0-40.8-15.9-79.2-44.7-108
			C504.4,4.8,466-11,425.2-11L425.2-11z"/>
	</g>
</g>
</svg>
