<?xml version="1.0" encoding="utf-8"?>
<!-- Generator: Adobe Illustrator 27.4.0, SVG Export Plug-In . SVG Version: 6.00 Build 0)  -->
<svg version="1.1" xmlns="http://www.w3.org/2000/svg" xmlns:xlink="http://www.w3.org/1999/xlink" x="0px" y="0px"
	 viewBox="0 0 566.9 283.5" style="enable-background:new 0 0 566.9 283.5;" xml:space="preserve">
<style type="text/css">
	.st0{display:none;}
	.st1{display:inline;}
	.st2{fill:#B1BCB3;}
	.st3{fill:none;stroke:#DD1010;stroke-miterlimit:10;}
	.st4{fill:#8A8E8B;}
	.st5{fill:#CED8D0;}
</style>
<g id="Layer_1">
	<g id="Layer_1_00000039123286003050795270000015522993133783548317_" class="st0">
	</g>
	<g id="Layer_4">
		<path d="M74.8,19.9c51.8,5.3,247.6,22.5,419.5,0.1c8-1,16,1.4,22.1,6.7c25.9,22.6,85.7,91.6,19.4,207.1
			c-3.9,6.8-10.4,11.6-18,13.5c-48.6,11.6-242.4,50.7-464.5,0.1c-6.1-1.4-11.6-4.8-15.6-9.6c-20.9-25.6-78.5-113.2,14-209.5
			C57.7,22.1,66.2,19.1,74.8,19.9z"/>
	</g>
	<g id="Layer_2_00000000938532177799127530000005970951008786741656_" class="st0">
		<g class="st1">
			<path d="M425.2,0c78.3,0,141.7,63.5,141.7,141.7l0,0c0,78.3-63.5,141.7-141.7,141.7H141.7C63.5,283.5,0,220,0,141.7l0,0
				C0,63.5,63.5,0,141.7,0H425.2 M425.2-11H141.7c-40.8,0-79.2,15.9-108,44.7C4.8,62.6-11,100.9-11,141.7s15.9,79.2,44.7,108
				c28.9,28.9,67.2,44.7,108,44.7h283.5c40.8,0,79.2-15.9,108-44.7c28.9-28.9,44.7-67.2,44.7-108s-15.9-79.2-44.7-108
				C504.4,4.8,466-11,425.2-11L425.2-11z"/>
		</g>
	</g>
	<path class="st2" d="M48,32.2c0,0-92.8,82.1-20.4,191.9c0,0,244,72.4,514.9-2.7c0,0,65.4-107.6-21.3-190.3
		C521.2,31.1,352.4,69.9,48,32.2z"/>
	<path class="st3" d="M262.6,48.2"/>
	<path class="st4" d="M556.5,188.4c0,0-273.1,76.4-546.6,1.9c0,0,6.4,18.7,17.7,33.8c0,0,244.7,74.6,514.9-2.7
		C542.5,221.4,551,208.3,556.5,188.4z"/>
	<path class="st5" d="M48,32.2c0,0,281.6,38.5,473.1-1.1c0,0,10.3,8.8,25.5,32c0,0-270.3,65.6-520.4-5C26.3,58.1,37.8,41.1,48,32.2z
		"/>
	<path d="M9.9,190.3c0,0,245.6,76.4,546.6-1.9c0,0,2.2-4.9,3.4-10.1c0,0-263.5,78.1-552.6,5L9.9,190.3z"/>
	<path d="M76.6,205.1c0,0,4.8,14.9,21.3,37.2c0,0,4.7,1.1,7.8-1c0,0-18.7-27.5-20.7-34.1C85,207.2,77,200,76.6,205.1z"/>
	<path d="M174.5,218.3c0,0,7.3,19.9,15.3,35.1c0,0,5.1,2.5,6.9-0.5c0,0-13.1-29.6-14-33.2C182.8,219.7,175.7,213.4,174.5,218.3z"/>
	<path d="M285.5,222.7l1.7,35.1c0,0,4.2,3.6,6.9,0c0,0,0-25-1.1-35.4C293,222.4,285.2,217.2,285.5,222.7z"/>
	<path d="M397.2,212.4c0,0,0.8,24.3,0,43.1h8.4v-43.1H397.2z"/>
	<path d="M502.3,200c0,0,1.6,28.9-1,40.1h7.2c0,0,3.7-31.6,1-44.8C509.4,195.4,503.8,190.6,502.3,200z"/>
</g>
<g id="Layer_2">
</g>
</svg>
