<?xml version="1.0" encoding="utf-8"?>
<!-- Generator: Adobe Illustrator 27.4.0, SVG Export Plug-In . SVG Version: 6.00 Build 0)  -->
<svg version="1.1" xmlns="http://www.w3.org/2000/svg" xmlns:xlink="http://www.w3.org/1999/xlink" x="0px" y="0px"
	 viewBox="0 0 566.9 283.5" style="enable-background:new 0 0 566.9 283.5;" xml:space="preserve">
<style type="text/css">
	.st0{display:none;}
	.st1{display:inline;}
	.st2{fill:#BF99C7;}
	.st3{fill:none;stroke:#DD1010;stroke-miterlimit:10;}
	.st4{fill:#B54498;}
	.st5{fill:#FFD550;}
</style>
<g id="Layer_1">
	<g id="Layer_1_00000039123286003050795270000015522993133783548317_" class="st0">
	</g>
	<g id="Layer_4">
		<path d="M74.8,19.9c51.8,5.3,252.8,20.3,419.5,0.1c8-1,16,1.4,22.1,6.7c25.9,22.6,85.7,91.6,19.4,207.1
			c-3.9,6.8-10.4,11.6-18,13.5c-48.6,11.6-242.4,50.7-464.5,0.1c-6.1-1.4-11.6-4.8-15.6-9.6c-20.9-25.6-78.5-113.2,14-209.5
			C57.7,22.1,66.2,19.1,74.8,19.9z"/>
	</g>
	<g id="Layer_2_00000000938532177799127530000005970951008786741656_" class="st0">
		<g class="st1">
			<path d="M425.2,0c78.3,0,141.7,63.5,141.7,141.7l0,0c0,78.3-63.5,141.7-141.7,141.7H141.7C63.5,283.5,0,220,0,141.7l0,0
				C0,63.5,63.5,0,141.7,0H425.2 M425.2-11H141.7c-40.8,0-79.2,15.9-108,44.7C4.8,62.6-11,100.9-11,141.7s15.9,79.2,44.7,108
				c28.9,28.9,67.2,44.7,108,44.7h283.5c40.8,0,79.2-15.9,108-44.7c28.9-28.9,44.7-67.2,44.7-108s-15.9-79.2-44.7-108
				C504.4,4.8,466-11,425.2-11L425.2-11z"/>
		</g>
	</g>
	<path class="st2" d="M51.7,28.3c0,0-96.4,86-24.1,195.8c0,0,244,72.4,514.9-2.7c0,0,67.4-109.2-26.1-194.7
		C516.4,26.7,361,59.6,51.7,28.3z"/>
	<path class="st3" d="M262.6,48.2"/>
	<path class="st4" d="M563.1,164.9c0,0-286.4,77.5-560,3c0,0,8.6,38.1,29.2,62.9c0,0,240.5,64.9,505.5-0.6
		C537.8,230.3,558.3,197.5,563.1,164.9z"/>
	<path class="st5" d="M157.9,37.1l-62.7-4.7c0,0-25.4,7.5-24.7,34.6c0,0,3.1,18.7,22.5,27.1c0,0,10.2,5.5,3.3,20.5
		c0,0-4.8,9.1,0.7,16.5c0,0,6.2,9.1,19.4,3.7c0,0,9.9-5.3,14.6,1.8c0,0,1.5,8.1,12.4,7.4c0,0,14.8,0,18.3-17.6
		c0,0,15.1-66.6,11.8-82.6c0,0-0.7-6.3-5-2.1c0,0-23.5,17.3-31.3,12C137.4,53.5,127.6,48.9,157.9,37.1z"/>
	<path class="st5" d="M185,43.6c0,0-3.5,1.1-3,8.7c0,0-4.7,53.6-13.4,81c0,0-6.1,9.4,10.8,17.6c0,0,10.1,4.1,16.1-2.3
		c0,0,6.4-6,13.9,1.1c0,0,6.2,11.3,21.1,5.8c0,0,7.2-5.3,10.2-11.8c0,0,2.1-5.4,9.2-7.8c0,0,20.1-3.5,12.6-42.5c0,0-4.3-27.1-35-53
		l-8.4-0.3c0,0-4.3,7.4,2.8,15.2c0,0,8.9,12.8-6,21.8c0,0-14.2,4.7-19.7-12.3C196.2,64.9,194.6,40.2,185,43.6z"/>
	<path class="st5" d="M236.5,40.8c0,0,12,3.2,26,26.3c0,0,7.7,15.4,19.1,13.1c0,0,8.3-1.8,10.8-15.4c0,0,0-4.5,7.1-6.6
		c0,0,10.6-0.5,12.9-16.5C312.4,41.8,250.6,41.3,236.5,40.8z"/>
	<path class="st5" d="M391.9,188.2c0,0-3-13,19-9.1c0,0,9.6,2.5,11.2-2.6c0,0,1.4-5.8-7.2-6.5c0,0-11.5-3.2-21.4-18.7
		c0,0-7.6-19.8-26-18.4c0,0-20.1-1.1-24.7,27.6c0,0-1.3,8.2-9.2,13c0,0-13.5,6.6-13.2,20C320.6,193.6,359.2,192.1,391.9,188.2z"/>
	<path class="st5" d="M430,173.5c0,0-10.2-24.7-20.4-36.5c0,0-4.4-5.2,0-15.4c0,0,3.3-8.8,12.7-9.9c0,0,3.6,0.8,7.7-5.8
		c0,0,2.8-8,15.1-10.7c0,0,8.5-1.9,16.2,4.7c0,0,3.9,3.3,8.5,0c0,0,7.3-7.2,16.3,1.7c0,0,8,8.8,0,21.5c0,0-20.7,30.7-27.3,53.2
		c0,0-3.3,5.3-5.8,0c0,0-3.9-10.3-0.8-24.9c0,0,0.8-7.2-6.1-6.6c0,0-6.3,1.4-5,9.4c0,0,1.9,10.8-3.6,22.3
		C437.7,176.5,434.1,182.7,430,173.5z"/>
	<path class="st5" d="M461.6,178.6c0,0,10.5-36,34.4-47.7c0,0,10.7-7,18.2,1.9c0,0,1.4,6.1,8.5,4.2c0,0,8.8-3.8,14.2,6.9
		c0,0,6.6,10.1-0.2,19.2c0,0-33.4,7.8-49.2,10.8c0,0,2.6-3.5-1.3-6.8c0,0-5.6-4.3-15.5,10C470.7,177.1,465.8,178,461.6,178.6z"/>
	<path d="M3.1,167.9c0,0,228.8,78.8,559.7-1.1c0,0,1.5-6.1,1.8-11.1c0,0-270.9,81.9-563.4,1.8C1.3,157.5,2.2,163.5,3.1,167.9z"/>
</g>
<g id="Layer_2">
</g>
</svg>
