<?xml version="1.0" encoding="utf-8"?>
<!-- Generator: Adobe Illustrator 27.4.0, SVG Export Plug-In . SVG Version: 6.00 Build 0)  -->
<svg version="1.1" xmlns="http://www.w3.org/2000/svg" xmlns:xlink="http://www.w3.org/1999/xlink" x="0px" y="0px"
	 viewBox="0 0 566.9 283.5" style="enable-background:new 0 0 566.9 283.5;" xml:space="preserve">
<style type="text/css">
	.st0{display:none;}
	.st1{fill:#009962;}
	.st2{fill:#4ABA8F;}
	.st3{fill:#227F59;}
	.st4{display:inline;}
</style>
<g id="Layer_1" class="st0">
	
		<image style="display:inline;overflow:visible;" width="3430" height="3430" xlink:href="21A7796686E4141.png"  transform="matrix(1 0 0 1 -426.7571 -433.2814)">
	</image>
</g>
<g id="Layer_4">
	<path d="M74.8,19.9c51.8,5.3,247.6,22.5,419.5,0.1c8-1,16,1.4,22.1,6.7c25.9,22.6,85.7,91.6,19.4,207.1c-3.9,6.8-10.4,11.6-18,13.5
		c-48.6,11.6-242.4,50.7-464.5,0.1c-6.1-1.4-11.6-4.8-15.6-9.6c-20.9-25.6-78.5-113.2,14-209.5C57.7,22.1,66.2,19.1,74.8,19.9z"/>
</g>
<g id="Layer_3">
	<path class="st1" d="M51.8,28.3c0,0-100.2,84.2-21.8,199.1c0,0,239.8,67.1,509.5,0c0,0,70.9-109.1-15.5-193.6
		C524,33.9,262.2,63.7,51.8,28.3z"/>
	<path class="st2" d="M37.9,42.6c0,0,259.1,40.5,498.4,4.8c0,0,12,14.2,17.1,26.5c0,0-228,67.9-533.5-5.9C20,68,24.1,56.8,37.9,42.6
		z"/>
	<path class="st3" d="M5.1,175.5c0,0,3.3,18.2,21.1,46.2c0,0,302.6,75.6,519.6-5.4c0,0,11.1-17.5,17.7-50.1
		C563.4,166.2,355.1,254.9,5.1,175.5z"/>
</g>
<g id="Layer_2" class="st0">
	<g class="st4">
		<path d="M425.2,0c78.3,0,141.7,63.5,141.7,141.7v0c0,78.3-63.5,141.7-141.7,141.7H141.7C63.5,283.5,0,220,0,141.7v0
			C0,63.5,63.5,0,141.7,0H425.2 M425.2-11H141.7c-40.8,0-79.2,15.9-108,44.7C4.8,62.6-11,100.9-11,141.7c0,40.8,15.9,79.2,44.7,108
			c28.9,28.9,67.2,44.7,108,44.7h283.5c40.8,0,79.2-15.9,108-44.7c28.9-28.9,44.7-67.2,44.7-108c0-40.8-15.9-79.2-44.7-108
			C504.4,4.8,466-11,425.2-11L425.2-11z"/>
	</g>
</g>
</svg>
