<?xml version="1.0" encoding="utf-8"?>
<!-- Generator: Adobe Illustrator 27.4.0, SVG Export Plug-In . SVG Version: 6.00 Build 0)  -->
<svg version="1.1" xmlns="http://www.w3.org/2000/svg" xmlns:xlink="http://www.w3.org/1999/xlink" x="0px" y="0px"
	 viewBox="0 0 566.9 283.5" style="enable-background:new 0 0 566.9 283.5;" xml:space="preserve">
<style type="text/css">
	.st0{display:none;}
	.st1{fill:#00C667;}
	.st2{fill:#F4CF67;}
	.st3{fill:#9F82D8;}
	.st4{display:inline;}
</style>
<g id="Layer_1" class="st0">
	
		<image style="display:inline;overflow:visible;" width="3430" height="3430" xlink:href="33698FE98DDE6B60.png"  transform="matrix(1 0 0 1 -426.7571 -433.2814)">
	</image>
</g>
<g id="Layer_4">
	<path d="M74.8,16.9c51.8,5.3,247.6,22.5,419.5,0.1c8-1,16,4.4,22.1,9.7c25.9,22.6,87.1,89.4,19.4,207.1c-3.9,6.8-10.4,16.6-18,18.5
		C469.4,263.9,306,309,53.4,250.5c-6.1-1.4-11.6-7.8-15.6-12.6C16.9,212.3-42,125,51.8,28.3C57.8,22.2,66.2,16.1,74.8,16.9z"/>
</g>
<g id="Layer_3">
	<g>
		<path class="st1" d="M476.8,45.5l12.6-8.3c-13.7,1.2-30.9,2.5-51,3.8l31.7,5.7C472.5,47.1,475,46.6,476.8,45.5z"/>
		<path class="st1" d="M540.6,67.2l12,5c-4.7-9.3-10.8-18.5-18.5-27.6l2.7,18.3C537,64.7,538.5,66.3,540.6,67.2z"/>
		<path class="st1" d="M48.4,38.8l24.9-7.1c-7.2-1.1-14.4-2.2-21.6-3.4c0,0-4,3.4-9.8,9.7C44.1,39.1,46.4,39.3,48.4,38.8z"/>
		<path class="st1" d="M261.7,56.7c2.2,0.9,4.8,1,6.7,0.2L297,45.6c-21.1,0.1-42.9-0.2-65-0.9L261.7,56.7z"/>
		<path class="st1" d="M538.1,113.1c-2.2,0.7-3.8,2.1-4.3,3.8l-10.5,40.2c-1.1,4.3-8.7,5.6-12.8,2.3l-38.3-31.6
			c-1.6-1.3-4.1-2.1-6.5-1.9l-56.7,3.9c-6.1,0.4-10.4-4.4-7.4-8.1l28.6-34.9c1.2-1.5,1.3-3.3,0.3-5l-24.6-37.8
			c-0.2-0.4-0.4-0.7-0.5-1.1c-24.1,1.2-50.8,2.1-79.3,2.6l-2.5,40.9c-0.1,1.8,1,3.6,2.9,4.9l45,30.8c4.8,3.3,3.4,8.8-2.5,9.2
			l-54.3,4.4c-2.3,0.2-4.2,1.2-4.9,2.8l-18.4,37.3c-2,4-9.6,3.8-13-0.4l-31.1-38.8c-1.3-1.7-3.5-2.8-5.9-3.2l-56.3-7.8
			c-6-0.8-9.3-6.4-5.6-9.5l35.1-28.4c1.5-1.2,2-3,1.3-4.8l-15.4-39.5c-31.2-1.5-62.9-3.9-94-7.5l-6,37.5c-0.3,1.7,0.6,3.7,2.4,5.2
			l41.7,35.1c4.5,3.8,2.5,9.1-3.4,8.9l-54.5-1c-2.3,0-4.3,0.8-5.2,2.3l-22,35.3c-2.4,3.8-10,2.8-12.9-1.7L19.4,116
			c-1.2-1.8-3.2-3.2-5.6-3.7l-10.5-2.5c-7.4,32.4-4.1,72.7,26.6,117.7c0,0,239.8,67.1,509.5,0c0,0,37.6-57.9,24.7-122L538.1,113.1z"
			/>
	</g>
	<path class="st2" d="M422.7,52.2l21.9,30.3c1.6,2.2,1.5,5.2-0.3,7.2l-14.8,17c-3.4,3.9-0.3,10.1,4.9,9.6l36-3.1
		c1.5-0.1,3,0.3,4.2,1.3l32,26.2c3.3,2.7,8.3,1.1,9.3-3.1l7-27.6c0.5-2,2.1-3.6,4.1-4.2l35.2-8.6c0,0-1.8-9.3-6-17.2l-23.6-6.8
		c-2.3-0.6-4-2.5-4.3-4.8l-3.3-23.4c-1-6.8-7.2-11.6-14.1-10.7c-1.2,0.2-2.4,0.3-3.5,0.4c-2.7,0.3-5.2,3.4-7.3,5.1l-19.7,17.1
		c-1.4,1.2-3.3,1.6-5.1,1.1l-47.4-11.6C423.3,45.8,420.1,48.7,422.7,52.2z"/>
	<path class="st3" d="M307.2,51.4l-38.5,18.1c-0.7,0.3-1.5,0.4-2.3,0.1l-43.8-17.8c-2.3-0.9-4.6,1.3-3.7,3.6l12.7,34.4
		c0.4,1.2,0,2.6-1,3.3l-23.1,16.4c-2.1,1.5-1.3,4.8,1.3,5.1l40.4,5.6c0.7,0.1,1.4,0.5,1.8,1.1l28.3,36.2c1.2,1.5,3.6,1.4,4.6-0.2
		l19.8-31.1c0.5-0.8,1.4-1.3,2.3-1.3l36-0.9c2.7-0.1,3.8-3.5,1.6-5.1l-33.9-24.9c-0.8-0.6-1.2-1.5-1.2-2.5l2.8-37.2
		C311.4,52,309.1,50.4,307.2,51.4z"/>
	<path class="st2" d="M37.4,44.7c0,0-19.8,21.6-30.9,54.8l19.2,4.9c0.5,0.2,1,0.5,1.3,1l23.4,36.1c1,1.5,3.1,1.5,4.1,0.1l21.6-31.5
		c0.5-0.7,1.3-1.1,2.2-1.1l37.2,2.4c2.3,0.2,3.6-2.7,1.9-4.3L90.3,81c-0.5-0.5-0.8-1.1-0.8-1.8l0.6-36.1c0-1.6-1.5-2.8-3.1-2.5
		l-41.2,9.9c-0.8,0.2-1.6,0-2.2-0.5L37.4,44.7z"/>
</g>
<g id="Layer_2" class="st0">
	<g class="st4">
		<path d="M425.2,0c78.3,0,141.7,63.5,141.7,141.7v0c0,78.3-63.5,141.7-141.7,141.7H141.7C63.5,283.5,0,220,0,141.7v0
			C0,63.5,63.5,0,141.7,0H425.2 M425.2-11H141.7c-40.8,0-79.2,15.9-108,44.7C4.8,62.6-11,100.9-11,141.7c0,40.8,15.9,79.2,44.7,108
			c28.9,28.9,67.2,44.7,108,44.7h283.5c40.8,0,79.2-15.9,108-44.7c28.9-28.9,44.7-67.2,44.7-108c0-40.8-15.9-79.2-44.7-108
			C504.4,4.8,466-11,425.2-11L425.2-11z"/>
	</g>
</g>
</svg>
