<?xml version="1.0" encoding="utf-8"?>
<!-- Generator: Adobe Illustrator 27.4.0, SVG Export Plug-In . SVG Version: 6.00 Build 0)  -->
<svg version="1.1" xmlns="http://www.w3.org/2000/svg" xmlns:xlink="http://www.w3.org/1999/xlink" x="0px" y="0px"
	 viewBox="0 0 566.9 283.5" style="enable-background:new 0 0 566.9 283.5;" xml:space="preserve">
<style type="text/css">
	.st0{display:none;}
	.st1{fill:#FF822E;}
	.st2{fill:#FFF2E9;}
	.st3{display:inline;}
</style>
<g id="Layer_1" class="st0">
	
		<image style="display:inline;overflow:visible;" width="3430" height="3430" xlink:href="67101F49AF54AE5B.png"  transform="matrix(1 0 0 1 -426.7571 -433.2814)">
	</image>
</g>
<g id="Layer_4">
	<path d="M74.8,16.9c51.8,5.3,247.6,22.5,419.5,0.1c8-1,16,4.4,22.1,9.7c25.9,22.6,87.1,89.4,19.4,207.1c-3.9,6.8-10.4,16.6-18,18.5
		C469.4,263.9,306,309,53.4,250.5c-6.1-1.4-11.6-7.8-15.6-12.6C16.9,212.3-42,125,51.8,28.3C57.8,22.2,66.2,16.1,74.8,16.9z"/>
</g>
<g id="Layer_3">
	<path class="st1" d="M516.4,26.8c0,0-8.2,2.4-24.2,5.7c11.8,89-67.6,94.4-67.6,94.4c-79.5,2.3-94.5-78.3-94.5-78.3h0
		c-28.1,0.6-59.2,0.3-93.3-1.2l0,0c-22.2,94.7-104.5,72.8-104.5,72.8c-71-18.9-72-90.5-72-90.5l0,0c-2.9-0.4-5.7-0.9-8.6-1.3
		c0,0-102.2,91.1-19.6,202.3c0,0,276.6,68.6,505.6,0C537.7,230.6,615.4,108.3,516.4,26.8z"/>
	<path class="st2" d="M218.7,45.5c-23.2-1.1-96.2-5.2-138.3-13.8c-3.9-0.8-7.3,2.5-6.8,6.5C76,56,87.2,97.7,140.9,111.4
		c0.2,0.1,0.5,0.1,0.7,0.1c5.3,0.7,61.5,6,82.2-58.3C225.1,49.5,222.5,45.7,218.7,45.5z"/>
	<path class="st2" d="M352.3,47.6c20.2-0.3,82.5-2.1,122-12.6c3.3-0.9,6.5,1.7,6.6,5.3c0.5,17.9-2.7,64.6-48.7,75.3
		c-0.2,0-0.3,0.1-0.5,0.1c-4.3,0.6-67.2,8.6-84.5-61C346.3,51.1,348.8,47.7,352.3,47.6z"/>
</g>
<g id="Layer_2" class="st0">
	<g class="st3">
		<path d="M425.2,0c78.3,0,141.7,63.5,141.7,141.7v0c0,78.3-63.5,141.7-141.7,141.7H141.7C63.5,283.5,0,220,0,141.7v0
			C0,63.5,63.5,0,141.7,0H425.2 M425.2-11H141.7c-40.8,0-79.2,15.9-108,44.7C4.8,62.6-11,100.9-11,141.7c0,40.8,15.9,79.2,44.7,108
			c28.9,28.9,67.2,44.7,108,44.7h283.5c40.8,0,79.2-15.9,108-44.7c28.9-28.9,44.7-67.2,44.7-108c0-40.8-15.9-79.2-44.7-108
			C504.4,4.8,466-11,425.2-11L425.2-11z"/>
	</g>
</g>
</svg>
