<?xml version="1.0" encoding="utf-8"?>
<!-- Generator: Adobe Illustrator 27.4.0, SVG Export Plug-In . SVG Version: 6.00 Build 0)  -->
<svg version="1.1" xmlns="http://www.w3.org/2000/svg" xmlns:xlink="http://www.w3.org/1999/xlink" x="0px" y="0px"
	 viewBox="0 0 566.9 283.5" style="enable-background:new 0 0 566.9 283.5;" xml:space="preserve">
<style type="text/css">
	.st0{display:none;}
	.st1{fill:#009687;}
	.st2{fill:#9C8FD8;}
	.st3{fill:#10C499;}
	.st4{fill:#FFFFFF;}
	.st5{display:inline;}
</style>
<g id="Layer_1" class="st0">
	
		<image style="display:inline;overflow:visible;" width="3430" height="3430" xlink:href="67188A56696302A2.png"  transform="matrix(1 0 0 1 -426.7571 -433.2814)">
	</image>
</g>
<g id="Layer_4">
	<path d="M74.8,16.9c51.8,5.3,247.6,22.5,419.5,0.1c8-1,16,4.4,22.1,9.7c25.9,22.6,87.1,89.4,19.4,207.1c-3.9,6.8-10.4,16.6-18,18.5
		C469.4,263.9,306,309,53.4,250.5c-6.1-1.4-11.6-7.8-15.6-12.6C16.9,212.3-42,125,51.8,28.3C57.8,22.2,66.2,16.1,74.8,16.9z"/>
</g>
<g id="Layer_5">
	<path class="st1" d="M516.4,26.8c0,0-184.6,49.7-464.7,1.6c0,0-101.8,87.9-20.2,201.4c0,0,306.7,72.3,510.3-6.6
		C541.8,223.1,613.8,109.8,516.4,26.8z"/>
	<path class="st2" d="M541.8,223.1c0,0-180.8,81.2-510.3,6.6c0,0-12.1-18.2-15.8-25.9c0,0,302.8,86.1,538.8-8.1
		C554.5,195.7,553.3,203.7,541.8,223.1z"/>
	<path class="st3" d="M27.7,56.3c0,0-16.5,23.1-23.3,49.6c0,0,260.5,79.9,558.4-8.9c0,0-5.8-26.6-23.1-46
		C539.7,51,395,108.9,27.7,56.3z"/>
	<path class="st4" d="M103.4,47c0,0-48.3-11.4-62.6,31.4c0,0-11.8,50,42.2,64c0,0,54.4,16,66.9-41.1
		C149.8,101.2,156.3,60.4,103.4,47z"/>
	<path class="st2" d="M93.2,56.4c0,0-37.8-2.5-45.1,33.6c0,0-4.5,33.2,41.3,42.4c0,0,40.8,9.3,52-35.3
		C141.4,97.1,146,62.1,93.2,56.4z"/>
	<path class="st4" d="M440.1,47.9c0,0-59.6,7.5-63,53.6c0,0,1.8,52,68.9,44.8c0,0,68.1-5.4,64.9-64.4
		C510.8,81.8,505.7,40.6,440.1,47.9z"/>
	<path class="st2" d="M440.8,58.1c0,0-56,8.9-51.3,49.9c0,0,10.4,36.4,67,25.3c0,0,49.1-8.7,40.9-51.3
		C497.3,81.9,487.3,48.5,440.8,58.1z"/>
	<path class="st4" d="M267.1,132.4c0,0-41.1-0.4-50.1,38.4c0,0-6.3,44.5,39.7,46c0,0,46.5,3.2,52.9-47.4
		C309.7,169.4,312.2,133.8,267.1,132.4z"/>
	<path class="st2" d="M264.5,143.4c0,0-35.2,0.7-37.9,35.8c0,0,2.6,27.2,32.4,27.8c0,0,44.8,0,40.4-43.1
		C299.4,164,294.9,143.3,264.5,143.4z"/>
</g>
<g id="Layer_3">
</g>
<g id="Layer_2" class="st0">
	<g class="st5">
		<path d="M425.2,0c78.3,0,141.7,63.5,141.7,141.7v0c0,78.3-63.5,141.7-141.7,141.7H141.7C63.5,283.5,0,220,0,141.7v0
			C0,63.5,63.5,0,141.7,0H425.2 M425.2-11H141.7c-40.8,0-79.2,15.9-108,44.7C4.8,62.6-11,100.9-11,141.7c0,40.8,15.9,79.2,44.7,108
			c28.9,28.9,67.2,44.7,108,44.7h283.5c40.8,0,79.2-15.9,108-44.7c28.9-28.9,44.7-67.2,44.7-108c0-40.8-15.9-79.2-44.7-108
			C504.4,4.8,466-11,425.2-11L425.2-11z"/>
	</g>
</g>
</svg>
