<?xml version="1.0" encoding="utf-8"?>
<!-- Generator: Adobe Illustrator 27.4.0, SVG Export Plug-In . SVG Version: 6.00 Build 0)  -->
<svg version="1.1" xmlns="http://www.w3.org/2000/svg" xmlns:xlink="http://www.w3.org/1999/xlink" x="0px" y="0px"
	 viewBox="0 0 566.9 283.5" style="enable-background:new 0 0 566.9 283.5;" xml:space="preserve">
<style type="text/css">
	.st0{display:none;}
	.st1{display:inline;}
	.st2{fill:#FFFF0B;}
	.st3{fill:#D8AF05;}
	.st4{fill:#A8780C;}
</style>
<g id="Layer_1">
	<g id="Layer_1_00000039123286003050795270000015522993133783548317_" class="st0">
	</g>
	<g id="Layer_4">
		<path d="M74.8,19.9c51.8,5.3,247.6,22.5,419.5,0.1c8-1,16,1.4,22.1,6.7c25.9,22.6,85.7,91.6,19.4,207.1
			c-3.9,6.8-10.4,11.6-18,13.5c-48.6,11.6-242.4,50.7-464.5,0.1c-6.1-1.4-11.6-4.8-15.6-9.6c-20.9-25.6-78.5-113.2,14-209.5
			C57.7,22.1,66.2,19.1,74.8,19.9z"/>
	</g>
	<g id="Layer_2_00000000938532177799127530000005970951008786741656_" class="st0">
		<g class="st1">
			<path d="M425.2,0c78.3,0,141.7,63.5,141.7,141.7l0,0c0,78.3-63.5,141.7-141.7,141.7H141.7C63.5,283.5,0,220,0,141.7l0,0
				C0,63.5,63.5,0,141.7,0H425.2 M425.2-11H141.7c-40.8,0-79.2,15.9-108,44.7C4.8,62.6-11,100.9-11,141.7s15.9,79.2,44.7,108
				c28.9,28.9,67.2,44.7,108,44.7h283.5c40.8,0,79.2-15.9,108-44.7c28.9-28.9,44.7-67.2,44.7-108s-15.9-79.2-44.7-108
				C504.4,4.8,466-11,425.2-11L425.2-11z"/>
		</g>
	</g>
	<path class="st2" d="M521.5,34.1c-4.9,0.5-16.6,1.8-33.8,3.2c-2,0.2-3.8,1.5-4.5,3.4c-18.5,47.4-70.3,46.1-70.3,46.1
		c-47.7,0.4-68.7-25.6-76.3-38.9c-1-1.7-2.8-2.7-4.7-2.7c-30.7,0.6-63.5,0.5-97.3-0.5c-1.9-0.1-3.7,0.9-4.7,2.5
		c-31.2,50.6-97,39.5-97,39.5c-52.8-8.6-62.8-38.6-64.6-52c-0.3-2.3-2.1-4.2-4.4-4.5c-3.2-0.5-6.4-1-9.6-1.5
		c-1.6-0.3-3.3,0.2-4.5,1.3C39.5,39.6-7.7,87.5,1.1,155.9c0.3,2.2,1.8,4,4,4.5c62.5,16.1,294.2,66.1,555.3-0.8
		c2.1-0.5,3.7-2.3,4-4.4c5.1-36.1,0.4-80.4-38.5-119.6C524.7,34.5,523.1,33.9,521.5,34.1z"/>
	<path class="st3" d="M4.2,170.2c0,0,6,32.9,28.7,61.3c0,0,286.4,63.6,508.8-8.3c0,0,15.3-26.9,20.1-53
		C561.7,170.2,316,252.1,4.2,170.2z"/>
	<path class="st4" d="M214.7,43.4c-22.2-1.5-108.9-7.6-135.4-11c-2-0.2-3.6,1.5-3.3,3.4c1.6,10.2,10.9,37.1,63.3,44
		c0,0,50.5,4.9,77.7-31.7C218.3,46.2,217.1,43.5,214.7,43.4z"/>
	<path class="st4" d="M470.5,37.6c-18.4,1.7-87.3,7.7-122.1,7c-2.7-0.1-4.2,3.1-2.5,5.1c8.7,10.7,32.4,33.4,74.7,30.3
		c0.1,0,0.1,0,0.2,0c2.3-0.3,41.7-6,53-38.3C474.5,39.6,472.8,37.4,470.5,37.6z"/>
</g>
<g id="Layer_2">
</g>
</svg>
