<?xml version="1.0" encoding="utf-8"?>
<!-- Generator: Adobe Illustrator 27.4.0, SVG Export Plug-In . SVG Version: 6.00 Build 0)  -->
<svg version="1.1" xmlns="http://www.w3.org/2000/svg" xmlns:xlink="http://www.w3.org/1999/xlink" x="0px" y="0px"
	 viewBox="0 0 566.9 283.5" style="enable-background:new 0 0 566.9 283.5;" xml:space="preserve">
<style type="text/css">
	.st0{display:none;}
	.st1{fill:#AAE000;}
	.st2{fill:#B78AFF;}
	.st3{display:inline;}
</style>
<g id="Layer_1" class="st0">
	
		<image style="display:inline;overflow:visible;" width="3430" height="3430" xlink:href="55EE98C438DCE980.png"  transform="matrix(1 0 0 1 -426.7571 -433.2814)">
	</image>
</g>
<g id="Layer_4">
	<path d="M74.8,16.9c51.8,5.3,247.6,22.5,419.5,0.1c8-1,16,4.4,22.1,9.7c25.9,22.6,87.1,89.4,19.4,207.1c-3.9,6.8-10.4,16.6-18,18.5
		C469.4,263.9,306,309,53.4,250.5c-6.1-1.4-11.6-7.8-15.6-12.6C16.9,212.3-42,125,51.8,28.3C57.8,22.2,66.2,16.1,74.8,16.9z"/>
</g>
<g id="Layer_3">
	<path class="st1" d="M521.2,31c0,0-5.8,1.1-17,2.8c-9.8,64.9-79.9,65.9-79.9,65.9c-71.8,4.7-95.5-46-98.7-53.8
		c-39.1,0.3-83.4-0.7-132.6-3.8h0c-16.8,59.8-72.8,46.1-72.8,46.1C61.9,75.9,63,29.8,63,29.8c0,0,0,0,0,0c-3.7-0.5-7.5-0.9-11.3-1.4
		c0,0-52.4,45.4-51.5,113.4c0.3,0,34-5.2,49.5,27.7c0,0,10.4,33.2-24.8,50.5c2.3,3.7,4.8,7.4,7.5,11.1c0,0,268,72.9,505,0
		C537.5,231,613,116.3,521.2,31z M300.5,190.1c-49.2-3.4-47.1-44.3-47.1-44.3c7.8-38.7,47.1-35.3,47.1-35.3
		c46,2.2,48.1,37.7,48.1,37.7C340.7,193.9,300.5,190.1,300.5,190.1z"/>
	<path class="st2" d="M0.9,152.1c0,0-0.2,26.2,18.8,59c0,0,26.5-12.3,20.4-36.7C40.1,174.4,32.4,149.5,0.9,152.1z"/>
	<path class="st2" d="M74.9,32.4c16.1,1.5,75.6,7.1,104.7,9.1c2.5,0.2,4,2.9,2.8,5.2C176.7,57,159.9,80.5,125,80.1
		c-0.1,0-0.2,0-0.3,0c-3-0.3-49.3-5-53.6-43.8C70.9,34,72.7,32.2,74.9,32.4z"/>
	<path class="st2" d="M300.7,119.5c0,0-34.8,0.2-38.2,32.8c0,0-1.9,26.6,38.2,29.3c0,0,36.7,0.1,38.7-34
		C339.4,147.5,334.4,119.6,300.7,119.5z"/>
	<path class="st2" d="M488.9,35.2c-21,2.2-90.9,9-147.4,9.9c-3.8,0.1-5.9,4.3-3.8,7.3c9.9,14,36.6,43.1,85.1,38.5
		c0,0,60-4.9,71.1-50C494.7,37.8,492.2,34.9,488.9,35.2z"/>
</g>
<g id="Layer_2" class="st0">
	<g class="st3">
		<path d="M425.2,0c78.3,0,141.7,63.5,141.7,141.7v0c0,78.3-63.5,141.7-141.7,141.7H141.7C63.5,283.5,0,220,0,141.7v0
			C0,63.5,63.5,0,141.7,0H425.2 M425.2-11H141.7c-40.8,0-79.2,15.9-108,44.7C4.8,62.6-11,100.9-11,141.7c0,40.8,15.9,79.2,44.7,108
			c28.9,28.9,67.2,44.7,108,44.7h283.5c40.8,0,79.2-15.9,108-44.7c28.9-28.9,44.7-67.2,44.7-108c0-40.8-15.9-79.2-44.7-108
			C504.4,4.8,466-11,425.2-11L425.2-11z"/>
	</g>
</g>
</svg>
