<?xml version="1.0" encoding="utf-8"?>
<!-- Generator: Adobe Illustrator 27.4.0, SVG Export Plug-In . SVG Version: 6.00 Build 0)  -->
<svg version="1.1" xmlns="http://www.w3.org/2000/svg" xmlns:xlink="http://www.w3.org/1999/xlink" x="0px" y="0px"
	 viewBox="0 0 566.9 283.5" style="enable-background:new 0 0 566.9 283.5;" xml:space="preserve">
<style type="text/css">
	.st0{display:none;}
	.st1{display:inline;}
	.st2{fill:#0C9347;}
	.st3{fill:none;stroke:#DD1010;stroke-miterlimit:10;}
	.st4{fill:#436E34;}
</style>
<g id="Layer_1">
	<g id="Layer_1_00000039123286003050795270000015522993133783548317_" class="st0">
	</g>
	<g id="Layer_4">
		<path d="M74.8,19.9c51.8,5.3,247.6,22.5,419.5,0.1c8-1,16,1.4,22.1,6.7c25.9,22.6,85.7,91.6,19.4,207.1
			c-3.9,6.8-10.4,11.6-18,13.5c-48.6,11.6-242.4,50.7-464.5,0.1c-6.1-1.4-11.6-4.8-15.6-9.6c-20.9-25.6-78.5-113.2,14-209.5
			C57.7,22.1,66.2,19.1,74.8,19.9z"/>
	</g>
	<g id="Layer_2_00000000938532177799127530000005970951008786741656_" class="st0">
		<g class="st1">
			<path d="M425.2,0c78.3,0,141.7,63.5,141.7,141.7l0,0c0,78.3-63.5,141.7-141.7,141.7H141.7C63.5,283.5,0,220,0,141.7l0,0
				C0,63.5,63.5,0,141.7,0H425.2 M425.2-11H141.7c-40.8,0-79.2,15.9-108,44.7C4.8,62.6-11,100.9-11,141.7s15.9,79.2,44.7,108
				c28.9,28.9,67.2,44.7,108,44.7h283.5c40.8,0,79.2-15.9,108-44.7c28.9-28.9,44.7-67.2,44.7-108s-15.9-79.2-44.7-108
				C504.4,4.8,466-11,425.2-11L425.2-11z"/>
		</g>
	</g>
	<path class="st2" d="M48,32.2c0,0-92.8,82.1-20.4,191.9c0,0,244,72.4,514.9-2.7c0,0,65.4-107.6-21.3-190.3
		C521.2,31.1,352.4,69.9,48,32.2z"/>
	<path class="st3" d="M262.6,48.2"/>
	<path class="st4" d="M556.5,188.4c0,0-273.1,76.4-546.6,1.9c0,0,6.4,18.7,17.7,33.8c0,0,244.7,74.6,514.9-2.7
		C542.5,221.4,551,208.3,556.5,188.4z"/>
	<path d="M54.4,201.3c17,3.6,38.6,7.6,64,11.3c2.5,0.4,4.5,2.1,5.2,4.6c2,7.2,5.7,20.1,10.1,30.9c0,0,4.9,3,7,0.2
		c0,0-6-18.5-8.9-28.5c-0.8-2.6,1.4-5.2,4.1-4.8c19.6,2.5,41.2,4.6,64.5,6.2c2.7,0.2,4.8,2.2,5.2,4.8c1.1,7.6,3,19.6,5.6,29.9
		c0,0,4.4,3.6,6.9,1.2c0,0-4.5-21.2-6.1-31c-0.4-2.2,1.4-4.1,3.6-4c23.1,1.2,47.8,1.9,73.8,1.6c3,0,5.4,2.3,5.5,5.3l0.6,28.9
		c0,0,4.2,3.6,6.9,0c0,0-0.7-16.9-1.5-28.7c-0.2-3.1,2.2-5.7,5.3-5.8c21.1-0.5,42.9-1.7,65.4-3.5c3.3-0.3,6.2,2.2,6.4,5.6
		c0.4,8.5,0.9,21.3,0.4,32.5h6.4V224c0-3,2.3-5.6,5.3-5.9c19.6-2,39.7-4.5,60.2-7.7c3.9-0.6,7.4,2.4,7.4,6.3c0,8.6-0.2,20.2-1,30.3
		l6.4,0.4l0.7-33.9c0.1-3.1,2.3-5.6,5.3-6.1c16.9-2.9,34.1-6.3,51.5-10.2c2.1-0.5,3.9,1.2,3.7,3.3c-1,8.8-3.2,26.7-5.9,34.7l7.2,0.6
		c0,0,4.5-21.9,5-36.9c0.1-2.4,1.7-4.4,4-5c7.4-1.8,14.7-2.6,22.2-4.6c0,0,2.3-5.9,3.5-11.1c0,0-240.1,81.1-552.6,5l2.5,7
		c0,0,8.9,2.8,25.4,6.7c2.5,0.6,4.5,2.3,5.5,4.7c2.4,5.8,8.2,17.8,19.8,33.4c0,0,3.7,2.1,6.8,0c0,0-10.6-18.6-16.5-29.2
		C49.6,203.5,51.7,200.7,54.4,201.3z"/>
</g>
<g id="Layer_2">
</g>
</svg>
