<?xml version="1.0" encoding="utf-8"?>
<!-- Generator: Adobe Illustrator 27.4.0, SVG Export Plug-In . SVG Version: 6.00 Build 0)  -->
<svg version="1.1" xmlns="http://www.w3.org/2000/svg" xmlns:xlink="http://www.w3.org/1999/xlink" x="0px" y="0px"
	 viewBox="0 0 566.9 283.5" style="enable-background:new 0 0 566.9 283.5;" xml:space="preserve">
<style type="text/css">
	.st0{display:none;}
	.st1{display:inline;}
	.st2{fill:#99D0F1;}
	.st3{fill:none;stroke:#DD1010;stroke-miterlimit:10;}
	.st4{fill:#EAB257;}
	.st5{fill:#AA541A;}
</style>
<g id="Layer_1">
	<g id="Layer_1_00000039123286003050795270000015522993133783548317_" class="st0">
	</g>
	<g id="Layer_4">
		<path d="M74.8,21.9c51.8,5.3,242,28.3,419.5,0.1c8-1,16-0.6,22.1,4.7c25.9,22.6,85.7,91.6,19.4,207.1c-3.9,6.8-10.4,9.6-18,11.5
			c-48.6,11.6-241.1,45.9-464.5,0.1c-6.1-1.4-11.6-2.8-15.6-7.6c-20.9-25.6-78.5-113.2,14-209.5C57.7,22.1,66.2,21.1,74.8,21.9z"/>
	</g>
	<g id="Layer_2_00000000938532177799127530000005970951008786741656_" class="st0">
		<g class="st1">
			<path d="M425.2,0c78.3,0,141.7,63.5,141.7,141.7l0,0c0,78.3-63.5,141.7-141.7,141.7H141.7C63.5,283.5,0,220,0,141.7l0,0
				C0,63.5,63.5,0,141.7,0H425.2 M425.2-11H141.7c-40.8,0-79.2,15.9-108,44.7C4.8,62.6-11,100.9-11,141.7s15.9,79.2,44.7,108
				c28.9,28.9,67.2,44.7,108,44.7h283.5c40.8,0,79.2-15.9,108-44.7c28.9-28.9,44.7-67.2,44.7-108s-15.9-79.2-44.7-108
				C504.4,4.8,466-11,425.2-11L425.2-11z"/>
		</g>
	</g>
	<path class="st2" d="M48,32.2c0,0-92.8,82.1-20.4,191.9c0,0,244,72.4,514.9-2.7c0,0,65.4-107.6-21.3-190.3
		C521.2,31.1,352.4,69.9,48,32.2z"/>
	<path class="st3" d="M262.6,48.2"/>
	<path class="st4" d="M556.5,188.4c0,0-273.1,76.4-546.6,1.9c0,0,6.4,18.7,17.7,33.8c0,0,244.7,74.6,514.9-2.7
		C542.5,221.4,551,208.3,556.5,188.4z"/>
	<path d="M559.9,178.3c0,0-263.5,78.1-552.6,5l2.6,7c0,0,22.8,7.1,63.1,14.8c2.4,0.4,4.3,2,5.3,4.2c2.5,5.9,8.4,17.7,19.7,33
		c0,0,4.7,1.1,7.8-1c0,0-13.4-19.6-18.7-29.7c-1-1.8,0.6-3.9,2.6-3.5c22.5,3.9,49.1,7.6,79.4,10.5c3.6,0.3,6.7,2.7,8,6
		c2.8,7.1,7.7,18.9,12.9,28.8c0,0,5.1,2.5,6.9-0.5c0,0-7.1-16-11.2-25.9c-1.4-3.3,1.2-6.8,4.7-6.6c27.1,2.1,56.6,3.3,88.2,3.3
		c4,0,7.3,3.1,7.5,7.1l1.3,27c0,0,4.2,3.6,6.9,0c0,0,0-15.5-0.5-27.2c-0.2-3.8,2.8-7.1,6.7-7.2c28.6-0.6,58.7-2.3,90-5.4
		c3.9-0.4,7.2,2.6,7.3,6.5c0.1,8.7,0.2,20.6-0.3,30.9h8.4v-33.4c0-3.3,2.4-6,5.7-6.4c27.8-3.3,56.5-7.8,85.8-13.7
		c2.7-0.6,5.3,1.5,5.4,4.3c0.3,9.2,0.6,25.9-1.3,33.8h7.2c0,0,2.4-20.5,1.9-35.4c-0.1-3.1,2-5.8,5.1-6.5c13.5-3,27.2-6.2,41-9.8
		C556.5,188.4,558.7,183.5,559.9,178.3z"/>
	<g id="Layer_2_00000072978010900154126520000015139196368497297571_">
	</g>
</g>
<g id="Layer_2">
	<g>
		<path class="st5" d="M457.6,98.8c19.5-2.7,98.6-15,35.7-32.6c-1.4-0.4-2.6-0.9-3.6-1.6c-8.9-5.9-54.1-32.7-51.4,24.6
			c0.1,1.6,2.3,3,4.9,3c3.7,0.1,8.4,0.9,9.8,4.7C453.5,98.2,455.6,99.1,457.6,98.8z"/>
		<path class="st5" d="M431,91.2c-7.9-12.4-42.4-62.1-59.5-18.4c-0.4,0.9-1,1.8-2,2.6c-7.9,6.7-43.2,40.3,49.4,29.8
			c2.7-0.3,4.4-1.9,4-3.7c-0.5-2.4,0-5.6,5.8-7.1C430.7,94,431.8,92.5,431,91.2z"/>
		<path class="st5" d="M442.5,113.7c3.6,13,20.9,65.9,51.6,28.8c0.7-0.8,1.6-1.5,2.7-2c9.8-4.7,54.8-28.7-38.2-37.4
			c-2.7-0.3-4.9,0.9-5,2.6c-0.2,2.3-1.8,5.2-7.9,5.4C443.7,111.2,442.2,112.4,442.5,113.7z"/>
		<path class="st5" d="M427.4,117.3c0,0,7.4-6.9,2.5-8.4c0,0-3.4-1.2-7.9,3.7c-0.1,0.2-0.3,0.3-0.5,0.5
			c-2.7,2.2-24.6,19.9-47.5,27.9c-1.7,0.6-3.1,1.9-3.3,3.1c-0.6,3.4-0.4,9.5,9.2,8c0.8-0.1,1.7-0.5,2.5-1
			C388.1,147.4,415.5,129.3,427.4,117.3z"/>
		<ellipse class="st5" cx="439.4" cy="101.8" rx="7.5" ry="4.8"/>
	</g>
	<g>
		<path class="st5" d="M136.2,124.6c-25.3-2.2-128.1-9.4-54.1,30.8c1.6,0.9,3,1.9,4.1,3.1c9.6,9.9,58.5,56.6,71.5-16.3
			c0.4-2.1-2-4.4-5.3-5.2c-4.6-1.1-10.2-3.6-11-8.7C141.1,126.5,138.8,124.8,136.2,124.6z"/>
		<path class="st5" d="M167.5,141.7c6.4,17.8,35.5,90.2,69.5,40.1c0.7-1.1,1.8-2,3.2-2.7c11.8-6.2,65.8-38.2-53.5-51.6
			c-3.4-0.4-6.1,1.2-6.1,3.5c0,3.2-1.6,7-9.3,7.3C168.6,138.3,166.8,139.8,167.5,141.7z"/>
		<path class="st5" d="M159.4,110.1c-0.9-17.4-7.4-88.8-56.6-51c-1.1,0.8-2.4,1.4-4,1.8c-13.6,3-77,20.3,37.2,57.9
			c3.3,1.1,6.4,0.2,7.1-1.8c1-2.9,3.8-6,11.5-4.6C157.3,113,159.5,112,159.4,110.1z"/>
		<path class="st5" d="M179.4,110c0,0-11.2,6.6-5.6,9.8c0,0,3.9,2.5,11-2.4c0.2-0.2,0.5-0.3,0.7-0.4c4-2,36.6-18,67.7-21.5
			c2.3-0.3,4.4-1.5,5-3c1.7-4.1,3.2-11.8-9.2-12.7c-1.1-0.1-2.3,0.1-3.4,0.5C237.4,83.4,197.8,98.3,179.4,110z"/>
		<ellipse transform="matrix(0.222 -0.9751 0.9751 0.222 1.4831 253.9695)" class="st5" cx="159.9" cy="126.1" rx="6.2" ry="9.7"/>
	</g>
</g>
</svg>
