<?xml version="1.0" encoding="utf-8"?>
<!-- Generator: Adobe Illustrator 27.4.0, SVG Export Plug-In . SVG Version: 6.00 Build 0)  -->
<svg version="1.1" xmlns="http://www.w3.org/2000/svg" xmlns:xlink="http://www.w3.org/1999/xlink" x="0px" y="0px"
	 viewBox="0 0 566.9 283.5" style="enable-background:new 0 0 566.9 283.5;" xml:space="preserve">
<style type="text/css">
	.st0{display:none;}
	.st1{fill:#967056;}
	.st2{fill:#BF8AE2;}
	.st3{fill:#FF9FD4;}
	.st4{display:inline;}
</style>
<g id="Layer_1" class="st0">
	
		<image style="display:inline;overflow:visible;" width="3430" height="3430" xlink:href="55F703D0F2EB3DCB.png"  transform="matrix(1 0 0 1 -426.7571 -433.2814)">
	</image>
</g>
<g id="Layer_3" class="st0">
	
		<image style="display:inline;overflow:visible;opacity:0.49;" width="550" height="272" xlink:href="../Test body/snake_body7.png"  transform="matrix(1.2648 0 0 1.2648 -97.1443 -38.8455)">
	</image>
</g>
<g id="Layer_4">
	<path d="M448.4,7c-44.4,14.4-165,42.1-341.9-5c-5-1.3-10.4-0.7-15,1.7c-30.6,16-138.1,91.3-57.3,231.6c3,5.1,7.7,9.1,13.3,11
		c44.1,15.1,193,67.5,461.1,8.7c7.5-1.7,13.8-6.8,17-13.8c16.9-37.2,61.3-157.8-37-228C477,4.9,462.1,2.6,448.4,7z"/>
</g>
<g id="Layer_5">
	<path class="st1" d="M481.4,8.5c0,0-120.7,79.7-403.2,2.8c0,0-129.5,67-50,211.9c0,0,230.4,89.4,503.8,3.2
		C532,226.3,601,76.6,481.4,8.5z"/>
	<path class="st2" d="M214.1,38.8c0,0,50.4,116.9,161.2,124.5c0,0,88.7,3.9,61.3-136.1C436.5,27.3,335.1,53.8,214.1,38.8z"/>
	<path class="st3" d="M234.7,41c0,0,64.4,115.3,142.5,107.7c0,0,68.1-2.6,44.4-118.1C421.6,30.6,303.4,50.6,234.7,41z"/>
	<path class="st2" d="M102.4,119.1c0,0-37.9,18.5-24.4,68.3c0,0,18.5,39.6,62.4,37.1c0,0,60.7-7.6,45.5-77.5
		C185.8,146.9,162.2,92.1,102.4,119.1z"/>
	<path class="st3" d="M140.1,120.6c0,0-53.4-1.1-49.6,53.4c0,0,5.9,37.8,44.8,37.8c0,0,49.6-2.7,44.8-56.9
		C180.1,154.9,172.6,124.4,140.1,120.6z"/>
	<path class="st2" d="M532,226.3c0,0,16.7-36.4,19.1-77.3c0,0-74.8,5.6-105.9,99.4C445.2,248.4,488.1,240.7,532,226.3z"/>
	<path class="st3" d="M532,226.3c0,0,15.3-32.8,17.5-63c0,0-59,2-90.3,82.1C459.3,245.5,510.4,234.5,532,226.3z"/>
</g>
<g id="Layer_2" class="st0">
	<g class="st4">
		<path d="M425.2,0c78.3,0,141.7,63.5,141.7,141.7v0c0,78.3-63.5,141.7-141.7,141.7H141.7C63.5,283.5,0,220,0,141.7v0
			C0,63.5,63.5,0,141.7,0H425.2 M425.2-11H141.7c-40.8,0-79.2,15.9-108,44.7C4.8,62.6-11,100.9-11,141.7c0,40.8,15.9,79.2,44.7,108
			c28.9,28.9,67.2,44.7,108,44.7h283.5c40.8,0,79.2-15.9,108-44.7c28.9-28.9,44.7-67.2,44.7-108c0-40.8-15.9-79.2-44.7-108
			C504.4,4.8,466-11,425.2-11L425.2-11z"/>
	</g>
</g>
</svg>
