<?xml version="1.0" encoding="utf-8"?>
<!-- Generator: Adobe Illustrator 27.4.0, SVG Export Plug-In . SVG Version: 6.00 Build 0)  -->
<svg version="1.1" xmlns="http://www.w3.org/2000/svg" xmlns:xlink="http://www.w3.org/1999/xlink" x="0px" y="0px"
	 viewBox="0 0 566.9 566.9" style="enable-background:new 0 0 566.9 566.9;" xml:space="preserve">
<style type="text/css">
	.st0{display:none;}
	.st1{fill:#D1DE44;}
	.st2{fill:#FFFFFF;}
</style>
<g id="Layer_1" class="st0">
	
		<image style="display:inline;overflow:visible;opacity:0.4;" width="500" height="375" xlink:href="../../Reference/1902887.jpg"  transform="matrix(3.4482 0 0 3.4482 -669 0)">
	</image>
</g>
<g id="Layer_3">
	<path d="M60.6,463.9c5.6-5.2,15.9-16,23.3-31.1c2.1-4.4,0.2-9.6-4.2-11.7c-17.9-8.3-60.6-34.3-62.2-92.7c0,0-5.3-56.7,41.4-98.8
		c2-1.8,3.1-4.5,2.9-7.2c-1.4-17-2.4-81.7,52.6-135.9c0.1-0.1,0.2-0.2,0.3-0.3c2.9-3.2,56-60.7,131.9-53.9
		c0,0,109.7,7.6,121.3,124.7c0.5,5.3,5.7,8.9,10.8,7.6c19-4.8,61.7-13.8,99.9-9.3c0,0,64,6,66,68c0,0,1,54-35,103.3
		c-1.2,1.7-1.9,3.8-1.7,5.9c1.2,13,4.2,62.1-15.7,87.8c-1.2,1.5-2.9,2.7-4.7,3.1c-3.3,0.8-8.2,0.6-8.9-7.2c0,0,0-1.9-0.1-4.6
		c-0.4-7.7-9.8-11.2-15.1-5.5c-6.9,7.3-17.6,16.9-32.9,25.9c-2.4,1.4-4,3.8-4.2,6.5c-0.9,8.7-4.3,28.2-16.5,37.8
		c-1,0.8-2.2,1.4-3.4,1.7c-2.1,0.5-4.9,0.2-5.6-4.3c-0.1-0.4-0.1-0.8-0.3-1.2c-0.4-1.3-1.4-4.5-3.1-7.9c-2.3-4.7-8.2-6.3-12.6-3.4
		c-14.2,9.3-49,26.5-93.8,10.6c-4.1-1.5-8.6,0.4-10.6,4.2c-7.8,15.2-30.1,51.5-74.1,76.8c-0.5,0.3-113.1,17.6-147.6-80
		C57.2,470,58.1,466.3,60.6,463.9z"/>
</g>
<g id="Layer_4">
	<path class="st1" d="M503.6,177.6c-0.1-0.1-0.2-0.1-0.3-0.2c-23.2-21.8-99.9-8.9-99.9-8.9c-71.9,8.8-105.1,61.9-106.9,64.9
		c-0.1,0.1-0.1,0.2-0.2,0.3c-4.3,5.5-6.3,5.2-7.2,4.3c-0.6-0.6-0.7-1.5-0.4-2.2c5-14.4,14.6-26.3,19.9-32.2c1.5-1.7,0.3-4.3-2-4.3
		c-24.5,0.8-47.1,26-52.2,32c-0.7,0.8-1.8,1.1-2.7,0.8c-6.2-2-11.1-5.5-14.7-8.8c-1.8-1.7-4.7,0-4.2,2.5c0,0,0,0.1,0,0.1
		c0.6,2.4-2.5,3.9-4,2c-48.5-58.8-122.5-21.3-122.5-21.3c-65,32-73.6,86.8-73.6,86.8c-14.3,70.3,27.5,102.5,29.3,103.8
		c0,0,0.1,0.1,0.1,0.1c37.8,33.7,118,24.8,122,24.3c0.1,0,0.2,0,0.3,0c5.7,0,9.2,1.6,11.4,3.3c1.8,1.3,1.1,4.1-1.1,4.6
		c-40.7,7.6-85.3,1.2-95.4-0.5c-1.2-0.2-2.4,0.5-2.8,1.7c-9.7,26.6-28.3,46.3-33.3,51.2c-0.7,0.7-1,1.9-0.5,2.8
		c32.7,73.3,114.1,70.4,121.2,70.1c0.3,0,0.6-0.1,0.9-0.2c51.2-23.5,81.8-77.8,87.4-88.4c0.6-1,0.3-2.3-0.6-3.1
		c-9.5-8.2-12.7-13.5-13.9-16.2c-0.7-1.6,0.6-3.5,2.4-3.2c3.5,0.6,8,5.1,8,5.1c45,44.1,104.5,7.2,116-0.6c1.1-0.8,1.4-2.2,0.8-3.4
		c-9.3-15.8-20.9-42-24-49.1c-0.5-1.1-1.6-1.7-2.8-1.5c-42.7,7.5-109.4-5.2-119.4-7.2c-0.8-0.2-1.6,0.1-2.2,0.6
		c-30.6,27.9-71.4,20.2-71.4,20.2c-47-6-54-61-54-61c-4-44,26-50,26-50c35-6,46,22,46,22c11.5,27.8,33.7,46,35.5,47.5
		c0.1,0.1,0.2,0.1,0.2,0.2c20.9,22.4,125.3,19.3,125.3,19.3c82-3,125-38,125-38c58-42,62-105,62-105
		C535.4,200.1,505.8,179.1,503.6,177.6z M418.5,215.5c-0.2,0.1-8.9,7.9-5-3c0,0,0-0.1,0-0.1c0-0.9-0.2-15.9-18.3-6.6
		c0,0-0.1,0-0.1,0.1c-0.5,0.6-8.5,9.2-12.5,6.7c-0.1-0.1-0.1-0.2-0.1-0.4c1.5-2.1,14.1-19.7,33.8-18.8c0,0,0,0,0,0
		C417.1,193.6,436.2,197.8,418.5,215.5C418.5,215.5,418.5,215.5,418.5,215.5z"/>
	<path class="st1" d="M317.5,77.6c0,0-0.1-0.1-0.1-0.1c-27-32.9-90.9-31.9-90.9-31.9c-69-2-114,56-114,56
		c-34.9,41.4-37.5,89.3-37.3,106c0,2.6,2.9,4.2,5.1,2.7c48.3-31.6,95.7-23.9,112.6-19.6c2.6,0.7,4.8-1.8,4-4.3
		c-6.3-18.6-3.2-42-2.9-44.1c0-0.1,0-0.2,0.1-0.3c6.6-29.3,32.4-32.4,32.4-32.4c25-4,38,22,38,22c11,18.9,14.8,49.6,16,62
		c0.2,2.4,2.8,3.7,4.9,2.6c3.7-2,7.9-3.8,11-5c2-0.8,2.7-3.2,1.5-5c-10.9-15.4-14.4-39-14.4-39c-4-31.4,15-45.6,15-45.6
		c16-12,27,2,27,2c16.6,18.3,21.5,55.8,22.7,68c0.2,2.1,2.2,3.4,4.2,2.9l0.8-0.2c1.4-0.4,2.4-1.7,2.4-3.1
		C356.3,119.3,319.1,79.2,317.5,77.6z M193.2,100.9c-0.1,0-0.1-0.1-0.2-0.1c-8.5-5.3-17.4-4.3-17.4-4.3c-16,2-27,17-27,17
		c-6,8-7,3-7,3c2.8-13.1,17.8-22.7,19.8-23.9c0.1-0.1,0.3-0.2,0.4-0.2c19.1-8.5,38.1,0.3,39.7,1c0.1,0,0.1,0.1,0.2,0.1
		c28.9,11.9,49.9-12,49.9-12c2-1,3-0.2,3.5,0.8c0.6,1.1,0.3,2.5-0.5,3.5C227.6,117,195.3,102,193.2,100.9z M311.5,79.5
		c0,0-9,23-33,17c0,0-5.7-0.8-5.3-4.6c0.1-0.9,0.6-1.7,1.3-2.3c1.3-1,4-2.1,8-0.1c0,0,8.9,3.9,16.8-4.8c0.1-0.1,0.2-0.3,0.3-0.4
		c0.9-1.3,6.2-8.8,9.9-8.8C309.5,75.5,313.5,75.5,311.5,79.5z"/>
	<g>
		<path class="st2" d="M271,204.5c-5,3.9-17.4,14.5-19.2,27.5c0,0-19.6-5.6-21.5-16.6c0,0-0.8-2.9-7.8-7.9c0,0-21-10-23-50
			c0,0,0-28,18-37c0,0,8.7-4.6,17.2-2.4c3.7,1,4.9,5.7,2.1,8.3c-5.4,5.1-12.2,16.1-9.2,38.3c0,0,4.8,25.8,17.8,32.8
			c0,0,12.3,6.6,22.8-4.9c1.4-1.5,4-0.8,4.3,1.3c0.3,1.8,0.6,3.8,0.6,5.8C273.3,201.6,272.5,203.3,271,204.5z"/>
		<path class="st2" d="M310.4,111.3c1.5-2.6-0.7-5.8-3.6-5.2c-6.2,1.2-14.3,6.5-17.2,25.3c0,0-3,23.7,12.5,46.9
			c0,0,9.5,13.1,20.5,11.1c0,0,11.4-7.1,17.4-10c1.6-0.8,2.5-2.4,2.4-4.2c-0.2-1.9-0.5-4.4-1-6.6c-0.4-1.8-2.6-2.5-3.9-1.2
			c-2.6,2.5-7.4,5.6-14.8,5c0,0-15-3-17-29C305.5,143.5,304.1,122.5,310.4,111.3z"/>
		<path class="st2" d="M321.4,117.5c0,0-7.8,2-3,13.9c0,0.1,0.1,0.2,0.2,0.3c0.4,0.8,2.5,4.5,5.1,6.3c2.1,1.5,5.1,0.1,5.4-2.5
			c0.4-2.6,0.6-6.5-0.6-10.8C328.5,124.8,326.3,116.4,321.4,117.5z"/>
		<path class="st2" d="M247.5,137.5c0,0-7,6-3,15c0,0,2.4,4.9,5.5,7.4c2.2,1.8,5.5,0.3,5.8-2.5c0.4-4.1,0.5-11.3-2.2-18.3
			C253.6,139.1,250.5,133.5,247.5,137.5z"/>
	</g>
	<g>
		<path class="st2" d="M124.1,330.9c4.8-4.4,15.5-13.3,27.7-16.6c1.5-0.4,1.7-2.3,0.4-3.1c-4.2-2.5-12-5.7-20.8-1.7
			c0,0-10.4,4.3-10.2,20.2C121.3,331.2,123.1,331.9,124.1,330.9z"/>
		<path class="st2" d="M147.4,323.8c-7,2.5-20.8,8.7-26,19.9c-0.1,0.3-0.2,0.5-0.2,0.8c0.2,3.4,1.8,26.7,16.7,43.1
			c1.1,1.2,3,0.4,3-1.2c-0.5-11.2-0.8-41.2,8.5-60.2C150.2,324.8,148.8,323.3,147.4,323.8z"/>
		<path class="st2" d="M168.6,315.7c2.4,5,8.7,17.2,14.5,22.8c0.9,0.9,0.6,2.4-0.6,2.8c-5.7,1.9-18.4,7.3-31.6,20.6
			c-1.1,1.1-3.1,0.2-2.9-1.4c1-9.5,4.8-30.8,17.9-45.3C166.6,314.4,168,314.6,168.6,315.7z"/>
		<path class="st2" d="M179.9,351.3c-7.8,2.7-30.6,12.8-35.2,40c-0.1,0.7,0.2,1.5,0.9,1.8c4.8,2.5,24.3,11.7,43.7,6.1
			c1.1-0.3,1.6-1.6,1-2.5c-3.1-5.2-11.3-21.2-8.2-43.5C182.3,351.9,181.1,350.9,179.9,351.3z"/>
		<path class="st2" d="M189.1,354.4c-1.1,7.9-2.2,26,7.8,41.1c0.4,0.6,1.1,0.9,1.8,0.7c3.9-0.8,17.2-3.8,29.4-11.2
			c1.1-0.7,1.1-2.3,0-2.9c-6.7-3.8-25.2-15.1-35.9-28.5C191.2,352.4,189.3,353,189.1,354.4z"/>
		<path class="st2" d="M371.9,392.7c7.3-1.4,22-4.3,30.8-6.5c1.6-0.4,3.2,0.5,3.7,2.1c3.2,10.4,13.1,47.7,2,71
			c-1.1,2.3-4.3,2.3-5.5,0.1c-6.9-13.3-25.8-49.6-33.1-62.1C368.7,395.4,369.8,393.1,371.9,392.7z"/>
		<path class="st2" d="M468.5,364.5c5.7-3.8,18.2-12.5,24.3-19.4c1.1-1.2,3.1-0.6,3.3,1c1.4,12.1,3.8,44.6-8,58.7
			c-1,1.2-2.9,0.7-3.1-0.8c-1.2-6.6-5.2-21.7-17-35C466.7,367.7,467,365.6,468.5,364.5z"/>
	</g>
	<path class="st1" d="M417.5,388.2c1.8,6.8,5.6,21.4,7.4,30.3c0.5,2.4,3.2,3.6,5.2,2.2c8.9-5.8,28.6-19.5,37.9-31.9
		c0.7-1,0.9-2.3,0.4-3.4c-1.3-3.1-4.5-9.5-10.1-15.1c-1-1-2.6-1.3-3.9-0.6c-6.3,3.1-25.2,12.1-34.4,14.4
		C418.1,384.4,417,386.3,417.5,388.2z"/>
</g>
</svg>
