<?xml version="1.0" encoding="utf-8"?>
<!-- Generator: Adobe Illustrator 27.4.0, SVG Export Plug-In . SVG Version: 6.00 Build 0)  -->
<svg version="1.1" xmlns="http://www.w3.org/2000/svg" xmlns:xlink="http://www.w3.org/1999/xlink" x="0px" y="0px"
	 viewBox="0 0 566.9 283.5" style="enable-background:new 0 0 566.9 283.5;" xml:space="preserve">
<style type="text/css">
	.st0{fill:#70C492;}
</style>
<g id="Layer_2">
	<g id="Layer_3">
	</g>
	<path d="M514.6,38.1C471.5,60.4,284,146.9,95.3,79.5c0,0-62.2-31.9-78,6.4c0,0-23.2,65,66.2,105.8c0,0,212.3,113.1,431.6,29.8
		c6.2-2.3,11.4-6.3,15-11.4c16-22.4,53.3-89.2-0.1-168.4C526.8,37,520,35.3,514.6,38.1z"/>
</g>
<g id="Layer_4">
	<path class="st0" d="M488.8,72.9c0,0-8.2,15.3-15.8,7.3c0,0-9.7-5.5-13.8,13.1c0,0-13.9,65.3,12.5,77.4c0,0,3.7,1.5,7.5,1.2
		c2.8-0.2,5.3,1.5,6.3,4.2c3.4,9.6,8.4,24.8,21.5,28.4c0,0,7.8-0.8,5-12.6c0,0-8.2-15.2-8.1-23.6c0,0-1.1-5.5,8.7-8.4
		c0,0,12.2-3.6,10.1-14.6c0,0-21.7-32.2-19.9-58.5C502.7,86.8,502.2,58,488.8,72.9z"/>
	<path class="st0" d="M392.5,110.6c0,0-8.2,13.7-15.1,5.9c0,0-8.9-5.6-13.4,11.4c0,0-15.1,59.5,9.4,72c0,0,3.5,1.6,7,1.5
		c2.6-0.1,7,1.7,7.8,4.2c2.9,9,4.1,22.9,13.9,22.9c0,0,7.4-0.3,5.1-11.4c0,0-3.8-10-3.5-17.7c0,0-0.8-5.1,8.4-7.3
		c0,0,11.6-2.7,9.9-12.9c0,0-19.5-30.8-17-54.9C405.2,124.1,405.6,97.5,392.5,110.6z"/>
	<path class="st0" d="M303,135.3c0,0-9.5,10.9-14.6,2.7c0,0-7.3-6.5-13.9,7.9c0,0-22.6,50.7-2.1,66.2c0,0,2.9,2,6.2,2.5
		c2.4,0.4,4.3,2.4,4.7,4.7c1.3,8.6,0.6,13.3,9.2,13.9c0,0,4.6,0.4,5.3-9.3c0,0,0-0.2,1.4-7.1c0,0,1-4.7,9.8-5.1c0,0,11-0.4,11-9.9
		c0,0-13.2-30.9-7.4-52.2C312.6,149.6,316.9,125.8,303,135.3z"/>
	<path class="st0" d="M119.8,165.3c0,0,6.1,3.1,9.3-1.9c0,0,3.5-20.5,13.9-30c0,0,10.5-11.3-0.2-10.5c0,0-8.8,2.9-8.8-3
		c0,0-1.7-5.7-10.2,0c0,0-29.6,20.2-23.8,34.6c0,0,0.9,2,2.5,3.2C102.4,157.6,113.9,157.4,119.8,165.3z"/>
	<path class="st0" d="M199.8,199.1c0,0,8.9,3.3,12.5-4.2c0,0,1.4-28.9,14.2-43.7c0,0,12.6-17.4-2.1-14.5c0,0-11.7,5.5-12.6-2.7
		c0,0-3.3-7.6-14.1,1.7c0,0-37.5,32.7-27.1,51.7c0,0,1.6,2.5,4,4.1C174.6,191.5,185.8,196.1,199.8,199.1z"/>
</g>
</svg>
