<?xml version="1.0" encoding="utf-8"?>
<!-- Generator: Adobe Illustrator 27.6.1, SVG Export Plug-In . SVG Version: 6.00 Build 0)  -->
<svg version="1.1" xmlns="http://www.w3.org/2000/svg" xmlns:xlink="http://www.w3.org/1999/xlink" x="0px" y="0px"
	 viewBox="0 0 566.9 283.5" style="enable-background:new 0 0 566.9 283.5;" xml:space="preserve">
<style type="text/css">
	.st0{display:none;}
	.st1{display:inline;}
	.st2{fill:#E94B87;}
	.st3{fill:#F9AAC8;}
	.st4{fill:#F17EA6;}
</style>
<g id="Layer_1">
	<g id="Layer_1_00000039123286003050795270000015522993133783548317_" class="st0">
	</g>
	<g id="Layer_4">
		<path d="M74.8,19.9c51.8,5.3,247.6,22.5,419.5,0.1c8-1,16,1.4,22.1,6.7c25.9,22.6,85.7,91.6,19.4,207.1
			c-3.9,6.8-10.4,11.6-18,13.5c-48.6,11.6-242.4,50.7-464.5,0.1c-6.1-1.4-11.6-4.8-15.6-9.6c-20.9-25.6-78.5-113.2,14-209.5
			C57.7,22.1,66.2,19.1,74.8,19.9z"/>
	</g>
	<g id="Layer_2_00000000938532177799127530000005970951008786741656_" class="st0">
		<g class="st1">
			<path d="M425.2,0c78.3,0,141.7,63.5,141.7,141.7l0,0c0,78.3-63.5,141.7-141.7,141.7H141.7C63.5,283.5,0,220,0,141.7l0,0
				C0,63.5,63.5,0,141.7,0H425.2 M425.2-11H141.7c-40.8,0-79.2,15.9-108,44.7C4.8,62.6-11,100.9-11,141.7s15.9,79.2,44.7,108
				c28.9,28.9,67.2,44.7,108,44.7h283.5c40.8,0,79.2-15.9,108-44.7c28.9-28.9,44.7-67.2,44.7-108s-15.9-79.2-44.7-108
				C504.4,4.8,466-11,425.2-11L425.2-11z"/>
		</g>
	</g>
	<path class="st2" d="M4.2,170.2c0,0,6,32.9,28.7,61.3c0,0,286.4,63.6,508.8-8.3c0,0,15.3-26.9,20.1-53
		C561.7,170.2,316,252.1,4.2,170.2z"/>
	<path class="st3" d="M161.5,41.9c-5.7-0.1-55.8-3.7-80-9c-1.9-0.4-2.7,0.7-4,1.7c-2.6,1.9-6.2,13.7,6.3,18.8c1.1,0.4,1,2-0.1,2.4
		c-9.5,2.8-18.4,8.2-16.8,26.2c0,0,2.3,24.1,36.7,23c0.1,0,0.1,0,0.2,0c2.5-0.2,43.6-1,75.4-37.5c0,0,0,0,0,0
		c0,0-5.9-11.4-16.8-25.1C162.1,42,161.8,41.9,161.5,41.9z"/>
	<path class="st3" d="M493.5,37.3c-9,1.1-61.6,6.5-86.5,6.3c-2.4,0-4.9,2.2-5.2,4.5c-0.6,6,3.2,11.9,16.7,16.2
		c2.2,0.7,2.6,3.7,0.7,5c-9.8,6.5-16.2,21.6-7.2,35.4c0.1,0.2,0.3,0.4,0.4,0.5c2.5,2.4,23.9,20.8,69.1-6.6c0.1-0.1,0.2-0.1,0.3-0.2
		c1.9-1.5,24.1-19.2,33.7-39.2c0.5-1.1,0.3-2.5-0.6-3.3c-3.7-3.4-12.4-11.3-19-17.9C495.2,37.4,494.4,37.1,493.5,37.3z"/>
	<path class="st4" d="M526,35.8c-1.3-1.3-3-1.9-4.8-1.7c-2.1,0.2-5.5,0.5-9.8,0.9c-0.5,0-0.7,0.7-0.3,1c3.9,3.1,7.6,6.4,11.2,9.7
		c2.6,2.4,4.6,4.5,6,5.9c0.7,0.8,1.4,1.5,2.1,2.3l0,0c1,1.1,1.1,2.5,0.4,3.8c-0.5,0.9-1,1.8-1.6,2.8c-6,10.1-13.2,19.9-21.5,29.1
		c-14.6,16-36.7,34.1-64.7,37.3c-25.5,2.9-46-10.4-47.9-26.3c-1.4-12.2,6-23.1,18.4-30.8c0.4-0.3,0.3-0.9-0.1-1
		c-13.1-4.4-22.5-12.6-24.6-23.8c-0.1-0.3-0.3-0.5-0.6-0.5c-15.5,0.6-30.9,0.9-45.9,1.3c-37.8,1-122-1.8-122-1.8
		c-16.3-0.7-31.4-1.5-45.3-2.4c-0.5,0-0.8,0.5-0.5,0.9c4.7,6.1,8.9,12.3,12.6,18.7c1.8,3.1,3.2,5.6,4.1,7.3c0.5,0.9,1,1.9,1.4,2.8
		l0,0c0.6,1.3,0.4,2.7-0.6,3.7c-0.7,0.7-1.5,1.5-2.3,2.2c-8.6,8-18.2,15.4-28.8,21.9c-18.5,11.3-44.7,22.5-72.6,17.7
		C63,112.7,47,94.2,49.7,78.4C51.8,66.3,61.9,57.9,76,54.1c0.5-0.1,0.6-0.7,0.2-1C67.1,46.7,61,38.7,59.5,29.9
		c0-0.2-0.2-0.4-0.5-0.5c-1.6-0.2-3.1-0.5-4.7-0.8c-1.6-0.3-3.3,0.2-4.5,1.3C39.5,39.6-7.6,87.3,1.1,155.5c0.3,2.4,2,4.4,4.4,5
		c63.1,16.2,294.3,65.9,554.9-0.9c2.1-0.5,3.7-2.3,4-4.4C569.4,119.1,564.7,75,526,35.8z M355.7,152.1
		c-13.9,15.8-35.4,20.8-52.3,22.1c-7.4,0.5-14.8,0.5-22,0c-2.8-0.2-5.1-0.5-6.7-0.7c-0.8-0.1-1.7-0.2-2.5-0.4l0,0
		c-1.1-0.2-2-1-2.4-2.1c-0.2-0.8-0.5-1.6-0.7-2.5c-2.4-9.1-3.9-18.6-4.4-28.4c-0.9-17,1.2-38.9,15.1-54.7
		c12.6-14.4,31.7-16.4,41.7-7.6c7.9,6.9,9.8,17.6,6.9,28.8c10.7-4.4,21.6-3.9,29.5,3.1C367.8,118.5,368.3,137.7,355.7,152.1z"/>
	<path class="st3" d="M288.9,162.6c-2.1-0.2-3.9-0.4-5.1-0.6c-0.6-0.1-1.3-0.2-1.9-0.3l0,0c-0.9-0.2-1.5-0.8-1.8-1.6
		c-0.2-0.6-0.4-1.2-0.6-1.8c-2-6.9-3.3-14-3.9-21.3c-1-12.7,0.2-29.1,10.4-40.7c9.2-10.5,23.5-11.7,31.3-4.9
		c6.1,5.4,9.7,11.4,7.7,19.7c8-3.1,14.2-0.5,20.3,4.9c7.7,6.8,8.4,21.1-0.8,31.6c-10.2,11.6-26.3,14.9-39,15.5
		C299.9,163.3,294.4,163.2,288.9,162.6z"/>
</g>
<g id="Layer_2">
</g>
</svg>
