<?xml version="1.0" encoding="utf-8"?>
<!-- Generator: Adobe Illustrator 27.4.0, SVG Export Plug-In . SVG Version: 6.00 Build 0)  -->
<svg version="1.1" xmlns="http://www.w3.org/2000/svg" xmlns:xlink="http://www.w3.org/1999/xlink" x="0px" y="0px"
	 viewBox="0 0 566.9 566.9" style="enable-background:new 0 0 566.9 566.9;" xml:space="preserve">
<style type="text/css">
	.st0{display:none;}
	.st1{fill:#B1BCB3;}
	.st2{fill:#E86B6B;}
	.st3{fill:#FFFFFF;}
</style>
<g id="Layer_1" class="st0">
	
		<image style="display:inline;overflow:visible;opacity:0.39;" width="293" height="172" xlink:href="../../Reference/images-6.png"  transform="matrix(-5.5983 0 0 5.5983 895.3071 0)">
	</image>
</g>
<g id="Layer_2">
	<path d="M25.8,372.6c9.8-20.7,38.8-81.9,43.7-100.1c0,0,6-13-6-26c0,0-45-25-41-57.7c0,0,0-29.3,37-62.3c0,0,61-72,173-63
		c0,0,56,4,126,64c0,0,40,35,71,37c0,0,15,0,18,4c0,0,15-2,22,2c0,0,74-5,77.3,50.6c0,0,5.7,81.4-91.3,85.4c0,0,42,46,50,125
		c0,0,1,22,8,41c0,0,5.7,12.3,1.6,39.1c-0.1,1-1.6,0.9-1.6-0.1c-0.3-11.8-2.2-32.4-10.5-44.8c-1.2-1.8-4-1.2-4.4,0.9
		c-1.8,9-6.6,28.4-16.4,44.8c-0.7,1.2-2.5,0.4-2.2-0.9c4.9-17.9,13.5-63.7-7.5-115c0,0-16-50-40-73c0,0-72,21-140,7c0,0-16-3-29,10
		c0,0-86.7,87.7-147.6,152.2c-3.5,3.7-8.8,5.1-13.6,3.6c-22.3-7-82.4-32.7-80.3-107.8C22.1,383,23.4,377.6,25.8,372.6z"/>
</g>
<g id="Layer_3">
	<path class="st1" d="M515.5,187.5c-29-11-46-6-46-6c-14,7-19,20-19,20c-4,5-6,1-6,1c6-13,15-20,15-20c-9-9-16-2-16-2
		c-5,4-7.6,9.6-7.6,9.6c-8.6,1.6-2.4-4.9-2.4-4.9c10-11.8-2-10.8-2-10.8c-18,0-32-9-32-9c-23-11-76-51-76-51c-56-46-122-42-122-42
		c-68,0-126.3,51.4-126.3,51.4c-46.3,38.4-43.7,65.6-43.7,65.6c0,27,32.2,46.5,32.2,46.5c41.8,31.5,41.8,78.5,41.8,78.5
		c-1,7-5,3-5,3c-10-39-19-43-19-43c-1,4-2,6-2,6c10,20,9,40,9,40c-3,7-5,2-5,2c0-20-8.3-31-8.3-31c-11.3,33-53.2,108.7-53.2,108.7
		c3.4,79.7,78,95.3,78,95.3l105.6-113c-18,13-60.7,38-60.7,38c-8.7,4-7.3,0-7.3,0c25-13,119-86,119-86c11-10,1-11,1-11
		c-15-2-55-1-55-1c-48,0-67.5-39-67.5-39c-2.5-10,5.5-5,5.5-5c22,33,48,30,48,30c26-2,77,5,77,5c67,19,144,6,144,6c13-4,10-14,10-14
		c-5-12-74-12-74-12c-21,0-89-3-89-3c-31-2-51-27-51-27c-17-27-49-41-49-41c-24-10-28-30-28-30c-6,3-13,15-13,15c-6,3-6-1-6-1
		c21-42,44-41,44-41c6,4,1,8,1,8c-7,5-13,16-13,16c-6,13,17,24,17,24c33,16,59,48,59,48c21,22,58,23,58,23c38,3,86.9,3.4,86.9,3.4
		c32.8,1.4,59.2,7.6,59.2,7.6c45,8,85.1-11,85.1-11c30.1-21,31.9-55,31.9-55C541.5,196.5,515.5,187.5,515.5,187.5z M295.5,164.2
		c-16,50.7-51,68.3-51,68.3c-7,2-3-4-3-4c31-25,30-35,30-35c-15,12-38,18-38,18c-6,0-3-3-3-3c17-6,31-15,31-15c4-3-2-4-2-4
		c-68,12-75-53-75-53c1-7,5-1,5-1c10,54,52,49,52,49c6-1,3-4,3-4c-31-2-31-39-31-39c3-40,44-45,44-45c26,1,38,22,38,22
		C302.5,138.5,295.5,164.2,295.5,164.2z M495.5,223.5c-7-6,2-10,2-10c6-1,6,4,6,4c-1,7,6,12,6,12
		C511.5,239.5,495.5,223.5,495.5,223.5z"/>
</g>
<g id="Layer_4">
	<path class="st2" d="M444.5,307.5h-7.9c-1.6,0-2.4,1.8-1.5,3c11.5,14.7,59.4,80.9,56.7,158.5c0,1.2,1.6,1.4,1.9,0.3
		c2.2-6.7,4.1-19.4,11.4-7.4c0.3,0.6,1.2,0.2,1-0.4c-2-7-6.3-16.5-7.8-33c0,0-1-60.4-49.1-118.7
		C448.2,308.3,446.4,307.5,444.5,307.5z"/>
	<path class="st3" d="M284.2,129.2c-0.9-7.2-5.6-21-27.7-21.7c0,0-27,0-32,36c0,0-2,30,27,31c0,0,27.6,4.5,32.3-28.2
		c0.6-4.1-4.3-6.9-7.3-4.1c-0.4,0.4-0.7,0.8-1,1.3c0,0-2,5-6,4c0,0-4,0-3-11c0,0,0-8,4-9c0,0,5-1,5,5c0,0-0.2,2.6,4.5,2
		C282.6,134.2,284.5,131.8,284.2,129.2z"/>
</g>
</svg>
