<?xml version="1.0" encoding="utf-8"?>
<!-- Generator: Adobe Illustrator 27.4.0, SVG Export Plug-In . SVG Version: 6.00 Build 0)  -->
<svg version="1.1" xmlns="http://www.w3.org/2000/svg" xmlns:xlink="http://www.w3.org/1999/xlink" x="0px" y="0px"
	 viewBox="0 0 566.9 566.9" style="enable-background:new 0 0 566.9 566.9;" xml:space="preserve">
<style type="text/css">
	.st0{display:none;}
	.st1{fill:#3B52A4;}
	.st2{fill:#FFFFFF;}
	.st3{fill:#89A5D5;}
	.st4{fill:#E88182;}
	.st5{fill:#567099;}
</style>
<g id="Layer_1" class="st0">
	
		<image style="display:inline;overflow:visible;opacity:0.33;" width="768" height="643" xlink:href="../../Reference/rcnGzbzcR.gif"  transform="matrix(-1.2146 0 0 1.2146 566.8336 63)">
	</image>
</g>
<g id="Layer_3">
	<path d="M18.4,379c17.6-7,56.9-25.3,67.4-53.8c2.1-5.6-0.2-11.9-5.2-15.3c-9.7-6.5-24.5-21.1-19.7-48c0,0,4.4-23.1,36.8-44.2
		c3.5-2.3,5.4-6.3,5.1-10.5c-1-12.2,1.6-38.8,37.6-61.5c2-1.3,1.2-4.3-1.1-4.6c-11.7-1.1-38.7-2-88.8,3.7c0,0-11.5,4.1-14.5-7.9
		c0,0-6-13,5-15c0,0,41-5.5,108.3,1.9c5.3,0.6,10.4-2.3,12.7-7.2c6.5-14.2,25.8-42,79-45.7c0,0,42.6-2.8,70.8,38
		c1.9,2.8,5,4.6,8.4,5c3.5,0.4,8.3,1.7,13.4,5.3c2.3,1.6,5.1,2.3,7.9,1.9c6.2-0.8,17.5-1.7,26.4,1.8c0,0,4.3,0,5.7-4
		c0.3-0.8,0-1.7-0.7-2.3c-1.7-1.3-6.6-3.4-20-4.7c0,0-13-1-10-6c0,0,1-2.5,3.4-4.4c1.5-1.2,3.5-1.6,5.4-1.4
		c4.4,0.6,15.9,2.2,26.2,2.6c2.8,0.1,5.4-1.4,6.8-3.8c4.4-8,17.4-25.7,48.1-31.1c0,0,39.2-7.8,61.3,28.8c0.4,0.7,0.9,1.3,1.4,1.9
		c3.2,3.3,16,18.7,14.3,49.3c0,0,0,23.6-19.4,39.9c-2.5,2.1-2.2,6,0.6,7.6c14.5,8.5,50.6,31.2,64.8,56.5c0,0,15,25.6,0,41.3
		c0,0-18,25.7-75,38.7c0,0-12,4-23,11c0,0-17,10-37,31c0,0-16,21-51,32c0,0-20.3,8.8-48.7,1.6c-5-1.3-10.3-0.2-14.3,2.9
		c-7.8,6-21.8,20.1-44.8,52.9c0,0-41.6,70.4-111.5,80.2c-0.8,0.1-1.5,0.1-2.3,0.1C134.8,543.2,15.4,534.5,10,392
		C9.7,386.3,13.1,381.1,18.4,379z"/>
	<path class="st1" d="M45.3,126.7c12.7-0.9,60-2.5,115.7,3.8c2.3,0.3,4.4-1,5.3-3.1c5.2-12.1,26.3-51.1,79.3-49.7
		c0.5,0,0.5,0.7,0.1,0.8c-17,2.2-69.5,14-67.8,73.5c0,0-0.9,37.4,28.7,70.4c1,1.1-0.3,2.8-1.6,2.1c-12.5-6.2-40.8-26.4-42.9-83
		c-0.1-2.6-2.2-4.8-4.8-5c-15.4-1.2-66-4.2-108.3,1.9c-2.1,0.3-4.2-0.8-5.1-2.7c-0.6-1.3-1.3-3.1-1.6-5.3
		C42,128.6,43.4,126.9,45.3,126.7z"/>
	<path class="st2" d="M317,143c0,0-11-56-65-58c0,0-56,2-64,53c0,0-8,56.2,33,83.1c0,0,35,21.9,76-5.1C297,216,331,195,317,143z
		 M237,182c-25,1-29-20-29-20c-3-27,23-28,23-28c21-1,25.4,17.2,25.4,17.2C258.9,179.4,237,182,237,182z"/>
	<path d="M232.2,140.9c0,0-17.2-0.9-16.2,18.6c0,0,0,15.5,19,15.5c0,0,17-2.9,14-21.4C249,153.6,246.4,140.8,232.2,140.9z"/>
	<path class="st3" d="M320.4,121.3c0,0,2.6,5.7,3.6,8.7c0,0,2.9-3.7,8-4.4C332,125.6,327.8,120.5,320.4,121.3z"/>
	<path class="st1" d="M327.4,140.5c0.5,1.3,1,2.8,1.3,4.5c0.2,1.3,1.7,2,2.8,1.3c8.8-5.5,38.5-21.1,58,5c0.3,0.4,0.8,0.8,1.3,0.9
		l0.1,0c0.8,0.3,1.7-0.5,1.4-1.4c-2.1-7.3-7.4-33.1,14.7-56c0,0,18.8-19.6,50.3-17.6c0.7,0,0.8-0.9,0.2-1.1
		c-10.3-2.5-33.4-5-56.5,13.7c0,0-21.6,19.1-20.1,41.4c0.2,2.4-2.4,4-4.4,2.7c-9.2-5.6-28.4-13.6-47.5,1.1
		C327.4,136.5,326.7,138.6,327.4,140.5z"/>
	<path class="st2" d="M424.5,167.1c-4.1-1.6-12.2-4.7-17.3-7c-1.4-0.6-2.5-1.9-3-3.4c-2.9-9.3-11-43.9,20.8-63.7c0,0,28.4-18,53.7,0
		c0,0,25.3,16,24.3,52c0,0,0.9,27.6-21,42.2c-1.8,1.2-4.1,1.4-6.1,0.6c-6.5-2.7-21.6-8.8-29.9-12.4c-0.7-0.3-0.6-1.4,0.2-1.5
		c6.7-0.8,21.6-4.8,20.8-25.8c0,0-1-21-27-20c0,0-24.8,1.9-13.8,37.5C426.5,166.5,425.5,167.4,424.5,167.1z"/>
	<path d="M442,136c0,0-11.7,0.7-9.4,16.4c0,0,2.4,17.6,16.4,12.6c0,0,13.9-3,8.9-19C457.9,146,454,134,442,136z"/>
	<path class="st4" d="M300.8,333.4c13.1,3.6,52.2,12.7,110.4,10.7c0.9,0,1.3,1.1,0.6,1.7c-6.4,4.9-26.3,18-54.8,17.2
		c0,0-33,0.9-57.7-27.1C298.3,334.8,299.3,333,300.8,333.4z"/>
	<path class="st3" d="M518.6,224.7C483,194,404.4,166.9,404.4,166.9c-17.4-8.9-29.9-17.1-34-19.9c-1.1-0.7-2.2-1.3-3.5-1.6
		c-10.3-2.2-24.2,4-31,7.5c-2.4,1.2-3.9,3.7-3.9,6.4c-0.6,47.7-26,62.7-26,62.7c-46,32-96,12-96,12c-48.6-16.8-57.9-68.6-59.4-80.4
		c-0.2-1.2-1.4-1.9-2.5-1.3c-30.5,14.9-34.7,42.8-35.1,53.4c-0.1,1.9,1.9,3.3,3.7,2.5c10.5-4.6,20.9-5.3,25.3-5.4
		c0.7,0,1,0.8,0.5,1.2c-0.4,0.4-0.8,0.9-1.1,1.2c-0.3,0.4-0.8,0.8-1.3,1c-26.6,10.1-47.7,27.6-47.7,27.6C58.9,258.8,75,291,75,291
		c12.8,20.5,60.7,45.4,74.4,52.2c1.2,0.6,0.8,2.5-0.6,2.5c-4.7,0-9.8-1.7-9.8-1.7c-10-4-36-19.6-36-19.6c-8-5.6-9.5,0-9.5,0
		C78.9,373.8,10,392,10,392c0,72,37.9,105.8,37.9,105.8c89.1,12.3,136.4-94.9,136.4-94.9c19.3-35.2,35.1-45,43.9-47.4
		c2.5-0.7,3-4,0.8-5.5c-13.8-9.1-28.5-13.8-35.1-15.7c-2.2-0.6-2.4-3.7-0.3-4.6c1.3-0.5,2.4-0.7,2.4-0.7c22,2,53.4,27.4,53.4,27.4
		c52.6,46.6,89.7,46.4,89.7,46.4C379.1,403.6,409,375,409,375c18-18,26.6-25.6,31.9-29.1c1.1-0.7,0.6-2.4-0.6-2.5
		c-10.6-1-16.1,4.8-16.1,4.8c-33.8,26.2-68.7,21.9-68.7,21.9c-44.5-0.8-72.1-36.8-72.1-36.8c-7.5-8.6-26.8-15-26.8-15
		c-67.1-16.4-88.1-48.2-93.2-58.2c-0.9-1.8-3.3-2.2-4.8-0.9c-1,0.9-2.1,1.9-2.9,2.8c-0.6,0.7-1.8,0.2-1.8-0.7v-1.7
		c0-0.4,0.1-0.8,0.3-1.1C162.2,242,172,242,172,242c6,0,3,4,3,4c-1,0.5-2.6,1.8-3.9,3c-1.6,1.4-2,3.7-1.1,5.6
		c21.9,45.2,121,67.5,121,67.5c69.1,18.8,141.1,15,160.8,13.5c3.1-0.2,6.2-1,9-2.3C476.2,326.1,509,316,509,316c41-17,43-37,43-37
		C554,251,518.6,224.7,518.6,224.7z M448,290c-6,8-13-9-13-9c-2-12,5-12,5-12c5,1,8,9.1,8,9.1C451,285.3,448,290,448,290z M507,294
		c-8,2-7-2-7-2c11-21,16-15,16-15C520,286,507,294,507,294z"/>
	<path class="st5" d="M56.1,505.9c0,0,75.5,6,119-74.2c0,0,36.3-72.9,65.5-72.6c1.9,0,3.7,0.8,5,2.1c6.6,6.3,30.5,28,58.5,40.1
		c1.8,0.8,2.2,3.2,0.7,4.5c-3.6,3-9.5,7.3-14.9,7.9c0,0-28.3,1.9-43.3-22.1c0,0-8-11-6.7-1.8c0.1,0.6,2.5,4.2,2.9,4.7
		c3.4,4.8,18.2,24.6,44.1,24.3c1.5,0,2.4,1.7,1.5,2.9c-3.9,5.1-10.7,12.9-18.7,13.9c0,0-31.5,3.9-51.6-26.3
		c-0.3-0.4-0.8-0.4-1.1-0.1c-0.8,1-1.6,3.6,2.3,8.9c0,0,16.2,25.7,50.2,23.3c0.8-0.1,1.3,0.8,0.9,1.5c-2.9,4.6-11.4,17.2-18.7,18.8
		c0,0-36.3,7.6-60.2-23.4c-0.5-0.6-1.4-0.4-1.5,0.4c-0.3,1.7,0.1,4.7,3.7,9c0,0,22.7,25.5,56.2,20.5c1.1-0.2,1.9,1,1.2,1.9
		c-3.2,4.7-10.8,14.8-17.5,16.9c0,0-36.2,10.3-64.2-17.9c-0.4-0.4-1-0.7-1.6-0.8c-1.4-0.2-3.5,0.2-0.4,4.4c0,0,22.6,27.2,62.5,19.7
		c1.1-0.2,1.8,1.1,1,1.9c-5.1,4.9-15.8,14.8-21.1,16.3c0,0-36.5,8.8-63.3-18.2c-0.5-0.5-1.4-0.5-1.8,0c-0.9,1.1-1.7,3.2,1,6.3
		c0,0,22.9,20.8,53.7,18.3c1.1-0.1,1.5,1.3,0.6,1.9c-7.3,4.5-23.4,13.6-33.2,13.6c0,0-24.6,1-58.1-24.3c-0.5-0.4-1.2-0.1-1.4,0.5
		c-0.4,1.5-0.5,2.9,4.5,6.9c0,0,19.8,16.2,44,20.4c0.8,0.1,0.8,1.3,0,1.5c-6.4,1.4-19.2,3.9-26.7,4
		C128.9,541.4,90.7,539.2,56.1,505.9z"/>
</g>
</svg>
