<?xml version="1.0" encoding="utf-8"?>
<!-- Generator: Adobe Illustrator 27.4.0, SVG Export Plug-In . SVG Version: 6.00 Build 0)  -->
<svg version="1.1" xmlns="http://www.w3.org/2000/svg" xmlns:xlink="http://www.w3.org/1999/xlink" x="0px" y="0px"
	 viewBox="0 0 566.9 566.9" style="enable-background:new 0 0 566.9 566.9;" xml:space="preserve">
<style type="text/css">
	.st0{display:none;}
	.st1{fill:#F27593;}
	.st2{fill:#446741;}
	.st3{fill:#F7B3CA;}
	.st4{fill:#FFFFFF;}
</style>
<g id="Layer_1" class="st0">
	
		<image style="display:inline;overflow:visible;opacity:0.56;" width="260" height="280" xlink:href="E68CE299E72C99F.jpg"  transform="matrix(-7.4785 0 0 7.4785 1168.4796 -139.9993)">
	</image>
</g>
<g id="Layer_2">
	<path d="M10,335.9c-0.4-29.1,4.2-124.6,78.2-194.3c0,0,73.6-85.2,222-57.9c0,0,50.5,13.7,76.8,32.6c0,0,18.9,12.6,40,10.5
		c0,0,42.1-4.2,60,56.8c0,0,6.3,55.8,53.7,71.5c0,0,21,8.4,16.8,49.4c0,0-9.3,55.6-100.2,54.8c-1.9,0-3.6,1.4-3.8,3.3
		c-0.3,2.9,0.9,5,6.1,10.3c0,0,23.1,18.9,18.9,38.9c0,0-2.1,31.6-61,34.7c0,0-64.2,5.3-102.1-15.8c0,0-58.5-35.2-89.7-64.5
		c-2.1-2-4.6-0.7-4.9,2.2c-1.5,14.8-3.9,51,11.4,94.3c3.6,10.1-3.5,20.7-14.1,21.5C174.7,487.5,75.5,479,13.8,352
		C11.4,346.9,10.1,341.5,10,335.9z"/>
	<path class="st1" d="M147.6,476.5c0,0-10.8-43.8-9.2-74.3c0.2-2.9,2.3-5.3,5.1-5.9c10.1-2,34.7-5.7,59.6-0.7c4.1,0.8,7,4.4,7.1,8.6
		c0.4,13.4,3,44.6,18.5,75.4c0,0-3.7,4.8-10.5,4.9C218.2,484.5,178.6,488.3,147.6,476.5z"/>
	<path class="st1" d="M530.1,262.6c-38.9-6.3-90.5,1.1-90.5,1.1c-23.1,3.2-48.4,28.4-48.4,28.4C370.2,311,345,310,345,310
		c-25.2,1.1-46.3-21-46.3-21c-45.2-47.3-74.7-44.2-74.7-44.2c-37.9-1.1-52.6,44.2-52.6,44.2c-3.3,8.3,2.6,15.6,5.2,18.2
		c0.9,0.9,1.5,1.9,1.9,3.1c0.6,1.8,0.7,3.3,0.7,4.4c-0.1,2.1-2.4,3.3-4.1,2.2c-6.2-3.8-9.6-8.5-11.4-11.7c-0.9-1.6-3.2-1.7-4.2-0.2
		c-15.6,22.5-19.7,60.4-20.8,75.1c-0.2,3.1,2.5,5.6,5.6,5.2c30.2-4.2,49.8-1.6,59.3,0.6c3.5,0.8,6.9-1.7,7.2-5.3
		c0.6-8.1,1.7-18.7,2.4-24.5c0.3-2.6-0.6-5.2-2.3-7.1l-9.8-10.7c-2.9-3.5-2.6-7-1.7-9.4c0.6-1.6,2.7-1.8,3.7-0.5
		c37.4,50.2,108.5,86.7,108.5,86.7c43.1,28.4,113.6,21,113.6,21c42.1-7.4,45.2-28.4,45.2-28.4c1.9-12.1-17.7-35.8-22.2-41
		c-0.6-0.7-1.4-1-2.3-1h-4.2c-1,0-1.6,1.2-0.9,2c17.9,19.1,15.9,34.8,15.9,34.8c-3.2,29.5-64.2,21-64.2,21
		c-45.1-2.8-82.2-54.7-90.7-67.6c-1.2-1.8-2.8-3.4-4.7-4.6c-21-13.1-36-33.1-40.8-40.1c-1-1.4-2.7-2-4.3-1.6c-4.5,1-8.9,0.2-8.9,0.2
		c-4.2-1.1-5.4-1.8-6-3.4c-0.5-1.4,0.4-3,1.9-3.3c13.2-2.9,18.9-13.3,18.9-13.3c4.2-6.3,8.8,0.4,8.8,0.4c1.7,3.9,0.1,8.6-1.1,11.2
		c-0.6,1.3-0.7,2.8-0.1,4.2c9.9,25.5,41.4,37.3,41.4,37.3c45.8,14.1,166.7,6.9,166.7,6.9c60-2.1,73.6-44.2,73.6-44.2
		C554.3,271,530.1,262.6,530.1,262.6z M453.3,319.4c-5.3,4.2-13.7-3.3-13.7-3.3c-11.6-6.4,0-15.7,0-15.7c4.2-5.3,10.5,3.2,10.5,3.2
		C457.5,312.1,453.3,319.4,453.3,319.4z M540.5,308.5c-5.8,9.7-11.7,7.8-11.7,7.8c-4.9-1.9-2.9-9.7-2.9-9.7
		c3.9-12.6,11.7-10.7,11.7-10.7C547.3,295.9,540.5,308.5,540.5,308.5z"/>
	<path class="st2" d="M319.6,357.2c13.8,2.3,53.9,8.1,104.8,7.5c2.4,0,4.7,1,6.2,2.8c6.7,7.7,23.4,28.8,13.2,38.2
		c0,0-15.8,14.7-55.8,7.4c0,0-40.5-6.9-70.8-52.3C316.2,359.1,317.6,356.8,319.6,357.2z"/>
	<path class="st3" d="M508.1,247.4c-21.2-17.9-29.5-52.1-29.5-52.1c-12.3-61.7-52.1-59.2-59.7-58.1c-1.3,0.2-2.6,0.2-3.8,0.1
		c-18.1-2-55.3-23-55.3-23c-135.7-63.1-243,17.9-243,17.9C10.4,219.5,19.8,363.7,19.8,363.7c48.4,93.7,116.5,108.9,116.5,108.9
		c-15-78.2,2.1-141.7,2.1-141.7c31.8-105.2,86.5-96.8,86.5-96.8c34.7,1.1,73.6,43.1,73.6,43.1c27.4,26.3,45.2,24.2,45.2,24.2
		c24.2-1.1,36.8-13.7,36.8-13.7c11.6-11.6,34.7-25.2,34.7-25.2c21.8-10.5,69.5-10.5,90.6-9.9C508.9,252.8,510.3,249.3,508.1,247.4z
		 M257.6,156.4c-8.4,2.1-6.3-2.1-6.3-2.1c22.1-32.6,61-24.2,61-24.2c9.5,1.1,8.4,8.4,8.4,8.4c-2.1,8.4-11.6,5.3-11.6,5.3
		C274.5,135.3,257.6,156.4,257.6,156.4z M334.4,251c-34.7,12.6-62.1-11.6-62.1-11.6c-28.4-25.3,0-57.8,0-57.8
		c26.3-29.5,56.8-11.6,56.8-11.6c23.1,17.9,24,39.6,24,39.6C356.1,238.8,334.4,251,334.4,251z"/>
	<path class="st4" d="M306.6,174.7c0,0-32.3,3-38.5,34.9c0,0-1.9,30.7,38.5,37.6c0,0,36.4,4.7,36.9-36.3
		C343.4,211,339.8,176.3,306.6,174.7z M312.7,217c-13.3,24.9-20.4,20.8-20.4,20.8c-11-4.1,3.2-35.2,3.2-35.2
		c11.6-24.2,21.4-19.7,21.4-19.7C328.6,186.3,312.7,217,312.7,217z"/>
	<circle class="st4" cx="311.8" cy="211.6" r="10.5"/>
</g>
</svg>
