<?xml version="1.0" encoding="utf-8"?>
<!-- Generator: Adobe Illustrator 27.4.0, SVG Export Plug-In . SVG Version: 6.00 Build 0)  -->
<svg version="1.1" id="Layer_1" xmlns="http://www.w3.org/2000/svg" xmlns:xlink="http://www.w3.org/1999/xlink" x="0px" y="0px"
	 viewBox="0 0 566.9 566.9" style="enable-background:new 0 0 566.9 566.9;" xml:space="preserve">
<style type="text/css">
	.st0{fill:#00C667;}
	.st1{fill:#EF657F;}
	.st2{fill:#FFFFFF;}
	.st3{fill:#9F82D8;}
</style>
<path class="st0" d="M10.5,400.2c0,0-9.3,59.2,54.8,92.2c0,0,28.1,2,70.1-17c0,0,73-22,83.1-87.1c0,0,12-14,41-13
	c0,0,106.1,15,114.1-5c0,0,2-3.6-14.5-8.8c0,0-26.5-13.2-20.5-28.2l57-4c0,0,82.1-7,58-67c2.9-3.1,21.3-16.9,15.4-24.5
	c0,0-20.5-4.5-34,0c0,0-26.8-33.4-56.2-45.5c0,0-4.3-117.3-41.3-107.7c0,0-20.1-0.4-82.1,76.7c0,0-109.1-4-152.1,51
	c0,0-35,50-7,111.1c0,0,20,37-26,56C70.3,379.3,20.7,391.1,10.5,400.2z"/>
<g>
	<g id="XMLID_00000059992578142972034780000014958729278084566424_">
		<g>
			<path d="M217.8,392.7c-0.1-15,20.3-18,20.3-18c7.6,0,6.1-2.9,6.1-2.9c-7.4-6,0-5.6,0-5.6c54.8,19,121.6,8.4,121.6,8.4
				c10.8-2.1,1.8-8.4,1.8-8.4c-61.2-22.1-98.1-66.4-98.1-66.4c-7.4-14.8-29.8,10.3-29.8,10.3c-7.7,2.9-7.1-2.9-7.1-2.9
				c23.2-29.5,57.1-26.3,57.1-26.3c19,0,20-13.7,20-13.7c0-26.4-49.7-41.2-49.7-41.2c-8.4-3.2-6.3-7.4-6.3-7.4
				c1.9-4.5,9-3.1,14.1-1.4c2.9,1,4.9-1,5.1-4.1c0.8-14.6,4-25.2,4-25.2c30.5-73.5,67.4-63.2,67.4-63.2
				c21.1,5.3,15.7,65.3,15.7,65.3c-3.5,44.2-29.5,63.4-38,68.9c-1.8,1.1-2.9,3.1-2.9,5.2c-0.4,18.2-14,23.7-23.6,25.3
				c-3.3,0.6-4.4,4.7-1.8,6.8c29,23,60,27.7,60,27.7c49.6,9.5,80.1-7.4,80.1-7.4c36.9-23.2,20-50.6,20-50.6
				c-4.2-6.3-1.1-8.4-1.1-8.4c21.1-13.7,12.7-17.9,12.7-17.9c-9.4-1.5-19.9,0.1-25.4,1.2c-2.4,0.5-4.8-0.6-6.2-2.6
				c-13-19.8-43.1-37.2-52.8-42.4c-1.9-1-3.2-3-3.3-5.2c-2.7-44.3-16.6-88.1-16.6-88.1c-5.3-20-22.1-13.7-22.1-13.7
				c-38,19-61.2,55.9-61.2,55.9c-8.4,15.8-16,21.1-16,21.1c-8,6-11.9,5.2-13.8,3.3c-2.1-2-4.8-3.3-7.8-3.2
				c-87.4,2.6-124.8,39.9-124.8,39.9c-38,43.6-21.4,96.2-16.8,108.2c0.5,1.4,1.2,2.8,2.1,4c10.2,14.3,6.3,28.1,6.3,28.1
				c-4.2,44.3-93.7,54-93.7,54c0.4-2.5,0.9-5.1,1.2-7.2c0.4-2.6,2.5-7.7,5.1-8.1c102-16.6,72.9-56.5,72.9-56.5
				c-37.2-63.9,4-117.1,4-117.1c31.8-50.8,129.7-56.7,129.7-56.7c14.6-1.3,21.1,1.9,24.6,0.8c1.7-0.5,6.2-4.6,7.4-5.9
				c69.4-82.3,90.1-71.9,90.1-71.9c30,0,39.9,85.6,40.8,106c0.1,2.9,1.8,5.4,4.3,6.7c24.5,12.8,38.8,30.4,44.6,36.7
				c1.4,1.5,3.3,2.6,5.3,2.3c29.9-4.7,32.7,7.3,32.7,7.3c4.6,6.9-3.9,16.1-9.9,20.5c-2.1,1.6-2.5,5.5-1.2,7.8
				c11.4,20.6-1.6,40.6-1.6,40.6c-13.5,23.6-48.7,28.1-56.9,28.8c-1.3,0.1-2.4,0.8-3,2c-0.1,0.2-0.1,0.2-0.5,1.7
				c-0.2,1,0.9,1.9,1.9,1.9c117.4,0.5,144.9,21.5,153.2,31.4c1.5,1.8-0.1,4.4-2.4,4c-20.5-3.5-32.2-1.8-37.6-0.3
				c-2,0.5-3,2.6-2.3,4.5c4.2,10.4,4.2,18.9,3.5,24c-0.2,1.5-2.2,1.8-2.8,0.4c-17.9-41-84.7-43.9-84.7-43.9
				c-28.7-1.6-63.8-10.3-78-14.1c-2-0.5-3.5,1.1-1.9,2.4c11.4,9.3,26,11.5,26,11.5c15.8,2.9,8.5,13.7,8.5,13.7
				c-10.2,18.1-75.9,16.7-75.9,16.7c-72.3-7.6-78.4,0.5-81.8,5.9c-0.5,0.8-0.9,1.7-1,2.7c-9.4,73.8-111.9,94.8-134.9,100.1
				c-3.4,0.8-10.9,0.4-14.1-1.2c-3.9-1.9-8.4-4.4-10.7-5.3c61.3-9.9,105.3-39.7,105.3-39.7c32.4-18.1,42.4-51.7,44-58
				C217.8,394,217.8,393.3,217.8,392.7z M524.5,364.7c1,0.2,1.4-1.2,0.4-1.6c-14.9-5.9-52.2-17.7-107-14.2c-0.7,0.1-0.8,1.1,0,1.2
				c16.7,2.2,63.8,9.4,80.9,23.2c0.8,0.6,1.9,0.1,1.9-0.9c-0.1-2.4-1.1-6.4-6-10.3C494.7,362,511.9,362.7,524.5,364.7z M350.8,169
				c0,0,4.2-29.5-10.5-34.8c0,0-23.9-5.3-53.6,54.3c0,0-5.3,16.7-6.3,29.2c-0.2,2.4,1,4.7,3,5.9c6.9,4.3,23.1,14.8,29.5,23
				c1.6,2,4.4,2.5,6.5,1.1c4.2-2.7,10.6-7.6,15.1-14.7c1.6-2.5,0.9-5.8-1.5-7.4c-7-4.9-19.2-17.5-7.4-41.9
				C325.4,183.8,333.9,169,350.8,169z"/>
			<path class="st1" d="M525,363.1c0.9,0.4,0.6,1.8-0.4,1.6c-12.6-2-29.8-2.7-29.8-2.7c5,4,6,7.9,6,10.3c0,1-1.1,1.5-1.9,0.9
				c-17.2-13.8-64.2-21-80.9-23.2c-0.7-0.1-0.7-1.1,0-1.2C472.8,345.4,510.1,357.2,525,363.1z"/>
			<path class="st2" d="M340.2,134.2c14.8,5.3,10.5,34.8,10.5,34.8c-16.9,0-25.3,14.8-25.3,14.8c-11.8,24.4,0.4,37,7.4,41.9
				c2.4,1.7,3.1,5,1.5,7.4c-4.5,7.1-10.9,12-15.1,14.7c-2.1,1.4-5,0.9-6.5-1.1c-6.4-8.2-22.6-18.7-29.5-23c-2-1.3-3.2-3.5-3-5.9
				c1.1-12.6,6.3-29.2,6.3-29.2C316.3,128.9,340.2,134.2,340.2,134.2z"/>
		</g>
	</g>
</g>
<path d="M133.8,397.4l-25.6-6.2c-2.4-0.6-4.2-2.1-4.8-3.9l-6.4-20c-1.5-4.7-9.6-0.7-13.7,3.3l-17.3,12.1c-1.6,1.6-4.1,2.6-6.7,2.5
	L31.8,389c-6.5-0.1-10.8,1.6-7.2,5.6l14.9,16.8c1.4,1.6,1.7,3.6,0.7,5.5l-10.5,19.8c-2.5,4.7,3,9.2,9.3,7.6l26.5-6.7
	c2.5-0.6,5.2-0.3,7.1,0.9l20.9,12.5c4.9,3,12.6,0.1,13-4.9l1.5-20.9c0.1-2,1.5-3.8,3.7-5l23.4-12.1
	C140.6,405.2,139.9,398.9,133.8,397.4z"/>
<path class="st3" d="M89.9,371.4c0,0-18.1,15.5-55.3,24.3l15.1,14.1c1,1,1.3,2.5,0.6,3.8l-9.6,17.8c-1.3,2.4,0.8,5.2,3.4,4.6
	l25.2-5.3c0.7-0.2,1.5,0,2.2,0.3l23,12.3c1.9,1,4.3-0.2,4.6-2.3l3.1-21c0.1-1,0.8-1.9,1.6-2.3l19.5-10.4c2.5-1.4,2.1-5.1-0.7-5.9
	l-21.6-5.6c-1-0.3-1.8-1-2.1-1.9L89.9,371.4z"/>
</svg>
