<?xml version="1.0" encoding="utf-8"?>
<!-- Generator: Adobe Illustrator 27.4.0, SVG Export Plug-In . SVG Version: 6.00 Build 0)  -->
<svg version="1.1" xmlns="http://www.w3.org/2000/svg" xmlns:xlink="http://www.w3.org/1999/xlink" x="0px" y="0px"
	 viewBox="0 0 566.9 566.9" style="enable-background:new 0 0 566.9 566.9;" xml:space="preserve">
<style type="text/css">
	.st0{display:none;}
	.st1{fill:#409148;}
	.st2{fill:#937676;}
	.st3{fill:#EA7273;}
	.st4{fill:#92CE9A;}
	.st5{fill:#FFFFFF;}
	.st6{fill:#C59342;}
</style>
<g id="Layer_1" class="st0">
	
		<image style="display:inline;overflow:visible;opacity:0.37;" width="223" height="226" xlink:href="../../Reference/download.jpg"  transform="matrix(5.9515 0 0 5.9515 -343 -17)">
	</image>
</g>
<g id="Layer_2">
	<path d="M27.2,351.4C39.6,340.6,71.8,316.9,129,301c0.1,0,0.2-0.1,0.3-0.1c2.1-1.8,31.8-26.6,87.4-49.7c0.3-0.1,0.4-0.4,0.4-0.7
		c-0.1-2.4-0.4-13.7,0-26.6c0-0.6-0.6-0.9-1.1-0.6c-4,2.4-18,9.6-32.7,0.9c-0.7-0.4-0.3-1.4,0.4-1.3c5.2,0.4,16.2,0.8,23.4-2.8
		c0.7-0.3,0.5-1.4-0.3-1.4c-4.4,0-13.1-1.4-21.2-10.8c-0.5-0.6,0.1-1.4,0.8-1.1c6.4,2.7,22.2,8.1,30.5-1c0.1-0.2,0.2-0.4,0.2-0.6
		c-0.6-4.4-5.5-52.6,34.4-91.4c0,0,0,0,0-0.1c1.2-1.5,54.3-68.6,78-19.2c0,0,0,0.1,0,0.1c0.3,1,6,19.3,7,37.6c0,0.2,0.1,0.4,0.3,0.5
		c1.3,1,7.1,5,10.6,0c0.1-0.1,0.1-0.2,0.1-0.4c0.2-3.2,3-45.8,29-46.8c0,0,0,0,0,0c1,0,44.1,1.1,66.9,99.6c0.1,0.3,0.2,0.5,0.5,0.5
		c2.8,0.8,19.7,4.8,29.7-5.4c0.6-0.6,1.5,0.1,1.1,0.8c-2.8,5.6-9.3,14.2-22.7,13.6c-0.6,0-1,0.7-0.6,1.2c2.5,3.1,10.4,10.4,26.3,5.7
		c0.7-0.2,1.2,0.7,0.7,1.2c-4.4,4-15.2,11.7-27.8,3.6c-0.5-0.3-1.1,0.1-1.1,0.6c0.2,4.8,0.8,21.3,0,33.1c0,0.3,0.1,0.6,0.4,0.7
		c7,3.1,90.9,40.9,83.6,93.5c0,0.2,0,0.4,0.1,0.5c3,3.8,41.6,55.2-39,92.7c-0.1,0-0.2,0.1-0.2,0.2c-1.4,1.8-17.1,22.9-22.9,45.8
		c0,0,0,0.1,0,0.1c-0.2,1.4-5.1,41.1-70,51c0,0-65,9-98-10c0,0-40.6-22.8-71.6-59.5c-0.2-0.3-0.6-0.3-0.9-0.1
		c-4,2.6-31,18.9-73.3,10.7c-0.1,0-0.2,0-0.3,0c-1.4,0.5-12,4.5-15.8,23.7c-1,5.1-5.5,8.7-10.7,8.5
		c-27.3-0.8-103.7-13.8-109.6-132.9C21.2,359.7,23.3,354.7,27.2,351.4z"/>
</g>
<g id="Layer_3">
	<path class="st1" d="M134.1,482.6c-1.3,2.9-2.9,8-3.6,15.1c0,0-45,0.8-71.9-30.7c0,0,2.2-12.5,7.1-23c1-2.2,4-2.3,5.2-0.2
		c4.7,8,18.9,23.4,61.2,34.8C133.9,479,134.8,481,134.1,482.6z"/>
	<path class="st1" d="M89.9,413.2c3.7,7,16.6,26.5,55.1,46c1.5,0.7,1.9,2.7,0.8,3.9c-1.8,2.2-4.4,5.5-6.3,8.8
		c-0.6,1-1.7,1.5-2.8,1.2c-9.8-2.2-55.2-13.7-63.9-40.8c-0.2-0.5-0.2-1.1,0-1.7c1-2.7,4.8-11.5,13.1-18.2
		C87.3,411.4,89.2,411.8,89.9,413.2z"/>
	<path class="st2" d="M21.7,368.1c0,0,9.3-9,15.2-13c1.3-0.9,3.1-0.1,3.3,1.5c1.2,9.1,3.1,36.2-12.5,51.9
		C27.7,408.5,21.6,385.7,21.7,368.1z"/>
	<path class="st3" d="M458.5,439.1c-7,1.9-21.9,4.9-35.3,0.8c-0.3-0.1-0.6-0.1-0.9,0c-2.7,0.6-17.6,3.7-33.1,1.3
		c-1.7-0.3-2.7,1.9-1.4,3.1c6,4.9,17.8,12.6,35.1,14.3c0,0,24.7,2.4,37.4-16.8C461.3,440.4,460.1,438.6,458.5,439.1z"/>
	<g>
		<path class="st4" d="M52.9,460.6c8.4-33.6,22.7-49,29.3-54.5c2.2-1.8,3.3-4.6,3.1-7.4c-3-33.9,5.4-53.9,12.6-64.5
			c2.1-3,6.9-12.8-4.4-9.7c0,0-19.3,4.6-45.8,23.8c-1.7,1.3-2.6,3.4-2.3,5.5c1.7,10.3,4.8,42-15.8,61.3c0,0,4.3,21.5,21.7,43.4
			L52.9,460.6z"/>
		<path class="st4" d="M109.6,333.4c-1.3,1.9-25.5,37.7-9.1,72.8c0.1,0.1,0.1,0.2,0.2,0.3c1.7,2.8,26.9,41.3,78,49
			c0,0,18.2,3.6,41.6-7.3c1.7-0.8,2.1-3,0.9-4.3c-2.5-2.8-6.4-7.6-9-12.4c-0.4-0.7-0.4-1.6-0.1-2.4c0.9-2.1,3.6-4.7,11.6,3.8
			c0,0,54.9,61.5,106.9,80.6c0.1,0,0.2,0.1,0.3,0.1c2.7,0.7,42.7,10.4,95.7-4c0.1,0,0.2-0.1,0.3-0.1c2.5-1,33.1-14,38.8-39.9
			c0,0,2.4-12.7,7.3-23.1c1.2-2.6-1.9-5.1-4.2-3.4c-2.4,1.8-4.7,4.2-6.1,7.4c0,0-8,15.9-37.8,16c-0.1,0-0.2,0-0.3,0
			c-2,0.3-27.1,2.7-55.9-26c0,0-48.8-49.7-115.5-56.5c-3.4-0.3-3.2-5.5,0.2-5.5c0.1,0,0.2,0,0.2,0c0,0,59.9,2.9,108.3,44.7
			c2.9,2.5,6.3,4.4,9.9,5.5c8.7,2.7,26,6.5,48.4,3.8c0.2,0,0.5,0,0.7,0c3.7,0.6,36.4,5.1,64.7-8.1c0,0,55-26,50-57
			c0,0,1-39.3-79.8-88.7c-2.1-1.3-1.6-4.6,0.8-5.1c1.5-0.3,3.6,0.1,6.9,1.7c0.1,0,0.1,0.1,0.2,0.1c1.9,1.1,37,21.7,56.1,43.5
			c1.9,2.2,5.6,0.3,4.8-2.5c-3.3-11.6-15.2-32.4-55.9-57c0,0-14.7-9.8-24.7-11.9c-0.2,0-0.4-0.1-0.5-0.1c-4.5-0.1-62.8-0.8-88.7,4
			c0,0-83.6,12.9-128.7,32.9c-0.2,0.1-0.4,0.2-0.5,0.3c-1.8,1.3-13.1,8.5-10.4-17.6c0.2-2.1-1.9-3.6-3.8-2.8
			c-16,6.6-71.9,31.5-101.6,69C109.7,333.3,109.6,333.4,109.6,333.4z M210.5,399.6c-0.5-3.8-1.6-18.9,12.9-31.9
			c0.2-0.2,0.3-0.3,0.5-0.5c1.2-1.8,7.9-11.9,13.8-14.3c1.6-0.6,3.4,0.5,3.7,2.2c0.5,3.2,0.3,8.7-5.7,13.4c0,0-18.9,13.9-19,26.9
			c0,0.1,0,0.1,0,0.2c-0.1,1-1.2,9.7-5.4,5.6C210.9,400.8,210.6,400.2,210.5,399.6z"/>
		<path class="st4" d="M426.2,171c-12.7-9.9-49.3-37.4-65.5-40.3c-1.8-0.3-3-1.8-2.9-3.6c0.6-9.2,3.7-34,20.7-32.6
			c0.2,0,0.3,0,0.4,0.1c2.9,0.6,32.1,8.3,50.3,74.4C429.7,170.7,427.7,172.1,426.2,171z"/>
		<path class="st4" d="M324.7,129.9c-10.7,1.9-48.7,12-93.4,64.1c-1.7,2-5,0.8-5-1.8c-0.1-13.5,2.8-43.6,27.4-69.7c0,0,41-49,59-36
			c0,0,13.1,8.4,14.9,39.8C327.7,128.1,326.4,129.6,324.7,129.9z"/>
	</g>
	<path d="M415.4,77.2c1.6,1.3,3.8-0.3,3.1-2.2c-3.1-8.3-12-29.3-27.8-43.5c0,0-27.8-27.8-36.9,35.4c-0.1,0.4,0,0.8,0.2,1.2
		c1,1.8,4.1,6.8,6.6-0.4c0-0.1,0.1-0.3,0.1-0.4c0.3-2.9,4.5-35.6,16.9-35.8c0.1,0,0.1,0,0.2,0c1.2,0.1,13.6,1.5,27.8,28.9
		c0,0.1,0.1,0.2,0.1,0.3C406.2,62,410.4,73.2,415.4,77.2z"/>
	<path d="M324.6,59.3c0.1-0.5,0.1-0.9-0.1-1.4c-1.7-4.5-12.8-32.6-24.8-35.4c0,0-18.6-12.7-41.3,53.9c-0.7,2,1.5,3.9,3.3,2.9
		c1.6-0.9,3.6-3.3,5.9-8.7c0-0.1,0.1-0.2,0.1-0.3c0.8-2.5,13.5-42.8,30-41.9c0,0,8.9,0,20.8,30.6c0.1,0.3,0.3,0.6,0.5,0.8
		C320.1,61,323.5,64.1,324.6,59.3z"/>
	<path class="st5" d="M394.1,242.2c8.9-0.5,29.4-1.6,43.5-1.7c1.7,0,3.1-1.4,3.2-3.1c0.3-9.7,0.4-39.2-6.9-48.7
		c-0.1-0.2-0.3-0.3-0.4-0.4c-3.5-3.1-47.2-41.7-73.4-48.6c0,0-14.3-6.2-11.3,7.8c0,0,5.4,34.8,5.4,50.7c0,2.3,2.3,3.8,4.4,3
		c5.6-2.2,15-4.3,22.3,2.3c0,0,15,13.3,10.2,34.8C390.4,240.4,392,242.4,394.1,242.2z"/>
	<path class="st5" d="M307.3,251.5c-14,3.3-57.8,13.9-77.5,22.2c-2,0.8-4.2-0.5-4.4-2.6c-1.4-13.1-4.3-51.9,7.3-67.6
		c0,0,39.8-53.6,88.8-63.8c0.1,0,0.2,0,0.3-0.1c1.5-0.5,15-4.5,16.9,6.9c0,0,5.1,29,5.9,50c0.1,2.3-2.1,3.9-4.3,3.1
		c-7.1-2.5-21.4-5.3-31.2,7.4c0,0-13,16.7,0.2,39.8C310.4,248.6,309.4,251,307.3,251.5z"/>
	<path class="st6" d="M382.9,216.7c-1.7-4.4-6.4-12.5-18.1-10.5c-0.1,0-0.1,0-0.2,0c-0.9,0.2-10,2.7-10.9,12.2
		c0,0-2.8,11.2,1.9,24.4c0.3,0.8,1.1,1.2,1.9,1.1c2-0.3,5.8-1,9.8-1.5c1.1-0.1,1.7-1.2,1.4-2.2c-0.9-3-2.3-9.1-0.6-15
		c0,0,0-0.1,0-0.1c0.3-0.8,2.8-7.3,12.9-6.1C382.3,219.2,383.3,217.9,382.9,216.7z"/>
	<path class="st6" d="M348.3,218.1v2.7c0,1.2-1.1,2.2-2.3,2c-3.6-0.5-10.4-0.4-14.5,6.4c0,0.1-0.1,0.2-0.1,0.2
		c-0.5,1.1-3.6,8.4-1.1,16c0.4,1.3-0.4,2.6-1.8,2.7c-1.8,0.1-4.5,0.4-8.4,1.2c-0.8,0.1-1.5-0.2-2-0.8c-2.4-3.2-9.1-13.6-5.9-27.9
		c0,0,1.9-15.4,20.1-15.4c0.1,0,0.2,0,0.3,0c1.3,0.2,10.7,1.6,15.6,12C348.2,217.5,348.3,217.8,348.3,218.1z"/>
	<path class="st5" d="M381.6,226.5c0,0,4.1,3,2.1,9c0,0-3.7,4-7.4,0c0,0-2.4-4,0-7C376.3,228.5,377.5,225.5,381.6,226.5z"/>
	<path class="st5" d="M344.6,230.5c0,0,4.1,3,2.1,9c0,0-3.7,4-7.4,0c0,0-2.4-4,0-7C339.3,232.5,340.5,229.5,344.6,230.5z"/>
</g>
</svg>
