<?xml version="1.0" encoding="utf-8"?>
<!-- Generator: Adobe Illustrator 27.4.0, SVG Export Plug-In . SVG Version: 6.00 Build 0)  -->
<svg version="1.1" xmlns="http://www.w3.org/2000/svg" xmlns:xlink="http://www.w3.org/1999/xlink" x="0px" y="0px"
	 viewBox="0 0 566.9 566.9" style="enable-background:new 0 0 566.9 566.9;" xml:space="preserve">
<style type="text/css">
	.st0{display:none;}
	.st1{display:inline;fill:#7C7C7C;}
	.st2{fill:#FFFFFF;}
	.st3{fill:#9D83DD;}
	.st4{fill:#C8B6FF;}
	.st5{fill:#6E5AAF;}
</style>
<g id="Layer_1" class="st0">
	
		<image style="display:inline;overflow:visible;opacity:0.4;" width="211" height="239" xlink:href="116F46BC7B9913DB.png"  transform="matrix(2.0367 0 0 2.0367 88.7892 7.7283)">
	</image>
	<path class="st1" d="M184.6,377.5c-9.5,33.9-41.5,53-71.7,66.2c-5.1,2.2-0.7,9.7,4.4,7.5c32.4-14.2,65.6-35.2,75.7-71.4
		C194.5,374.4,186.1,372.1,184.6,377.5z"/>
	<path class="st1" d="M379.9,432c-18.8-3.9-37.3,0.6-56.1,1.4c-15.9,0.7-34.3-2.3-43.4-17c-2.9-4.7-10.5-0.4-7.5,4.4
		c9.1,14.7,26.1,20.7,42.7,21.3c2.7,0.1,5.4,0.1,8.2,0c-9.3,12.5-20,23.8-31.9,33.9c-4.3,3.6,1.9,9.8,6.1,6.1
		c13.4-11.4,25.2-24.5,35.5-38.8c0.5-0.7,0.8-1.4,0.8-2.1c14.5-1.5,28.9-3.9,43.3-0.9C383.1,441.5,385.4,433.1,379.9,432z"/>
</g>
<g id="Layer_2">
	<path d="M483,256.1c-1.6-1.6-2.1-3.9-1.4-5.9c1.4-3.9,2.8-10.7-1-15.3c0,0-7.2-6.3-16.1-1.4c0,0-7.2,6.3-12.8,0.7
		c0,0-24.4-20.9-41.7-47.6c-0.5-0.8-0.8-1.7-0.9-2.6c-1.1-9.2-8.3-62.6-29.5-77.8c0,0,13.6-38.2,7.2-73c0,0-8.8-31.3-44.1-29.2
		c0,0-11.8-1.4-48.8,23.7c0,0-35.7,27-50.4,28.5c0,0-71.5-17.2-111.9,32.1c0,0-7.8,8.4-2.6,13.9c0,0,9.4,11.3,13.8,17.4
		c1.2,1.6,1.1,3.7-0.3,5.2c-6.5,7.4-25,32-23.5,70.2c0,0,0.9,40.2,29.1,64.5c1.9,1.6,2.4,4,1.3,6.1c-9.3,17.4-47.9,93.8,12.5,111.9
		c2.5,0.7,2.3,4.3,0.9,6.2c-7.1,9.6-26.5,32.1-70.6,43c-2.8,0.7-4.7,4.9-4.7,7.4c-0.1,18.2,5.1,89.9,86.4,123.8
		c3.8,1.6,13,2.8,17,1.5c23.1-7.3,97.5-36.1,150.9-112.8c3.5-5,9.9-7.8,16.5-7.2c20.1,1.7,64.1,0.7,93.7-34.4c0,0,10.6-12.5,16-26.3
		c0,0,2.3-11.9,10.6-20.4c0,0,20.5-21.1,21.3-59.3C500,298.9,499.4,273.4,483,256.1z"/>
	<path class="st2" d="M301.5,149.6c0,0-2.4-4.3-7.7,0c0,0-12.4,9.3-57.9-21.5c0,0-9.3-8-17.9,0c0,0-32.2,31.6-16.1,82.6
		c0,0,13.9,35.9,50.1,40.2c0,0,45.8,4.8,55.1-35.9c0,0-17.6,1-25.4-9.7c0,0-13.2-17.5,2.9-33.2c0,0,9.2-9.2,22.5-7.5
		C307,164.6,306.3,154,301.5,149.6z"/>
	<path class="st2" d="M339.7,92.3c0,0-7-3.3-10.8,3.3c0,0-9.8,12.5-14,23.6c0,0-3.5,11-7.9,16.2c0,0-3.7,5.2,0,8.5
		c0,0,13.4,12.8,11.5,61.7c-0.1,2.8,1.9,5.4,5,6.2c15.1,4.2,58.3,12.9,73.1-20.4c0,0-18.4,3.9-29.9-11.4c0,0-9-13.4,3.6-28.6
		c0,0,7.6-8.5,19.7-5.6C390.1,145.8,384,108.2,339.7,92.3z"/>
	<path class="st3" d="M354.1,284c0,0-8.1-1-6.3,3.9c0,0,1.1,5.1,8.9,5.8c0,0,5.9,0.6,5.9-2.9C362.6,290.8,361.9,285.3,354.1,284z"/>
	<path class="st3" d="M476.1,267.4c-6.2-11-21.6-0.3-21.6-0.3c-9.4,1.5-5.9-3.7-5.9-3.7l18.3-12.2c8.9-8.2,0-8.2,0-8.2
		c-8.9,3.6-29.7,18.5-29.7,18.5c-6.6,4.2-8.5,0-8.5,0c-1.4-3.9,8.3-12.9,8.3-12.9c7.6-4.2,5.6-7.8,5.6-7.8
		c-12.8-19.5-28.4-31.1-35.7-35.9c-2.2-1.4-5.2-1-6.8,0.9c-23.3,27.7-63.2,19.6-77.9,15.3c-3-0.9-6.2,0.6-7,3.2
		c-11.2,36.5-51.9,37.2-51.9,37.2c-62.9-1.5-75.1-55.3-75.1-55.3c-11.5-49.3,13.1-79.8,22.2-89.1c1.6-1.6,1.2-4.1-0.8-5.3
		c-7.6-4.6-15.5-11.3-19.2-14.6c-1.6-1.4-1.7-3.7-0.1-5.2c5-4.5,12,2.3,12,2.3c42.3,30.1,71.9,40.3,71.9,40.3c16.6,3,26.3-6,26.3-6
		c5.5-17.4-6.8-31.8-6.8-31.8c-2.6-5.2-1.2-9.8,0.7-12.8c1.4-2.3,5.1-2.5,6.9-0.4c3.9,4.6,6.8,10,8.8,14.2c1.2,2.6,5.3,2.8,6.9,0.3
		C334.1,71.6,349,56.2,349,56.2c8.3-3.6,13.1,4.8,13.1,4.8c-15.9,13.2-16.6,18-16.6,18c15.2,4.8,27,17.4,27,17.4
		c8.9-34.2,4.9-56.1,4.9-56.1c-9.6-33.5-37.6-26.1-37.6-26.1c-21.9,4.2-50.6,28.2-60.9,37.5c-1.9,1.7-1.2,4.4,1.3,5.3
		c13,4.7,16.1,10.9,16.1,10.9c-2,4.9-9.6,2.4-9.6,2.4c-20.7-8.9-64.5-8.9-64.5-8.9c-54-1.2-74.6,25.4-80,34.3
		c-1.1,1.8-1.3,3.9-0.6,5.9c1.8,4.6,4.9,8.1,7.6,10.4c2.6,2.2,6.8,2.1,9.3-0.1c1.5-1.3,3.1-2.6,4.3-3.5c1.2-0.9,2.8-1.3,4.4-1
		c6.2,1.3,4.2,7.4,4.2,7.4c-76.9,69.6-19.9,131.1-19.9,131.1c5.3,5.4,8.6,0,8.6,0c8.9-16.2,16-14,16-14c9.3,0,3.7,8.4,3.7,8.4
		C117,320.2,147,353.4,147,353.4c17.3,27.9,92.1,18.7,92.1,18.7c11,0,3.7,7.4,3.7,7.4c-15.4,6.7-48.6,4.5-60.7,3.4
		c-2.8-0.2-5.4,0.9-6.9,2.9C138.8,435.9,87.5,441,87.5,441c4.4,86.2,71.9,110,71.9,110c94-11.4,155.4-89.4,171.8-111.7
		c2-2.8-1-4.3-4.7-5c-27.2-4.6-44.1-17.7-49.5-20.9c-1-0.6-1.5-1.6-1.4-2.6c0.9-6.6,8.3-3.9,8.3-3.9c112.9,52,154.2-3,154.2-3
		c10.9-11,3.1-10.3,3.1-10.3c-29,18.5-73.4,13.6-73.4,13.6c-50.9-5.7-84.4-55.5-84.4-55.5c-26.2-39.7-46.8-63.7-46.8-63.7
		c-5.2-5.7-7.1,0-7.1,0c-3.7,19.4-10,32.1-13.3,37.8c-1.8,3-7,1.8-6.9-1.6c0.1-2.2,1.4-4.3,1.4-4.3c8-20.4,11.3-42.1,11.3-42.1
		c2.4-9.8,17.4-12.7,17.4-12.7c7.5,0,4.2,6.9,4.2,6.9c-4.7,1.6-2,4.4-2,4.4c14,14.2,44.4,62.8,44.4,62.8
		c36.6,56,96.6,56.7,96.6,56.7c54.5,1.4,86.5-43.9,86.5-43.9C501.8,302.1,476.1,267.4,476.1,267.4z M370.6,298.4
		c-11.1,6.1-27.2-1.6-27.2-1.6c-14.3-7.4-9.4-17-9.4-17c3.3-7.1,18.9-3.9,18.9-3.9C382.1,286.8,370.6,298.4,370.6,298.4z"/>
	<path class="st4" d="M88.4,451.3c0,0,56.3-14.4,91.4-58.4c2.6-3.3,7.5-3.7,10.4-0.7c2.5,2.6,4.5,7.1,3.7,14.6
		c0,0-12,40.6-100.3,69.6C93.6,476.4,89.2,461.6,88.4,451.3z"/>
	<path class="st5" d="M152.5,547.9c0,0,110.5-10.6,174-113.6c0,0-13.2-1-24.8-7.2c0,0-89.2,101.6-179.7,98.1
		C122,525.2,134.6,539.4,152.5,547.9z"/>
</g>
</svg>
