<?xml version="1.0" encoding="utf-8"?>
<!-- Generator: Adobe Illustrator 27.4.0, SVG Export Plug-In . SVG Version: 6.00 Build 0)  -->
<svg version="1.1" id="Layer_1" xmlns="http://www.w3.org/2000/svg" xmlns:xlink="http://www.w3.org/1999/xlink" x="0px" y="0px"
	 viewBox="0 0 566.9 566.9" style="enable-background:new 0 0 566.9 566.9;" xml:space="preserve">
<style type="text/css">
	.st0{fill:#DDCB7F;}
	.st1{fill:#EF657F;}
	.st2{fill:#FFFFFF;}
	.st3{fill:#A03E0D;}
</style>
<path class="st0" d="M8,386.1c0,0-17.3,92.4,70.3,123.2c0,0,22-4.4,64.7-23.7c0,0,71-31.5,75.5-99.2c0,0,12.2-14.2,41.6-13.2
	c0,0,107.7,15.2,115.8-5.1c0,0,2.1-3.6-14.7-8.9c0,0-26.9-13.4-20.8-28.7l57.9-4.1c0,0,83.3-7.1,58.9-68c3-3.2,21.6-17.2,15.7-24.9
	c0,0-20.8-4.6-34.5,0c0,0-27.2-33.9-57-46.2c0,0-4.3-119.1-41.9-109.3c0,0-20.4-0.4-83.3,77.8c0,0-110.7-4.1-154.4,51.8
	c0,0-35.5,50.8-7.1,112.7c0,0,22,27.2-24.7,46.5C69.9,366.8,18.4,376.9,8,386.1z"/>
<g>
	<g id="XMLID_00000059992578142972034780000014958729278084566424_">
		<g>
			<path d="M563.4,369.1c1.5,1.8-0.1,4.5-2.4,4.1c-20.9-3.6-32.7-1.8-38.2-0.3c-2,0.5-3.1,2.7-2.3,4.6c4.3,10.5,4.2,19.2,3.5,24.4
				c-0.2,1.5-2.3,1.8-2.9,0.4c-18.2-41.6-86-44.6-86-44.6c-29.1-1.7-64.7-10.5-79.1-14.3c-2-0.5-3.6,1.1-1.9,2.4
				c11.6,9.4,26.4,11.7,26.4,11.7c16,3,8.7,13.9,8.7,13.9c-10.3,18.3-77.1,16.9-77.1,16.9c-73.4-7.7-79.6,0.5-83,6
				c-0.5,0.8-0.9,1.7-1,2.7c-9.6,74.9-106.4,111.4-129.8,116.8c-3.4,0.8-11.1-0.6-14.3-2.2c-4-1.9-8.6-3.5-10.8-4.3
				c62.2-10,102.7-46.6,102.7-46.6c32.5-23.3,40.1-61.4,41.7-67.8c0.2-0.7,0.2-1.4,0.2-2c-0.1-15.2,20.6-18.3,20.6-18.3
				c7.7,0,6.2-2.9,6.2-2.9c-7.5-6.1,0-5.6,0-5.6c55.7,19.3,123.4,8.6,123.4,8.6c11-2.1,1.8-8.6,1.8-8.6
				c-62.1-22.5-99.5-67.4-99.5-67.4c-7.5-15-30.2,10.4-30.2,10.4c-7.8,2.9-7.2-2.9-7.2-2.9c23.5-30,57.9-26.7,57.9-26.7
				c19.3,0,20.3-13.9,20.3-13.9c0-26.8-50.4-41.8-50.4-41.8c-8.6-3.2-6.4-7.5-6.4-7.5c1.9-4.6,9.1-3.2,14.4-1.4c2.9,1,5-1,5.1-4.1
				c0.8-14.9,4.1-25.5,4.1-25.5c31-74.6,68.5-64.1,68.5-64.1c21.4,5.4,15.9,66.2,15.9,66.2c-3.5,44.8-30,64.4-38.6,69.9
				c-1.8,1.2-2.9,3.2-2.9,5.3c-0.4,18.5-14.3,24-23.9,25.7c-3.3,0.6-4.4,4.8-1.8,6.9c29.4,23.3,60.9,28.1,60.9,28.1
				c50.3,9.6,81.3-7.5,81.3-7.5c37.5-23.5,20.3-51.4,20.3-51.4c-4.3-6.4-1.1-8.6-1.1-8.6c21.4-13.9,12.8-18.2,12.8-18.2
				c-9.6-1.5-20.1,0.1-25.8,1.2c-2.4,0.5-4.9-0.6-6.3-2.6c-13.2-20.1-43.8-37.7-53.6-43.1c-1.9-1.1-3.2-3-3.3-5.3
				c-2.8-44.9-16.9-89.4-16.9-89.4c-5.4-20.3-22.5-13.9-22.5-13.9c-38.5,19.3-62.1,56.7-62.1,56.7c-8.6,16-16.3,21.4-16.3,21.4
				c-8.1,6.1-12.1,5.2-14.1,3.4c-2.1-2.1-4.9-3.3-7.9-3.2c-88.8,2.7-126.6,40.5-126.6,40.5C67.4,253.7,92.5,299,97.1,311.2
				c0.5,1.4,1.4,2.7,2.1,4c10.8,18.7,4.3,28.5,4.3,28.5c-13.9,34.8-96.1,45.7-96.1,45.7c0.4-2.5,0.9-5.2,1.2-7.4
				c0.4-2.7,2.5-5.7,5.2-6.2C117.4,359,91,325.6,91,325.6C53.2,260.8,95,206.7,95,206.7c32.3-51.5,131.7-57.6,131.7-57.6
				c14.8-1.3,21.4,2,25,0.8c1.7-0.5,6.3-4.6,7.5-6c70.4-83.6,91.4-73,91.4-73c30.4,0,40.5,86.9,41.5,107.6c0.1,2.9,1.8,5.5,4.4,6.8
				c24.9,13,39.4,30.9,45.2,37.2c1.4,1.5,3.4,2.6,5.4,2.3c30.4-4.8,33.2,7.4,33.2,7.4c4.7,7-3.9,16.3-10.1,20.8
				c-2.2,1.6-2.5,5.6-1.2,7.9c11.5,20.9-1.7,41.2-1.7,41.2c-13.7,23.9-49.4,28.5-57.7,29.2c-1.3,0.1-2.5,0.9-3,2
				c-0.1,0.2-0.1,0.2-0.5,1.7c-0.2,1,0.9,1.9,1.9,1.9C527,337.7,555,359.1,563.4,369.1z M529.2,362.5c1,0.2,1.4-1.3,0.4-1.6
				c-15.1-6-53-18-108.6-14.4c-0.7,0.1-0.8,1.1,0,1.2c17,2.2,64.7,9.5,82.1,23.5c0.8,0.6,2,0.1,1.9-0.9c-0.1-2.4-1.1-6.5-6.1-10.5
				C499,359.7,516.4,360.5,529.2,362.5z M352.8,163.9c0,0,4.3-30-10.7-35.3c0,0-24.2-5.4-54.4,55.1c0,0-5.4,16.9-6.4,29.7
				c-0.2,2.4,1,4.7,3.1,6c7,4.3,23.4,15,29.9,23.3c1.6,2,4.4,2.5,6.6,1.1c4.3-2.7,10.8-7.7,15.4-14.9c1.6-2.5,0.9-5.8-1.5-7.5
				c-7.1-4.9-19.5-17.8-7.5-42.5C327.2,178.9,335.7,163.9,352.8,163.9z"/>
			<path class="st1" d="M529.7,360.8c0.9,0.4,0.6,1.8-0.4,1.6c-12.8-2-30.2-2.7-30.2-2.7c5,4,6.1,8,6.1,10.5c0,1-1.2,1.6-1.9,0.9
				c-17.4-14-65.2-21.3-82.1-23.5c-0.7-0.1-0.7-1.1,0-1.2C476.7,342.9,514.6,354.8,529.7,360.8z"/>
			<path class="st2" d="M342.1,128.6c15,5.4,10.7,35.3,10.7,35.3c-17.1,0-25.7,15-25.7,15c-12,24.7,0.4,37.6,7.5,42.5
				c2.4,1.7,3.1,5,1.5,7.5c-4.6,7.2-11.1,12.1-15.4,14.9c-2.2,1.4-5,0.9-6.6-1.1c-6.5-8.3-22.9-19-29.9-23.3c-2.1-1.3-3.3-3.6-3.1-6
				c1.1-12.7,6.4-29.7,6.4-29.7C317.9,123.2,342.1,128.6,342.1,128.6z"/>
		</g>
		<g>
		</g>
	</g>
</g>
<path d="M131.6,387.6l-26-6.3c-2.4-0.6-4.3-2.1-4.9-4L94.3,357c-1.5-4.8-9.8-0.7-13.9,3.4l-17.6,12.3c-1.7,1.6-4.2,2.6-6.8,2.6
	L28.2,379c-6.6-0.1-10.9,1.6-7.3,5.7l15.1,17c1.4,1.6,1.7,3.7,0.7,5.6L26,427.4c-2.5,4.8,3,9.3,9.4,7.7l26.9-6.8
	c2.5-0.6,5.2-0.3,7.2,0.9l21.2,12.7c5,3,12.8,0.1,13.1-5l1.5-21.3c0.1-2,1.6-3.9,3.8-5l23.8-12.3
	C138.6,395.4,137.8,389.1,131.6,387.6z"/>
<path class="st3" d="M87.1,361.2c0,0-18.4,15.7-56.1,24.7l15.3,14.3c1.1,1,1.3,2.6,0.6,3.9l-9.8,18.1c-1.3,2.4,0.8,5.2,3.5,4.7
	l25.6-5.4c0.7-0.2,1.5,0,2.2,0.3l23.4,12.5c2,1,4.4-0.2,4.7-2.4l3.2-21.3c0.1-1,0.8-1.9,1.7-2.4l19.7-10.6c2.6-1.4,2.1-5.2-0.7-5.9
	L98.4,386c-1-0.3-1.8-1-2.2-1.9L87.1,361.2z"/>
</svg>
