<?xml version="1.0" encoding="utf-8"?>
<!-- Generator: Adobe Illustrator 27.4.0, SVG Export Plug-In . SVG Version: 6.00 Build 0)  -->
<svg version="1.1" xmlns="http://www.w3.org/2000/svg" xmlns:xlink="http://www.w3.org/1999/xlink" x="0px" y="0px"
	 viewBox="0 0 566.9 566.9" style="enable-background:new 0 0 566.9 566.9;" xml:space="preserve">
<style type="text/css">
	.st0{fill:#009687;}
	.st1{fill:#10C499;}
	.st2{fill:#68F2D7;}
	.st3{fill:#FFFFFF;}
	.st4{fill:#EFEFEF;}
	.st5{fill:#9C8FD8;}
</style>
<g id="black">
	<path d="M19.4,364.1c15.4-2.1,45.1-5.9,63.1-6.6c0,0-55.6-17.1-55.8-74c0,0-1.2-90,107.8-63c0,0-12-91,51-136c0,0,55-38,105,52
		c0,0,45-69,101-68c0,0,60-1,59,70c0,0,1,46-14,85c0,0,76-19,105,16c0,0,32,45.5,0,88.2c0,0-27,33.8-79,31.8c0,0-37,59-121,89
		c0,0,1,26-10,36c0,0-9,11-19,2c0,0-6-6-5-28c0,0-30,5-44,5c0,0-3,28-17,33c0,0-14,4-17-8v-27c0,0-19-1-37-10
		c0,0-48.3,0.9-85.7,40.8c-3.7,3.9-9.8,4-13.6,0.3c-17.1-16.7-59.6-62-80.3-117.5C11,370.2,14.2,364.8,19.4,364.1z"/>
</g>
<g id="dark_red">
	<path class="st0" d="M13.1,375.7c0,0,47.4-11.2,91.4-9.2c0,0,18,46,70,77c0,0-50.4,9.6-84.2,46.3C90.3,489.8,34.6,442.9,13.1,375.7
		z"/>
	<path class="st0" d="M542.3,284c0.8-43.5-41.8-52.5-41.8-52.5c-53-10-84,14-84,14c-11,31-29,51-29,51c23,4,14,27,14,27
		c-8,20-35,30-35,30c22-17,24-33,24-33c2-12-8-13-8-13c-22-2-40,26-40,26c-71-14-93,9-93,9c-3-20-17-28-17-28c-19-10-27,5-27,5
		c-7,15,10,34,10,34c2,4-1,2-1,2c-38-24-9-50-9-50c-31-24-42-66-42-66c-17-68,28-95,28-95c35-26,63-2,63-2c52,56,29,127.4,29,127.4
		c9-1.6,18,0.6,18,0.6c-11-52,10-90,10-90c32-50,77-38,77-38c52,19,36,75,36,75c33-88-2-120-2-120c-31-23-60.2-9.1-60.2-9.1
		c-40.2,13.9-73.8,69.1-73.8,69.1c-20-41-44-58-44-58c-36-28-67,6-67,6c-44,48-30.4,122.2-30.4,122.2c-4.4,3.2-6.6,7.8-6.6,7.8
		c-42-14-67-5-67-5c-37,12-36.6,53.5-36.6,53.5c6.4,54.5,58.6,62.5,58.6,62.5c-10-23-7-57-7-57c-12,0-26,13-26,13c-5,4-3-2-3-2
		c23-39,61-25,61-25c10,5,0,12,0,12c-14-1-18,1-18,1c-3,23,6,52,6,52c27,84,104,103,104,103c93,28,179-38,179-38
		c74-54,87-112.7,87-112.7c-9-0.7-27-5.3-27-5.3c0-18,21-10,21-10c29,10,35,36,35,36c-5-5-17-13-17-13c-3,13-20,44-20,44
		c28,1,47-13,47-13C544.5,316.5,542.3,284,542.3,284z M234.5,347.5c-4,9-10,3-10,3c-9-8-4.9-17-4.9-17c4.9-7,11.9,0,11.9,0
		C237.5,338.5,234.5,347.5,234.5,347.5z M357.5,344.6c-3-1.9,0-13.1,0-13.1c2-10,8-7,8-7c4,1,7,4,7,4c4,5-7,14.3-7,14.3
		C360.5,348.1,357.5,344.6,357.5,344.6z"/>
	<path class="st0" d="M225.5,335.5c0,0-3-1-2,3c0,0,4,11,7,7C230.5,345.5,233.5,338.5,225.5,335.5z"/>
	<path class="st1" d="M364.8,330.9c0,0-2.3-1.4-3.3,1.6c0,0-3,8,0,7C361.5,339.5,370,333.3,364.8,330.9z"/>
</g>
<g id="light_red">
	<g>
		<path class="st1" d="M20.8,396c0,0,10.9,25,23.3,41.2c0,0,65-14.1,105.7-11.4c0,0-24.5-23-32.4-36.1
			C117.4,389.7,64.1,387.6,20.8,396z"/>
		<path class="st1" d="M82.5,237.5c0,0-18,7-12,18c0,0,16,20,54,6c0,0,16-9,3-19C127.5,242.5,111.5,229.5,82.5,237.5z"/>
		<path class="st1" d="M223.3,315.2c0,0-5.8,0.3-6.8,6.3c0,0,0.3,7,10.7,7c0,0,8.2-0.3,9.2-6.6C236.4,321.9,235.1,315,223.3,315.2z"
			/>
		<path class="st1" d="M202.1,90.4c0,0,33.4,3.1,52.4,52.1c0,0,18.2,17.1,28.1,48.5c0,0,1.9-17.5,5.9-33.5
			C288.5,157.5,251.7,74.2,202.1,90.4z"/>
		<path class="st1" d="M338,101.9c0,0,56-13.2,58.8,44.2c0,0,39.8,18.4,27.8,71.4c0,0,28.5-64.2,5.8-108.6c0,0-10.2-28.9-55.5-24.6
			C374.8,84.3,349.4,90.4,338,101.9z"/>
		<path class="st1" d="M521,241c0,0-20.6-18.6-64.1-10.6c0,0-18.6,2-39.5,13c0,0-13.9,35.1-29.9,53.1c0,0,23,3,13,29
			c0,0-10.3,19-32.1,26.5c0,0,19.1-13.5,23.1-32.5c0,0,1.5-14-13.7-12c0,0-16.3-1-35.3,26c0,0-37.3-8.8-63.1-2.9
			c0,0,51.1,7.9,55.1,43.9c0,0-0.5,31-33.3,53.5c0,0-28.8,19.3-50.8,22.4c0,0,70.7,9.6,145.4-48.1c0,0,62.8-39.1,82.7-109.5
			c0,0-22-4.3-27-5.3c0,0-0.4-15.6,18.3-10.8c0,0,25.7,6.5,37.2,35.2c0,0-13.5-10.4-16.5-11.4c0,0-11,29-21,45
			c0,0,51.8,1.5,70.9-40.2C540.4,305.3,552.5,262.4,521,241z M365.5,342.8c-5,5.3-8,1.8-8,1.8c-3-1.9,0-13.1,0-13.1c2-10,8-7,8-7
			c4,1,7,4,7,4C376.5,333.5,365.5,342.8,365.5,342.8z"/>
	</g>
</g>
<g id="highlight_red">
	<path class="st2" d="M406.5,97.5c0,0-12.8,4.9-13.9,17.5c0,0-1.1,17.5,17.9,18.5c0,0,14-2,14-19C424.5,114.5,424.5,95.5,406.5,97.5
		z"/>
	<path class="st2" d="M380.5,313.5c0,0-6.2-0.3-7.1,6.4c0,0-0.9,7.3,7.1,8c0,0,6.1,0,7.1-7.2C387.6,320.7,387.5,313.5,380.5,313.5z"
		/>
	<path class="st2" d="M319.5,341.5c0,0-25.8-0.4-29.9,14.8c0,0-1.6,15.2,32.2,16.2c0,0,28.3,0,29.5-15.5
		C351.3,357,353.5,343.5,319.5,341.5z"/>
	<path class="st2" d="M485.5,237.5c0,0-29-1-31,15c0,0-0.7,14.7,32.2,14.8c0,0,31.6,1,33.2-14.9
		C519.9,252.4,520.5,238.5,485.5,237.5z"/>
</g>
<g id="white">
	<path class="st3" d="M242.1,463.7c2.2,0.2,5.4,0.3,8,0.2c1.5-0.1,2.8,1.2,2.6,2.8c-0.7,4.8-2.8,13.7-9.5,18.9
		c-1.5,1.2-3.7,0.1-3.7-1.8v-17.6C239.5,464.7,240.7,463.6,242.1,463.7z"/>
	<path class="st3" d="M318,457.1c2-0.5,5.8-1.5,9.5-2.7c1.5-0.5,3,0.7,2.9,2.2c-0.3,7-1.7,23-7.9,23.8c0,0-7.6,1-6.1-21.4
		C316.4,458.2,317.1,457.3,318,457.1z"/>
	<path class="st3" d="M248.5,289.6c-3.4,3.7-10.2,11.5-12.6,15.7c-0.5,0.8-1.4,1.2-2.3,0.9c-10.2-3.1-65.9-23.4-63.2-99.7
		c0,0,0-0.1,0-0.1c0.2-2.1,5.6-51.3,39.9-60.5c0,0,38-10.4,63,45.5c0,0,0,0.1,0,0.1c0.5,1.3,9.5,25.2,9.2,46.8
		c0,0.9-0.8,1.6-1.7,1.7c-0.6,0.1-0.9,0.6-0.5,2.4c0,0,3,12.9-11.9,16c-0.1,0-0.1,0-0.2,0c-1.3,0.1-14.9,1.2-15.9-13.9
		c0-0.1,0-0.1,0-0.2c0-1.1,0.6-10,10.1-12.9c1.8-0.6,1.8-3.2-0.1-3.7c-6.3-1.6-16.3-2-27,5.7c0,0-16.9,12.6-9,33.7
		c0,0.1,0,0.1,0.1,0.2c0.6,1.2,6.9,13.7,21.2,19.2C249,287.1,249.4,288.6,248.5,289.6z"/>
	<path class="st3" d="M305.5,246.5c0,0-4-57,47-90c0,0,37-19,56,22c0,0,17.8,42.7-10.6,88.8c0,0-21.4,32.2-45.4,35.2
		c0,0-11.3-14-18.2-18.5c0,0,24.3-2.7,22.5-28.5c-0.1-1.7-2.3-2.3-3.3-1c-2.8,3.5-7.7,7.4-15,5c0,0-12-5-9-17c0,0,1.4-5.6,7.2-8.6
		c1.2-0.6,1-2.5-0.3-2.8C329.7,229.6,316.3,229.2,305.5,246.5z"/>
	<path class="st4" d="M240,299.6c0,0-3,4.4-4.8,7.1c0,0-54.9-10.4-64.8-80.8c0,0-7.9-43.2,24.6-73.8c0,0,19.6-16.1,42.5-2.4
		c0,0-49.1,18.8-36.1,86.8C201.5,236.5,208.5,273.5,240,299.6z"/>
	<path class="st4" d="M392.6,158.4c0,0-42.8,10.5-55.9,72.8c0,0-18.2-5.7-31.2,15.3c0,0-5.2-42.3,31.9-79.1
		C337.4,167.4,361.7,139.2,392.6,158.4z"/>
	<path class="st3" d="M159.7,208.7c0,0-9.9-1.8-14.5-4.5c0,0-5-59,30.7-96.8c0,0,23.7,3.2,36.7,26.6
		C212.5,134,161.9,147.9,159.7,208.7z"/>
	<path class="st3" d="M535.7,256.7c0,0-47.2,24.8-18.2,74.8c0,0,19.7-7.8,24.8-37.4C542.3,294.1,544.9,271,535.7,256.7z"/>
	<path class="st3" d="M501.5,243.5c0,0-11.2,1.5-9.6,13.2c0,0,1.6,7.8,13.6,7.8c0,0,11-1,11-12C516.5,252.5,515.5,242.5,501.5,243.5
		z"/>
</g>
<g id="yellow">
	<path class="st5" d="M539.7,265.9c0,0-38.3,17-15.8,61.3C524,327.2,553,310.2,539.7,265.9z"/>
	<path class="st5" d="M144.9,194.9c0,0,8.2,3.6,15.4,4.1c0,0,4.4-39.6,39.8-59.6c0,0-7.1-19.1-32.9-21.5
		C167.2,117.9,145,146,144.9,194.9z"/>
	<path class="st5" d="M73.4,473.3c0,0,9.1,10.2,17,16.5c0,0,31.2-33.3,84.2-46.3l-2.3-1.4C172.2,442.1,114.2,447.2,73.4,473.3z"/>
	<path class="st5" d="M266.5,290c9-1.2,31.6-3.3,54.3,1c0.8,0.2,1.3-0.8,0.7-1.3c-6-4.9-25.3-17.1-55.5-1.1
		C265.3,289,265.7,290.1,266.5,290z"/>
	<path class="st5" d="M256.6,308.6c8.9-2.1,36.5-7.5,74.1-2.8c0.9,0.1,1.3-0.8,0.6-1.3c-5.6-3.6-20.6-11.7-41.7-10.3
		c0,0-19.9,1.5-33.9,13.2C255.1,307.9,255.7,308.8,256.6,308.6z"/>
	<path class="st5" d="M250.5,321.5c0.2,2.6,1,5.9,3.9,6.5c0,0,42.1-17.5,84.9,0c0,0,1.1-2.6,0.6-6.6c-0.2-1.9-1.5-3.6-3.2-4.4
		c-8.5-4-37.4-14.5-83.4,0.4C251.5,317.9,250.3,319.6,250.5,321.5z"/>
</g>
</svg>
