<?xml version="1.0" encoding="utf-8"?>
<!-- Generator: Adobe Illustrator 27.4.0, SVG Export Plug-In . SVG Version: 6.00 Build 0)  -->
<svg version="1.1" xmlns="http://www.w3.org/2000/svg" xmlns:xlink="http://www.w3.org/1999/xlink" x="0px" y="0px"
	 viewBox="0 0 566.9 566.9" style="enable-background:new 0 0 566.9 566.9;" xml:space="preserve">
<style type="text/css">
	.st0{fill:#FFFF0B;}
	.st1{fill:#A8780C;}
	.st2{fill:#D8AF05;}
	.st3{fill:#FFFFFF;}
</style>
<g id="Layer_2">
	<path d="M11.9,434c-0.1-9.5,1-46,21.1-109c0.5-1.7,0.8-3.4,0.6-5.1c-0.6-10.2-0.5-50.5,36.3-85.5c0.3-0.3,0.6-0.5,0.9-0.8
		c5-4,49.8-41.1,59.5-78.7c0.1-0.3,0.1-0.6,0.2-0.9c1-5.2,13.2-61.2,58.9-93.6c0,0,29.9-21.1,59.2,0.2c3.7,2.7,8.3,3.5,12.6,2.1
		c13-4,42.7-8.3,71.2,21.7c0,0,22.4,25,27.2,70.2c0.6,5.8,4.8,10.7,10.5,12.1c2.2,0.6,4.6,1.4,6.8,2.5c4,2.1,8.8,2.2,12.8,0.1
		c17.4-9.2,63.4-30,109.3-20.2c3.2,0.7,6.6,0.1,9.4-1.5c6.8-3.7,21.4-7.9,39.1,9.9c0.7,0.7,1.3,1.4,1.8,2.2
		c2.9,4.5,11.1,19.6,2.2,34.5c-1.8,3-2.3,6.7-1.6,10.1c4.4,19.8,14.4,86-33.5,143c0,0-51.9,67.5-182.7,70.9
		c-2.7,0.1-5.3,0.9-7.5,2.4c-9.4,6.5-39.5,23.9-86.4,17.9c-2.4-0.3-4.9,0-7.2,1c-11,4.7-42.4,23.2-63.6,86.4
		c-1.9,5.7-7.2,9.6-13.3,9.6c-28.9,0-110.4-8.3-143.2-97C12.2,437.2,11.9,435.6,11.9,434z"/>
</g>
<g id="Layer_3">
	<path class="st0" d="M49.5,495.6c0,0,56-51.8,2-152.5c0,0-17.1-48.9,19-86.3c0,0-30.6,56,66.2,132.8c0,0-23.8,13.4-60,126.1
		C76.7,515.8,57,505,49.5,495.6z"/>
	<path class="st1" d="M44,347.8c0,0-15.3,22.5-26.4,103.1c0,0,11.4,26.1,26.4,39.5C44,490.4,94.5,436.1,44,347.8z"/>
	<path class="st2" d="M86.3,520.7c0,0,24.3-96.1,59.7-124.2c0,0,24.9,23.5,63.9,37c0,0-39.3,25.3-57.4,102.1
		C152.6,535.7,116,536,86.3,520.7z"/>
	<path class="st2" d="M310.5,415.5c0,0-50.6,30-119.8-1c0,0-86.7-43.5-115-121.1c0,0-6.5-33.5,11.7-50.7c0,0,15.2-16.2,55.2-3.2
		c0,0,41.1,18.6,77.1,41.3c0,0,21.9,15.6,73.9,12.7c0,0,52.5-1,82.8-19c0,0,36.3-18,63.3-52c0,0,29-35,59-48c0,0,15-9,25,6
		c0,0,41,47.9,1,132c0,0-46.5,84.5-173.5,93.6c0,0-98.5,4.5-174.5-52.5c0,0-52.5-32.5-68.9-79c0,0-0.1-4,16.9-3c0,0,7,3,5-5
		c0,0-12-13-32-2c0,0-17.6,12.9-16.3,21.5c0,0,3,4.4,6.1-2c0,0,7.2-8.4,12.2-7.4C99.5,276.5,125.5,387.5,310.5,415.5z"/>
	<path class="st0" d="M339.5,177.5c0,0,6-3,11-3c0,0-1-117-88-97c0,0,5,7,5,13c0,0-2,7-9-2c0,0-9-24-42-24c0,0-43,1-72,89
		c0,0-5,42-43,68c0,0,30.5-6.5,93.8,32.4c0,0,40.7,31.9,88.4,28.3c0,0,36.3-0.1,62.8-8.7c0,0-10.1-24,23.9-46c0,0,36-16,45,7
		c0,0,48-56,81-67c0,0,14-5.2,0-8.6c0,0-72-14.4-153,63.6c0,0-7,3-4-5c0,0,23-25,36-32c0,0-36-20-95,50c0,0-7,3-3-6c0,0,14-22,22-29
		c0,0-14,0-18-9c0,0-2.8,36.5-35.9,41.2c0,0-51.6,8.4-59.3-60.9c0,0-3.8-69.3,42.2-78.3c0,0,24-4,42,18c0,0,1-12,25-16
		C295.5,95.5,342.5,91.5,339.5,177.5z"/>
	<path class="st2" d="M517.5,159.5c0,0,20,14.6,24.5,31.3c0,0,12.6-16.3-4.4-31.3C537.6,159.5,526.5,150.5,517.5,159.5z"/>
	<path class="st2" d="M354.5,272.5c0,0,6-1,11-4c0,0,0-18,17-27c0,0,13-5,15,7c0,0,3.2,0.5,10.2-8c0,0-5.2-21-35.2-6
		C372.5,234.5,348.5,247.5,354.5,272.5z"/>
	<path class="st3" d="M193.2,171.8c0,0,12.8-24.3,36-16.3c0,0,20.3,11,18.3,44c0,0,0,16-17,23c0,0,34,9,41-27c0,0,10-64-17-87
		c0,0-20.3-15-40.6,0C213.9,108.5,188.9,136.1,193.2,171.8z"/>
	<path class="st3" d="M221.1,162.7c0,0-5.4,5.7,0,12.3c0,0,5.3,4.5,10.3,0c0,0,4.3-8.1-1.8-12.3
		C229.6,162.7,224.7,159.8,221.1,162.7z"/>
	<path class="st3" d="M298.5,146.5c0,0-9,3-7,11c0,0,2.2,9,10.6,8c0,0,7.9-2.7,6.2-11.9C308.3,153.6,307.5,146.5,298.5,146.5z"/>
	<path class="st3" d="M275.5,120.5c0,0,6,15,6,29c0,0,3.7-11.6,18.4-11.8c0,0,28.6,1.8,20.6,46.8c0,0,9-5,11-5c0,0,2-43-14-65
		C317.5,114.5,293.5,88.5,275.5,120.5z"/>
</g>
</svg>
