<?xml version="1.0" encoding="utf-8"?>
<!-- Generator: Adobe Illustrator 27.4.0, SVG Export Plug-In . SVG Version: 6.00 Build 0)  -->
<svg version="1.1" xmlns="http://www.w3.org/2000/svg" xmlns:xlink="http://www.w3.org/1999/xlink" x="0px" y="0px"
	 viewBox="0 0 566.9 566.9" style="enable-background:new 0 0 566.9 566.9;" xml:space="preserve">
<style type="text/css">
	.st0{display:none;}
	.st1{fill:#FFFFFF;}
	.st2{fill:#F69678;}
	.st3{fill:#FAB6A4;}
	.st4{fill:#AD624D;}
</style>
<g id="Layer_1" class="st0">
	
		<image style="display:inline;overflow:visible;opacity:0.53;" width="400" height="259" xlink:href="../../Reference/Cute-snake-clipart-black-and-white-free-clipart-2.png"  transform="matrix(-4.2235 0 0 4.2235 591.3694 -39.0004)">
	</image>
</g>
<g id="Layer_3">
	<path d="M12,394.7c-0.2-5.7,0.2-51,50.2-106.2c5-5.5,6.4-13.4,3.8-20.4c-3.9-10.4-6.1-27.3,4.8-49c0,0,13.3-25.5,41-44.3
		c0,0,42.1-25.5,59.8-85.3c0,0,14.4-67.6,59.8-67.6c0,0,25.5-3.3,44.3,24.4c0,0,5.5,4.4,11.1,0c0,0,12.2-17.7,38.8-15.5
		c0,0,32.1,2.2,43.2,33.2c0,0,11.6,30.5,11.1,72.1c0,2.1,0.6,4.1,1.8,5.8c6.7,9.9,28.3,48,8,98.9c-1.5,3.8,1.2,7.9,5.2,7.9
		c1,0,2,0,3.3-0.1c0,0,89.1-4,127.9,2.6c0,0,31,5.5,29.9,47.6c0,0,2.2,83.1-64.3,131.8c0,0-18.1,18.1-84.7,13.6
		c-2-0.1-3.7,1.3-4,3.3c-0.3,2.5-1.1,5.9-3.6,8.9c-1.1,1.3-1.5,3-1.3,4.7c0.3,1.9,0.6,4.7,0.1,7.7c-0.3,1.6,0.7,3,2.3,3.4
		c7.4,1.5,25.8,7,25.8,23.9c0,0,0,22.2-24.4,29.9c0,0-35.5,8.9-84.2,14.4c0,0-17.7,2.2-33.2,5c0,0-44.3,9.4-85.3-15
		c0,0-33.2-22.1-42.1-77.9c-0.5-3.2-5-3.7-6.1-0.6c-13.1,37.2-16.8,59.7-18.3,73.1c-0.8,6.9-7.2,11.7-14,10.4
		C88,529.8,20.9,503.8,12,396.3C12,395.8,12,395.2,12,394.7z"/>
	<path class="st1" d="M207.4,208.4c6.4-2.2,18.1-5.6,30-5.1c2,0.1,3.6,1.7,3.6,3.6c0,4.1,1.3,10.7,10.3,12.2c0,0,10.5,1.9,16.5-8.5
		c0.9-1.6,2.6-2.6,4.4-2.6c7,0,24.3,0,34.3,0c2.3,0,4.1,1.9,4,4.2c-0.2,3.7-1.4,9.4-6,14.6c0,0-19.9,25.5-55.4,18.8
		c0,0-32.4-4.9-44.5-30.4C203.3,212.6,204.6,209.4,207.4,208.4z"/>
	<path class="st1" d="M322.2,225.8c5.3,1.5,19.2,3.4,27.5-14.6c0.9-2,2.9-3.2,5.1-3.1c5.7,0.2,16.7,1,23.9,3.8
		c2.2,0.8,3.8,2.8,4.2,5.1c0.9,5.1,1.6,14.8-4,22.6c-1.3,1.8-3.4,2.9-5.6,3.2c-8.6,1-32.9,2.4-54.3-9.8c0,0-2.2-2.1-0.6-5.5
		C319,226.1,320.6,225.4,322.2,225.8z"/>
	<path class="st1" d="M195.4,293.2c-4.2,20-12.7,70.4-2.4,104.4c0.3,1.1,1.6,1.8,2.7,1.4l5.7-2c1.6-0.6,3.4-0.2,4.7,0.9
		c11.9,10,75.6,59.2,177.5,56.1c2.1-0.1,4.1-1,5.5-2.5c1.1-1.2,2.3-2.8,3.1-4.9c0.9-2.3-0.7-4.9-3.2-5.1
		c-24.8-2.2-154.6-19.9-189.5-148.4C198.9,291,195.9,291,195.4,293.2z"/>
	<path class="st1" d="M197.6,415.9c1.5,15.9,11.4,85.9,70.3,86.9c0,0,53.8,6.1,112-11.8c2.3-0.7,3.9-2.6,4.4-4.9
		c0.6-3.1,1.1-7.7,0.4-12.2c-0.4-2.9-2.8-5.2-5.7-5.4c-21.1-1.4-112.6-9.9-169.1-54.1c-1.4-1.1-3.1-1.7-4.9-1.7h-4.5
		C198.8,412.7,197.4,414.2,197.6,415.9z"/>
	<path class="st2" d="M542.7,286.7c-2.2-26.6-32.1-27.7-32.1-27.7c-34.3-2.2-111.9,0-111.9,0c-15.4,0-21.5-3.4-23.9-6.2
		c-1.8-2.1-4.7-3.1-7.4-2.7c-32.8,5.2-50.6-6.6-50.6-6.6c-7.8-6.6-13.3-2.2-13.3-2.2c-25.5,18.8-57.6,13.3-57.6,13.3
		c-74.2-12.2-59.8-93.1-59.8-93.1c14.4-73.1,60.9-73.1,60.9-73.1c25.2-0.9,42.4,21.6,47.9,30.1c2.8,4.3,8.9,5.1,12.5,1.5
		c1.8-1.8,2.7-3.9,2.7-3.9c19.9-33.2,43.2-10,43.2-10c2.8,2.8,5.7,3.8,8.1,3.8c4.1,0,7.3-3.7,6.8-7.8c-8.1-62.4-45.9-61.3-45.9-61.3
		c-14.7-1.4-25.7,5.1-31.8,10.1c-3.2,2.6-4.2,7.1-2.3,10.8c3.6,7,6.4,14.5,6.4,14.5c-2.8,2.8-5.9,3.1-8.5,2.4
		c-3.2-0.9-5.8-3.2-7.2-6.2c-22.1-46.9-53-41.6-53-41.6c-27.7,4.4-34.3,36.6-34.3,36.6c-22.2,85.3-74.2,116.3-74.2,116.3
		c-41,23.3-41,62-41,62C75.4,281,116,296.5,135.7,302c6.1,1.7,10.5,7.2,10.7,13.5c4,106.1,34,166.2,34,166.2
		c23.3,60.9,111.9,55,111.9,55c42.1-4,100.9-18.4,100.9-18.4c27.7-7.8,22.2-23.3,22.2-23.3c-3.3-8.9-15.5-1.1-15.5-1.1
		c-31,13.3-84.2,18.8-84.2,18.8c-74.2,5.5-95.3-11.1-95.3-11.1c-31-22.2-42.1-107.5-42.1-107.5c-7.6-59.2,6.1-113.5,10.1-127.3
		c0.5-1.8-1.1-3.5-2.9-3.2c-8.9,1.6-12.7,10.8-14.2,15.7c-0.6,2.1-2.7,3.1-4.7,2.2c-1.3-0.6-2.2-1.6-2.8-2.4c-0.8-1.2-1-2.6-0.9-4
		c3.4-24.8,33.1-22.7,33.1-22.7c14.4,0,29.9,13.3,29.9,13.3c5.5,4.4,3.3,11.1,3.3,11.1c-3.3,5.5-10-1.1-10-1.1
		c-4.1-4.7-7.3-6.6-9.3-7.3c-1.4-0.5-2.8,0.6-2.7,2c4.6,60.9,57.4,108.3,57.4,108.3c44.3,46.5,148.4,55.4,148.4,55.4
		c60.9,8.9,87.5-22.2,87.5-22.2C557.1,353.2,542.7,286.7,542.7,286.7z M526.3,283.7c0,0-18.7,5.5-27.4,9.9c-1.2,0.6-2.6,1-3.9,1.2
		c-8,1.1-35.3,4.2-58.8,0c-0.9-0.2-1.7-0.6-2.3-1.2c-1.3-1.2-4.2-3-8,0.3c-0.5,0.4-1,0.6-1.6,0.7c-5.2,0.9-29.3,4.5-51.5-0.8
		c-1.3-0.3-2.6-1-3.6-1.9c-2.6-2.4-6.4-7.1,1.8-8.2c0,0,117.1,3.3,135.5,0.5c1-0.2,1.9-0.5,2.8-1c2.2-1.2,8.5-4,19-3.1
		C528.3,280.1,532,281.8,526.3,283.7z"/>
	<path class="st3" d="M204.8,199.2c10.5-3.8,34.5-10.5,60.9-5.6c0,0,18.1,4.3,43.4,3.3c2.9-0.1,5.2-2.6,5.1-5.6
		c-0.6-13.3-5.6-49.2-41.8-81.9c0,0-21-19.9-43.2-4.4c0,0-38.4,28-30.8,90.2C198.7,198.3,201.9,200.3,204.8,199.2z"/>
	<path class="st3" d="M333.7,200.9c9.6-0.8,30.5-1.9,49,1.6c1.9,0.4,3.7-1.1,3.7-3.1c0-12.7-2.8-54-35.8-83c0,0-15.1-15.8-25.1-5.8
		c0,0-9.3,12.8-12.6,24.5c-0.7,2.3-0.3,4.8,0.8,6.9c4.1,7.8,14.4,30,14.7,54.1C328.4,198.9,330.9,201.1,333.7,200.9z"/>
	<path class="st2" d="M135.6,371.8c-12.3,10.9-50,52.4-50.5,152c0,0-63.6-28.3-71.1-111.2c0,0,4.5-61.9,59.4-121.1
		c2.2-2.4,5.9-2.8,8.6-0.9c8.8,6.2,28.7,19.1,46.9,22.8c3.5,0.7,6,3.8,6,7.4c0.1,7.9,0.7,22.8,3.7,42.6
		C139.1,366.6,137.9,369.7,135.6,371.8z"/>
	<path class="st4" d="M143.1,387.9c0.7,8.6,2.6,27.1,5.8,39.1c0.9,3.2,0.6,6.5-0.8,9.5c-5.8,11.8-20.3,46-24.8,98.3
		c0,0-1.8,4.8-30-7c0,0-3.3-96.5,45.3-141.7C140.3,384.5,142.9,385.7,143.1,387.9z"/>
</g>
</svg>
