<?xml version="1.0" encoding="utf-8"?>
<!-- Generator: Adobe Illustrator 27.4.0, SVG Export Plug-In . SVG Version: 6.00 Build 0)  -->
<svg version="1.1" xmlns="http://www.w3.org/2000/svg" xmlns:xlink="http://www.w3.org/1999/xlink" x="0px" y="0px"
	 viewBox="0 0 566.9 566.9" style="enable-background:new 0 0 566.9 566.9;" xml:space="preserve">
<style type="text/css">
	.st0{display:none;}
	.st1{fill:#967056;}
	.st2{fill:#FFFFFF;}
	.st3{fill:#7F583D;}
	.st4{fill:#FF9FD4;}
	.st5{fill:#BF8AE2;}
</style>
<g id="Layer_1" class="st0">
	
		<image style="display:inline;overflow:visible;opacity:0.31;" width="367" height="335" xlink:href="B64DC0522A4A22A7.png"  transform="matrix(1.6006 0 0 1.6006 0 15)">
	</image>
</g>
<g id="Layer_2">
	<path d="M31.4,410.5c9.3-10,33.1-37.7,44-70.6c0.7-2,0.2-4.3-1.2-5.8c-8.8-9.6-39.5-47.1-32.7-98.6c0,0,9-67,104-91
		c0,0,15-27,49-38c0,0,5-65,55-68c0,0,41-6,60,50c0,0,21-6,38-23c0,0,4-3,4,3c0,0-4,13-17,23c0,0-3,2,6,2c0,0,65.5-1.9,108.7,6.2
		c2.6,0.5,6.2-2.4,8-4.3c4.1-4.5,12.2-12,19.3-9.8c0,0,12,2.6,13.8,18.9c0.3,2.8,1.9,5.4,4.3,7c4.3,2.8,11.6,7,21,10.2
		c0,0,26,8,26,40c0,0,9.5,49.5-32,135c0,0,9,31,2,58c0,0-3,8-11,3c0,0-10-9-20-22c0,0-5,6-12,12c0,0,9,44-11,71c0,0-13,9-18-8
		c0,0-9-40-24-35c0,0-39.2,34.8-109.1,44.4c0,0-55.2,5.3-108.7-10.7c-2.8-0.8-5.6,0.9-6.2,3.7c-2.9,14-12.6,54.4-37.3,107.8
		c-2.3,5-7.2,8.2-12.7,8.2C113,529,26.8,521.2,27.4,420.7C27.4,416.9,28.8,413.3,31.4,410.5z"/>
	<path class="st1" d="M145.6,229.7c12.4-7.1,61-32.6,123.7-36.9c2.5-0.2,4.4-2.2,4.4-4.7c0.1-16.8-4.4-75.2-70.2-73.6
		c-2.2,0.1-4.4,0.4-6.5,1c-14.6,4.4-69.6,26.6-55.2,112.5C142.2,229.6,144.1,230.5,145.6,229.7z"/>
	<path class="st1" d="M211.6,102.4c4.2-0.4,10.3-0.7,15.3,0.7c0,0,49.1-6.4,68.9-8.3c2.5-0.2,4.2-2.7,3.5-5.1
		c-3.7-12.5-16.6-45.2-49.8-45.2c0,0-36.4,2.1-42.4,53.3C206.8,100.5,208.9,102.7,211.6,102.4z"/>
	<path class="st2" d="M148.9,238.7c9-4.6,33.6-16.7,49.5-21.2c1.9-0.5,3.9,0.8,4,2.8c0.5,6.5,3.3,19.6,18,26.2c0,0,21,8,34.4-11.1
		c0.8-1.1-0.2-2.7-1.6-2.3c-4.1,1.1-10.4,1.3-14.8-5.6c0,0-5-10,6-18c0,0,2-1.8,9.7-0.3c0.8,0.2,1.7-0.4,1.7-1.3
		c0.1-0.5,0.1-1.1,0-1.7c-0.1-0.9,0.6-1.8,1.5-1.8c2.9-0.2,8.5-0.4,12.6-0.2c2,0.1,3.5,1.8,3.4,3.8c-0.8,9.7-4.9,38-27,57.6
		c0,0-24,25-61,14c0,0-26.5-9.1-38.4-35.3C146.1,242.2,146.9,239.8,148.9,238.7z"/>
	<path class="st1" d="M511.5,130.5c-12-3.8-24-9.8-29.3-12.5c-1.6-0.8-2.5-2.6-2.2-4.4c2.7-18.2-4.5-19.1-4.5-19.1
		c-6-0.8-14.3,9.3-18.1,14.3c-1.2,1.7-3.3,2.5-5.4,2.2c-92.6-13.9-177.1-1-197.8,2.6c-1.6,0.3-2,2.4-0.6,3.3
		c43.3,26.4,34.8,86.6,34.8,86.6c-7,67-53,86-53,86c-47,17-83-16-83-16c-31,40-81,30-81,30c4.9,9.8,13.8,22.2,18.6,28.6
		c2.1,2.8,2.7,6.5,1.4,9.8c-21.7,58.5-64,88.9-64,88.9c2.1,101.3,106.4,98,106.4,98c30.8-71.3,41.1-114.3,44.2-130.7
		c0.8-4,4.9-6.5,8.8-5.3c82.5,25.1,139.1,9.5,162.9-0.2c2.4-1,1.6-4.6-1-4.4c-74.4,6-151.3-39.1-168-49.6c-2.3-1.4-5.1-1.4-7.4-0.1
		c-8.5,4.8-15.9,13-15.9,13c-4,3-6-1-6-1c-3-4,0-8,0-8c33-34,69-26,69-26c4,3-4,6-4,6c-7.3,0.7-12.4,3.1-15,4.6
		c-1,0.6-1.1,2.1-0.2,2.8c73.8,58.3,169.2,42.6,169.2,42.6c71-8,104-51,104-51c52-55,57-130,57-130
		C536.5,138.5,511.5,130.5,511.5,130.5z M406.6,195.6c-7.9,8.1-15.1,0-15.1,0c-11-10.9-6-23.1-6-23.1c5-11,12-7,12-7
		c9,4,11,12,11,12C412.5,189.5,406.6,195.6,406.6,195.6z M413.5,163.5c0,0-3-1-5-6c0,0-3-15-17-14c0,0-22,3-25,24c0,0-2,10,4,18
		c0,0,2,2,0,4c0,0-1,1-4-1c0,0-16-15-2-41c0,0,13-18,33-15c0,0,19,4.7,19.5,27.8C417,160.3,416.5,164.5,413.5,163.5z"/>
	<path class="st3" d="M397.1,175.3c0,0-4.3-1.8-5.8,3.5c0,0-1.3,5.2,5.8,11.4c0,0,5.6,3.1,5.6-3
		C402.7,187.2,403.5,178.8,397.1,175.3z"/>
	<path class="st2" d="M438.1,371c4.1-2.4,12.1-7.3,17.6-11.9c1.8-1.5,4.5-0.4,4.8,1.9c1.2,8.5,2,25.6-7.4,41.2
		c-1.3,2.2-4.6,1.8-5.4-0.7c-2.1-6.9-6-18.3-10.7-26.5C436.2,373.6,436.7,371.8,438.1,371z"/>
	<path class="st2" d="M489.9,326c1.4-1.5,5.6-6.5,9.5-12.5c0.5-0.8,1.6-0.6,2,0.2c1.7,4.3,5.1,15.5,3.4,30.7
		c-0.1,0.9-1.2,1.3-1.8,0.7c-3.1-2.9-10-9.8-13.2-18C489.6,326.7,489.7,326.3,489.9,326z"/>
	<path class="st4" d="M67.5,294.5c0,0,56,6,76-30c0,0-6-9-9-17c0,0-13,6.1-28.5,21.6c0,0-2,1.9-1.5-1.6c0,0,9.1-20.6,26.6-29.3
		c0,0-10.3-33.8,3.8-77.1c0.6-1.9-1.2-3.7-3.1-2.9c-14.6,5.7-59.3,26.7-72.5,73.3C59.3,231.5,51.5,264.5,67.5,294.5z"/>
	<path class="st5" d="M67.5,294.5c0,0,1,3,4,9c0,0,47,13,81-30c0,0-6-4-9-9C143.5,264.5,127.5,296.5,67.5,294.5z"/>
	<path class="st4" d="M148.2,494.5c0,0-43.7-21.9-77.7,17.6c0,0,22,17.2,63.5,16.8C134,528.9,143.9,505.4,148.2,494.5z"/>
	<path class="st5" d="M148.2,494.5c0,0-41.7-21.9-77.7,17.6c0,0-8.6-4.7-10.8-7.6c0,0,37-51.1,92.9-21.5L148.2,494.5z"/>
	<path class="st5" d="M324.3,243.8c-11.9,2-41.8,10.2-45.8,43.7c0,0-3,42,44,50c0,0,43,4,49-43c0,0,5.1-40.8-37.7-50.5
		C330.7,243.4,327.5,243.3,324.3,243.8z"/>
	<path class="st4" d="M320.6,256.2c-1,0.2-2,0.5-2.9,1c-6,2.7-27,14.2-26.2,38.8c0,0,1,25.6,33.7,31.2c0,0,23.7,1.1,32.6-20.4
		c0,0,8.5-20.9-2.5-37.3C355.4,269.4,343.1,251.8,320.6,256.2z"/>
</g>
</svg>
