<?xml version="1.0" encoding="utf-8"?>
<!-- Generator: Adobe Illustrator 27.4.0, SVG Export Plug-In . SVG Version: 6.00 Build 0)  -->
<svg version="1.1" xmlns="http://www.w3.org/2000/svg" xmlns:xlink="http://www.w3.org/1999/xlink" x="0px" y="0px"
	 viewBox="0 0 566.9 283.5" style="enable-background:new 0 0 566.9 283.5;" xml:space="preserve">
<style type="text/css">
	.st0{fill:#567098;}
	.st1{fill:#253C84;}
	.st2{fill:#88A4D4;}
</style>
<g id="Layer_2">
	<g id="Layer_3">
	</g>
</g>
<g id="Layer_5">
	<path d="M523.6,39.1C499.5,37.3,404,32,349.8,56.7c-4.1,1.9-8.8,1.6-12.7-0.8c-8.2-5.1-24.3-11.1-42.2,2.9c-1.2,0.9-2.8,1-4.1,0.2
		c-9.6-6.2-55-33.9-85.4,19.7c-1,1.7-3.1,2-4.7,1c-11.1-6.7-54-26.7-89,37.4c-0.9,1.6-2.7,2.3-4.3,1.8c-9-3.1-37.9-8.2-52.1,45.2
		c-0.5,1.9-2.2,3.2-4,2.9c-6.6-0.9-22.2-1.5-36.6,11.5c0,0-21,18.7-5,47c0,0,16.6,34.4,60.3,14.3c1.3-0.6,2.8-0.7,4.2-0.2
		c7.6,2.6,34.3,9.9,53.9-9c1.6-1.5,3.8-2.1,5.8-1.5c11.2,3.6,48.7,13.4,76.4-5.5c1.8-1.2,4.1-1,5.6,0.7c6.4,7,24.2,23.9,44.4,21.9
		c0,0,16.4,0.2,32.3-25c1.2-1.9,3.4-2.7,5.3-1.9c10.1,3.9,41.2,12.7,65.6-15.3c2.1-2.4,5.2-3.2,8-2.2c6,2.2,17.2,5.1,29.5,2.6
		c1.4-0.3,2.8-0.1,4.1,0.4c7.1,3,31.8,12.2,61,5.6c2.3-0.5,4.6,0.1,6.4,1.6c7.5,6.5,29.1,23.5,50.1,24.9c3,0.2,5.9-1.4,7.7-4
		c12.6-19,60.7-102,2.3-188.1C530.5,41.3,527.2,39.3,523.6,39.1z"/>
	<path class="st0" d="M371.6,189c2.2-8.3,7.4-33.9-0.2-63c-0.4-1.4,0.3-2.9,1.5-3.4c5-2.3,18.5-6.9,36.8,0c1.5,0.6,2.2,2.4,1.5,4
		c-3.5,7.6-12.4,30.5-11.9,64.5c0,1.3-0.8,2.4-1.9,2.8c-3.1,1-10.3,2.1-23.9-1.3C372,192.2,371.2,190.5,371.6,189z"/>
	<path class="st0" d="M407.6,192.3c0-9.5,0.9-44.5,14.6-67.6c0.4-0.7,1.1-1.3,1.8-1.6c5.1-2.1,27.2-10,55.3-1.1
		c2.3,0.7,3.4,3.5,2.3,5.8c-4.4,8.9-13.8,31.8-16.3,67.3c-0.1,1.5-1,2.9-2.3,3.5c-6.9,3-29.1,10.6-53.4-2.8
		C408.5,195.3,407.6,193.9,407.6,192.3z"/>
	<path class="st0" d="M473.8,197.3c0.8-10.3,5.1-49.3,23-71.8c0.6-0.8,1.4-1.4,2.3-1.7c5.6-2.3,27.6-10.6,50-6.8
		c2.8,0.5,11.3,3,11.5,6c0.7,14.3,2.4,56-26.2,103.1c-1.3,2.1-10.3,1-12.6,0.7c-9.2-1.4-33-6.7-46.7-24.8
		C474.1,200.7,473.7,199,473.8,197.3z"/>
	<path class="st1" d="M300.9,70.8c-1.6-2.4-1-5.8,1.3-7.4c7.2-4.9,22.8-11.6,36.6,7.2c0,0,30,36.1,28,90c0,0-1.5,48.5-34.3,51.6
		c0,0-15.4,2.8-31.1-3.2c-1.9-0.7-3.1-2.8-2.8-5c0.5-3.9,1.1-10.8,0.6-18.6c-0.1-1.8-2.5-2.1-3-0.3c-3.3,14-11.7,40.1-30,47.8
		c0,0-19.6,10.2-42-15.4c-1.8-2.1-2.3-5.3-1-7.8c2.6-5.4,6.6-16.5,6.2-32.6c0-1.7-2.3-2-2.7-0.4c-5.1,19.9-23.5,60.9-86.3,43.5
		c-2.2-0.6-3.2-3.4-2-5.5c2.4-4.1,5.9-11.3,8.1-21.5c0.4-2.1-2.2-3.2-3.1-1.3c-8.7,19-29.6,50.8-69.3,38.2c-2.7-0.9-5.6-0.5-8.1,0.9
		c-8.6,5-30,14.4-46.4-4.8c0,0-13.5-17.4-3.6-37.4c0,0,14.6-20.2,41.4-11.3c2.6,0.9,5.2-1.2,5.4-4.1c0.3-8.5,2.7-24.2,14.6-38.3
		c0,0,21-22.8,56.5,10.2c1.5,1.4,3.7-0.7,2.6-2.5c-3.4-5.4-7.7-11.5-12.4-16.3c-1.6-1.6-2.1-4.3-1.1-6.4c5-11.6,22.6-44.3,60.8-35.7
		c0,0,29.9,8.5,51,51.8c0.6,1.3,2.4,0.4,1.9-0.9c-3.8-11.4-11.7-29.2-27.7-48.4c0,0,24.7-39.5,60.7-27.8c0,0,27.7,9,44.7,47.9
		c0.7,1.6,2.8,0.7,2.4-1C314,96.5,309.4,83.6,300.9,70.8z"/>
	<path class="st2" d="M353.1,73.3c3.7,6.7,10.4,20,15.6,34.7c1.6,4.4,5.8,6.8,10,5.8c8.8-2.2,24.1-4.5,37.9,1.5
		c1.9,0.8,3.9,0.9,5.8,0.3c9.7-3.3,40.9-12.2,65.9,1.2c2.3,1.2,5.1,1.2,7.4,0c8.7-4.6,31.9-14.2,63.2-6.3c0,0-3-32.1-22.5-60.2
		c0,0-120.2-11.9-181.2,16.1C352.7,67.4,351.7,70.7,353.1,73.3z"/>
</g>
<g id="Layer_4">
</g>
</svg>
