<?xml version="1.0" encoding="utf-8"?>
<!-- Generator: Adobe Illustrator 27.4.0, SVG Export Plug-In . SVG Version: 6.00 Build 0)  -->
<svg version="1.1" xmlns="http://www.w3.org/2000/svg" xmlns:xlink="http://www.w3.org/1999/xlink" x="0px" y="0px"
	 viewBox="0 0 566.9 283.5" style="enable-background:new 0 0 566.9 283.5;" xml:space="preserve">
<style type="text/css">
	.st0{fill:#00C667;}
	.st1{fill:#F4CF67;}
	.st2{fill:#9F82D8;}
</style>
<g id="Layer_2">
	<path d="M519.9,21.7c0,0-45.3-18.5-180.1,47.7c0,0-71.3,50.4-190.2,10.5c0,0-62-16.7-79.3-22.6c0,0-56.9-15-69.9,30.2
		c0,0-6.5,34.6,33.9,75.9c0,0,77.8,90.2,165.7,105.3c0,0,72.8,22.6,171.5-16.5c0,0,91.6-38.4,164.4-39.8
		C535.8,212.4,608.3,101.6,519.9,21.7z"/>
	<g id="Layer_3">
	</g>
</g>
<g id="Layer_4">
	<g>
		<path class="st0" d="M461.5,53.5l14.7-12c-12,2.2-24.4,5.3-36.6,9.1l19.9,3.4C460.3,54.2,461,54,461.5,53.5z"/>
		<path class="st0" d="M543.2,48.8c0,0-13.8-8.5-24.7-9.7c-6.8-0.7-14.1-0.8-21.8-0.2l3.8,26.4c0.1,0.9,0.7,1.7,1.5,2L536.6,83
			c2.2,1,2,4.4-0.4,5L505,96.2c-0.8,0.2-1.5,0.8-1.8,1.7l-11.1,32.4c-0.6,1.7-2.6,2.3-4,1.2l-31.8-27.1c-0.5-0.4-1.2-0.6-1.8-0.6
			l-36.4,3.3c-2.3,0.2-3.6-2.6-2.1-4.4l16.9-19.7c0.8-0.9,0.9-2.2,0.2-3.2l-13.9-22.3C376.1,72.6,340,91.7,340,91.7
			s-0.3,0.2-0.9,0.4l5.8,25.7c0.2,0.8,0.7,1.4,1.5,1.7l32.2,11.3c2.1,0.7,2.1,3.8,0,4.5l-27.5,9.9c-0.7,0.3-1.3,0.9-1.5,1.6l-7.6,30
			c-0.4,1.6-2.2,2.3-3.5,1.4l-30.6-21.8c-0.5-0.4-1.1-0.5-1.7-0.4l-32.4,5.8c-2,0.4-3.5-2.1-2.2-3.8l13.8-19c0.6-0.9,0.6-2.1,0-2.9
			l-16.9-22.7c-14.5,2.2-30,3-45.5,1.4c0,0-74.8-9.2-134.2-37.8c0,0-44.7-17.2-65.1,0.2c0,0-23.2,9.4,0,46
			c0,0,48.4,80.3,142.6,115.5c0,0,96.5,45.8,206.8-8.1c0,0,93.1-42.9,176.5-45.5C549.6,185,586,110.3,543.2,48.8z"/>
		<path class="st0" d="M308.9,110.4l10.6-10.2c-8.4,3.1-19,6.5-31,9.3l18.6,1.5C307.9,111.1,308.5,110.8,308.9,110.4z"/>
	</g>
	<path class="st1" d="M329.8,104.4l-16,15.1c-0.3,0.3-0.7,0.4-1.1,0.4l-23.8-2.3c-1.2-0.1-2,1.4-1.3,2.4l11.2,15.5
		c0.4,0.5,0.4,1.3,0,1.8l-8.8,11.9c-0.8,1.1,0.1,2.6,1.4,2.4l20.4-3.4c0.4-0.1,0.7,0,1.1,0.3l19,14c0.8,0.6,1.9,0.2,2.2-0.8l5-18.8
		c0.1-0.5,0.5-0.9,0.9-1l17.3-6c1.3-0.4,1.3-2.4,0-2.8l-20.1-7.4c-0.5-0.2-0.8-0.6-0.9-1.1l-4.1-19.2
		C331.9,104.1,330.6,103.6,329.8,104.4z"/>
	<path class="st2" d="M486.4,44.1l-21.3,16.8c-0.4,0.3-0.9,0.4-1.4,0.4l-29.3-4.9c-1.5-0.3-2.6,1.5-1.8,2.8L445.1,79
		c0.4,0.7,0.4,1.6-0.2,2.2l-12,13.6c-1.1,1.2-0.2,3.2,1.5,3l25.6-2.3c0.5,0,0.9,0.1,1.3,0.4l22.2,18.7c0.9,0.8,2.4,0.4,2.8-0.8
		l8-22.4c0.2-0.6,0.7-1,1.3-1.2l22-5.7c1.7-0.4,1.9-2.8,0.3-3.4l-24.2-10.8c-0.6-0.3-1-0.8-1-1.4l-3.3-23.7
		C489.1,43.9,487.5,43.2,486.4,44.1z"/>
</g>
</svg>
