<?xml version="1.0" encoding="utf-8"?>
<!-- Generator: Adobe Illustrator 27.4.0, SVG Export Plug-In . SVG Version: 6.00 Build 0)  -->
<svg version="1.1" xmlns="http://www.w3.org/2000/svg" xmlns:xlink="http://www.w3.org/1999/xlink" x="0px" y="0px"
	 viewBox="0 0 566.9 283.5" style="enable-background:new 0 0 566.9 283.5;" xml:space="preserve">
<style type="text/css">
	.st0{display:none;}
	.st1{fill:none;stroke:#E13226;stroke-width:1.1065;stroke-miterlimit:10;}
	.st2{fill:#92CE9B;}
	.st3{fill:#937676;}
</style>
<g id="Layer_1" class="st0">
	
		<image style="display:inline;overflow:visible;opacity:0.53;" width="223" height="226" xlink:href="../../Reference/download.jpg"  transform="matrix(-0.1613 -7.1069 7.1069 -0.1613 -501.0304 635.2831)">
	</image>
</g>
<g id="Layer_2">
	<path class="st1" d="M519.2,96.8"/>
	<path d="M526.9,102.3c-4.4-3.5-9.8-5.2-15.3-5c-20.9,0.7-82.1-1.4-146-44.1c0,0-69.3-49.3-177.1-39c0,0-123.7-1.3-185.6,143.9
		c0,0-9.6,26.9,23.5,36.1c0,0,22.4,9.3,58.7-27.5c0,0,40.5-50.5,72.5-53.9c0,0,74.7-14.9,160,59.7c0,0,107.7,109.6,214.2,97.6
		c8.9-1,16.6-7.2,20-16.1C563.8,223.1,584.7,147.5,526.9,102.3z"/>
</g>
<g id="Layer_3">
	<path class="st2" d="M531.4,106c0,0-72.1,11.7-149.2-30.9c-4.1-2.3-9.2-0.4-11.2,4.1c-4.6,10.4-15,26.8-36.4,31.4
		c0,0-37.5,3.4-43.8-40.2c0,0-1.5-10.4,1.6-27.5c0.8-4.7-1.9-9.2-6.2-10.3c-19.6-5.1-72.8-16.3-128.7-4c0,0-102.4,23.5-145.1,126.7
		c0,0-9.6,19.5,9.6,27.5c0,0,25.6,13.8,62.9-27.5c0,0,20.5-25,42.3-39.5c2.6-1.7,4-5,3.6-8.3c-1.4-9.9-1.7-31.2,18.7-43
		c0,0,29.6-10.2,36,30.5c0.6,3.7,3.4,6.5,6.9,6.9c13.9,1.4,49.5,7.3,87.8,30.5c0,0,41.6,27.5,61.9,47.1c0,0,108,104.4,209.7,74.6
		C551.9,254,597,161.2,531.4,106z M273.5,70.9c-11,33.8-45.8,32.6-45.8,32.6c-24.7-2.5-20.1-27.4-20.1-27.4
		c6.4-35.6,35.2-37.9,35.2-37.9C280.2,38.3,273.5,70.9,273.5,70.9z M409.3,163.3c-27.7,0-31.8-27.5-31.8-27.5
		c-2-28.7,24.4-35.6,24.4-35.6c30.9-2.3,33.9,31.6,33.9,31.6C433.4,159.9,409.3,163.3,409.3,163.3z M507.4,217.2
		c-29.9-0.1-33-38.9-33-38.9c1.1-44.8,33-46.5,33-46.5c34.1-1.8,36.3,38.5,36.3,38.5C539.5,217.3,507.4,217.2,507.4,217.2z"/>
	<path class="st3" d="M141.8,108.1c5.8-2.1,18.4-5.9,32.5-5.8c1.6,0,2.9-1.5,2.8-3.2c-0.6-7.2-3.1-23.7-13-26.4
		c0,0-27-7.5-25.8,32.7C138.2,107.3,140,108.7,141.8,108.1z"/>
	<path class="st3" d="M241.8,46.3c0,0-26.7,8-26.7,35.6c0,0,5.3,26.4,38.4,5.7c0,0,17.1-13.8,11.7-29.8
		C265.3,57.8,260,42.8,241.8,46.3z"/>
	<path class="st3" d="M363.3,67.1c-9.8-6-38.5-23.2-57.7-28.8c-2.6-0.8-5.3,0.9-5.9,3.8c-2,9-4.6,28.5,4.1,45.6
		c0,0,18.1,26.4,44.7,7.9c0,0,12-10,16.8-21.9C366.2,71.2,365.4,68.4,363.3,67.1z"/>
	<path class="st3" d="M406.6,107.9c0,0-16.6-1.8-22.7,20c0,0-4.1,16.3,16.2,27.2c0,0,19.2,5.4,28.4-16.3c0,0,3-12-4.1-20.7
		C424.4,118.2,417.1,107.5,406.6,107.9z"/>
	<path class="st3" d="M509.1,138.5c0,0-23.9-1.7-27.9,35.9c0,0,0.2,34.2,25.3,34.2c0,0,27.2,1.1,30.4-38.3
		C536.8,170.3,536.8,139.5,509.1,138.5z"/>
</g>
</svg>
