<?xml version="1.0" encoding="utf-8"?>
<!-- Generator: Adobe Illustrator 27.4.0, SVG Export Plug-In . SVG Version: 6.00 Build 0)  -->
<svg version="1.1" xmlns="http://www.w3.org/2000/svg" xmlns:xlink="http://www.w3.org/1999/xlink" x="0px" y="0px"
	 viewBox="0 0 240 120" style="enable-background:new 0 0 240 120;" xml:space="preserve">
<style type="text/css">
	.st0{display:none;}
	.st1{fill:#9D83DD;}
	.st2{fill:#C8B6FF;}
	.st3{fill:#6E5AAF;}
</style>
<g id="Layer_1" class="st0">
	
		<image style="display:inline;overflow:visible;opacity:0.46;" width="196" height="99" xlink:href="../snake_tail1.png"  transform="matrix(2.8796 0 0 2.8796 -162.6666 -96.4646)">
	</image>
</g>
<g id="Layer_2">
	<path d="M212.3,20.7c-0.9,2-2.2,4.2-3.6,5.7c-1.1,1.2-2.9,1.2-3.9,0c-4.6-5.1-20.7-21.2-43.6-21.6c0,0-22.7,0-36.1,28.2
		c0,0.1,0,0.1-0.1,0.2c-0.7,1.7-13.5,32.6-25.1,33.3c-0.5,0-1-0.1-1.5-0.4c-4.6-2.9-34.9-20.6-80-21.9c0,0-18.5-0.5-16.2,8.3
		c0,0,2.8,25.9,63.4,52.8c0.1,0,0.2,0.1,0.3,0.1c1.4,0.8,15.1,8.4,46.7,10.1c0,0,37.4,1.8,72.1-26.1c1.1-0.9,2.8-0.7,3.7,0.4
		c5.2,6.4,23.5,24.4,37.8,22.2c0.8-0.1,1.5-0.6,1.9-1.4c3.8-7.2,22.4-47.5-11.3-90.5C215.5,18.7,213.1,18.9,212.3,20.7z"/>
	<path class="st1" d="M218.1,22c0,0-10.1,18.5-25.4,27.7c0,0-5.1-0.6,0-7c0,0,11.6-7.8,5.6-13.4c0,0-14.8-17.6-37.5-17.6
		c0,0-20.4,0-32.4,29.2c0,0-7.4,22.7-20.9,28.7c0,0,13,6.5,16.2,12.1c0,0,0.2,3-4.3,3.1c0,0-29.5-19.8-65.2-30.5
		c0,0-34.3-9.3-43.1-2.8c0,0-6.5,5.6,5.6,14.8c0,0,31.7,30.4,75.5,41.2c0,0,46.6,8.1,82.5-19c0,0,8.1-5.3-1.9-20.9
		c0,0-0.9-5.5,4.2-1.4c0,0,33,48.4,54,37.9C230.9,104.3,252.3,63.3,218.1,22z"/>
	<path class="st2" d="M221,25.6c0,0-7.9,14.4-25.9,24.4c0,0-2,4,4,2c0,0,18.5-5.5,28.5-16.5C227.5,35.5,220.9,25.2,221,25.6z"/>
	<path class="st2" d="M83.5,67.6c0,0-32-19.1-64.4-16c0,0-3,2.4,4,4.4c0,0,25.5,2.5,60.5,17.2C83.5,73.2,92,73.2,83.5,67.6z"/>
	<path class="st2" d="M199.7,34.5c0,0-22.2-22.9-42.2-19.9c0,0-6.5,1.5,3.5,4.5c0,0,16.4,4.1,32.7,23
		C193.7,42.1,198.4,38.9,199.7,34.5z"/>
	<path class="st3" d="M177.2,84.7c0,0-44.6,32.8-92.6,18.8c0,0-5.5-4.5,5.5-3.5c0,0,44.3,9.4,85.6-26.8
		C175.7,73.2,179,78,177.2,84.7z"/>
	<path class="st3" d="M193,83c0,0,21,22,39.6,17.2c0,0,2.1-5.7,2.7-8.9c0,0-19,2.7-35.7-9.3C199.7,82,191,77,193,83z"/>
</g>
</svg>
