<?xml version="1.0" encoding="utf-8"?>
<!-- Generator: Adobe Illustrator 27.4.0, SVG Export Plug-In . SVG Version: 6.00 Build 0)  -->
<svg version="1.1" xmlns="http://www.w3.org/2000/svg" xmlns:xlink="http://www.w3.org/1999/xlink" x="0px" y="0px"
	 viewBox="0 0 240 120" style="enable-background:new 0 0 240 120;" xml:space="preserve">
<style type="text/css">
	.st0{display:none;}
	.st1{fill:#FF822E;}
	.st2{fill:#FFF2E9;}
</style>
<g id="Layer_1" class="st0">
	
		<image style="display:inline;overflow:visible;opacity:0.42;" width="140" height="79" xlink:href="../snake_tail3.png"  transform="matrix(4.05 0 0 4.05 -163.4646 -57.4717)">
	</image>
</g>
<g id="Layer_2">
	<path d="M24.3,8.9c0,0-5.7-7.8-12.2,0c0,0-9.3,12,3.8,21.8c0,0,17.3,12.1,22.1,17.3c0,0,6,4.8,4.7,16c0,0-3.4,24.7,5.2,35.9
		c0,0,13.4,19.2,43.9,19.2c0,0,23.7,0.3,33.6-8.8c0,0,13-8.9,11.7-27c-0.1-0.8,0.8-1.5,1.6-1.7c1.5-0.5,3.9-1.7,4.6-5
		c0.1-0.7,0.7-1.2,1.3-1.3c2.5-0.5,8.5-2.8,13.8-12.6c0.3-0.6,1-1,1.7-0.9c1.8,0.1,5.4,0,8.7-2.4c0.6-0.5,1.4-0.5,2.1-0.2
		c3.7,1.8,14.3,6.1,24.5,18.1c2,2.3,6.2,3.9,8.9,2.6c10.9-5.3,35.1-22,26.5-64.7c-0.6-2.8-2.5-6.1-5.1-7.2
		c-10.5-4.2-40-13.1-80.9-0.7c0,0-42.9,12.6-47.1,52.5c-0.2,1.6-1.2,3-2.6,3.7c-1.9,0.9-4.3,0.5-5.6,2.6c-0.6,1-1.6,1.6-2.7,1.7
		c-2.6,0.1-7.1-1.5-11.9-6.3c-0.6-0.6-0.9-1.9-0.8-2.8c0.3-5.4,0.2-23.9-13.9-31c0,0-9.9-4.8-20.6-6.9c0,0-5.8-1.1-9.5-4.3
		C29.9,16.3,28.6,15,24.3,8.9z"/>
	<path class="st1" d="M232.5,32.9c-12.7,9.1-34.1,4.8-34.1,4.8c-22.1-6.7-28.5-21.3-30.3-27.5c-0.5-1.7-2.1-2.7-3.8-2.5
		c-25.7,2.7-42.5,17.3-47.4,22.1c-0.6,0.6-0.3,1.6,0.6,1.8c17.8,2.9,17.8,10.5,17.8,10.5c0.4,7.8-8.6,10.4-8.6,10.4
		c-10,2.5-17.1,1.1-20.2-0.1c-1.2-0.4-2.4,0.2-2.8,1.4c-0.5,2-0.5,4.5-0.5,5.6c0,0.4-0.2,0.8-0.6,1.1c-1.3,0.8-2,2.3-2.3,3.5
		c-0.3,0.9-0.9,1.6-1.8,1.9c-3.5,1.2-6.5,3.4-7.8,4.8c-0.4,0.5-0.7,1.1-0.7,1.7c-0.9,9.8,8.7,16,8.7,16c2.6,2.6,0,3.5,0,3.5
		c-12.3-4.3-13.9-13.7-13.9-17.6c0-1.3-0.7-2.5-1.9-2.9c-14.3-4.8-12.7-11.2-12.7-11.2c1.9-14.8-6.7-23.7-6.7-23.7
		C57,29,44.5,26.8,44.5,26.8c-10.7-2.2-15.9-6.5-15.9-6.5c-3.9-3.5-7.7-9.5-7.7-9.5c-3.9-3.5-6.4,2.6-6.4,2.6
		c-4.3,8.7,5.2,14.7,5.2,14.7c6.4,4.8,22.3,17.3,22.3,17.3c7.7,7.4,5.6,22.5,5.6,22.5c-3.9,24.2,8.6,33.3,8.6,33.3
		c22.3,18.6,53.3,11.7,53.3,11.7c22.5-4.1,23.8-25.5,23.7-31.4c0-0.9,0.5-1.7,1.3-2.1c2.4-1,3.7-2,4.4-3c0.8-1,0.3-2.5-0.9-3
		c-3.6-1.2-7.4-4.8-7.4-4.8c-0.9-1.1,0-1.5,0.7-1.7c0.4-0.1,0.7,0,1,0.2c12.7,7.7,20.6-4.2,20.6-4.2c8.2-11.3,0-15.2,0-15.2
		c-2.1-0.9-2.1-1.7-2.1-1.7c0-2.2,1.7-1.7,1.7-1.7c7.7,1.3,8.2,7.7,8,10.8c-0.1,0.9,0.7,1.6,1.6,1.5c8.9-1.7,9.9-10.9,9.6-13.4
		c0-0.5-0.3-0.9,0-1.2c1.1-0.9,1.7-0.4,2.3,0.2c0.2,0.2,0.4,0.5,0.4,0.8c1.1,5,0.2,8.7-0.7,10.5c-0.3,0.7,0,1.5,0.7,1.7
		c17.4,6.9,31.4,23.5,31.4,23.5C235.5,63.2,232.5,32.9,232.5,32.9z M74.2,78.1c-1.1,2-2.5,5-3.1,7.9c-0.2,0.9-1.3,1-1.6,0.2
		c-1.5-3.4-2.8-9,3.3-10.3C73.9,75.8,74.8,77.1,74.2,78.1z"/>
	<path class="st2" d="M113.1,34.9c-1.6,2-4.8,6.5-6.8,12.4c-0.2,0.7,0.1,1.4,0.8,1.6c3,0.9,11.4,2.7,19.6-0.4c0,0,6.8-3.5,2.5-7.8
		c0,0-3.5-4.7-13.6-6.7C114.6,33.8,113.7,34.2,113.1,34.9z"/>
	<path class="st2" d="M230.8,15.9c0,0-20-12.1-57.7-9.2c-0.9,0.1-1.5,1-1.1,1.8c2.9,7.5,17.5,37.2,60.4,20.5
		C232.4,29,231.9,21,230.8,15.9z"/>
</g>
</svg>
