<?xml version="1.0" encoding="utf-8"?>
<!-- Generator: Adobe Illustrator 27.4.0, SVG Export Plug-In . SVG Version: 6.00 Build 0)  -->
<svg version="1.1" xmlns="http://www.w3.org/2000/svg" xmlns:xlink="http://www.w3.org/1999/xlink" x="0px" y="0px"
	 viewBox="0 0 566.9 283.5" style="enable-background:new 0 0 566.9 283.5;" xml:space="preserve">
<style type="text/css">
	.st0{fill:#009687;}
	.st1{fill:#9C8FD8;}
	.st2{fill:#10C499;}
	.st3{fill:#FFFFFF;}
</style>
<g id="Layer_2">
	<g id="Layer_3">
	</g>
	<path d="M514.6,29.1C471.5,53.8,284,149.6,95.3,75c0,0-62.2-35.3-78,7.1c0,0-23.2,72,66.2,117.2c0,0,212.3,125.2,431.6,33
		c6.2-2.6,11.4-7,15-12.7c16-24.8,53.3-98.8-0.1-186.4C526.8,27.9,520,26.1,514.6,29.1z"/>
</g>
<g id="Layer_4">
	<path class="st0" d="M532.7,37.7c0,0-235.3,149.6-455.7,42.5c0,0-46.6-21.6-48.7,13.4c0,0-7.8,54.2,54.9,87.7
		c0,0,233.8,141.8,456.8,20.7C540,201.9,586.9,127.2,532.7,37.7z"/>
	<path class="st1" d="M552.3,172.5c0,0-207.2,150.9-494.7-9.1c0,0,32.1,33.5,129.1,62.3c0,0,180.5,71.5,353.3-23.7
		C540,201.9,548.7,187.3,552.3,172.5z"/>
	<path class="st2" d="M538.3,47.7c0,0-117,74.8-237.4,76.4c0,0-21.7,3.1-21.5,15.7c0,0-5.9,14.5,60.7,11.7c0,0,125.6-2.1,214-62.6
		C554.2,89,549.8,67.8,538.3,47.7z"/>
	<path class="st3" d="M549.9,73.9c0,0-32.5,3.5-46.7,26c0,0-17.5,31.9,17.2,47c0,0,21.3,7.9,36.9,2.9
		C557.3,149.8,565.6,117.6,549.9,73.9z"/>
	<path class="st1" d="M552.3,81.7c0,0-40,1.6-44.7,32.5c0,0-3.8,21.5,21.5,27.5c0,0,15.1,3,29.8,0
		C558.9,141.7,562.4,110.3,552.3,81.7z"/>
</g>
</svg>
