<?xml version="1.0" encoding="utf-8"?>
<!-- Generator: Adobe Illustrator 27.4.0, SVG Export Plug-In . SVG Version: 6.00 Build 0)  -->
<svg version="1.1" xmlns="http://www.w3.org/2000/svg" xmlns:xlink="http://www.w3.org/1999/xlink" x="0px" y="0px"
	 viewBox="0 0 566.9 283.5" style="enable-background:new 0 0 566.9 283.5;" xml:space="preserve">
<style type="text/css">
	.st0{display:none;}
	.st1{fill:#FFFF0B;}
	.st2{fill:#D8AF05;}
	.st3{fill:#A8780C;}
</style>
<g id="Layer_1" class="st0">
	
		<image style="display:inline;overflow:visible;opacity:0.47;" width="390" height="280" xlink:href="8379A27FB82831B1.jpg"  transform="matrix(-4.0968 1.5655 1.3649 3.5718 1352.7531 -963)">
	</image>
</g>
<g id="Layer_2">
</g>
<g id="Layer_3">
	<path d="M9.5,168.9c0,0,9.5-136.5,129-164.4c0,0,75.9-26.9,167.9,51.6c0,0,95.8,83.8,143.2,65.6c0,0,47.7-11,67-55
		c2.2-5.1,8.5-5.6,11.3-1c17.1,27.8,55.7,107,10.3,199.5c-4.1,8.3-11.5,13.9-19.9,15.1c-38.2,5.3-152.5,7.5-255.6-129.1
		c0,0-48.3-67.1-120.4-66.1c0,0-86.3-5.4-128,94.6C14.2,179.6,7.6,199,9.5,168.9z"/>
	<path class="st1" d="M557,144.7c0,0-42.1,38.1-78.1-18.9c0,0-10.4,6.4-17.1,6.4c0,0,6.6,43-28.5,61.3c0,0-24.7,10.7-63.5-18.3
		c0,0-58.8-36.5-26.6-78.5c0,0-14.2-6.4-23.7-17.2c0,0-16.1,37.6-38.9,17.2c0,0-17.1-21.5-32.2-31.2c0,0-8.5-4.3-16.1-6.4
		c0,0-23.7-5.4-11.4-39.8c0,0-12.3-4.3-21.8-5.4c0,0-7.6,14-36,11.8c0,0-21.8,2.1-33.2,8.6c0,0-15.2,9.7-28.5-1.1
		c0,0-38.9,16.1-60.7,62.3c0,0-0.9,6.4,7.6-3.2c0,0,40.8-48.4,102.4-53.7c0,0,53.1-6.4,132.8,84.9c0,0,58.8,77.4,100.5,95.7
		c0,0,94.2,61.3,170.4,0C554.5,219.4,565,186.2,557,144.7z"/>
	<path class="st2" d="M551,232.5c0,0-63.5,52.5-166.9-3.4c0,0-44.2-22-83.7-75.5c0,0-60.4-76.1-105-95.4c0,0-82.5-49.4-163.1,63.4
		c0,0-0.9,7.5,6.6-2.1c0,0,48.4-64.5,128-46.2c0,0,56.9,9.7,106.2,75.2c0,0,65,81.6,138.7,106.4c0,0,68.1,28,127.3,8.1
		C539.2,262.9,546.3,250.9,551,232.5z"/>
	<path class="st3" d="M528.4,66.4c0,0-6.8,30.4-41.8,55.1c0,0,27.8,50.8,68.9,14.1C555.4,135.7,549.4,97.3,528.4,66.4z"/>
	<path class="st3" d="M453.3,134.5c0,0-35.1,18.3-103.4-33.3c0,0-23.7,19.3,2.8,51.6c0,0,34.1,37.6,71.1,36.5
		C423.9,189.3,459,183.9,453.3,134.5z"/>
	<path class="st3" d="M313,75.4c0,0-40.8-38.7-85.4-53.7c0,0-9.5,25.8,9.5,31.2c0,0,24.7,10.7,38.9,30.1
		C276,82.9,297.8,116.2,313,75.4z"/>
	<path class="st3" d="M192.5,12c0,0-45.5-7.5-84.4,16.1c0,0,7.3,8.6,23.6,0c0,0,13.4-8.6,34.3-8.6C166,19.5,184.9,21.6,192.5,12z"/>
</g>
</svg>
