<?xml version="1.0" encoding="utf-8"?>
<!-- Generator: Adobe Illustrator 27.4.0, SVG Export Plug-In . SVG Version: 6.00 Build 0)  -->
<svg version="1.1" xmlns="http://www.w3.org/2000/svg" xmlns:xlink="http://www.w3.org/1999/xlink" x="0px" y="0px"
	 viewBox="0 0 566.9 283.5" style="enable-background:new 0 0 566.9 283.5;" xml:space="preserve">
<style type="text/css">
	.st0{fill:#AD446F;}
	.st1{fill:#C1809D;}
	.st2{fill:#843459;}
</style>
<g id="Layer_2">
	<g id="Layer_3">
	</g>
	<path d="M514.6,29.1C471.5,53.8,284,149.6,95.3,75c0,0-62.2-35.3-78,7.1c0,0-23.2,72,66.2,117.2c0,0,212.3,125.2,431.6,33
		c6.2-2.6,11.4-7,15-12.7c16-24.8,55.6-97-0.1-186.4C526.7,27.9,520,26.1,514.6,29.1z"/>
	<path class="st0" d="M532.7,37.6c0,0,55.9,82.8,6,167.7c0,0-223,126.3-486.7-39.3c0,0-30.5-25.1-27.7-64.5c0,0,0-32.3,26.7-29.5
		c0,0,17.6,2.8,34.4,11.2C85.5,83.2,276.2,180.9,532.7,37.6z"/>
	<path class="st1" d="M532.7,37.6c0,0-183.9,111.4-371.7,69.3c0,0-24.5,3.3,7.7,21.6c0,0,182.4,57.9,381.4-53.3
		C550.2,75.2,541.9,50.2,532.7,37.6z"/>
	<path class="st2" d="M552.8,173.4c0,0-246,125.1-486.2-14.7c0,0-24.2-13.1-14.6,7.2c0,0,224.6,163.9,486.7,39.3
		C538.7,205.2,550.1,186,552.8,173.4z"/>
	<path d="M52,166.9c0,0-6.2-16.5,6.3-11.6L83,167.9c0,0,203.7,126.4,469.8,5.6c0,0,1.8-5.8,2.6-9.5c0,0-242.4,129.8-493.7-11.9
		c0,0-18-9.2-15.5,9.3C46.3,161.3,49.4,170.4,52,166.9z"/>
	<path d="M116.3,182.7c0,0,2.5,16.2,6.7,26.4l4.6,2.4c0,0-6-24-6.2-27.4L116.3,182.7z"/>
	<path d="M208.6,211.5c0,0,2.9,18.4,7,30.6l4.9,2.1c0,0-5.8-29.8-5.9-32.7H208.6z"/>
	<path d="M314.4,222.9c0,0,2.6,28.1,4.4,35.4h7.6l-4.1-35.4H314.4z"/>
	<path d="M435.4,211.5c0,0,1.1,21.3,3.6,32.7l7.4-1.8c0,0-3.4-28-3.4-34.9L435.4,211.5z"/>
	<path d="M546.7,172.1c0,0,0,11.1,1.1,15.6c0,0,4.1-9.2,6.5-19.1L546.7,172.1z"/>
</g>
<g id="Layer_4">
</g>
</svg>
