<?xml version="1.0" encoding="utf-8"?>
<!-- Generator: Adobe Illustrator 27.4.0, SVG Export Plug-In . SVG Version: 6.00 Build 0)  -->
<svg version="1.1" xmlns="http://www.w3.org/2000/svg" xmlns:xlink="http://www.w3.org/1999/xlink" x="0px" y="0px"
	 viewBox="0 0 566.9 283.5" style="enable-background:new 0 0 566.9 283.5;" xml:space="preserve">
<style type="text/css">
	.st0{fill:#AAE000;}
	.st1{fill:#B78AFF;}
</style>
<g id="Layer_2">
	<path d="M520.9,7.1c0,0-63.4-21.3-180.1,50.5c0,0-71.3,53.3-190.2,11.1c0,0-62-17.7-79.3-23.9c0,0-56.9-15.8-69.9,31.9
		c0,0-6.5,36.6,33.9,80.3c0,0,77.8,95.5,165.7,111.4c0,0,72.8,23.9,171.5-17.5c0,0,91.6-40.7,164.4-42.1
		C536.8,208.7,609.3,91.6,520.9,7.1z"/>
	<g id="Layer_3">
	</g>
</g>
<g id="Layer_4">
	<path class="st0" d="M530.6,17.2c0,0-9.4-1.3-26-0.2c4.6,54.5-56.5,68.6-56.5,68.6c-49.9,9.2-74.4-28.2-74.4-28.3
		c-4.8,2.6-9.6,5.3-14.4,8.2c0,0-25,18.3-67.5,28.5c-10.5,48.8-54.7,44.6-54.7,44.6c-42.2-2.9-53-38-54.5-43.7
		c-9.8-2.1-19.9-4.8-30.3-8.3c0,0-57.4-19.3-91.4-30.1c0,0-22.1-6.6-36.1,10.7c0,0-32.5,29.2,43.7,105.1c0,0,112.4,122,252.3,79.1
		c0,0,178-76.2,223.3-56C544,195.2,600.2,91.4,530.6,17.2z"/>
	<path class="st1" d="M278.8,96.6c-11.6,2.4-46.2,8.1-82.7,0.1c-1.8-0.4-3.2,1.5-2.4,3.1c4.6,9.1,18.1,30,43.6,29.8
		c0,0,29.3,2,43.9-29.9C282,98,280.6,96.3,278.8,96.6z"/>
	<path class="st1" d="M391.3,49.2c14.2-7.3,51.2-24.7,94.3-31.8c3.4-0.6,6.4,2.3,6.1,5.7c-1,11.6-6.8,35.3-35.4,47.2
		c0,0-37.6,15-66.2-12.6C387.5,55.3,388.1,50.9,391.3,49.2z"/>
</g>
<g id="Layer_5">
</g>
</svg>
