<?xml version="1.0" encoding="utf-8"?>
<!-- Generator: Adobe Illustrator 27.4.0, SVG Export Plug-In . SVG Version: 6.00 Build 0)  -->
<svg version="1.1" xmlns="http://www.w3.org/2000/svg" xmlns:xlink="http://www.w3.org/1999/xlink" x="0px" y="0px"
	 viewBox="0 0 566.9 283.5" style="enable-background:new 0 0 566.9 283.5;" xml:space="preserve">
<style type="text/css">
	.st0{display:none;}
	.st1{fill:#9AA89A;}
	.st2{fill:#0D9347;}
	.st3{fill:#446F34;}
</style>
<g id="Layer_1" class="st0">
	
		<image style="display:inline;overflow:visible;opacity:0.54;" width="500" height="375" xlink:href="../../Reference/1902887.jpg"  transform="matrix(2.3379 -3.4536 3.4536 2.3379 -483 422.8059)">
	</image>
</g>
<g id="Layer_2">
	<path d="M287.3,226.9c-0.1,0-0.1,0.3-0.2,0.4c-1.3,2.7-19.1,38.3-56.8,27.9c-3.2-0.9-6.6-0.1-9.3,1.9c-7.4,5.4-24.6,13-48.3-8.5
		c-2.9-2.6-6.8-3.4-10.4-2.2c-7.3,2.4-20.5,3.9-32.7-9.7c-2.6-2.9-6.4-4.1-10.1-3.4c-6.3,1.2-16.7,0.2-26.8-14
		c-2.3-3.2-5.9-5-9.6-4.8c-6.9,0.4-17.9-1.3-22.8-15c-1.8-5.1-6.7-8.2-11.7-7.6c-13.3,1.6-36.6,1.1-44.8-20.6
		c-0.3-0.8-0.5-1.6-0.6-2.4c-0.7-4.8-1.2-19.6,18.2-27.8c0.7-0.3,1.5-0.5,2.3-0.7c4.9-0.8,23.1-3,36,6c3.3,2.3,7.5,2.5,11,0.5
		c3.8-2.2,9.9-3.8,19.4-1.1c2.6,0.7,5.3,0.4,7.7-0.9c4.7-2.5,13-6,19.7-3c4.3,1.9,9.3,0.6,12.5-3.1c5.7-6.7,14.5-14.2,23.9-10.9
		c4.3,1.5,9-0.4,11.8-4.3c4.5-6.3,12.1-13.6,23.1-12.6c3.3,0.3,6.6-1.1,8.8-3.9c6.4-7.9,19.9-22,32.2-17.4c0,0,1.6,0.3,3.8,1.5
		c8.4,4.7,18.2,5.4,27,1.6c20.4-8.7,46.7-28.1,96.4-49.3c0,0,88.1-45.5,164.3-21.7c5.3,1.7,10,5.2,13.3,10
		c15.5,22.8,56.1,95.6,1.1,165.5c-4.3,5.4-10.9,8-17.4,6.9c-29.9-5-120.1-16.9-181.8,8.1C336.1,212.4,308.9,226.7,287.3,226.9z"/>
</g>
<g id="Layer_3">
	<path class="st1" d="M269.7,226c-12.1-5.3-41.8-21.6-51.1-56.7c0-0.2-0.1-0.3-0.1-0.5c-0.6-3.1-5.6-34,6.7-60.8
		c1.9-4-1.7-8.6-5.7-7.1c-8.1,3.1-18.8,12.1-23.3,38c0,0-6.6,41.5,18.2,84.5c0,0,10.8,17.4,32.8,21.2c0.3,0.1,0.7,0.1,1,0.1
		c2.8-0.1,15.9-1.3,23.3-10.7C273.6,231.3,272.7,227.3,269.7,226z"/>
	<path class="st1" d="M187.2,126.3c-2.9,12.9-13.5,73.5,26.1,114.9c2.3,2.4,1.7,6.7-1.2,8.2c-7,3.6-19.5,6.2-31.9-10.4
		c0,0-30.2-40.2-16.9-94.1c0.1-0.3,0.2-0.6,0.3-0.9c1.7-3.8,13.3-28.9,21.7-23C186.9,122.1,187.6,124.2,187.2,126.3z"/>
	<path class="st1" d="M152.2,145.4c-3.1,14.1-9.5,53,7.2,85.1c1.7,3.4-0.4,7.5-4,7.6c-10,0.4-26.8-4.6-30.4-40.1c0-0.2,0-0.3,0-0.5
		c-0.1-4.1-0.6-57.1,22.3-58.3C150.5,139,153,142.1,152.2,145.4z"/>
	<path class="st1" d="M120.8,219.1c-3-10.3-7.7-33.4-0.9-63.7c0.6-2.9-1.2-5.7-4-6.1c-6.2-0.8-16.3,1.5-20.5,22.5
		c0,0-5.2,22.3,3.9,42.6c0.1,0.2,0.2,0.4,0.3,0.6c1.1,1.7,6.5,9.5,16.4,10.5C119.4,225.8,121.8,222.4,120.8,219.1z"/>
	<path class="st1" d="M85.6,198.5c-1.7-7-3.8-22,4.1-39.7c1.6-3.6-0.7-7.5-4-7c-5.8,1-13.4,4.3-17.1,14.4c0,0-6.9,15.5-3.4,29.9
		c0.1,0.3,0.1,0.5,0.2,0.7c0.9,2.2,5.8,12.4,17.2,8C84.9,204,86.2,201.1,85.6,198.5z"/>
	<path class="st1" d="M56.1,177.2c0.4-3.7,1.2-10,2.7-15.3c0.6-2.2-0.2-4.6-2.1-5.8c-5.6-3.6-17.6-9.6-30.1-6.1
		c0,0-12.5,0.6-14.7,13.9c0,0-0.4,12.6,14.5,16.1c0,0,12.1,5.4,26.4,1.5C54.6,181,55.9,179.3,56.1,177.2z"/>
	<path class="st2" d="M538.3,167.3c-5.9-1.3-114-29.8-204.7,7.8C331,176.8,296,194,268,193c0,0-56.6-6.3-32.1-75.1
		c2.2-6.1,7.4-9.1,13.4-9.7c8.1-0.8,22.4-2.6,45-16.9c0,0,146.2-95.1,246.8-48.4c0.1,0,0.1,0.1,0.2,0.2C543.3,46.2,583,107,551,172
		C550.9,172.1,538.5,167.4,538.3,167.3z"/>
	<g>
		<path class="st3" d="M368.1,177.4c0-1.5-1.5-2.6-2.9-2.2c-13.2,3.6-20.2,6.8-20.2,6.8c-40.1,17.4-59.8,22.2-69.2,23.1
			c-3.2,0.3-4,4.6-1.1,6.1c19.2,9.8,60.2-8.3,62.3-9.2c0.1,0,0.1,0,0.2-0.1c10.1-3.6,20.2-6.5,30.4-8.8c1.2-0.3,2-1.5,1.8-2.7
			C368.3,186.1,368.1,181.3,368.1,177.4z"/>
		<path class="st3" d="M473.9,169.2c-1.8,5.1-2.3,10.9-2.4,15.5c0,1.2,0.9,2.2,2.1,2.3c31.6,2.7,54.6,8.4,60.3,9.9
			c0.9,0.2,1.8-0.1,2.4-0.8c4.1-5,7.3-10.1,9-13.1c0.8-1.3,0.1-3-1.4-3.4c-24.6-6.3-47.2-10.1-67.6-12
			C475.2,167.6,474.2,168.2,473.9,169.2z"/>
		<path class="st3" d="M460.9,166.6c-33.4-1.8-60.3,1.1-79.7,4.9c-1,0.2-1.8,1.1-1.9,2.2c-0.3,4.9,0,10.3,0.4,14.5
			c0.1,1.3,1.4,2.3,2.7,2.1c27.1-4.6,53.5-5.3,76.5-4.2c1.3,0.1,2.4-1,2.4-2.3c0-5.5,0.8-10.5,1.7-14.3
			C463.3,168,462.3,166.6,460.9,166.6z"/>
	</g>
</g>
</svg>
