<?xml version="1.0" encoding="utf-8"?>
<!-- Generator: Adobe Illustrator 27.4.0, SVG Export Plug-In . SVG Version: 6.00 Build 0)  -->
<svg version="1.1" xmlns="http://www.w3.org/2000/svg" xmlns:xlink="http://www.w3.org/1999/xlink" x="0px" y="0px"
	 viewBox="0 0 566.9 283.5" style="enable-background:new 0 0 566.9 283.5;" xml:space="preserve">
<style type="text/css">
	.st0{fill:#99D0F1;}
	.st1{fill:#EAB257;}
	.st2{fill:#AA541A;}
</style>
<g id="Layer_5">
	<path d="M540.4,79.6c-2.8-7.3-8.4-13.1-15.5-16.4C490.3,47.4,378,5,265.8,59.5c0,0-57.1,24.2-90,31.7c0,0-57.7,18-110.9-15.7
		c0,0-35.2-16.5-51.7,12.7c0,0-17.2,36,29.2,71.2c0,0,58.4,52.1,241.1,32.7c0,0,126.1-9,192,65.5c4.7,5.3,12.6,6.4,18.5,2.4
		C520.4,241.8,582.2,186.1,540.4,79.6z"/>
	<path class="st0" d="M520.7,236.7C444.1,120.3,290,161,290,161C235,175.6,166.2,182,166.2,182l0,0c-58.5-3.8-89.5-16.9-89.5-16.9
		C13,134.5,24.6,97.6,24.6,97.6c7.1-26,39.2-9.9,39.2-9.9c45,25.9,94.4,18.9,94.4,18.9C198.3,101.8,275,67.2,275,67.2
		c142.5-59.5,269,22.3,269,22.3S579.7,171.8,520.7,236.7z"/>
	<path class="st1" d="M222.8,182.6c19.9-2.6,50-7.4,77.9-15.2c0,0,139.7-30.9,213,76.4c0,0-8.6,9.4-19.7,16.2
		c0,0-58.9-91.7-203.9-78.3c0,0-39.9,4.7-66.9,5.3C220.4,187,220.1,182.9,222.8,182.6z"/>
	<path d="M306.9,163.2c0,0,3.7,9.7,0,21.7h7.9c0,0,4.2-15.4,0-24.5L306.9,163.2z"/>
	<path d="M390.1,163.2c0,0,2.2,17.9-8.8,31.3l9,3.5c0,0,9.2-11.2,8.1-34.8H390.1z"/>
	<path d="M475,198c0,0-0.5,21.9-15,30.6l7.5,8.2c0,0,12.6-11.2,15.5-30.1L475,198z"/>
</g>
<g id="Layer_4">
	<g>
		<path class="st2" d="M447.4,109.6c-15.8-9.7-80.6-48.1-48.2-1.4c0.7,1,1.2,2,1.5,3c2.3,8.6,15.6,50.5,53.8,15.1
			c1.1-1,0.4-3.1-1.4-4.6c-2.6-2.2-5.3-5.4-3.7-8.4C449.9,112.3,449.1,110.6,447.4,109.6z"/>
		<path class="st2" d="M461.1,129.4c-3,11.8-13.2,61,29.6,45.2c0.9-0.3,2-0.5,3.2-0.4c10.3,0.6,58.9,1.2-14.4-46.1
			c-2.1-1.4-4.5-1.4-5.4-0.2c-1.3,1.7-3.9,3.3-9.1,0.8C463.2,127.9,461.4,128.1,461.1,129.4z"/>
		<path class="st2" d="M468.6,109.5c6.5-9.8,31.1-50.9-16.6-46.8c-1,0.1-2.2,0-3.4-0.4c-10.2-2.9-59-14.8,1,44.1
			c1.7,1.7,4.1,2.3,5.4,1.4c1.8-1.2,4.9-2,9.4,1.4C466.1,110.3,467.9,110.5,468.6,109.5z"/>
		<path class="st2" d="M481.9,116.1c0,0-10.1-0.2-7.6,3.4c0,0,1.6,2.7,8.2,2.4c0.2,0,0.4,0,0.7,0c3.4,0.2,31.4,2.5,53.3,11
			c1.6,0.6,3.5,0.7,4.5,0.1c2.8-1.7,6.9-5.4-1-10c-0.7-0.4-1.5-0.7-2.4-0.9C530.9,121.1,498.7,115.9,481.9,116.1z"/>
		<ellipse transform="matrix(0.5333 -0.846 0.846 0.5333 115.7585 446.4459)" class="st2" cx="462.5" cy="118.3" rx="4.3" ry="7"/>
	</g>
	<g>
		<path class="st2" d="M279.4,109.1c12.5-3.1,63.4-14.9,29.6,11.1c-0.7,0.6-1.3,1.2-1.8,1.9c-4,5.7-24.8,33-37.1-2.5
			c-0.4-1,0.7-2.3,2.2-3c2.2-0.9,4.8-2.6,4.8-5.2C277.1,110.5,278.1,109.5,279.4,109.1z"/>
		<path class="st2" d="M265.1,120.2c-1.8,9.4-10.6,48-31.6,25.6c-0.5-0.5-1.1-0.9-1.8-1.1c-6.4-2.2-36-13.9,22.7-30.1
			c1.7-0.5,3.1,0.1,3.3,1.2c0.3,1.6,1.4,3.4,5.2,2.9C264.3,118.6,265.3,119.2,265.1,120.2z"/>
		<path class="st2" d="M266.7,103.7c-0.9-8.8-3.3-45.1,24.3-30c0.6,0.3,1.3,0.5,2.2,0.6c7.1,0.4,40.2,4.1-14,32
			c-1.6,0.8-3.2,0.6-3.7-0.3c-0.7-1.4-2.4-2.7-6.1-1.4C268,105,266.8,104.7,266.7,103.7z"/>
		<path class="st2" d="M256.6,105.3c0,0,6.1,2.4,3.6,4.4c0,0-1.8,1.6-5.7-0.3c-0.1-0.1-0.3-0.1-0.4-0.2c-2.1-0.7-19.8-6.1-35.6-5.4
			c-1.2,0.1-2.3-0.4-2.8-1.1c-1.2-1.9-2.5-5.7,3.6-7.1c0.5-0.1,1.1-0.1,1.7,0C225.5,96.6,246.5,100.9,256.6,105.3z"/>
		
			<ellipse transform="matrix(0.9282 -0.372 0.372 0.9282 -22.3657 107.5947)" class="st2" cx="267.7" cy="111.8" rx="4.9" ry="3.1"/>
	</g>
</g>
</svg>
