<?xml version="1.0" encoding="utf-8"?>
<!-- Generator: Adobe Illustrator 27.6.1, SVG Export Plug-In . SVG Version: 6.00 Build 0)  -->
<svg version="1.1" xmlns="http://www.w3.org/2000/svg" xmlns:xlink="http://www.w3.org/1999/xlink" x="0px" y="0px"
	 viewBox="0 0 566.9 283.5" style="enable-background:new 0 0 566.9 283.5;" xml:space="preserve">
<style type="text/css">
	.st0{fill:#7AC7E2;}
	.st1{fill:#61848D;}
	.st2{fill:#FF8500;}
</style>
<g id="Layer_5">
	<path d="M540.4,79.6c-2.8-7.3-8.4-13.1-15.5-16.4C490.3,47.4,378,5,265.8,59.5c0,0-57.1,24.2-90,31.7c0,0-57.7,18-110.9-15.7
		c0,0-35.2-16.5-51.7,12.7c0,0-17.2,36,29.2,71.2c0,0,58.4,52.1,241.1,32.7c0,0,126.1-9,192,65.5c4.7,5.3,12.6,6.4,18.5,2.4
		C520.4,241.8,582.2,186.1,540.4,79.6z"/>
	<path class="st0" d="M520.7,236.7C444.1,120.3,290,161,290,161C235,175.6,166.2,182,166.2,182l0,0c-58.5-3.8-89.5-16.9-89.5-16.9
		C13,134.5,24.6,97.6,24.6,97.6c7.1-26,39.2-9.9,39.2-9.9c45,25.9,94.4,18.9,94.4,18.9C198.3,101.8,275,67.2,275,67.2
		c142.5-59.5,269,22.3,269,22.3S579.7,171.8,520.7,236.7z"/>
	<path class="st1" d="M222.8,182.6c19.9-2.6,50-7.4,77.9-15.2c0,0,139.7-30.9,213,76.4c0,0-8.6,9.4-19.7,16.2
		c0,0-58.9-91.7-203.9-78.3c0,0-39.9,4.7-66.9,5.3C220.4,187,220.1,182.9,222.8,182.6z"/>
	<path class="st2" d="M323.5,51.9c0,0-6.4,1.1-16.6,4.1c0,0-5.5,6.7-21.2,12.1c0,0-28.7,9.1-20.7,28.9c0,0,6.4,12.8,22.2,13.4
		c0,0,10.3-2,13.9,5.4c0,0,4,7.8,18.3,7.8c0,0,25,0.1,28.2-35.9c0,0,4.1-31-1.5-39.9l-11.6,1.8c0,0-4.3,4.5-5.2,12.5
		c0,0-1.3,9.6-5.4,8.6C323.9,70.8,317.1,70.3,323.5,51.9z"/>
	<path class="st2" d="M386.7,45.5c0,0,1.6,6-16.2,0c0,0-6.8,0.6-12.1,1.1c0,0-3.4,8,8.8,17.5c0,0,20.1,21.5,23.4,44.2
		c0,0,1.7,17.7,27.7,7.6c0,0,13.6-5.9,15.7-24.1c0,0,0.4-6.1,8.7-5.9c0,0,14.1,3.9,16.1-11c0,0-1.1-7.3,2.9-9.9c0,0,5.4-2.5,6.3-7.5
		C468,57.4,428.2,44.2,386.7,45.5z"/>
</g>
<g id="Layer_4">
</g>
</svg>
