<?xml version="1.0" encoding="utf-8"?>
<!-- Generator: Adobe Illustrator 27.6.1, SVG Export Plug-In . SVG Version: 6.00 Build 0)  -->
<svg version="1.1" xmlns="http://www.w3.org/2000/svg" xmlns:xlink="http://www.w3.org/1999/xlink" x="0px" y="0px"
	 viewBox="0 0 566.9 283.5" style="enable-background:new 0 0 566.9 283.5;" xml:space="preserve">
<style type="text/css">
	.st0{display:none;}
	.st1{fill:#EED87D;}
	.st2{fill:#5E63AD;}
</style>
<g id="Layer_1" class="st0">
	
		<image style="display:inline;overflow:visible;opacity:0.54;" width="500" height="375" xlink:href="../../Reference/1902887.jpg"  transform="matrix(2.3379 -3.4536 3.4536 2.3379 -483 422.8059)">
	</image>
</g>
<g id="Layer_2">
	<path d="M287.6,67.8c-0.1,0-0.1-0.3-0.2-0.4c-1.3-2.5-18.9-35.2-56.1-25.7c-3.2,0.8-6.5,0.1-9.2-1.7c-7.3-5-24.3-12-47.7,7.8
		c-2.8,2.4-6.7,3.1-10.3,2c-7.2-2.2-20.2-3.6-32.3,8.9c-2.6,2.6-6.3,3.8-9.9,3.2c-6.2-1.1-16.5-0.2-26.5,12.9
		c-2.2,2.9-5.8,4.6-9.5,4.4c-6.8-0.4-17.6,1.2-22.6,13.8c-1.8,4.7-6.6,7.5-11.6,7c-13.1-1.5-36.1-1-44.2,19
		c-0.3,0.7-0.5,1.4-0.6,2.2c-0.7,4.4-1.2,18,18,25.6c0.7,0.3,1.5,0.5,2.3,0.6c4.8,0.7,22.8,2.7,35.5-5.6c3.3-2.2,7.4-2.3,10.9-0.4
		c3.7,2,9.8,3.5,19.2,1c2.5-0.7,5.2-0.3,7.6,0.8c4.6,2.3,12.9,5.5,19.5,2.8c4.3-1.8,9.2-0.5,12.3,2.9c5.6,6.1,14.3,13,23.6,10
		c4.3-1.4,8.9,0.3,11.6,3.9c4.4,5.8,11.9,12.5,22.8,11.6c3.3-0.3,6.5,1,8.7,3.5c6.3,7.2,19.7,20.2,31.8,16c0,0,1.6-0.3,3.7-1.4
		c8.3-4.3,18-4.9,26.7-1.5c20.1,8,46.2,25.9,95.2,45.4c0,0,87,41.9,162.3,20c5.3-1.5,9.9-4.8,13.1-9.2c15.3-21,55.4-87.9,1.1-152.2
		c-4.2-5-10.8-7.4-17.2-6.4c-29.5,4.6-118.6,15.5-179.7-7.4C335.8,81.1,309,68,287.6,67.8z"/>
</g>
<g id="Layer_3">
	<path class="st1" d="M270.3,68.6c-11.9,4.9-41.3,19.9-50.5,52.2c0,0.2-0.1,0.3-0.1,0.5c-0.6,2.9-5.6,31.2,6.6,55.9
		c1.8,3.7-1.7,7.9-5.6,6.5c-8-2.8-18.6-11.1-23.1-34.9c0,0-6.6-38.2,18-77.7c0,0,10.7-16,32.4-19.5c0.3-0.1,0.7-0.1,1-0.1
		c2.8,0.1,15.7,1.2,23,9.8C274.1,63.7,273.2,67.4,270.3,68.6z"/>
	<path class="st1" d="M188.7,160.4c-2.8-11.9-13.4-67.6,25.8-105.7c2.3-2.2,1.7-6.1-1.2-7.5c-6.9-3.3-19.3-5.7-31.5,9.6
		c0,0-29.8,37-16.7,86.6c0.1,0.3,0.2,0.6,0.3,0.9c1.7,3.5,13.2,26.6,21.4,21.1C188.5,164.2,189.1,162.2,188.7,160.4z"/>
	<path class="st1" d="M154.2,142.8c-3.1-13-9.4-48.8,7.1-78.3c1.7-3.1-0.4-6.9-3.9-7c-9.9-0.3-26.5,4.2-30.1,36.9c0,0.2,0,0.3,0,0.5
		c-0.1,3.8-0.6,52.5,22.1,53.6C152.5,148.7,154.9,145.8,154.2,142.8z"/>
	<path class="st1" d="M123.1,74.9c-3,9.5-7.6,30.7-0.9,58.6c0.6,2.6-1.2,5.3-4,5.6c-6.1,0.7-16.1-1.4-20.3-20.7
		c0,0-5.2-20.5,3.9-39.2c0.1-0.2,0.2-0.4,0.3-0.6c1.1-1.6,6.4-8.7,16.2-9.6C121.7,68.8,124.1,71.9,123.1,74.9z"/>
	<path class="st1" d="M88.3,93.9c-1.7,6.4-3.8,20.2,4,36.5c1.6,3.3-0.7,6.9-4,6.4c-5.8-0.9-13.3-4-16.9-13.3c0,0-6.8-14.3-3.3-27.5
		c0.1-0.2,0.1-0.5,0.2-0.7c0.9-2,5.8-11.4,17-7.4C87.6,88.9,88.9,91.6,88.3,93.9z"/>
	<path class="st1" d="M59.2,113.5c0.4,3.4,1.2,9.2,2.6,14c0.6,2-0.2,4.2-2.1,5.3c-5.5,3.3-17.4,8.9-29.8,5.6c0,0-12.4-0.5-14.6-12.8
		c0,0-0.4-11.6,14.4-14.8c0,0,11.9-5,26-1.3C57.7,110,59,111.6,59.2,113.5z"/>
	<path class="st2" d="M536.6,99.6c-5.8,1.2-112.6,27.4-202.3-7.1c-2.6-1.6-42.3-18.4-59.8-11.9c0,0-61.9,24.2-37.7,87.5
		c2.1,5.6,7.3,8.4,13.2,8.9c8,0.7,22.1,2.4,44.4,15.6c0,0,144.5,87.5,243.8,44.6c0.1,0,0.1-0.1,0.2-0.1c2-2.9,53.5-72.5-1.5-137.2
		C536.9,99.6,536.8,99.6,536.6,99.6z"/>
</g>
</svg>
