<?xml version="1.0" encoding="utf-8"?>
<!-- Generator: Adobe Illustrator 27.4.0, SVG Export Plug-In . SVG Version: 6.00 Build 0)  -->
<svg version="1.1" xmlns="http://www.w3.org/2000/svg" xmlns:xlink="http://www.w3.org/1999/xlink" x="0px" y="0px"
	 viewBox="0 0 566.9 283.5" style="enable-background:new 0 0 566.9 283.5;" xml:space="preserve">
<style type="text/css">
	.st0{display:none;}
	.st1{fill:#967056;}
	.st2{fill:#BF8AE2;}
	.st3{fill:#FF9FD4;}
</style>
<g id="Layer_1" class="st0">
	
		<image style="display:inline;overflow:visible;opacity:0.45;" width="253" height="142" xlink:href="../snake_tail5.png"  transform="matrix(2.3123 0 0 2.0845 0 -12)">
	</image>
</g>
<g id="Layer_2">
	<path d="M541.9,69.1c-2.1-5.6-6.1-10.1-11.1-12.8c-33.3-17.5-168.7-81.2-303.2-41.5c0,0-189,55.3-209,232.8c0,0-3,26.6,19,31.9
		c0,0,12,3.2,31-12.8c0,0,85.9-95.1,215-93.3c0,0,123.9,1.7,192.5,81.3c6,7,16.1,7.7,23,1.8C525.8,233.6,580.1,171.6,541.9,69.1z"/>
</g>
<g id="Layer_3">
	<path class="st1" d="M545.9,81.8c0,0-131.4-84-283.4-58.9c0,0-188.5,34-225,205.3c0,0-6,26.2,2,32.5c0,0,3,5.2,23-14.7
		c0,0,76-71.2,162-82.8c0,0,159.3-35.1,273.6,89.3C498.1,252.6,585,202.6,545.9,81.8z"/>
</g>
<g id="Layer_4">
	<path class="st2" d="M97.3,113.3c0,0,67.1-79.1,186.1-93.1c0,0,41,57.2-35,101.2C248.5,121.4,170.2,161.9,97.3,113.3z"/>
	<path class="st3" d="M275.6,21.3c0,0-96.5,9.5-172.3,85.7c0,0,57.2,37.4,125.2,10.2C228.5,117.2,304.7,86.7,275.6,21.3z"/>
	<path class="st2" d="M503.4,59.7c0,0-69.7-33.9-151.8-40.1c0,0-7.1,39.5,62.4,59.1C414,78.7,472.4,90.2,503.4,59.7z"/>
	<path class="st3" d="M368.2,21.3c0,0,1.1,38.6,59.2,49.5c0,0,42,3.2,61.5-17.6C489,53.1,430.9,28,368.2,21.3z"/>
	<path class="st2" d="M319.6,161.3c0,0,100.2,7.7,179.6,93.4c0,0,60.7-46.4,56.5-122.3C555.7,132.4,442.6,50.4,319.6,161.3z"/>
	<path class="st3" d="M555.7,148.2c0,0-102.7-72.4-210,18c0,0,87.1,17.5,154.4,89.5C500.1,255.7,553.8,215.9,555.7,148.2z"/>
</g>
</svg>
