<?xml version="1.0" encoding="utf-8"?>
<!-- Generator: Adobe Illustrator 27.6.1, SVG Export Plug-In . SVG Version: 6.00 Build 0)  -->
<svg version="1.1" xmlns="http://www.w3.org/2000/svg" xmlns:xlink="http://www.w3.org/1999/xlink" x="0px" y="0px"
	 viewBox="0 0 566.9 566.9" style="enable-background:new 0 0 566.9 566.9;" xml:space="preserve">
<style type="text/css">
	.st0{display:none;}
	.st1{fill:#F17EA6;}
	.st2{fill:#FFFFFF;}
	.st3{fill:#E88080;}
	.st4{fill:#DA1E38;}
</style>
<g id="Layer_1" class="st0">
</g>
<g id="Layer_3">
	<path d="M32.6,440.7c20.2-16.5,84.1-71.9,84.9-113.2c0,0-10.6-68.8,6.7-115.9c0,0,3.3-12.1,3.3-18.1c0,0-32-43-11-80
		c0,0,12-16,35-15c0,0,27,0,44,13c0,0,39-18,74,1c0,0,5-30,33-33c0,0,24-6,43,26c0,0,8-31,38-31c0,0,24-1,41,43c0,0,10,21,2,42
		c0,0,73,18,109,72c0,0,19,30,0,52.5c0,0-24,36.5-71,50.5c0,0-59,21-134-1c0,0-8,12,5,28c0,0,18,19,18,32c0,0,1.8,32.5-40.1,47.2
		c0,0-41.5,20.2-97.2,2.5c0,0-30.8,57.8-92,95.2c-5.9,3.6-12.9,5.1-19.8,4.3c-25.1-3-83.5-17.5-78.7-88.6
		C26,448.9,28.5,444,32.6,440.7z"/>
	<path d="M268.5,68.5c0,0,0-32,21-35c0,0,16-9,26,16c0,0,1,6-3,4c0,0-12-10-23-7c0,0-12,3-20,24C269.5,70.5,268.5,71.5,268.5,68.5z"
		/>
	<path d="M365.5,64.5c0,0,1-28,24-31c0,0,22-3,26,24c0,0,0,3-2,3c0,0-2,0-3-2c0,0-9-14-19-14c0,0-12.6-1-22.3,20c0,0-0.7,2-1.7,3
		C367.5,67.5,365.5,69.5,365.5,64.5z"/>
	<path class="st1" d="M46.9,518.3c-4.7-4.4-25.4-23.1-21.5-61c0.1-0.6,0.4-1,0.9-1.3c6.9-3.1,56.7-27.4,97.8-102.9
		c0.1-0.1,0.1-0.2,0.1-0.3c0.5-1.8,5.1-18.6,3.2-41.2c0,0,0-0.1,0-0.1c-0.2-1.5-5.2-35.5,2.6-98.9c0.4-3.2,4.6-4.1,6.3-1.3
		c0,0,0.1,0.1,0.1,0.1c0,0.1,0.1,0.2,0.1,0.2c0.2,0.5,1.2,2.8,3,1.9c0,0,1.9-1,1.1-4.8c0-0.2-0.1-0.3-0.2-0.4
		c-2-3.4-28.6-50.8-20.9-76.8c0,0,4-18,30.9-22c0.1,0,0.1,0,0.2,0c1.6-0.1,29.6-1.4,52.9,18c0,0,1,1,1-1c0,0-0.8-3.9-3-8.2
		c-0.5-0.9,0-2,1.1-2.3c8-1.7,38-6.8,62.7,2c0.7,0.3,1.1,1,1,1.7c-1.4,8.1-6.8,52.8,31.2,82.7c0,0,0.1,0,0.1,0.1
		c1.4,1,38.6,26.5,56.5-23.7c0.3-0.8,1.1-1.2,1.9-1c6.9,1.9,38,12.8,56.6,59.7c0,0,1,3,3,1c0,0-0.9-20.7-26.6-50.3
		c-0.9-1-0.2-2.6,1.1-2.6c7.4-0.1,24.4-2.4,33.9-20c0.4-0.7,1.1-1,1.8-0.8c8.3,2.6,55.9,19,88.7,53.6c0,0,0.1,0.1,0.1,0.1
		c1.1,1.3,25.8,31.4,19,51c0,0-5,31-57,50c0,0-95,35-203-26c0,0,0,0-0.1,0c-1.8-1.2-74.2-47.5-91.6-139.1c-0.2-1,0.6-1.9,1.6-1.9
		c4.7,0.2,16.7,1.2,23,5.9c0,0,2.8,1.9,4.8-0.7c0.2-0.2,0.3-0.5,0.3-0.7c0.1-1.1,0.1-4-3.1-5.6c0,0-37.9-23.9-69.8,9.8
		c-0.1,0.1-0.2,0.3-0.3,0.5c-0.4,0.9-1.4,3.6,1.1,2.7c0,0,18.8-11.3,36.3-12c0.9,0,1.6,0.7,1.6,1.6c-0.1,3.1,0.1,10.8,3,23.9
		c0.1,0.3,0,0.6,0,0.8c-2,5.7-24.2,70.9-20.2,126.9c0,0,0,0.1,0,0.1c-0.1,2.2-1.3,65.8,19.2,86.5c0,0,0.1,0.1,0.1,0.2
		c1.1,1.6,19.7,25.7,73.9,19.9c0,0,33.9-4,58.9-28.9c0,0,0.1-0.1,0.1-0.1c0.2-0.2,0.6-1,0.2-2.3c-0.2-0.5-0.6-0.9-1.2-1
		c-0.5-0.1-1.2,0-2.1,0.4c0,0-13.6,9.6-24.3,13.8c-1.3,0.5-2.6-0.8-2-2.1c1.3-3,3.1-8.2,4.3-15.6c0-0.1,0-0.1,0-0.2
		c0.1-1.1,1.1-12.6,21.4-47.8c0.4-0.6,1.1-0.9,1.8-0.7c2.5,0.7,8.8,2.6,14.5,4.1c1,0.3,1.5,1.5,0.9,2.3c-3,4.5-8.5,17.6,7.3,38.2
		c0,0.1,0.1,0.1,0.1,0.1c1.1,1.1,15.5,16.6,3.9,33.9c0,0-14,29-57.4,34.2c0,0-42.6,6.8-71.6-6.2c0,0-4-2-5,0c0,0-0.8,2.4,1.8,4.3
		c0.6,0.5,0.8,1.4,0.4,2c-2.1,3.5-8.1,13.3-12.3,19c0,0-39.6,50.7-89,83C104.4,542.7,72.8,542.6,46.9,518.3z"/>
	<path class="st2" d="M345.5,132.5c0,0-2.8-30.5-29.9-45.7c0,0-16.8-10.6-31,9.1c0,0-24.1,35.7,4.9,80.7c0,0,17,28,32,24
		C321.5,200.5,353.5,190.5,345.5,132.5z M315.6,156.5c-7.9,7-15.1,0-15.1,0c-8-8,2-16,2-16c9-4,13.1,1.9,13.1,1.9
		C321.7,150.3,315.6,156.5,315.6,156.5z"/>
	<path class="st2" d="M411.5,114.5c0,0-11-33-29-32c0,0-17-3-34,28c0,0,14,21,9,58c0,0,12,4,22,12c0,0,21,4,34-15
		C413.5,165.5,426.5,145.5,411.5,114.5z M381.5,144.5c-10,2-12.6-5.4-12.6-5.4c-2.6-11.4,6.6-12.6,6.6-12.6c9-1,11,5,11,5
		C389.5,141.5,381.5,144.5,381.5,144.5z"/>
	<path class="st3" d="M174.5,353.5c0,0,7,58,71,49c0,0,28-42.7-7-66.4c0,0-12-5.6-20,2.4c0,0,14,14,12,48c0,0-2,2-3,0
		c0,0-0.4-26.5-12.2-41.8c0,0-9.8-13.2-23.8-8.2C191.5,336.5,182.5,339.5,174.5,353.5z"/>
	<circle class="st2" cx="308" cy="149" r="18"/>
	<circle class="st2" cx="378" cy="136" r="13"/>
	<path class="st4" d="M343.7,175.1c-1.6,1.3-2.9,2.3-3.8,3c-0.5,0.4-1,0.7-1.5,1.1l0,0c-0.7,0.5-1.6,0.6-2.4,0.3
		c-0.6-0.2-1.2-0.4-1.7-0.6c-6.4-2.5-12.5-5.6-18.2-9.2c-10-6.4-21.3-16.3-23.1-29.5c-1.7-12,6.9-22.2,17-23.6
		c7.9-1.1,14.9,2.2,19.7,8.2c3-7,8.8-12.2,16.7-13.3c10.1-1.4,21.1,6.1,22.8,18.1c1.8,13.2-6.3,25.8-14.2,34.7
		C351.5,168.1,347.7,171.8,343.7,175.1z"/>
	<path class="st4" d="M420.7,165.1c-1.6,1.3-2.9,2.3-3.8,3c-0.5,0.4-1,0.7-1.5,1.1l0,0c-0.7,0.5-1.6,0.6-2.4,0.3
		c-0.6-0.2-1.2-0.4-1.7-0.6c-6.4-2.5-12.5-5.6-18.2-9.2c-10-6.4-21.3-16.3-23.1-29.5c-1.7-12,6.9-22.2,17-23.6
		c7.9-1.1,14.9,2.2,19.7,8.2c3-7,8.8-12.2,16.7-13.3c10.1-1.4,21.1,6.1,22.8,18.1c1.8,13.2-6.3,25.8-14.2,34.7
		C428.5,158.1,424.7,161.8,420.7,165.1z"/>
</g>
</svg>
