<?xml version="1.0" encoding="utf-8"?>
<!-- Generator: Adobe Illustrator 27.6.1, SVG Export Plug-In . SVG Version: 6.00 Build 0)  -->
<svg version="1.1" xmlns="http://www.w3.org/2000/svg" xmlns:xlink="http://www.w3.org/1999/xlink" x="0px" y="0px"
	 viewBox="0 0 566.9 566.9" style="enable-background:new 0 0 566.9 566.9;" xml:space="preserve">
<style type="text/css">
	.st0{display:none;}
	.st1{fill:#F17EA6;}
	.st2{fill:#FFFFFF;}
	.st3{fill:#E94B87;}
	.st4{fill:#F9AAC8;}
	.st5{fill:#DA1E38;}
</style>
<g id="Layer_1" class="st0">
	
		<image style="display:inline;overflow:visible;opacity:0.31;" width="367" height="335" xlink:href="13819EDE451FD1D0.png"  transform="matrix(1.6006 0 0 1.6006 0 15)">
	</image>
</g>
<g id="Layer_2">
	<path d="M31.4,410.5c9.3-10,33.1-37.7,44-70.6c0.7-2,0.2-4.3-1.2-5.8c-8.8-9.6-39.5-47.1-32.7-98.6c0,0,9-67,104-91
		c0,0,15-27,49-38c0,0,5-65,55-68c0,0,41-6,60,50c0,0,21-6,38-23c0,0,4-3,4,3c0,0-4,13-17,23c0,0-3,2,6,2c0,0,65.5-1.9,108.7,6.2
		c2.6,0.5,6.2-2.4,8-4.3c4.1-4.5,12.2-12,19.3-9.8c0,0,12,2.6,13.8,18.9c0.3,2.8,1.9,5.4,4.3,7c4.3,2.8,11.6,7,21,10.2
		c0,0,26,8,26,40c0,0,9.5,49.5-32,135c0,0,9,31,2,58c0,0-3,8-11,3c0,0-10-9-20-22c0,0-5,6-12,12c0,0,9,44-11,71c0,0-13,9-18-8
		c0,0-9-40-24-35c0,0-39.2,34.8-109.1,44.4c0,0-55.2,5.3-108.7-10.7c-2.8-0.8-5.6,0.9-6.2,3.7c-2.9,14-12.6,54.4-37.3,107.8
		c-2.3,5-7.2,8.2-12.7,8.2C113,529,26.8,521.2,27.4,420.7C27.4,416.9,28.8,413.3,31.4,410.5z"/>
	<path class="st1" d="M145.6,229.7c12.4-7.1,61-32.6,123.7-36.9c2.5-0.2,4.4-2.2,4.4-4.7c0.1-16.8-4.4-75.2-70.2-73.6
		c-2.2,0.1-4.4,0.4-6.5,1c-14.6,4.4-69.6,26.6-55.2,112.5C142.2,229.6,144.1,230.5,145.6,229.7z"/>
	<path class="st1" d="M211.6,102.4c4.2-0.4,10.3-0.7,15.3,0.7c0,0,49.1-6.4,68.9-8.3c2.5-0.2,4.2-2.7,3.5-5.1
		c-3.7-12.5-16.6-45.2-49.8-45.2c0,0-36.4,2.1-42.4,53.3C206.8,100.5,208.9,102.7,211.6,102.4z"/>
	<path class="st2" d="M148.9,238.7c9-4.6,33.6-16.7,49.5-21.2c1.9-0.5,3.9,0.8,4,2.8c0.5,6.5,3.3,19.6,18,26.2c0,0,21,8,34.4-11.1
		c0.8-1.1-0.2-2.7-1.6-2.3c-4.1,1.1-10.4,1.3-14.8-5.6c0,0-5-10,6-18c0,0,2-1.8,9.7-0.3c0.8,0.2,1.7-0.4,1.7-1.3
		c0.1-0.5,0.1-1.1,0-1.7c-0.1-0.9,0.6-1.8,1.5-1.8c2.9-0.2,8.5-0.4,12.6-0.2c2,0.1,3.5,1.8,3.4,3.8c-0.8,9.7-4.9,38-27,57.6
		c0,0-24,25-61,14c0,0-26.5-9.1-38.4-35.3C146.1,242.2,146.9,239.8,148.9,238.7z"/>
	<path class="st1" d="M511.5,130.5c-11-3.4-21.9-8.7-27.7-11.7c-2.5-1.3-3.9-4-3.5-6.7c1.8-14.3-3-17-4.3-17.4
		c-0.2-0.1-0.4-0.1-0.6-0.1c-5.6-0.5-13.1,8.1-17.1,13.3c-1.8,2.3-4.6,3.4-7.5,3c-84.9-12.6-162.8-2.6-190.5,1.8
		c-3.6,0.6-4.7,5.3-1.7,7.4c37.9,27.8,30.1,83.5,30.1,83.5c-6.8,65.4-50.9,85.1-52.9,86c-0.1,0-0.1,0-0.2,0.1
		c-71.3,25.4-98.1-34.7-104.1-51.4c-0.6-1.7-2.9-2.1-4.1-0.7c-26.2,33.6-49.4,59.1-54.7,64.8c-0.7,0.7-0.8,1.8-0.4,2.7
		c4.8,9.1,12.4,19.8,17.1,26.1c2.6,3.5,3.2,8.1,1.7,12.2c-19.9,52.4-56.2,82-62.5,86.8c-0.6,0.5-0.9,1.2-0.9,1.9
		c2.7,92.8,91.8,96.7,104.8,96.8c0.9,0,1.8-0.6,2.2-1.4c28.9-67.2,39.5-108.9,43.1-126.8c1.1-5.3,6.5-8.6,11.7-7
		c67.3,19.9,117,12.8,145.5,4.2c5.1-1.5,4.1-9.1-1.3-9.1c-67.8-0.5-134.2-38.6-151.7-49.4c-3.1-1.9-7-1.9-10,0
		c-7.8,4.9-14.4,12.1-14.4,12.1c-4,3-6-1-6-1c-2.6-3.5-0.7-6.9-0.1-7.8c0.1-0.1,0.2-0.3,0.3-0.4c33-33.8,68.8-25.8,68.8-25.8
		c3.5,2.6-2.2,5.3-3.7,5.9c-0.2,0.1-0.4,0.1-0.7,0.2c-4.6,0.5-8.3,1.6-11,2.8c-2.8,1.2-3.3,5.1-0.9,6.9
		c73.3,55.6,166.2,40.3,166.2,40.3c69.4-7.8,102.5-49.1,103.9-50.9c0-0.1,0.1-0.1,0.1-0.1c51.9-55,56.9-129.9,56.9-129.9
		C536.5,138.5,511.5,130.5,511.5,130.5z M406.6,195.6c-7.9,8.1-15.1,0-15.1,0c-10.4-10.3-6.5-21.9-6-23.1c0-0.1,0-0.1,0.1-0.2
		c5-10.9,12-6.9,12-6.9c9,4,11,12,11,12C412.5,189.5,406.6,195.6,406.6,195.6z M413.5,163.5c0,0-2.9-1-4.9-5.8
		c-0.1-0.1-0.1-0.3-0.1-0.4c-0.4-1.7-3.8-14.7-16.8-13.8c-0.1,0-0.2,0-0.3,0c-1.9,0.3-22,4-24.9,24c0,0-2,9.9,3.9,17.9
		c0.1,0.1,0.1,0.1,0.2,0.2c0,0,0,0,0,0c1.7,1.9-0.6,4.7-2.9,3.6c-0.3-0.1-0.6-0.3-1-0.6c-0.2-0.1-0.3-0.2-0.4-0.4
		c-1.8-1.9-14.8-16.5-1.9-40.6c0.1-0.1,0.1-0.2,0.2-0.3c1.3-1.8,13.9-17.6,32.7-14.9c0.1,0,0.2,0,0.3,0.1
		c1.9,0.5,18.7,5.9,19.3,27.5c0,0.2,0,0.4,0,0.6C416.8,161.6,416,164.3,413.5,163.5z"/>
	<path class="st3" d="M397.1,175.3c0,0-4.3-1.8-5.8,3.5c0,0-1.3,5.2,5.8,11.4c0,0,5.6,3.1,5.6-3
		C402.7,187.2,403.5,178.8,397.1,175.3z"/>
	<path class="st2" d="M438.1,371c4.1-2.4,12.1-7.3,17.6-11.9c1.8-1.5,4.5-0.4,4.8,1.9c1.2,8.5,2,25.6-7.4,41.2
		c-1.3,2.2-4.6,1.8-5.4-0.7c-2.1-6.9-6-18.3-10.7-26.5C436.2,373.6,436.7,371.8,438.1,371z"/>
	<path class="st2" d="M489.9,326c1.4-1.5,5.6-6.5,9.5-12.5c0.5-0.8,1.6-0.6,2,0.2c1.7,4.3,5.1,15.5,3.4,30.7
		c-0.1,0.9-1.2,1.3-1.8,0.7c-3.1-2.9-10-9.8-13.2-18C489.6,326.7,489.7,326.3,489.9,326z"/>
	<g>
		<path d="M138.7,408.6c2.7,0.7,4.8,1.4,6.3,1.9c0.8,0.3,1.6,0.5,2.3,0.8l0,0c1.1,0.4,1.8,1.3,2,2.4c0.2,0.8,0.3,1.6,0.4,2.5
			c1.4,9.1,1.9,18.4,1.5,27.8c-0.7,16.3-4.8,36.7-19.4,49.1c-13.3,11.3-31.5,9.7-40.2-0.5c-6.8-8-7.7-18.5-3.8-28.6
			c-10.6,2.2-20.8-0.3-27.6-8.3c-8.7-10.2-7.3-28.5,5.9-39.8c14.6-12.5,35.4-13.2,51.6-11.3C124.9,405.4,131.9,406.7,138.7,408.6z"
			/>
		<path class="st4" d="M133.5,415.2c2.1,0.5,3.8,1,5,1.3c0.6,0.2,1.2,0.4,1.9,0.6l0,0c0.8,0.3,1.4,1,1.6,1.8
			c0.1,0.6,0.2,1.3,0.3,1.9c0.9,7.1,1,14.5,0.5,21.8c-1,12.9-4.8,29-16.8,39.2c-10.9,9.2-25.4,8.5-32,0.6
			c-5.2-6.2-5.6-14.4-2.3-22.4c-8.5,2-16.5,0.3-21.8-5.9c-6.6-7.8-5.1-22.2,5.8-31.5c12-10.2,28.6-11.3,41.4-10.3
			C122.6,413,128.1,413.9,133.5,415.2z"/>
	</g>
	<path class="st4" d="M68.1,290.7c9.2-9.9,36.9-40.3,56.6-68.4c1.4-2,2.3-4.4,2.4-6.9c0.4-9.9,2.1-37.1,8.5-51.9
		c0.7-1.6-0.9-3.3-2.5-2.7c-21.4,8.3-105.7,46.8-70,129.1C64,291.8,66.6,292.3,68.1,290.7z"/>
	<path class="st5" d="M260.2,258.1c-1.9,1.9-3.4,3.4-4.5,4.4c-0.6,0.5-1.2,1.1-1.8,1.6l0,0c-0.8,0.7-2,1-3,0.7
		c-0.8-0.2-1.6-0.4-2.3-0.6c-8.6-2.4-16.9-5.7-24.9-9.7c-13.9-7-29.7-18.4-33.8-35.4c-3.7-15.4,6.1-29.7,19-32.8
		c10.2-2.5,19.7,1,26.7,8.2c3-9.5,9.9-17,20.1-19.4c12.9-3.1,28.2,5.2,31.9,20.6c4.1,17-4.9,34.3-14,46.9
		C269.3,248.1,264.9,253.3,260.2,258.1z"/>
</g>
</svg>
