<?xml version="1.0" encoding="utf-8"?>
<!-- Generator: Adobe Illustrator 27.6.1, SVG Export Plug-In . SVG Version: 6.00 Build 0)  -->
<svg version="1.1" xmlns="http://www.w3.org/2000/svg" xmlns:xlink="http://www.w3.org/1999/xlink" x="0px" y="0px"
	 viewBox="0 0 566.9 566.9" style="enable-background:new 0 0 566.9 566.9;" xml:space="preserve">
<style type="text/css">
	.st0{display:none;}
	.st1{fill:#F17EA6;}
	.st2{fill:#FFFFFF;}
	.st3{fill:#C91242;}
	.st4{fill:#E24949;}
	.st5{fill:#DA1E38;}
	.st6{fill:#F9AAC8;}
</style>
<g id="Layer_1" class="st0">
</g>
<g id="Layer_2">
	<path d="M166,480c37.6-37,47.5-95.5,47.5-95.5c5-11,10-8,10-8c41,39,98,47,98,47c67.4,6.1,96.5-6.9,102.7-10.2
		c0.9-0.5,1.9-0.6,2.9-0.5c17.4,2.6,30-3.4,34.6-6.1c1.1-0.7,2.5-0.4,3.3,0.7c29.3,37,21.5,91.2,21.5,91.2c-1,8,0,7.9,1.3,8
		c0.4,0,0.8-0.1,1.1-0.4c8.9-7.6,13.2-19,14.8-24.1c0.3-1.1,1.7-1.4,2.5-0.5c10,11.3,21.9,14.9,25.3,15.7c0.6,0.2,1.3,0.2,2,0.1
		c6.7-1.2,4-4.8,4-4.8c-23-16-31-41-31-41c-6.8-29.9-23.2-48.1-27.8-52.8c-0.6-0.6-0.6-1.7,0.1-2.2c15.8-12.4,15.1-25.7,13.7-31.7
		c-0.4-1.6,0.9-3.1,2.5-3c17.5,0.3,32.5-10.2,32.5-10.2c31-23,27-57,27-57c-2-69-77-114-77-114c0-50-26-69-26-69c-2-47-52-53-52-53
		c-32-2-41,20-41,20c-63-14-98.8,11-98.8,11c-26.8-10-48.2,0-48.2,0c-37,16-37,50-37,50s-81,33-111,157c0,0-11.2,51.3-48.5,101.4
		c-2.6,3.5-3.3,8.1-1.9,12.2c8.6,24.8,45.1,105.8,148,72.9c0.9-0.3,1.8-0.7,2.6-1.3l1.2-0.8C165.3,480.6,165.7,480.3,166,480z"/>
	<path class="st1" d="M86.5,270.5c-30,97-45,112-45,112s-15.2,25-25.9,34.2c0,0,28.5,91.1,126.4,71.2
		c42.3-34.4,58.3-91.1,61.7-105.2c0.4-1.8-0.5-3.6-2.2-4.2c-29.7-10.2-25-42.1-25-42.1c1-9,4-4,4-4c0.8,31.7,19.5,37.6,26.4,38.7
		c1.5,0.2,3-0.3,3.9-1.5c9.2-11.4,14.7-3.2,14.7-3.2c32,30,80,44.1,80,44.1c60.7,12.6,93.1,0.7,102.3-3.7c1.2-0.6,1.4-2.3,0.2-3.1
		c-5.1-3.5-9-7-10.7-8.6c-0.6-0.6-1.1-1.4-1.3-2.3c-0.8-4.2,3.7-3.8,6.4-3.1c1.2,0.3,2.3,0.9,3.3,1.8c21.8,20,45.4,12.1,52.4,9
		c0.5-0.2,0.6-0.8,0.2-1.2c-7.2-7.3-7.5-7.6-9.9-8.9c-1.2-0.6-2.5-0.8-3.8-0.5c-16.4,4.1-23.4-1.9-27-4.7c-0.8-0.6-1.9-0.9-2.9-0.8
		c-28.3,2.9-51.2-3.1-51.2-3.1c-46.6-14.7-68.7-54-73.8-64.4c-0.8-1.5-2.2-2.5-3.9-2.7c-4.6-0.5-8.7-1.9-10.4-2.5
		c-0.6-0.2-1.1-0.6-1.4-1.1c-1.8-2.6-1.6-4.3-0.8-5.5c0.9-1.2,2.5-1.7,3.9-1.3c20.1,5.3,28.4-4.5,30.1-6.9c0.3-0.4,0.7-0.8,1.2-1.1
		c2.4-1.5,3.8-0.1,4.5,1.3c0.6,1.3,0.6,2.9,0.2,4.3c-2,6-7.7,9.4-11,11c-1.4,0.6-2,2.3-1.4,3.7c25.8,61.3,90.9,61.3,90.9,61.3
		c45,5,73-36,73-36c7-8,13,0,13,0c20,20,42,6,42,6c37-25,25-71,25-71c-16-56-70-86-70-86c-7,19-25,22-25,22c-35,4-55-47-55-47
		c-14-53,16-66,16-66c18-7,30,2,30,2c-7-21-27.4-29.9-27.4-29.9c-17.4-10.9-36.6,1-36.6,1c-25,21.1-3,58.9-3,58.9c3,6,3,10,3,10
		c-2,5-7-2-7-2c-19-23-14-49-14-49c-59-15-85,9-85,9c6,8,7,23,7,23c-3,8-7-3-7-3c-8-20-31-23-31-23c-36-5-52,30-52,30
		c-10,39,10,59.7,10,59.7c8,9.7,0,11.3,0,11.3S174,182.6,175,156.8C175,156.8,114,191,86.5,270.5z M190.3,399.7
		c1.2-0.3,2.2,0.7,1.4,1.4c-5.9,5.1-20.2,14.6-33.4-0.7c-0.9-1.1,0.8-2.3,2.3-1.7C166.3,401.3,176.1,403.4,190.3,399.7z
		 M271.6,249.2c-12.9-8.2-33.4-18.3-56.1-17.7c0,0-21.8-0.8-44.4,11.4c-0.9,0.5-1.8-0.8-1-1.4c8.9-7,26.5-17.6,51.3-16.9
		c0,0,26,0,51.8,22.4C274.6,248.1,273.1,250.2,271.6,249.2z M311.5,253.5c-42,0-58-55-58-55c-11-47,20.3-61.1,20.3-61.1
		c25.3-8.1,42.7,10.1,42.7,10.1c22,20,26,60,26,60C346.5,248.5,311.5,253.5,311.5,253.5z M447.5,314.5c0,0-9,0-10-6c0,0,0-4,4-2
		c0,0,4,4,8,0c0,0,3-4-1-7c0,0-3.5-1.7-8-0.4c-0.8,0.2-1.6,0-2.1-0.6c-1.1-1.2-2.2-3.3,0.9-5.9c0.2-0.1,0.3-0.2,0.5-0.3
		c2-0.6,13.1-3.7,16.7,8.1C456.5,300.5,459.5,313.5,447.5,314.5z M483.5,293.5c-2,8-11,7-11,7c-6,0-6-4-6-4c1-5,5.5-2.8,5.5-2.8
		c4.5,0.2,4.5-3.2,4.5-3.2c0-4-5-3-5-3c-4,0-4-3-4-3c0-3,4-3,4-3C486.5,281.5,483.5,293.5,483.5,293.5z"/>
	<path class="st1" d="M467.5,350.5c0,0-1.5,2.2-3.8,4.1c-0.6,0.5-0.7,1.4-0.3,2c1.9,2.7,6.8,13.4-0.2,24.5c-0.4,0.6-0.3,1.4,0.3,1.8
		c1.5,1.1,4.3,3.5,6.4,6.6c0.4,0.5,1.1,0.7,1.7,0.4c4.3-2.2,19.4-11.5,12.7-30.3c-0.3-0.9-1-1.6-1.8-2c-1.9-0.8-6.8-5.6-10.2-7.9
		c-1.4-0.9-3.2-0.9-4.4,0.3C467.8,350.2,467.6,350.4,467.5,350.5z"/>
	<path class="st2" d="M333.5,225.3c-1.2,10.3-8.6,14.4-8.6,14.4c-12.5,10.6-29.4,1.9-29.4,1.9c-24.6-16.4-32.4-46.2-32.4-46.2
		c-5.2-25.6,4.4-39.7,7.2-43.2c0.4-0.5,1-1,1.5-1.4c13.7-12,25.5-5.2,32-1.2C303.8,149.5,339.7,172.9,333.5,225.3z"/>
	<path class="st2" d="M469.3,175.8c-3.8,30.2-28.2,25.1-28.2,25.1c-20.1-1.9-35.4-29.3-35.4-29.3c-15.3-31.2,0-55.1,0-55.1
		c10.3-10,20.7-9.2,26.8-7.2C432.6,109.2,475.1,130.2,469.3,175.8z"/>
	<path class="st3" d="M435.6,375.6c1.4-0.7,3.3-1.7,4.5-2.7c0.3-0.2,0.7-0.3,1-0.1c5.2,2.6,43.5,23.3,58.4,70.7c0,0,6,27.2,25,43.2
		c0.7,0.6,0,1.8-0.9,1.4c-4.4-2.1-10.9-5.8-17.4-11.9c-1.8-1.6-4.6-1-5.5,1.3c-1.7,4.8-4.6,11.9-8,17.1c-0.4,0.6-1.2,0.3-1.2-0.4
		c0.3-7.9,0.7-35.2-5.6-54.3c0,0-12-45.8-50.4-62.6C434.8,377,434.8,375.9,435.6,375.6z"/>
	<path class="st4" d="M422.5,382.1c1.7-0.6,5-2,6.7-3.3c0.2-0.2,0.5-0.2,0.7-0.1c1.8,0.8,9.2,4.3,12.6,7c0.4,0.3,0.3,1-0.3,1.2
		c-3.5,0.7-13.3,2.1-19.9-3.5C421.9,382.9,422,382.3,422.5,382.1z"/>
	<path class="st4" d="M445.1,369.5c2.8-1.8,8.8-5.9,12.6-10.1c0.4-0.5,1.1-0.4,1.5,0.1c1.9,2.7,6.4,10.6-0.2,19.4
		c-0.3,0.4-0.9,0.5-1.3,0.2c-2.2-1.5-8.6-6-12.5-7.8C444.5,370.8,444.5,369.9,445.1,369.5z"/>
	<g>
		<path d="M271,142.2c0,0-9.7-10.5-23.4-16.9c-2.6-1.2-4.9,2-2.7,3.7c6.1,4.7,12.6,9.5,21.8,18.5L271,142.2z"/>
		<path d="M263,151.2c0,0-9.7-10.5-23.4-16.9c-2.6-1.2-4.9,2-2.7,3.7c6.1,4.7,12.6,9.5,21.8,18.5L263,151.2z"/>
		<path d="M256,162.2c0,0-9.7-10.5-23.4-16.9c-2.6-1.2-4.9,2-2.7,3.7c6.1,4.7,14.6,10.5,23.8,19.5L256,162.2z"/>
	</g>
	<g>
		<path d="M420,99.2c0,0,1.2-15.9,8.5-30.5c0.8-1.5,3.8-0.6,3.4,1.1c-1.8,7.6-6,19.2-6.3,31.1L420,99.2z"/>
		<path d="M431,102.2c0,0,1.2-15.9,8.5-30.5c0.8-1.5,3.8-0.6,3.4,1.1c-1.8,7.6-6,19.2-6.3,31.1L431,102.2z"/>
		<path d="M442,106.2c0,0,1.2-15.9,8.5-30.5c0.8-1.5,3.8-0.6,3.4,1.1c-1.8,7.6-6,19.2-6.3,31.1L442,106.2z"/>
	</g>
	<path class="st5" d="M339.7,232.6c-1.7,1.7-3.1,3.1-4.1,4c-0.5,0.5-1.1,1-1.6,1.5l0,0c-0.8,0.7-1.8,0.9-2.8,0.7
		c-0.7-0.2-1.4-0.4-2.1-0.6c-7.8-2.2-15.3-5.2-22.6-8.8c-12.6-6.4-27-16.7-30.7-32.1c-3.4-13.9,5.6-26.9,17.3-29.8
		c9.2-2.2,17.9,0.9,24.2,7.4c2.7-8.6,8.9-15.4,18.2-17.6c11.7-2.8,25.6,4.7,28.9,18.6c3.7,15.4-4.4,31.1-12.7,42.5
		C348.1,223.5,344.1,228.2,339.7,232.6z"/>
	<path class="st5" d="M476.7,191.6c-1.7,1.7-3.1,3.1-4.1,4c-0.5,0.5-1.1,1-1.6,1.5l0,0c-0.8,0.7-1.8,0.9-2.8,0.7
		c-0.7-0.2-1.4-0.4-2.1-0.6c-7.8-2.2-15.3-5.2-22.6-8.8c-12.6-6.4-27-16.7-30.7-32.1c-3.4-13.9,5.6-26.9,17.3-29.8
		c9.2-2.2,17.9,0.9,24.2,7.4c2.7-8.6,8.9-15.4,18.2-17.6c11.7-2.8,25.6,4.7,28.9,18.6c3.7,15.4-4.4,31.1-12.7,42.5
		C485.1,182.5,481.1,187.2,476.7,191.6z"/>
	<g>
		<path d="M149.5,245.2c2.7-0.1,4.8-0.2,6.4-0.2c0.8,0,1.6,0,2.4,0l0,0c1.1,0,1.9,0.7,2.3,1.7c0.2,0.8,0.5,1.5,0.7,2.3
			c2.4,8.5,3.9,17.5,4.5,26.8c1.1,16.2-0.7,37.6-13.7,54.5c-11.8,15.3-29.8,19.5-39.4,12.3c-7.6-5.7-12.1-12.8-9.4-23.9
			c-10.1,5.5-17.8,3.4-25.4-2.4c-9.6-7.3-10.3-25.6,1.5-40.9c13-16.9,33.3-24.2,49.3-27.5C135.7,246.4,142.6,245.5,149.5,245.2z"/>
		<path class="st6" d="M146,254.9c2.1-0.1,3.8-0.2,5-0.2c0.6,0,1.2,0,1.9,0l0,0c0.8,0,1.5,0.5,1.7,1.3c0.2,0.6,0.3,1.2,0.4,1.8
			c1.5,6.7,2.3,13.8,2.4,21.2c0.1,12.9-2.1,29.8-13,43.4c-9.9,12.3-24.1,15.8-31.3,10.1c-5.7-4.5-8.9-10.1-6.3-18.9
			c-8.1,4.5-14.1,2.8-19.8-1.7c-7.2-5.7-7-20.3,2.9-32.5c10.9-13.5,27-19.5,39.7-22.2C135.1,255.9,140.6,255.2,146,254.9z"/>
	</g>
	<g>
		<path d="M142.3,470.9c-0.9,1.7-1.7,3-2.3,4c-0.3,0.5-0.6,1-0.9,1.5l0,0c-0.4,0.7-1.2,1-2,1c-0.6,0-1.2-0.1-1.7-0.1
			c-6.4-0.5-12.8-1.6-19.1-3.4c-10.9-3.1-24.1-9.1-30.3-21c-5.6-10.8-1.6-22.9,6.7-27.2c6.6-3.4,13.8-2.3,20,2
			c0.2-7.5,3.5-14.1,10.1-17.4c8.3-4.3,20.5-0.5,26.1,10.4c6.1,11.9,3.3,26.2-0.5,36.9C146.7,462,144.7,466.5,142.3,470.9z"/>
		<path class="st6" d="M138.7,466.2c-0.7,1.3-1.3,2.4-1.7,3.2c-0.2,0.4-0.5,0.8-0.7,1.2l0,0c-0.3,0.5-0.9,0.8-1.5,0.8
			c-0.4,0-0.9-0.1-1.3-0.1c-5-0.5-10-1.6-14.9-3.1c-8.6-2.7-19-7.9-24-17.6c-4.6-8.9-1.7-18.6,4.6-21.8c5-2.6,10.7-1.5,15.6,2
			c0-6.1,2.4-11.3,7.4-13.9c6.4-3.3,15.9,0.1,20.5,8.9c5,9.8,3.2,21.2,0.4,29.8C141.9,459.2,140.4,462.8,138.7,466.2z"/>
	</g>
</g>
</svg>
