<?xml version="1.0" encoding="utf-8"?>
<!-- Generator: Adobe Illustrator 27.6.1, SVG Export Plug-In . SVG Version: 6.00 Build 0)  -->
<svg version="1.1" xmlns="http://www.w3.org/2000/svg" xmlns:xlink="http://www.w3.org/1999/xlink" x="0px" y="0px"
	 viewBox="0 0 1133.9 1133.9" style="enable-background:new 0 0 1133.9 1133.9;" xml:space="preserve">
<style type="text/css">
	.st0{display:none;}
	.st1{fill:#7AC7E2;}
	.st2{fill:#FFFFFF;}
	.st3{fill:#99D9EA;}
	.st4{fill:#61848D;}
</style>
<g id="Layer_1" class="st0">
	
		<image style="display:inline;overflow:visible;opacity:0.53;" width="400" height="259" xlink:href="../../Reference/Cute-snake-clipart-black-and-white-free-clipart-2.png"  transform="matrix(-4.2235 0 0 4.2235 874.834 244.4642)">
	</image>
</g>
<g id="Layer_3">
	<path d="M75.6,848.7C75.2,836.4,95.1,747.6,227.4,630c2-1.8,1.5-5-1-6.1C193.2,609.6,52,572.3,106.1,432.7c0,0,27.3-52.4,84.3-91.1
		c0,0,86.5-52.4,123-175.3c0,0,29.6-138.9,123-138.9c0,0,52.4-6.8,91.1,50.1c0,0,11.4,9.1,22.8,0c0,0,25-36.4,79.7-31.9
		c0,0,66,4.6,88.8,68.3c0,0,24.3,64.1,22.9,150.8c0,2.5,0.7,5,2.1,7c11.8,16.7,64.5,101.4,13.9,215.2c-0.2,0.4-0.2,0.8-0.2,1.1
		c0.3,1.9,2.8,6.4,21.8,5.2c0,0,183.2-8.3,262.9,5.4c0,0,63.8,11.4,61.5,97.9c0,0,4.6,170.8-132.1,271c0,0-38.7,38.7-182.2,27.3
		c0,0,2.1,17.2-10.2,28.6c-0.7,0.6-1,1.6-0.7,2.5c1,3.9,3.2,14.9-0.4,25.8c0,0,59.2,6.8,59.2,50.1c0,0,0,45.5-50.1,61.5
		c0,0-72.9,18.2-173.1,29.6c0,0-36.4,4.6-68.3,10.3c0,0-91.1,19.3-175.4-30.8c0,0-73.7-32-96.4-192.3c-0.1-0.8-1-0.9-1.4-0.2
		c-40.9,70.4-34.9,86.4-49.6,127.7c-2.4,6.7-7.4,9.6-14.4,10.4c-51,5.4-124-44.6-132.8-166C75.6,851,75.6,849.8,75.6,848.7z"/>
	<path class="st1" d="M1076.1,571.6c-4.6-54.6-66-56.9-66-56.9c-70.6-4.6-230,0-230,0c-31.7,0-44.2-6.9-49.2-12.7
		c-3.8-4.4-9.6-6.5-15.3-5.6c-67.4,10.8-104-13.6-104-13.6c-15.9-13.7-27.3-4.6-27.3-4.6c-52.4,38.7-118.4,27.3-118.4,27.3
		c-152.6-25-123-191.3-123-191.3C372.5,164,468.1,164,468.1,164c51.8-1.9,87.1,44.4,98.5,61.8c5.8,8.8,18.3,10.5,25.7,3.1
		c3.8-3.8,5.6-8,5.6-8c41-68.3,88.8-20.5,88.8-20.5c5.8,5.8,11.7,7.7,16.7,7.7c8.5,0,15-7.6,13.9-16C700.7,63.9,623,66.1,623,66.1
		c-30.3-2.9-52.8,10.5-65.4,20.8c-6.6,5.4-8.6,14.6-4.7,22.2c7.3,14.3,13.1,29.9,13.1,29.9c-5.9,5.9-12.1,6.3-17.4,4.8
		c-6.6-1.8-11.9-6.6-14.8-12.7c-45.4-96.4-109-85.4-109-85.4c-56.9,9.1-70.6,75.1-70.6,75.1C308.7,296,201.7,359.8,201.7,359.8
		c-84.3,47.8-84.3,127.5-84.3,127.5c-1.7,72.5,81.7,104.4,122.1,115.6c12.6,3.5,21.6,14.7,22.1,27.8c8.3,218,69.8,341.6,69.8,341.6
		c47.8,125.2,229.9,113,229.9,113c86.6-8.3,207.3-37.9,207.3-37.9c56.9-15.9,45.5-47.8,45.5-47.8c-6.8-18.2-31.9-2.3-31.9-2.3
		c-63.8,27.3-173.1,38.7-173.1,38.7c-152.6,11.4-195.8-22.8-195.8-22.8c-63.8-45.5-86.5-220.9-86.5-220.9
		c-15.7-121.7,12.6-233.2,20.7-261.7c1.1-3.8-2.2-7.3-6-6.6c-18.2,3.3-26.2,22.2-29.1,32.2c-1.3,4.2-5.6,6.4-9.6,4.4
		c-2.7-1.3-4.5-3.2-5.7-4.9c-1.6-2.4-2.2-5.3-1.8-8.2c6.9-51,67.9-46.7,67.9-46.7c29.6,0,61.5,27.3,61.5,27.3
		c11.4,9.1,6.8,22.8,6.8,22.8c-6.8,11.4-20.5-2.3-20.5-2.3c-8.4-9.6-14.9-13.5-19.2-15.1c-2.8-1-5.8,1.2-5.5,4.1
		c9.4,125.1,118.1,222.7,118.1,222.7c91.1,95.6,305.1,113.9,305.1,113.9c125.2,18.2,179.9-45.5,179.9-45.5
		C1105.7,708.2,1076.1,571.6,1076.1,571.6z M1042.4,565.4c0,0-38.4,11.4-56.4,20.3c-2.5,1.3-5.3,2.1-8.1,2.4
		c-16.5,2.2-72.5,8.6-120.8-0.1c-1.8-0.3-3.4-1.2-4.8-2.4c-2.7-2.5-8.7-6.2-16.4,0.6c-0.9,0.8-2.1,1.3-3.3,1.5
		c-10.7,1.8-60.2,9.3-105.8-1.6c-2.7-0.7-5.3-2.1-7.3-4c-5.3-5-13.1-14.7,3.6-16.8c0,0,240.8,6.8,278.6,0.9c2-0.3,4-1,5.8-2
		c4.5-2.5,17.4-8.2,39-6.4C1046.5,557.9,1054.2,561.6,1042.4,565.4z"/>
	<path class="st2" d="M387,410.6c13.1-4.6,37.2-11.5,61.7-10.5c4.1,0.2,7.3,3.4,7.3,7.5c-0.1,8.4,2.8,21.9,21.3,25
		c0,0,21.7,3.9,33.9-17.5c1.8-3.2,5.3-5.2,9-5.2c14.4,0,49.9,0.1,70.5,0.1c4.7,0,8.5,3.9,8.2,8.6c-0.4,7.6-2.8,19.2-12.3,30
		c0,0-41,52.4-113.9,38.7c0,0-66.6-10.1-91.5-62.5C378.6,419.2,381.2,412.6,387,410.6z"/>
	<path class="st2" d="M622.9,446.4c10.9,3.1,39.5,7.1,56.5-29.9c1.9-4,6-6.5,10.4-6.4c11.7,0.5,34.2,2.1,49.1,7.8
		c4.5,1.7,7.8,5.7,8.6,10.5c1.8,10.5,3.2,30.5-8.2,46.5c-2.7,3.7-6.9,6.1-11.5,6.6c-17.7,2-67.5,4.9-111.6-20.1
		c0,0-4.4-4.4-1.3-11.3C616.3,447,619.7,445.5,622.9,446.4z"/>
	<path class="st3" d="M381.6,391.7c21.5-7.7,70.8-21.6,125.2-11.4c0,0,37.1,8.9,89.2,6.7c6-0.2,10.7-5.4,10.4-11.4
		c-1.2-27.3-11.6-101.2-86-168.4c0,0-43.3-41-88.8-9.1c0,0-79,57.6-63.3,185.3C369.1,389.8,375.6,393.9,381.6,391.7z"/>
	<path class="st3" d="M646.5,395.1c19.8-1.7,62.7-3.9,100.7,3.4c4,0.8,7.7-2.3,7.7-6.4c0-26.1-5.7-111-73.6-170.6
		c0,0-31-32.5-51.5-12c0,0-19.1,26.3-25.9,50.4c-1.3,4.7-0.7,9.8,1.6,14.2c8.4,16.1,29.7,61.7,30.2,111.3
		C635.7,391.1,640.7,395.6,646.5,395.1z"/>
	<path class="st2" d="M362.3,584.9c-8.5,41.2-26.1,144.6-4.8,214.6c0.7,2.3,3.3,3.6,5.6,2.8l11.7-4c3.3-1.1,6.9-0.5,9.6,1.8
		c24.5,20.6,155.4,121.6,364.8,115.4c4.3-0.1,8.4-2,11.3-5.1c2.3-2.5,4.7-5.8,6.4-10c1.9-4.8-1.4-10.1-6.6-10.6
		c-51-4.6-317.7-40.9-389.5-305.1C369.5,580.3,363.2,580.4,362.3,584.9z"/>
	<path class="st2" d="M366.8,837c3.1,32.6,23.5,176.6,144.6,178.6c0,0,110.5,12.6,230.2-24.2c4.7-1.4,8.1-5.4,9-10.2
		c1.1-6.4,2.2-15.7,0.9-25c-0.8-6-5.7-10.7-11.8-11.1c-43.4-2.9-231.4-20.4-347.6-111.1c-2.9-2.2-6.4-3.5-10-3.5h-9.3
		C369.2,830.5,366.5,833.5,366.8,837z"/>
	<path class="st1" d="M257.7,793.4c-9.4,7.3-90.3,85-100.6,213.2c0,0-66.5-28-78.3-127.2c0,0,19.2-99.7,155.8-229.2
		c1.4-1.3,3.4-1.4,5.3-1.6c8.5-1.1,5.5,9.9,6.5,25.9c0.2,2.6,1.1,21.6,1,22.2c-0.2,4.8,6,57,11.4,90.4
		C259,788.1,258.6,792.7,257.7,793.4z"/>
	<path class="st4" d="M262.6,813.5c0.7,8.8,2.6,24.5,5.9,36.6c0.9,3.2-4.4,8.7-5.9,11.6c-5.9,12-41.4,59.7-58.6,155.9
		c0,0-10.5,3.8-33.5-5.2c0,0,8.9-127.2,87.6-200.8C259.7,810.2,262.4,811.3,262.6,813.5z"/>
</g>
</svg>
