<?xml version="1.0" encoding="utf-8"?>
<!-- Generator: Adobe Illustrator 27.6.1, SVG Export Plug-In . SVG Version: 6.00 Build 0)  -->
<svg version="1.1" xmlns="http://www.w3.org/2000/svg" xmlns:xlink="http://www.w3.org/1999/xlink" x="0px" y="0px"
	 viewBox="0 0 1133.9 1133.9" style="enable-background:new 0 0 1133.9 1133.9;" xml:space="preserve">
<style type="text/css">
	.st0{display:none;}
	.st1{fill:#5E63AD;}
	.st2{fill:#FFFFFF;}
</style>
<g id="Layer_1" class="st0">
	
		<image style="display:inline;overflow:visible;opacity:0.4;" width="500" height="375" xlink:href="../../Reference/1902887.jpg"  transform="matrix(3.4482 0 0 3.4482 -385.5354 283.4646)">
	</image>
</g>
<g id="Layer_3">
	<path d="M161.1,956.7c2.8-2.2,68.4-44.2,109.2-98.1c2.3-3-0.8-7.4-4.6-7.7c-34.7-3.1-215.3,2.6-239.6-205.1
		c0,0-16.9-118.9,82.9-204.9c1.4-1.2,2.1-3,1.9-4.8c-2.5-21.9-13.2-164.5,106.6-282.5c0.1-0.1,0.1-0.1,0.2-0.2
		c3.6-4,112.4-123.8,268.4-109.8c0,0,231.8,16,247.8,267.8c0.2,3.5,3.6,5.9,7,5c26.5-7.3,127.9-33,217.2-22.5
		c0,0,130.2,12.2,134.3,138.3c0,0,2,112.6-73.9,213.9c-0.8,1.1-1.2,2.5-1.1,3.9c1.8,17.1,12.1,131.2-34.1,186.1
		c-0.5,0.6-1.2,1.2-2,1.5c-4.7,2.1-21.3,8.1-23.2-12.5c0-0.2,0-0.3,0-0.5c0-2.6-0.3-25.6-4.9-38.5c-2-5.5-6.3-6.1-9.7-1.4
		c-9.9,13.6-37.1,46-88.5,75.3c-1.6,0.9-2.7,2.6-2.8,4.4c-0.9,12.6-6.3,62.9-36.1,84.3c-0.2,0.2-0.5,0.3-0.8,0.5
		c-2.4,1.2-13.8,6.1-15.8-8c0-0.2-0.1-0.5-0.2-0.7c-0.8-2.6-5.6-18.5-14.5-30c-1.9-2.4-5.3-2.8-7.7-1
		c-18.7,14.3-118.5,79.5-227.4,12.3c-2.5-1.5-5.8,0.1-7.1,2.8c-9.8,21.2-67.4,132.8-170.1,176.5c-1.1,0.4-191.4,64.9-212.3-142
		C160.1,957.7,161,956.8,161.1,956.7z"/>
</g>
<g id="Layer_4">
	<path class="st1" d="M285.9,858.1c-34.5,58.6-122.8,120.4-122.8,120.4c22.4,160.8,174.3,130.2,175,130.2c0,0,0,0,0,0
		c99.3-45,176-160.8,189.8-192.9c2.2-5.1,0.8-11-3.5-14.5c-14.1-11.7-12.4-10.1-14.5-15.1c-1.4-3.4,1.4-7.1,5-6.5
		c7.1,1.2,16.2,10.3,16.2,10.3c101.7,99.7,240-4,240.1-4.1c0,0,0,0,0,0C748.6,849.2,718.1,778,718.1,778
		c-93.6,18.3-249.5-14.4-249.5-14.4c-62.3,58.8-147.2,42.9-147.2,42.9c-95.6-12.2-109.9-124.1-109.9-124.1
		c-8.1-89.5,52.9-101.7,52.9-101.7c71.2-12.2,93.6,44.8,93.6,44.8c24.4,59,72.5,96.8,72.5,96.8c42,45.9,255,39.5,255,39.5
		c166.8-6.1,254.3-77.3,254.3-77.3c118-85.4,126.1-213.6,126.1-213.6c8.1-89.5-57-132.2-57-132.2c-46.8-44.8-203.4-18.3-203.4-18.3
		c-150.5,18.3-217.7,132.2-217.7,132.2c0,0,0,0,0,0c-8.9,11.4-13,11-14.9,9c-1.1-1.2-1.4-3-0.8-4.6c14.3-41.1,47-72.4,48.2-73.6
		c0,0,0,0,0,0c-61-8.1-120,67.1-120,67.1c-28.6-7.6-44.7-31.4-46.6-34.3l10.2,42.8c-97.6-144.9-262.7-61.4-262.7-61.4
		C69.2,462.7,51.7,574.1,51.7,574.1c-29.7,146,59.7,211.3,59.7,211.3c78.8,70.4,248.7,49.6,248.7,49.6c0,0,0,0,0,0
		c23.5,0,29.9,14.2,29.8,14.3l-98.3,5.3C289.2,854.7,287.1,856,285.9,858.1z M836.1,415.9c0,0-18.3,16.3-10.2-6.1
		c0,0,0.8-33-37.2-13.5c0,0-17.7,19.6-25.8,13.5c0,0,26.4-40.7,69.2-38.7C832.1,371.1,872.7,379.3,836.1,415.9z"/>
	<path class="st1" d="M630.8,135.3c-0.1-0.1-0.1-0.2-0.2-0.2c-55-67-185-65-185-65C305.2,66,213.6,184,213.6,184
		c-71,84.2-76.3,181.7-75.8,215.6c0.1,5.3,6,8.4,10.5,5.5c98.3-64.4,194.6-48.7,229.1-39.9c5.2,1.3,9.8-3.7,8-8.8
		c-12.7-37.9-6.5-85.3-5.9-89.7c0-0.2,0.1-0.4,0.1-0.6c13.4-59.7,65.9-65.9,65.9-65.9c50.9-8.1,77.3,44.8,77.3,44.8
		c22.4,38.4,30.2,101,32.5,126.1c0.4,4.8,5.7,7.6,9.9,5.3c7.5-4.1,16.1-7.7,22.4-10.2c4.1-1.6,5.5-6.6,3-10.2
		c-22.1-31.3-29.2-79.3-29.2-79.3C553.2,212.9,592,184,592,184c32.6-24.4,54.9,4.1,54.9,4.1c33.8,37.1,43.7,113.5,46.1,138.4
		c0.4,4.2,4.5,7,8.6,5.8l1.6-0.5c2.8-0.8,4.8-3.4,4.9-6.3C709.6,220.3,633.9,138.6,630.8,135.3z M377.7,182.7
		c-0.2-0.1-0.3-0.2-0.5-0.3c-17.3-10.7-35.5-8.7-35.5-8.7c-32.6,4.1-54.9,34.6-54.9,34.6c-12.2,16.3-14.2,6.1-14.2,6.1
		c5.7-26.6,36.3-46.1,40.3-48.6c0.3-0.2,0.6-0.3,0.9-0.5c38.8-17.2,77.6,0.6,80.7,2.1c0.1,0.1,0.3,0.1,0.4,0.2
		c58.9,24.2,101.5-24.5,101.5-24.5c4.1-2,6.1-0.5,7.1,1.5c1.1,2.3,0.6,5.1-1,7C447.8,215.5,382.1,184.9,377.7,182.7z M618.4,139.2
		c0,0-18.3,46.8-67.1,34.6c0,0-11.6-1.7-10.9-9.4c0.2-1.9,1.2-3.5,2.7-4.6c2.7-2,8.1-4.3,16.3-0.2c0,0,18,8,34.2-9.8
		c0.2-0.2,0.4-0.5,0.6-0.8c1.8-2.7,12.7-17.9,20.1-17.9C614.4,131.1,622.5,131.1,618.4,139.2z"/>
	<g>
		<path class="st2" d="M536,393.4c-10.3,7.8-35.3,29.4-39,56c0,0-39.9-11.4-43.6-33.7c0,0-1.7-6-16-16.2c0,0-42.7-20.3-46.8-101.7
			c0,0,0-57,36.6-75.3c0,0,17.7-9.4,35.1-5c7.6,1.9,10,11.5,4.4,16.9c-10.9,10.3-24.9,32.8-18.7,78c0,0,9.8,52.5,36.2,66.8
			c0,0,25.1,13.4,46.4-9.9c2.9-3.1,8-1.6,8.7,2.6c0.6,3.7,1.1,7.8,1.3,11.8C540.7,387.5,539,391.1,536,393.4z"/>
		<path class="st2" d="M616.2,204c3-5.3-1.4-11.7-7.4-10.6c-12.6,2.5-29.1,13.3-35.1,51.6c0,0-6.1,48.3,25.4,95.4
			c0,0,19.3,26.7,41.7,22.6c0,0,23.3-14.5,35.4-20.3c3.2-1.5,5.2-4.9,4.8-8.5c-0.4-3.9-1-9-2-13.4c-0.8-3.6-5.3-5-8-2.5
			c-5.3,5-15.1,11.3-30.1,10.1c0,0-30.5-6.1-34.6-59C606.2,269.4,603.3,226.8,616.2,204z"/>
		<path class="st2" d="M638.6,216.5c0,0-15.9,4.1-6,28.2c0.1,0.2,0.2,0.5,0.3,0.7c0.9,1.7,5.1,9.2,10.4,12.9c4.3,3,10.3,0.1,11-5.1
			c0.7-5.2,1.1-13.3-1.2-21.9C653,231.3,648.5,214.4,638.6,216.5z"/>
		<path class="st2" d="M488.2,257.2c0,0-14.2,12.2-6.1,30.5c0,0,4.8,9.9,11.1,15c4.5,3.6,11.2,0.7,11.8-5.1
			c0.8-8.3,1.1-23.1-4.4-37.3C500.6,260.4,494.4,249.1,488.2,257.2z"/>
	</g>
	<g>
		<path class="st2" d="M237.3,650.7c9.7-9,31.6-27.1,56.4-33.8c3-0.8,3.5-4.7,0.9-6.3c-8.5-5.1-24.5-11.6-42.3-3.4
			c0,0-21.1,8.8-20.8,41.1C231.5,651.2,235.1,652.8,237.3,650.7z"/>
		<path class="st2" d="M284.6,636.2c-14.1,5.1-42.3,17.7-52.8,40.4c-0.2,0.5-0.3,1.1-0.3,1.6c0.3,7,3.8,54.3,34.1,87.7
			c2.2,2.4,6.2,0.7,6-2.5c-1-22.9-1.6-83.8,17.3-122.5C290.3,638.2,287.5,635.2,284.6,636.2z"/>
		<path class="st2" d="M327.7,619.8c5,10.2,17.6,34.9,29.5,46.4c1.9,1.8,1.2,4.9-1.3,5.8c-11.5,3.8-37.4,14.8-64.4,42
			c-2.3,2.3-6.3,0.4-5.9-2.8c2.1-19.3,9.7-62.6,36.4-92.2C323.6,617.2,326.6,617.6,327.7,619.8z"/>
		<path class="st2" d="M350.6,692.2c-15.9,5.5-62.2,26-71.5,81.4c-0.3,1.5,0.5,3,1.8,3.7c9.7,5.1,49.5,23.8,89,12.4
			c2.2-0.6,3.2-3.2,2-5.1c-6.4-10.6-22.9-43.1-16.7-88.5C355.5,693.4,353.1,691.3,350.6,692.2z"/>
		<path class="st2" d="M369.4,698.6c-2.3,16-4.5,53,15.8,83.7c0.8,1.2,2.2,1.7,3.6,1.5c7.9-1.6,35.1-7.8,59.8-22.8
			c2.3-1.4,2.3-4.7-0.1-6c-13.6-7.8-51.3-30.7-73.1-58C373.6,694.5,369.8,695.6,369.4,698.6z"/>
		<path class="st2" d="M741.3,776.3c14.8-2.8,44.7-8.7,62.8-13.1c3.2-0.8,6.5,1,7.5,4.2c6.4,21.2,26.6,97,4.1,144.5
			c-2.2,4.6-8.8,4.7-11.1,0.1c-14.1-27.1-52.5-100.9-67.4-126.4C734.9,781.9,737.1,777.1,741.3,776.3z"/>
		<path class="st2" d="M937.9,719c11.7-7.8,37-25.5,49.5-39.5c2.2-2.5,6.3-1.2,6.7,2.1c2.8,24.5,7.7,90.7-16.2,119.5
			c-2,2.4-5.8,1.4-6.4-1.6c-2.5-13.5-10.5-44.2-34.6-71.1C934.2,725.6,934.7,721.2,937.9,719z"/>
	</g>
	<path class="st1" d="M834.1,767.2c3.7,13.8,11.5,43.5,15,61.7c0.9,4.9,6.5,7.3,10.7,4.5c18-11.8,58.2-39.6,77.2-65
		c1.5-2,1.8-4.7,0.8-7c-2.7-6.3-9.2-19.4-20.6-30.8c-2.1-2.1-5.3-2.6-8-1.3c-12.9,6.3-51.2,24.6-70,29.3
		C835.3,759.5,833.1,763.4,834.1,767.2z"/>
</g>
</svg>
