<?xml version="1.0" encoding="utf-8"?>
<!-- Generator: Adobe Illustrator 27.6.1, SVG Export Plug-In . SVG Version: 6.00 Build 0)  -->
<svg version="1.1" xmlns="http://www.w3.org/2000/svg" xmlns:xlink="http://www.w3.org/1999/xlink" x="0px" y="0px"
	 viewBox="0 0 1133.9 1133.9" style="enable-background:new 0 0 1133.9 1133.9;" xml:space="preserve">
<style type="text/css">
	.st0{display:none;}
	.st1{fill:#EA7273;}
	.st2{fill:#9A2B72;}
	.st3{fill:#8F63AA;}
	.st4{fill:#F1EC6F;}
	.st5{fill:#FFFFFF;}
	.st6{fill:#684831;}
</style>
<g id="Layer_1" class="st0">
	
		<image style="display:inline;overflow:visible;opacity:0.37;" width="223" height="226" xlink:href="../../Reference/download.jpg"  transform="matrix(5.9515 0 0 5.9515 -59.5354 266.4646)">
	</image>
</g>
<g id="Layer_2">
	<path d="M109.6,824.2c0.4-5.7-70.7-169.6,265.5-306.6c0.6-0.2,0.9-0.8,0.9-1.4c-0.2-5.1-0.9-28.9-0.1-56.1c0-1.2-1.3-2-2.3-1.3
		c-8.4,5.1-38.1,20.3-69,2c-1.4-0.8-0.7-3,0.9-2.8c11,0.9,34.1,1.7,49.3-6c1.4-0.7,1-2.9-0.7-2.9c-9.2,0-27.6-2.9-44.8-22.9
		c-1.1-1.2,0.2-3,1.7-2.4c13.4,5.7,46.9,17.1,64.5-2.1c0.3-0.3,0.4-0.8,0.4-1.2c-1.2-9.4-11.6-111,72.7-193.1c0,0,0.1-0.1,0.1-0.1
		c2.5-3.2,114.7-144.9,164.9-40.7c0,0.1,0.1,0.1,0.1,0.2c0.7,2.1,12.6,40.7,14.7,79.5c0,0.4,0.2,0.8,0.6,1.1
		c2.7,2.1,14.9,10.6,22.5-0.1c0.2-0.2,0.2-0.5,0.3-0.7c0.4-6.7,6.3-96.8,61.2-98.9c0,0,0.1,0,0.1,0c2,0,93.2,2.4,141.3,210.4
		c0.1,0.5,0.5,1,1,1.1c5.9,1.6,41.5,10.1,62.7-11.4c1.2-1.2,3.2,0.2,2.4,1.7c-5.9,11.8-19.6,30-48,28.6c-1.3-0.1-2.1,1.4-1.2,2.4
		c5.3,6.5,21.9,22,55.7,11.9c1.5-0.5,2.6,1.5,1.4,2.6c-9.2,8.5-32,24.6-58.7,7.7c-1-0.6-2.3,0.1-2.3,1.3c0.4,10.2,1.6,45-0.1,69.9
		c0,0.6,0.3,1.2,0.9,1.5c14.7,6.5,192,86.5,176.6,197.5c-0.1,0.4,0,0.8,0.3,1.1c6.4,8.1,87.9,116.6-82.5,195.8
		c-0.2,0.1-0.4,0.2-0.5,0.4c-2.9,3.9-36.2,48.4-48.4,96.8c0,0.1,0,0.1,0,0.2c-0.3,2.9-10.9,86.9-147.9,107.7c0,0-137.3,19-207-21.1
		c0,0-85.9-48.2-151.2-125.7c-0.5-0.6-1.3-0.7-1.9-0.3c-8.4,5.5-78.8,28.7-168.2,11.3c-0.2,0-0.5,0-0.7,0
		c-3.4,0.5-7.5-1.6-14.9,18.3c-3.8,10.2-0.2,16.8-11,18c-55.3,6.1-112.6-37.9-133.6-115c-2.9-10.5,3.9-20.3,12.1-27.4
		C89.3,853.1,108.5,838.9,109.6,824.2z"/>
</g>
<g id="Layer_3">
	<path class="st1" d="M885.8,914.5c-14.9,4-46.3,10.3-74.6,1.7c-0.6-0.2-1.2-0.2-1.8-0.1c-5.7,1.3-37.2,7.9-69.9,2.6
		c-3.7-0.6-5.8,4.1-2.9,6.4c12.6,10.4,37.6,26.6,74.2,30.3c0,0,52.3,5,79-35.5C891.7,917.2,889.1,913.6,885.8,914.5z"/>
	<path class="st2" d="M210.8,979.2c-1,3.1-3.3,9.4-3.4,16.7c0,0-44.8,3.7-75-26.1c0,0,1.2-12.9,5.2-24.1c0.8-2.3,3.9-2.7,5.3-0.7
		c5.5,7.7,21.3,22.2,65.4,30.2C210.3,975.6,211.4,977.5,210.8,979.2z"/>
	<path class="st2" d="M161.8,909.2c4.3,6.8,19.2,25.6,60.2,42.1c1.6,0.6,2.1,2.5,1.2,3.9c-1.7,2.4-4,6-5.7,9.5
		c-0.5,1-1.6,1.7-2.7,1.5c-10.2-1.4-57.5-9.2-68.6-36.1c-0.2-0.5-0.3-1.1-0.1-1.7c0.8-2.9,3.9-12.2,11.7-19.7
		C159,907.6,161,907.8,161.8,909.2z"/>
	<path class="st3" d="M77.1,879.3c0,0,18-17.2,23.6-21.7c1.2-1,3.1-0.3,3.5,1.2c2,9.2,2.2,42.8-12.3,60.1
		C91.8,918.9,79.8,900.3,77.1,879.3z"/>
	<path class="st4" d="M110,849.8c-1.8,1.3-1.3,3.7-0.8,5.8c2.6,10.4,6.4,49.8-13,71.3c0,0,6.8,18.2,27.6,35.8l1,1
		c5.7-35,17-50.8,23.3-57c2.1-2,3-5,2.5-7.8c0,0-29.9-25.2-34.2-51.9c-0.3-1.8-3.1-1.6-4,0L110,849.8z"/>
	<path class="st4" d="M148.8,691.4c-2.7,4-53.9,79.5-19.1,153.7c0.1,0.2,0.2,0.5,0.4,0.7c3.7,5.8,56.8,87.2,164.7,103.4
		c0,0,38.5,7.7,87.9-15.5c3.5-1.7,4.4-6.3,1.8-9.2c-5.3-6-13.6-16-19-26.2c-0.8-1.5-0.9-3.4-0.2-5c1.8-4.3,7.5-10,24.5,8
		c0,0,116,130,225.7,170.2c0.2,0.1,0.4,0.1,0.6,0.2c5.7,1.5,90.2,22,202.1-8.4c0.2-0.1,0.5-0.1,0.7-0.2c5.3-2.2,69.9-29.7,82-84.4
		c0,0,5.1-26.9,15.4-48.8c2.6-5.5-4-10.8-8.9-7.1c-5,3.8-9.8,9-12.8,15.7c0,0-16.8,33.7-79.9,33.8c-0.2,0-0.4,0-0.7,0
		c-4.3,0.5-57.3,5.8-118-55c0,0-103.1-105.1-243.9-119.3c-7.2-0.7-6.8-11.6,0.5-11.7c0.2,0,0.3,0,0.5,0c0,0,126.5,6,228.8,94.5
		c6.1,5.3,13.2,9.3,21,11.7c18.4,5.6,54.9,13.6,102.2,8c0.5-0.1,1-0.1,1.5,0c7.8,1.2,76.9,10.9,136.6-17c0,0,116.2-54.9,105.6-120.4
		c0,0,2.1-83-168.5-187.3c-4.5-2.7-3.4-9.8,1.8-10.7c3.1-0.6,7.7,0.2,14.5,3.5c0.1,0.1,0.2,0.1,0.4,0.2c4,2.3,78.1,45.8,118.5,91.9
		c4.1,4.7,11.7,0.6,10-5.4c-7-24.6-32.1-68.5-118.2-120.4c0,0-31.1-20.7-52.2-25.2c-0.4-0.1-0.8-0.1-1.2-0.1
		c-9.5-0.1-132.6-1.7-187.4,8.5c0,0-176.7,27.3-271.9,69.4c-0.4,0.2-0.8,0.4-1.1,0.6c-3.8,2.7-27.7,17.9-21.9-37.2
		c0.5-4.4-3.9-7.7-8-6C329.9,559.1,211.9,611.8,149,691C148.9,691.1,148.9,691.2,148.8,691.4z M362,831.2c-1.1-8-3.4-39.9,27.2-67.3
		c0.4-0.3,0.7-0.7,1-1.1c2.5-3.9,16.7-25.2,29.3-30.1c3.4-1.3,7.2,1,7.8,4.6c1.1,6.7,0.6,18.4-12.1,28.3c0,0-40,29.4-40.1,56.8
		c0,0.1,0,0.3,0,0.4c-0.2,2.1-2.4,20.6-11.3,11.8C362.8,833.6,362.2,832.4,362,831.2z"/>
	<path class="st4" d="M817.6,348.2c-26.9-20.9-104.1-79-138.3-85c-3.7-0.7-6.4-3.9-6.2-7.7c1.2-19.5,7.9-71.9,43.6-68.9
		c0.3,0,0.6,0.1,0.9,0.1c6.2,1.3,67.8,17.5,106.2,157.2C825,347.6,820.7,350.6,817.6,348.2z"/>
	<path class="st4" d="M603.2,261.4c-22.6,4-102.8,25.3-197.3,135.5c-3.6,4.2-10.5,1.7-10.6-3.9c-0.2-28.6,5.9-92,57.9-147.2
		c0,0,86.6-103.5,124.6-76c0,0,27.7,17.8,31.4,84.1C609.4,257.5,606.8,260.8,603.2,261.4z"/>
	<path d="M794.7,150.2c3.3,2.7,8.1-0.7,6.6-4.7c-6.5-17.4-25.4-61.9-58.7-91.9c0,0-58.8-58.8-78,74.7c-0.1,0.9,0,1.8,0.4,2.6
		c2,3.9,8.7,14.5,14-0.8c0.1-0.3,0.2-0.6,0.2-0.9c0.7-6.2,9.6-75.3,35.7-75.6c0.1,0,0.3,0,0.4,0c2.6,0.2,28.8,3.2,58.8,61
		c0.1,0.2,0.2,0.4,0.2,0.5C775.4,117.9,784.2,141.7,794.7,150.2z"/>
	<path d="M602.9,112.2c0.2-1,0.2-2-0.2-2.9c-3.6-9.5-27.1-68.9-52.3-74.8c0,0-39.3-26.9-87.2,113.9c-1.4,4.3,3.1,8.3,7,6
		c3.4-1.9,7.6-7,12.5-18.3c0.1-0.2,0.1-0.4,0.2-0.5c1.7-5.3,28.5-90.5,63.3-88.5c0,0,18.8,0,44,64.6c0.2,0.6,0.6,1.2,1,1.6
		C593.5,115.9,600.7,122.4,602.9,112.2z"/>
	<path class="st5" d="M749.9,498.7c18.9-1.1,62.2-3.3,91.9-3.6c3.6,0,6.6-2.9,6.7-6.6c0.5-20.4,0.8-82.9-14.6-102.8
		c-0.3-0.3-0.6-0.6-0.9-0.9c-7.4-6.6-99.8-88.2-155.1-102.7c0,0-30.3-13-23.9,16.5c0,0,11.5,73.6,11.3,107.1c0,4.8,4.8,8,9.2,6.3
		c11.8-4.6,31.7-9,47,4.9c0,0,31.8,28,21.5,73.5C742,494.8,745.4,499,749.9,498.7z"/>
	<path class="st5" d="M566.5,518.3c-29.5,6.9-122,29.3-163.7,46.8c-4.2,1.8-8.9-1-9.3-5.5c-2.9-27.6-9-109.6,15.4-142.7
		c0,0,84.1-113.1,187.6-134.8c0.2,0,0.4-0.1,0.6-0.2c3.2-1,31.7-9.4,35.7,14.5c0,0,10.8,61.4,12.5,105.7c0.2,4.8-4.5,8.2-9,6.6
		c-15.1-5.3-45.3-11.2-65.9,15.6c0,0-27.5,35.2,0.5,84C573,512.2,570.9,517.3,566.5,518.3z"/>
	<path class="st6" d="M726,444.8c-3.6-9.4-13.6-26.3-38.2-22.2c-0.1,0-0.2,0-0.3,0.1c-2,0.5-21.1,5.8-23.1,25.8
		c0,0-5.9,23.7,4.1,51.6c0.6,1.6,2.3,2.6,4,2.3c4.2-0.7,12.3-2.1,20.6-3.2c2.2-0.3,3.6-2.5,3-4.7c-2-6.4-4.9-19.3-1.3-31.8
		c0-0.1,0.1-0.2,0.1-0.3c0.6-1.6,6-15.5,27.3-12.9C724.9,450,727,447.4,726,444.8z"/>
	<path class="st6" d="M653,447.7v5.6c0,2.6-2.3,4.6-5,4.3c-7.6-1.1-22-0.8-30.7,13.5c-0.1,0.2-0.2,0.3-0.3,0.5
		c-1.1,2.3-7.7,17.7-2.3,33.8c0.9,2.7-0.9,5.5-3.7,5.7c-3.8,0.3-9.5,0.9-17.8,2.5c-1.6,0.3-3.2-0.3-4.2-1.6
		c-5.1-6.7-19.3-28.6-12.5-59c0,0,4.1-32.4,42.5-32.6c0.2,0,0.4,0,0.6,0c2.8,0.3,22.7,3.4,33,25.4C652.9,446.4,653,447,653,447.7z"
		/>
	<path class="st5" d="M723.4,465.5c0,0,8.7,6.3,4.5,19c0,0-7.9,8.4-15.6,0c0,0-5-8.3,0-14.7C712.2,469.7,714.7,463.3,723.4,465.5z"
		/>
	<path class="st5" d="M645.2,473.9c0,0,8.7,6.3,4.5,19c0,0-7.9,8.4-15.6,0c0,0-5-8.3,0-14.7C634.1,478.2,636.5,471.8,645.2,473.9z"
		/>
</g>
<g id="Layer_4">
</g>
</svg>
