<?xml version="1.0" encoding="utf-8"?>
<!-- Generator: Adobe Illustrator 27.6.1, SVG Export Plug-In . SVG Version: 6.00 Build 0)  -->
<svg version="1.1" xmlns="http://www.w3.org/2000/svg" xmlns:xlink="http://www.w3.org/1999/xlink" x="0px" y="0px"
	 viewBox="0 0 1133.9 1133.9" style="enable-background:new 0 0 1133.9 1133.9;" xml:space="preserve">
<style type="text/css">
	.st0{display:none;}
	.st1{fill:#D1B369;}
	.st2{fill:#FFFFFF;}
	.st3{fill:#DD6666;}
	.st4{fill:#DD3114;}
</style>
<g id="Layer_1" class="st0">
</g>
<g id="Layer_3">
	<path d="M101.8,916.9c43.6-35.6,71.7-115.9,52.6-178.5c0,0-43.5-118.9-5.7-303.5c0,0,7.1-26.1,7.1-39.1c0,0-69-92.7-23.7-172.5
		c0,0,25.9-34.5,75.5-32.3c0,0,58.2,0,94.9,28c0,0,84.1-38.8,159.5,2.2c0,0,10.8-64.7,71.1-71.1c0,0,51.7-12.9,92.7,56.1
		c0,0,17.2-66.8,81.9-66.8c0,0,51.7-2.2,88.4,92.7c0,0,21.6,45.3,4.3,90.5c0,0,157.4,38.8,235,155.2c0,0,41,64.7,0,113.2
		c0,0-51.7,78.7-153.1,108.9c0,0-127.2,45.3-288.9-2.2c0,0-17.2,25.9,10.8,60.4c0,0,38.8,41,38.8,69c0,0,3.8,70-86.5,101.9
		c0,0-89.5,43.5-209.5,5.3c0,0-20.6,47.3-108.1,123.6c-11.3,9.8-27.8,11-42.7,9.2c-54.1-6.4-107.5-57.9-109.7-116.3
		C86.1,939.3,93,924.1,101.8,916.9z"/>
	<path d="M459.7,126.3c0,0,0-69,45.3-75.5c0,0,34.5-19.4,56.1,34.5c0,0,2.2,12.9-6.5,8.6c0,0-25.9-21.6-49.6-15.1
		c0,0-25.9,6.5-43.1,51.7C461.9,130.6,459.7,132.8,459.7,126.3z"/>
	<path d="M668.8,117.7c0,0,2.2-60.4,51.7-66.8c0,0,47.4-6.5,56.1,51.7c0,0,0,6.5-4.3,6.5c0,0-4.3,0-6.5-4.3c0,0-19.4-30.2-41-30.2
		c0,0-27.3-2.2-48.1,43.1c0,0-1.5,4.3-3.6,6.5C673.1,124.2,668.8,128.5,668.8,117.7z"/>
	<path class="st1" d="M90.9,953.8c21.1-14,109.9-107.7,84.2-211.6c-0.6-2.5-2.1-6.4-3.3-8.6c-6.5-11.7-12.2-37.9-16-83.4
		c0-0.1,0-0.1,0-0.2c-0.5-3-11.2-76.4,5.5-213.3c0.8-6.9,10-8.8,13.5-2.8c0.1,0.1,0.1,0.2,0.2,0.3c0.1,0.2,0.2,0.3,0.2,0.5
		c0.5,1.2,2.6,5.9,6.4,4.1c0,0,4.1-2.1,2.3-10.3c-0.1-0.3-0.2-0.6-0.4-0.9c-4.2-7.4-61.6-109.5-45-165.6c0,0,8.6-38.7,66.7-47.4
		c0.1,0,0.2,0,0.3,0c3.5-0.2,63.9-3,114.1,38.8c0,0,2.2,2.2,2.2-2.2c0,0-1.7-8.4-6.5-17.7c-1-2,0.1-4.4,2.3-4.8
		c17.3-3.6,81.9-14.7,135.2,4.3c1.5,0.5,2.4,2.1,2.2,3.7c-2.9,17.4-14.8,113.8,67.3,178.3c0.1,0,0.1,0.1,0.2,0.1
		c3,2.1,83.3,57.2,121.8-51.1c0.6-1.6,2.3-2.5,4-2.1c15,4.1,82,27.6,122,128.6c0,0,2.2,6.5,6.5,2.2c0,0-2-44.7-57.4-108.5
		c-1.9-2.1-0.4-5.5,2.5-5.5c15.9-0.3,52.8-5.3,73.1-43.1c0.8-1.4,2.4-2.1,3.9-1.6c17.8,5.7,120.6,40.9,191.3,115.5
		c0.1,0.1,0.1,0.1,0.2,0.2c2.2,2.7,55.7,67.6,40.9,109.9c0,0-10.8,66.8-122.9,107.8c0,0-204.8,75.4-437.5-56c-0.1,0-0.1-0.1-0.1-0.1
		c-3.8-2.4-159.9-102.3-197.5-299.8c-0.4-2.1,1.3-4.1,3.4-4c10.1,0.4,36,2.6,49.7,12.8c0,0,6,4,10.3-1.5c0.4-0.5,0.6-1,0.6-1.6
		c0.3-2.4,0.3-8.5-6.6-12c0,0-81.6-51.5-150.5,21.1c-0.3,0.3-0.5,0.6-0.7,1c-0.8,1.9-3,7.7,2.4,5.9c0,0,40.4-24.3,78.2-25.8
		c1.9-0.1,3.5,1.5,3.5,3.4c-0.2,6.7,0.3,23.4,6.5,51.6c0.1,0.6,0.1,1.2-0.1,1.8c-4.3,12.3-52.3,152.9-43.5,273.6c0,0.1,0,0.2,0,0.3
		c-0.1,4.9-2.8,141.8,41.4,186.4c0.1,0.1,0.2,0.2,0.3,0.3c2.4,3.3,42.5,55.5,159.4,43c0,0,73.2-8.6,127.1-62.4
		c0.1-0.1,0.2-0.2,0.3-0.3c0.4-0.5,1.3-2.1,0.5-4.8c-0.4-1.2-1.3-2.1-2.6-2.3c-1.1-0.2-2.6-0.1-4.5,0.9c0,0-29.2,20.6-52.4,29.7
		c-2.8,1.1-5.5-1.7-4.3-4.5c2.9-6.5,6.8-17.6,9.2-33.6c0-0.1,0-0.3,0-0.4c0.1-2.3,2.3-27.1,46.1-103.2c0.8-1.3,2.4-2,3.8-1.5
		c5.5,1.6,18.9,5.5,31.4,8.8c2.2,0.6,3.2,3.2,2,5.1c-6.4,9.7-18.3,37.9,15.8,82.2c0.1,0.1,0.2,0.2,0.3,0.3
		c2.3,2.4,33.4,35.8,8.5,73.2c0,0-30.2,62.5-123.7,73.8c0,0-91.8,14.6-154.4-13.5c0,0-8.6-4.3-10.8,0c0,0-1.7,5.1,3.9,9.2
		c1.4,1,1.7,2.9,0.8,4.4c-4.6,7.6-17.5,28.6-26.6,40.9c-0.9,1.3-2.7,1.7-4.1,1c-17.9-8.5-63.5-17.1-158.8,69.6
		c-8.6-7.2-40.5-29.9-47.4-79C87.2,958.7,88.6,955.3,90.9,953.8z"/>
	<path class="st2" d="M625.7,264.3c0,0-6-65.7-64.4-98.6c0,0-36.2-22.8-66.7,19.6c0,0-52.1,76.9,10.5,173.9c0,0,36.6,60.4,69,51.7
		C574,410.9,643,389.3,625.7,264.3z M561.3,316c-17,15.1-32.6,0-32.6,0c-17.2-17.2,4.3-34.5,4.3-34.5c19.4-8.6,28.3,4.1,28.3,4.1
		C574.4,302.6,561.3,316,561.3,316z"/>
	<path class="st2" d="M768,225.5c0,0-23.7-71.1-62.5-69c0,0-36.6-6.5-73.3,60.4c0,0,30.2,45.3,19.4,125c0,0,25.9,8.6,47.4,25.9
		c0,0,45.3,8.6,73.3-32.3C772.3,335.4,800.3,292.3,768,225.5z M703.3,290.2c-21.6,4.3-27.2-11.6-27.2-11.6
		c-5.7-24.6,14.3-27.2,14.3-27.2c19.4-2.2,23.7,10.8,23.7,10.8C720.6,283.7,703.3,290.2,703.3,290.2z"/>
	<path class="st3" d="M257.1,740.7c0,0,15.1,125,153.1,105.6c0,0,60.3-92.1-15.1-143.1c0,0-25.8-12.2-43.1,5.1
		c0,0,30.2,30.2,25.9,103.5c0,0-4.3,4.3-6.5,0c0,0-0.9-57.2-26.3-90c0,0-21.1-28.5-51.3-17.8C293.7,704.1,274.3,710.5,257.1,740.7z"
		/>
	<path class="st4" d="M147.5,1049.3c0,0,79.1-84.5,137.2-65.6c2,0.6,2.7,3.1,1.3,4.7c-10.1,11.3-46.5,50.7-89.7,78.6
		C196.2,1066.9,168.2,1064.3,147.5,1049.3z"/>
</g>
</svg>
