<?xml version="1.0" encoding="utf-8"?>
<!-- Generator: Adobe Illustrator 27.6.1, SVG Export Plug-In . SVG Version: 6.00 Build 0)  -->
<svg version="1.1" xmlns="http://www.w3.org/2000/svg" xmlns:xlink="http://www.w3.org/1999/xlink" x="0px" y="0px"
	 viewBox="0 0 1133.9 1133.9" style="enable-background:new 0 0 1133.9 1133.9;" xml:space="preserve">
<style type="text/css">
	.st0{fill:#878787;}
	.st1{fill:#B5B5B5;}
	.st2{fill:#EDEDED;}
	.st3{fill:#FFFFFF;}
	.st4{fill:#EFEFEF;}
	.st5{fill:#AA1B41;}
</style>
<g id="black">
	<path d="M216.7,949.2c7.7,5.9,19.3,8.3,27.9,3.8c69.2-36.7,110.9-42,122-42.4c2-0.1,3.9,0.3,5.6,1.2c35.5,17,70.1,17.9,70.1,17.9
		v54.5c6.1,24.2,34.3,16.1,34.3,16.1c28.2-10.1,34.3-66.6,34.3-66.6c28.2,0,88.8-10.1,88.8-10.1c-2,44.4,10.1,56.5,10.1,56.5
		c20.2,18.2,38.3-4,38.3-4c22.2-20.2,20.2-72.6,20.2-72.6C837.8,843,912.4,724,912.4,724c104.9,4,159.4-64.1,159.4-64.1
		c64.6-86.3,0-178,0-178c-58.5-70.6-211.8-32.3-211.8-32.3c30.3-78.7,28.2-171.5,28.2-171.5c2-143.2-119-141.2-119-141.2
		c-113-2-203.7,137.2-203.7,137.2C464.6,92.6,353.6,169.2,353.6,169.2C226.6,260,250.8,443.6,250.8,443.6
		c-219.9-54.5-217.5,127-217.5,127c1.2,126.9,144.2,151.9,144.2,151.9S195,760.3,231,793c3,2.8,1.8,6.8-2.2,7.8
		c-20,4.9-70.2,17.6-95.6,27.4c-4.3,1.6-6.2,6.6-4.2,10.8C138.9,858.9,158.5,904.5,216.7,949.2z"/>
</g>
<g id="dark_red">
	<path class="st0" d="M1073.4,571.6c1.6-87.8-84.3-105.9-84.3-105.9C882.2,445.6,819.6,494,819.6,494
		c-22.2,62.5-58.5,102.9-58.5,102.9c46.4,8.1,28.2,54.5,28.2,54.5c-16.1,40.3-70.6,60.5-70.6,60.5c44.4-34.3,48.4-66.6,48.4-66.6
		c4-24.2-16.1-26.2-16.1-26.2c-44.4-4-80.7,52.4-80.7,52.4c-143.2-28.2-187.6,18.2-187.6,18.2c-6.1-40.3-34.3-56.5-34.3-56.5
		C410.1,613,394,643.3,394,643.3c-14.1,30.3,20.2,68.6,20.2,68.6c4,8.1-2,4-2,4C335.5,667.5,394,615,394,615
		c-62.5-48.4-84.7-133.1-84.7-133.1c-34.3-137.2,56.5-191.6,56.5-191.6c70.6-52.4,127.1-4,127.1-4c104.9,113,58.4,257,58.4,257
		c18.1-3.2,36.4,1.2,36.4,1.2c-22.2-104.9,20.2-181.6,20.2-181.6c64.6-100.9,155.3-76.7,155.3-76.7
		c104.9,38.3,72.6,151.3,72.6,151.3c66.6-177.5-4-242.1-4-242.1c-62.5-46.4-121.4-18.3-121.4-18.3c-81,28.1-149,139.3-149,139.3
		c-40.3-82.7-88.8-117-88.8-117C400,143,337.5,211.6,337.5,211.6C248.7,308.4,276.1,458,276.1,458c-8.9,6.4-13.3,15.8-13.3,15.8
		c-84.7-28.2-135.2-10.1-135.2-10.1c-74.6,24.2-73.8,107.9-73.8,107.9c12.9,109.9,118.2,126.1,118.2,126.1
		c-20.2-46.4-14.1-115-14.1-115c-24.2,0-52.4,26.2-52.4,26.2c-10.1,8.1-6.1-4-6.1-4c46.4-78.7,123.1-50.4,123.1-50.4
		c20.2,10.1,0,24.2,0,24.2c-28.2-2-36.3,2-36.3,2c-6.1,46.4,12.1,104.9,12.1,104.9c54.5,169.4,209.8,207.8,209.8,207.8
		c187.6,56.5,361.1-76.7,361.1-76.7c149.3-108.9,175.6-227.3,175.6-227.3c-18.1-1.4-54.6-10.7-54.6-10.7c0-36.3,42.4-20.2,42.4-20.2
		c58.5,20.2,70.6,72.6,70.6,72.6c-10.1-10.1-34.3-26.2-34.3-26.2c-6.1,26.2-40.3,88.8-40.3,88.8c56.5,2,94.8-26.2,94.8-26.2
		C1077.8,637.2,1073.4,571.6,1073.4,571.6z M452.5,699.7c-8.1,18.2-20.2,6.1-20.2,6.1c-18.2-16.1-9.8-34.3-9.8-34.3
		c9.8-14.1,23.9,0,23.9,0C458.5,681.6,452.5,699.7,452.5,699.7z M700.6,693.9c-6.1-3.8,0-26.4,0-26.4c4-20.2,16.1-14.1,16.1-14.1
		c8.1,2,14.1,8.1,14.1,8.1c8.1,10.1-14.1,28.8-14.1,28.8C706.7,700.9,700.6,693.9,700.6,693.9z"/>
	<path class="st0" d="M434.3,675.5c0,0-6.1-2-4,6.1c0,0,8.1,22.2,14.1,14.1C444.4,695.7,450.5,681.6,434.3,675.5z"/>
	<path class="st1" d="M715.3,666.3c0,0-4.6-2.8-6.6,3.2c0,0-6.1,16.1,0,14.1C708.7,683.6,725.9,671.1,715.3,666.3z"/>
</g>
<g id="light_red">
	<path class="st1" d="M145.9,477.8c0,0-36.3,14.1-24.2,36.3c0,0,32.3,40.3,108.9,12.1c0,0,32.3-18.2,6.1-38.3
		C236.6,487.9,204.4,461.7,145.9,477.8z"/>
	<path class="st1" d="M429.9,634.7c0,0-11.7,0.5-13.7,12.6c0,0,0.7,14.1,21.5,14.1c0,0,16.4-0.5,18.6-13.4
		C456.3,648,453.7,634.2,429.9,634.7z"/>
	<path class="st1" d="M387.1,181.1c0,0,67.4,6.3,105.7,105.2c0,0,36.8,34.4,56.7,97.9c0,0,3.8-35.4,11.9-67.6
		C561.4,316.5,487.2,148.5,387.1,181.1z"/>
	<path class="st1" d="M661.2,204.4c0,0,113-26.7,118.6,89.1c0,0,80.2,37.1,56,144c0,0,57.6-129.6,11.6-219.1
		c0,0-20.6-58.3-111.9-49.7C735.5,168.7,684.3,181,661.2,204.4z"/>
	<path class="st1" d="M1030.5,484.8c0,0-41.6-37.6-129.3-21.3c0,0-37.5,3.9-79.7,26.3c0,0-28.1,70.7-60.4,107.1
		c0,0,46.4,6.1,26.2,58.5c0,0-20.7,38.4-64.8,53.5c0,0,38.6-27.3,46.7-65.6c0,0,3.1-28.2-27.7-24.2c0,0-32.8-2.1-71.1,52.4
		c0,0-75.2-17.8-127.4-5.9c0,0,103.1,16,111.2,88.6c0,0-1.1,62.6-67.1,108c0,0-58.1,39-102.4,45.2c0,0,142.6,19.5,293.2-97.1
		c0,0,126.6-78.9,166.9-220.8c0,0-44.5-8.7-54.6-10.7c0,0-0.7-31.5,37-21.8c0,0,51.9,13.2,75,71c0,0-27.3-20.9-33.3-22.9
		c0,0-22.2,58.5-42.4,90.8c0,0,104.5,3.1,143-81.2C1069.6,614.5,1094.1,528.1,1030.5,484.8z M716.7,690.2
		c-10.1,10.7-16.1,3.7-16.1,3.7c-6.1-3.8,0-26.4,0-26.4c4-20.2,16.1-14.1,16.1-14.1c8.1,2,14.1,8.1,14.1,8.1
		C738.9,671.5,716.7,690.2,716.7,690.2z"/>
</g>
<g id="highlight_red">
	<path class="st2" d="M799.4,195.4c0,0-25.8,9.9-28,35.2c0,0-2.2,35.4,36.1,37.4c0,0,28.2-4,28.2-38.3
		C835.8,229.7,835.8,191.4,799.4,195.4z"/>
	<path class="st2" d="M747,631.2c0,0-12.6-0.6-14.4,12.8c0,0-1.8,14.7,14.4,16c0,0,12.4,0,14.3-14.4
		C761.3,645.6,761.1,631.2,747,631.2z"/>
	<path class="st2" d="M623.9,687.6c0,0-52-0.7-60.3,29.9c0,0-3.2,30.6,64.9,32.6c0,0,57.2,0,59.6-31.3
		C688.1,718.9,692.5,691.7,623.9,687.6z"/>
	<path class="st2" d="M958.8,477.8c0,0-58.5-2-62.5,30.3c0,0-1.4,29.6,64.9,29.9c0,0,63.7,2,67-30.1
		C1028.2,507.9,1029.4,479.9,958.8,477.8z"/>
</g>
<g id="white">
	<path class="st3" d="M467.8,934.2c4.5,0.3,10.9,0.6,16.1,0.4c3.1-0.2,5.6,2.5,5.2,5.6c-1.3,9.6-5.6,27.7-19.1,38.1
		c-3,2.3-7.4,0.2-7.4-3.6v-35.6C462.6,936.2,465,934,467.8,934.2z"/>
	<path class="st3" d="M621,920.8c4.1-1.1,11.7-3.1,19.1-5.4c3-0.9,6,1.4,5.9,4.5c-0.6,14.1-3.4,46.5-16,48c0,0-15.4,1.9-12.4-43.1
		C617.8,923,619.1,921.3,621,920.8z"/>
	<path class="st3" d="M480.8,583c-6.9,7.5-20.6,23.1-25.5,31.6c-0.9,1.6-2.8,2.4-4.5,1.9c-20.6-6.2-132.8-47.2-127.4-201.1
		c0-0.1,0-0.2,0-0.3c0.4-4.2,11.4-103.5,80.6-122.1c0,0,76.7-21,127.1,91.9c0,0.1,0.1,0.1,0.1,0.2c1,2.6,19.2,50.8,18.5,94.5
		c0,1.9-1.5,3.2-3.4,3.4c-1.1,0.1-1.9,1.2-1,4.9c0,0,6,26.1-24,32.2c-0.1,0-0.3,0.1-0.4,0.1c-2.7,0.3-30,2.4-32.1-28.1
		c0-0.1,0-0.3,0-0.4c0.1-2.2,1.2-20.1,20.3-26.1c3.7-1.2,3.6-6.5-0.2-7.5c-12.8-3.2-32.9-4-54.4,11.6c0,0-34,25.5-18.1,68.1
		c0,0.1,0.1,0.2,0.2,0.4c1.1,2.4,13.9,27.6,42.7,38.6C481.8,577.8,482.6,581,480.8,583z"/>
	<path class="st3" d="M595.7,496c0,0-8.1-115,94.8-181.6c0,0,74.6-38.3,113,44.4c0,0,36,86.1-21.4,179.2c0,0-43.2,64.9-91.6,70.9
		c0,0-22.8-28.3-36.6-37.3c0,0,48.9-5.5,45.4-57.5c-0.2-3.4-4.6-4.7-6.7-2c-5.6,7-15.6,15-30.3,10.1c0,0-24.2-10.1-18.2-34.3
		c0,0,2.8-11.4,14.5-17.4c2.5-1.3,2-4.9-0.7-5.6C644.5,461.8,617.5,461.2,595.7,496z"/>
	<path class="st4" d="M463.6,603c0,0-6.1,8.8-9.6,14.4c0,0-110.8-20.9-130.8-163c0,0-15.9-87.2,49.7-148.9c0,0,39.5-32.5,85.8-4.8
		c0,0-99,37.8-72.7,175C385.9,475.8,400,550.5,463.6,603z"/>
	<path class="st4" d="M771.4,318.2c0,0-86.3,21.2-112.8,146.9c0,0-36.6-11.5-62.9,30.9c0,0-10.6-85.3,64.3-159.7
		C660,336.3,709.1,279.6,771.4,318.2z"/>
	<path class="st3" d="M301.5,419.8c0,0-20-3.5-29.3-9c0,0-10.1-118.9,61.9-195.4c0,0,47.9,6.4,74,53.7
		C408.1,269.1,305.9,297.2,301.5,419.8z"/>
	<path class="st3" d="M1060,516.6c0,0-95.2,50-36.7,150.8c0,0,39.7-15.7,50.1-75.4C1073.4,592.1,1078.6,545.4,1060,516.6z"/>
	<path class="st3" d="M991.1,490c0,0-22.6,3-19.3,26.7c0,0,3.2,15.7,27.4,15.7c0,0,22.2-2,22.2-24.2
		C1021.3,508.1,1019.3,487.9,991.1,490z"/>
</g>
<g id="yellow">
	<path class="st5" d="M1068.2,535.1c0,0-77.3,34.2-31.8,123.7C1036.4,658.7,1095,624.6,1068.2,535.1z"/>
	<path class="st5" d="M271.7,391.9c0,0,16.5,7.3,31.1,8.3c0,0,8.8-79.9,80.3-120.2c0,0-14.4-38.5-66.3-43.4
		C316.8,236.7,271.9,293.3,271.7,391.9z"/>
	<path class="st0" d="M136.5,845.2c16.4-5.9,81.7-28.6,119.9-30.8c0,0,31.1,42.1,93.1,82.1c0,0-101.3,13.6-131.1,53.6
		c0,0-55-37.3-84-99.6C133.4,848.4,134.4,846,136.5,845.2z"/>
	<path class="st1" d="M142.5,866c0,0,18,31.3,34.7,46.6c0,0,51.7-38.1,127.3-49.2c0,0-27.4-23.5-36.6-35.8
		C267.9,827.7,195.8,840.3,142.5,866z"/>
	<path class="st5" d="M196.5,932.5c0,0,13.4,12.2,21.9,17.6c0,0,39.1-37.6,131.1-53.6l-24-17C325.5,879.5,247.5,887.5,196.5,932.5z"
		/>
	<path class="st5" d="M517.1,583.8c18.1-2.4,63.8-6.7,109.5,2c1.6,0.3,2.7-1.6,1.4-2.6c-12.1-9.9-51.1-34.5-111.9-2.2
		C514.5,581.8,515.3,584,517.1,583.8z"/>
	<path class="st5" d="M497,621.2c17.9-4.3,73.6-15.2,149.5-5.7c1.7,0.2,2.7-1.7,1.3-2.6c-11.2-7.3-41.5-23.5-84.2-20.8
		c0,0-40.1,3.1-68.4,26.7C494.1,619.8,495.3,621.6,497,621.2z"/>
	<path class="st5" d="M484.7,647.2c0.4,5.3,2.1,12,7.9,13.2c0,0,85-35.3,171.2,0c0,0,2.3-5.2,1.3-13.4c-0.5-3.9-3-7.3-6.5-8.9
		c-17.1-8-75.5-29.2-168.1,0.8C486.8,640.1,484.4,643.5,484.7,647.2z"/>
</g>
</svg>
